<?xml version="1.0" encoding="utf-8" standalone="no"?>
<!DOCTYPE svg PUBLIC "-//W3C//DTD SVG 1.1//EN"
  "http://www.w3.org/Graphics/SVG/1.1/DTD/svg11.dtd">
<svg height="288pt" version="1.1" viewBox="0 0 432 288" width="432pt" xmlns="http://www.w3.org/2000/svg" xmlns:xlink="http://www.w3.org/1999/xlink">
 <metadata>
  <rdf:RDF xmlns:cc="http://creativecommons.org/ns#" xmlns:dc="http://purl.org/dc/elements/1.1/" xmlns:rdf="http://www.w3.org/1999/02/22-rdf-syntax-ns#">
   <cc:Work>
    <dc:type rdf:resource="http://purl.org/dc/dcmitype/StillImage"/>
    <dc:date>2021-09-14T19:21:31.398440</dc:date>
    <dc:format>image/svg+xml</dc:format>
    <dc:creator>
     <cc:Agent>
      <dc:title>Matplotlib v3.4.2, https://matplotlib.org/</dc:title>
     </cc:Agent>
    </dc:creator>
   </cc:Work>
  </rdf:RDF>
 </metadata>
 <defs>
  <style type="text/css">*{stroke-linecap:butt;stroke-linejoin:round;}</style>
 </defs>
 <g id="figure_1">
  <g id="patch_1">
   <path d="M 0 288 
L 432 288 
L 432 0 
L 0 0 
z
" style="fill:#ffffff;"/>
  </g>
  <g id="axes_1">
   <g id="patch_2">
    <path d="M 54 252 
L 388.8 252 
L 388.8 34.56 
L 54 34.56 
z
" style="fill:#ffffff;"/>
   </g>
   <g id="matplotlib.axis_1">
    <g id="xtick_1">
     <g id="line2d_1">
      <defs>
       <path d="M 0 0 
L 0 3.5 
" id="m27c2a0a27c" style="stroke:#000000;stroke-width:0.8;"/>
      </defs>
      <g>
       <use style="stroke:#000000;stroke-width:0.8;" x="54" xlink:href="#m27c2a0a27c" y="252"/>
      </g>
     </g>
     <g id="text_1">
      <!-- $\mathdefault{−15}$ -->
      <g transform="translate(41.747394 268.685876)scale(0.14 -0.14)">
       <defs>
        <path d="M 4218 1472 
C 4326 1472 4442 1472 4442 1600 
C 4442 1728 4326 1728 4218 1728 
L 755 1728 
C 646 1728 531 1728 531 1600 
C 531 1472 646 1472 755 1472 
L 4218 1472 
z
" id="CMSY10-0" transform="scale(0.015625)"/>
        <path d="M 1702 4058 
C 1702 4192 1696 4192 1606 4192 
C 1357 3916 979 3827 621 3827 
C 602 3827 570 3827 563 3808 
C 557 3795 557 3782 557 3648 
C 755 3648 1088 3686 1344 3839 
L 1344 461 
C 1344 236 1331 160 781 160 
L 589 160 
L 589 0 
C 896 0 1216 0 1523 0 
C 1830 0 2150 0 2458 0 
L 2458 160 
L 2266 160 
C 1715 160 1702 230 1702 458 
L 1702 4058 
z
" id="CMR17-31" transform="scale(0.015625)"/>
        <path d="M 730 3692 
C 794 3666 1056 3584 1325 3584 
C 1920 3584 2246 3911 2432 4100 
C 2432 4157 2432 4192 2394 4192 
C 2387 4192 2374 4192 2323 4163 
C 2099 4058 1837 3973 1517 3973 
C 1325 3973 1037 3999 723 4139 
C 653 4171 640 4171 634 4171 
C 602 4171 595 4164 595 4037 
L 595 2203 
C 595 2089 595 2057 659 2057 
C 691 2057 704 2070 736 2114 
C 941 2401 1222 2522 1542 2522 
C 1766 2522 2246 2382 2246 1289 
C 2246 1085 2246 715 2054 421 
C 1894 159 1645 25 1370 25 
C 947 25 518 320 403 814 
C 429 807 480 795 506 795 
C 589 795 749 840 749 1038 
C 749 1210 627 1280 506 1280 
C 358 1280 262 1190 262 1011 
C 262 454 704 -128 1382 -128 
C 2042 -128 2669 440 2669 1264 
C 2669 2030 2170 2624 1549 2624 
C 1222 2624 947 2503 730 2274 
L 730 3692 
z
" id="CMR17-35" transform="scale(0.015625)"/>
       </defs>
       <use transform="scale(0.996264)" xlink:href="#CMSY10-0"/>
       <use transform="translate(77.487468 0)scale(0.996264)" xlink:href="#CMR17-31"/>
       <use transform="translate(123.177945 0)scale(0.996264)" xlink:href="#CMR17-35"/>
      </g>
     </g>
    </g>
    <g id="xtick_2">
     <g id="line2d_2">
      <g>
       <use style="stroke:#000000;stroke-width:0.8;" x="137.7" xlink:href="#m27c2a0a27c" y="252"/>
      </g>
     </g>
     <g id="text_2">
      <!-- $\mathdefault{−10}$ -->
      <g transform="translate(125.447394 268.685876)scale(0.14 -0.14)">
       <defs>
        <path d="M 2688 2025 
C 2688 2416 2682 3080 2413 3591 
C 2176 4039 1798 4198 1466 4198 
C 1158 4198 768 4058 525 3597 
C 269 3118 243 2524 243 2025 
C 243 1661 250 1106 448 619 
C 723 -39 1216 -128 1466 -128 
C 1760 -128 2208 -7 2470 600 
C 2662 1042 2688 1559 2688 2025 
z
M 1466 -26 
C 1056 -26 813 325 723 812 
C 653 1188 653 1738 653 2096 
C 653 2588 653 2997 736 3387 
C 858 3929 1216 4096 1466 4096 
C 1728 4096 2067 3923 2189 3400 
C 2272 3036 2278 2607 2278 2096 
C 2278 1680 2278 1169 2202 792 
C 2067 95 1690 -26 1466 -26 
z
" id="CMR17-30" transform="scale(0.015625)"/>
       </defs>
       <use transform="scale(0.996264)" xlink:href="#CMSY10-0"/>
       <use transform="translate(77.487468 0)scale(0.996264)" xlink:href="#CMR17-31"/>
       <use transform="translate(123.177945 0)scale(0.996264)" xlink:href="#CMR17-30"/>
      </g>
     </g>
    </g>
    <g id="xtick_3">
     <g id="line2d_3">
      <g>
       <use style="stroke:#000000;stroke-width:0.8;" x="221.4" xlink:href="#m27c2a0a27c" y="252"/>
      </g>
     </g>
     <g id="text_3">
      <!-- $\mathdefault{−5}$ -->
      <g transform="translate(212.561638 268.685876)scale(0.14 -0.14)">
       <use transform="scale(0.996264)" xlink:href="#CMSY10-0"/>
       <use transform="translate(77.487468 0)scale(0.996264)" xlink:href="#CMR17-35"/>
      </g>
     </g>
    </g>
    <g id="xtick_4">
     <g id="line2d_4">
      <g>
       <use style="stroke:#000000;stroke-width:0.8;" x="305.1" xlink:href="#m27c2a0a27c" y="252"/>
      </g>
     </g>
     <g id="text_4">
      <!-- $\mathdefault{0}$ -->
      <g transform="translate(301.685756 268.685876)scale(0.14 -0.14)">
       <use transform="scale(0.996264)" xlink:href="#CMR17-30"/>
      </g>
     </g>
    </g>
    <g id="xtick_5">
     <g id="line2d_5">
      <g>
       <use style="stroke:#000000;stroke-width:0.8;" x="388.8" xlink:href="#m27c2a0a27c" y="252"/>
      </g>
     </g>
     <g id="text_5">
      <!-- $\mathdefault{5}$ -->
      <g transform="translate(385.385756 268.685876)scale(0.14 -0.14)">
       <use transform="scale(0.996264)" xlink:href="#CMR17-35"/>
      </g>
     </g>
    </g>
    <g id="text_6">
     <!-- $x$ -->
     <g transform="translate(217.519616 285.083781)scale(0.14 -0.14)">
      <defs>
       <path d="M 3034 2606 
C 2829 2567 2752 2414 2752 2293 
C 2752 2139 2874 2088 2963 2088 
C 3155 2088 3290 2254 3290 2427 
C 3290 2695 2982 2816 2714 2816 
C 2323 2816 2106 2433 2048 2312 
C 1901 2816 1504 2816 1389 2816 
C 736 2816 390 1980 390 1839 
C 390 1814 416 1782 461 1782 
C 512 1782 525 1820 538 1846 
C 755 2555 1184 2689 1370 2689 
C 1658 2689 1715 2420 1715 2267 
C 1715 2127 1677 1980 1600 1673 
L 1382 798 
C 1286 415 1101 64 762 64 
C 730 64 570 64 435 147 
C 666 192 717 383 717 460 
C 717 588 621 664 499 664 
C 346 664 179 530 179 326 
C 179 57 480 -64 755 -64 
C 1062 -64 1280 179 1414 441 
C 1517 64 1837 -64 2074 -64 
C 2726 -64 3072 773 3072 913 
C 3072 945 3046 971 3008 971 
C 2950 971 2944 939 2925 888 
C 2752 326 2381 64 2093 64 
C 1869 64 1747 230 1747 492 
C 1747 632 1773 734 1875 1156 
L 2099 2024 
C 2195 2408 2413 2689 2707 2689 
C 2720 2689 2899 2689 3034 2606 
z
" id="CMMI12-78" transform="scale(0.015625)"/>
      </defs>
      <use transform="scale(0.996264)" xlink:href="#CMMI12-78"/>
     </g>
    </g>
   </g>
   <g id="matplotlib.axis_2">
    <g id="ytick_1">
     <g id="line2d_6">
      <defs>
       <path d="M 0 0 
L -3.5 0 
" id="m846388d012" style="stroke:#000000;stroke-width:0.8;"/>
      </defs>
      <g>
       <use style="stroke:#000000;stroke-width:0.8;" x="54" xlink:href="#m846388d012" y="233.88"/>
      </g>
     </g>
     <g id="text_7">
      <!-- $\mathdefault{−1.0}$ -->
      <g transform="translate(18.701183 238.722938)scale(0.14 -0.14)">
       <defs>
        <path d="M 1178 307 
C 1178 492 1024 619 870 619 
C 685 619 557 466 557 313 
C 557 128 710 0 864 0 
C 1050 0 1178 153 1178 307 
z
" id="CMMI12-3a" transform="scale(0.015625)"/>
       </defs>
       <use transform="scale(0.996264)" xlink:href="#CMSY10-0"/>
       <use transform="translate(77.487468 0)scale(0.996264)" xlink:href="#CMR17-31"/>
       <use transform="translate(123.177945 0)scale(0.996264)" xlink:href="#CMMI12-3a"/>
       <use transform="translate(150.275122 0)scale(0.996264)" xlink:href="#CMR17-30"/>
      </g>
     </g>
    </g>
    <g id="ytick_2">
     <g id="line2d_7">
      <g>
       <use style="stroke:#000000;stroke-width:0.8;" x="54" xlink:href="#m846388d012" y="188.58"/>
      </g>
     </g>
     <g id="text_8">
      <!-- $\mathdefault{−0.5}$ -->
      <g transform="translate(18.701183 193.422938)scale(0.14 -0.14)">
       <use transform="scale(0.996264)" xlink:href="#CMSY10-0"/>
       <use transform="translate(77.487468 0)scale(0.996264)" xlink:href="#CMR17-30"/>
       <use transform="translate(123.177945 0)scale(0.996264)" xlink:href="#CMMI12-3a"/>
       <use transform="translate(150.275122 0)scale(0.996264)" xlink:href="#CMR17-35"/>
      </g>
     </g>
    </g>
    <g id="ytick_3">
     <g id="line2d_8">
      <g>
       <use style="stroke:#000000;stroke-width:0.8;" x="54" xlink:href="#m846388d012" y="143.28"/>
      </g>
     </g>
     <g id="text_9">
      <!-- $\mathdefault{0.0}$ -->
      <g transform="translate(29.549418 148.122938)scale(0.14 -0.14)">
       <use transform="scale(0.996264)" xlink:href="#CMR17-30"/>
       <use transform="translate(45.690477 0)scale(0.996264)" xlink:href="#CMMI12-3a"/>
       <use transform="translate(72.787654 0)scale(0.996264)" xlink:href="#CMR17-30"/>
      </g>
     </g>
    </g>
    <g id="ytick_4">
     <g id="line2d_9">
      <g>
       <use style="stroke:#000000;stroke-width:0.8;" x="54" xlink:href="#m846388d012" y="97.98"/>
      </g>
     </g>
     <g id="text_10">
      <!-- $\mathdefault{0.5}$ -->
      <g transform="translate(29.549418 102.822938)scale(0.14 -0.14)">
       <use transform="scale(0.996264)" xlink:href="#CMR17-30"/>
       <use transform="translate(45.690477 0)scale(0.996264)" xlink:href="#CMMI12-3a"/>
       <use transform="translate(72.787654 0)scale(0.996264)" xlink:href="#CMR17-35"/>
      </g>
     </g>
    </g>
    <g id="ytick_5">
     <g id="line2d_10">
      <g>
       <use style="stroke:#000000;stroke-width:0.8;" x="54" xlink:href="#m846388d012" y="52.68"/>
      </g>
     </g>
     <g id="text_11">
      <!-- $\mathdefault{1.0}$ -->
      <g transform="translate(29.549418 57.522938)scale(0.14 -0.14)">
       <use transform="scale(0.996264)" xlink:href="#CMR17-31"/>
       <use transform="translate(45.690477 0)scale(0.996264)" xlink:href="#CMMI12-3a"/>
       <use transform="translate(72.787654 0)scale(0.996264)" xlink:href="#CMR17-30"/>
      </g>
     </g>
    </g>
   </g>
   <g id="line2d_11">
    <path clip-path="url(#pfdf61b9e3b)" d="M 54 118.602897 
L 57.6 198.380817 
L 58.581818 215.620778 
L 59.563636 229.150836 
L 60.218182 235.77999 
L 60.872727 240.329351 
L 61.2 241.794038 
L 61.527273 242.708776 
L 61.854545 243.069954 
L 62.181818 242.877052 
L 62.509091 242.132629 
L 62.836364 240.84229 
L 63.490909 236.66122 
L 64.145455 230.437419 
L 64.8 222.318529 
L 65.781818 207.008051 
L 67.090909 182.001232 
L 69.381818 132.015179 
L 71.345455 91.359005 
L 72.654545 69.471698 
L 73.636364 57.130493 
L 74.290909 51.168395 
L 74.945455 47.158666 
L 75.272727 45.910445 
L 75.6 45.17436 
L 75.927273 44.952812 
L 76.254545 45.245494 
L 76.581818 46.04941 
L 76.909091 47.358908 
L 77.563636 51.459025 
L 78.218182 57.449494 
L 79.2 69.675321 
L 80.181818 85.244779 
L 81.490909 109.901573 
L 86.072727 201.84856 
L 87.054545 216.776091 
L 88.036364 228.363556 
L 88.690909 233.986647 
L 89.345455 237.805678 
L 89.672727 239.017153 
L 90 239.756434 
L 90.327273 240.021324 
L 90.654545 239.811966 
L 90.981818 239.130829 
L 91.309091 237.98268 
L 91.963636 234.315673 
L 92.618182 228.893381 
L 93.272727 221.831535 
L 94.254545 208.492423 
L 95.563636 186.5546 
L 97.527273 148.347731 
L 100.145455 97.765392 
L 101.454545 76.872663 
L 102.436364 64.434041 
L 103.418182 55.319465 
L 104.072727 51.265979 
L 104.727273 48.909668 
L 105.054545 48.379208 
L 105.381818 48.282557 
L 105.709091 48.61874 
L 106.036364 49.384809 
L 106.690909 52.185132 
L 107.345455 56.621759 
L 108 62.603963 
L 108.981818 74.211057 
L 109.963636 88.527871 
L 111.272727 110.786474 
L 116.181818 199.202941 
L 117.163636 212.728786 
L 118.145455 223.518095 
L 118.8 228.995847 
L 119.454545 233.000625 
L 120.109091 235.474956 
L 120.436364 236.12748 
L 120.763636 236.387857 
L 121.090909 236.256379 
L 121.418182 235.73499 
L 121.745455 234.827261 
L 122.4 231.875056 
L 123.054545 227.459777 
L 123.709091 221.665156 
L 124.690909 210.623733 
L 126 192.221312 
L 127.636364 165.107141 
L 131.563636 97.655827 
L 132.872727 79.424321 
L 133.854545 68.403534 
L 134.836364 60.065047 
L 135.490909 56.128999 
L 136.145455 53.553737 
L 136.472727 52.786385 
L 136.8 52.368486 
L 137.127273 52.300293 
L 137.454545 52.580711 
L 137.781818 53.207308 
L 138.436364 55.48277 
L 139.090909 59.081421 
L 139.745455 63.938412 
L 140.727273 73.39677 
L 141.709091 85.145953 
L 143.018182 103.640497 
L 144.981818 135.081842 
L 147.927273 182.221393 
L 149.236364 200.073497 
L 150.218182 211.307634 
L 151.2 220.318592 
L 151.854545 224.960988 
L 152.509091 228.444212 
L 153.163636 230.729619 
L 153.490909 231.415763 
L 153.818182 231.795753 
L 154.145455 231.869595 
L 154.472727 231.638356 
L 154.8 231.104155 
L 155.454545 229.140478 
L 156.109091 226.015782 
L 156.763636 221.782681 
L 157.745455 213.505037 
L 158.727273 203.168054 
L 160.036364 186.771639 
L 162 158.479986 
L 165.6 105.512579 
L 166.909091 89.130875 
L 168.218182 75.611698 
L 169.2 67.730067 
L 169.854545 63.662998 
L 170.509091 60.595564 
L 171.163636 58.555847 
L 171.490909 57.926581 
L 171.818182 57.558851 
L 172.145455 57.452498 
L 172.472727 57.606565 
L 172.8 58.019305 
L 173.127273 58.688192 
L 173.781818 60.780522 
L 174.436364 63.848461 
L 175.090909 67.845685 
L 176.072727 75.457109 
L 177.054545 84.798578 
L 178.363636 99.470907 
L 180.327273 124.721722 
L 184.581818 180.916625 
L 185.890909 195.488046 
L 187.2 207.648457 
L 188.181818 214.898962 
L 189.163636 220.37901 
L 189.818182 222.996971 
L 190.472727 224.763936 
L 191.127273 225.670985 
L 191.454545 225.801784 
L 191.781818 225.718434 
L 192.109091 225.422381 
L 192.436364 224.915621 
L 193.090909 223.280612 
L 193.745455 220.83981 
L 194.4 217.627487 
L 195.381818 211.455279 
L 196.363636 203.810489 
L 197.672727 191.670941 
L 199.309091 174.123264 
L 202.254545 139.36817 
L 204.545455 113.167595 
L 206.181818 96.693857 
L 207.490909 85.542326 
L 208.472727 78.597984 
L 209.454545 72.999325 
L 210.436364 68.829654 
L 211.090909 66.870867 
L 211.745455 65.578939 
L 212.4 64.955718 
L 212.727273 64.893841 
L 213.054545 64.997185 
L 213.381818 65.264363 
L 214.036364 66.282974 
L 214.690909 67.931929 
L 215.345455 70.188481 
L 216.327273 74.651404 
L 217.309091 80.308514 
L 218.618182 89.483821 
L 220.254545 103.081793 
L 222.218182 121.524897 
L 227.454545 172.14303 
L 229.090909 185.672404 
L 230.4 195.005656 
L 231.709091 202.781465 
L 232.690909 207.494716 
L 233.672727 211.196814 
L 234.654545 213.859688 
L 235.309091 215.051515 
L 235.963636 215.777143 
L 236.618182 216.040587 
L 236.945455 216.001068 
L 237.6 215.585288 
L 238.254545 214.730161 
L 238.909091 213.449513 
L 239.563636 211.759576 
L 240.545455 208.49814 
L 241.527273 204.428206 
L 242.836364 197.881436 
L 244.472727 188.18946 
L 246.436364 174.919064 
L 249.709091 150.819423 
L 252.981818 127.158324 
L 254.945455 114.377042 
L 256.581818 104.971752 
L 258.218182 96.917618 
L 259.527273 91.543421 
L 260.836364 87.168767 
L 261.818182 84.556784 
L 262.8 82.519271 
L 263.781818 81.050071 
L 264.436364 80.380562 
L 265.090909 79.953378 
L 265.745455 79.762552 
L 266.4 79.8012 
L 267.054545 80.061596 
L 267.709091 80.53526 
L 268.690909 81.625442 
L 269.672727 83.141415 
L 270.654545 85.047462 
L 271.963636 88.130591 
L 273.6 92.725145 
L 275.563636 99.083201 
L 278.181818 108.485125 
L 285.054545 133.728219 
L 287.345455 141.170871 
L 289.309091 146.870741 
L 291.272727 151.861054 
L 292.909091 155.446832 
L 294.545455 158.503234 
L 296.181818 161.035874 
L 297.490909 162.695716 
L 298.8 164.043529 
L 300.109091 165.095062 
L 301.418182 165.868474 
L 302.727273 166.383738 
L 304.036364 166.662105 
L 305.345455 166.725605 
L 306.654545 166.596597 
L 308.290909 166.198561 
L 309.927273 165.577142 
L 311.890909 164.593809 
L 314.181818 163.201279 
L 317.454545 160.927364 
L 327.272727 153.913859 
L 330.545455 151.90877 
L 333.818182 150.160964 
L 337.090909 148.678794 
L 340.363636 147.451721 
L 343.636364 146.457357 
L 347.236364 145.598056 
L 351.163636 144.894115 
L 355.745455 144.314629 
L 360.981818 143.885118 
L 367.527273 143.577425 
L 376.690909 143.382637 
L 388.8 143.302416 
L 388.8 143.302416 
" style="fill:none;stroke:#ff0000;stroke-linecap:square;stroke-width:1.5;"/>
   </g>
   <g id="line2d_12">
    <path clip-path="url(#pfdf61b9e3b)" d="M 54 45.755464 
L 54.327273 44.200984 
L 54.654545 43.215192 
L 54.981818 42.802241 
L 55.309091 42.962991 
L 55.636364 43.695027 
L 55.963636 44.992688 
L 56.618182 49.246311 
L 57.272727 55.615944 
L 57.927273 63.946685 
L 58.909091 79.676425 
L 60.218182 105.362896 
L 62.836364 163.822831 
L 64.472727 197.721756 
L 65.454545 214.667652 
L 66.436364 228.050846 
L 67.090909 234.677164 
L 67.745455 239.304932 
L 68.4 241.845026 
L 68.727273 242.316854 
L 69.054545 242.25414 
L 69.381818 241.6587 
L 69.709091 240.535212 
L 70.363636 236.73686 
L 71.018182 230.951832 
L 71.672727 223.314537 
L 72.654545 208.772942 
L 73.963636 184.787111 
L 75.927273 143.269541 
L 78.218182 95.814855 
L 79.527273 73.529288 
L 80.509091 60.55495 
L 81.163636 54.017258 
L 81.818182 49.318429 
L 82.472727 46.543352 
L 82.8 45.892875 
L 83.127273 45.737087 
L 83.454545 46.075321 
L 83.781818 46.904412 
L 84.109091 48.218723 
L 84.763636 52.268384 
L 85.418182 58.131751 
L 86.4 70.038272 
L 87.381818 85.16381 
L 88.690909 109.109839 
L 93.6 204.479057 
L 94.581818 218.45941 
L 95.563636 229.142144 
L 96.218182 234.21432 
L 96.872727 237.541369 
L 97.2 238.532798 
L 97.527273 239.07105 
L 97.854545 239.154999 
L 98.181818 238.785679 
L 98.509091 237.966264 
L 99.163636 235.000367 
L 99.818182 230.324194 
L 100.472727 224.036062 
L 101.454545 211.867692 
L 102.436364 196.904056 
L 104.072727 167.547076 
L 108 93.70151 
L 109.309091 74.232508 
L 110.290909 62.866763 
L 110.945455 57.078339 
L 111.6 52.833054 
L 112.254545 50.195427 
L 112.581818 49.491732 
L 112.909091 49.200993 
L 113.236364 49.323083 
L 113.563636 49.856063 
L 113.890909 50.796203 
L 114.545455 53.874257 
L 115.2 58.492827 
L 115.854545 64.561414 
L 116.836364 76.12622 
L 118.145455 95.375133 
L 119.781818 123.629639 
L 123.381818 187.733083 
L 124.690909 206.87059 
L 125.672727 218.463568 
L 126.654545 227.237611 
L 127.309091 231.373004 
L 127.963636 234.067377 
L 128.290909 234.862939 
L 128.618182 235.287778 
L 128.945455 235.341551 
L 129.272727 235.025416 
L 129.6 234.342016 
L 130.254545 231.891274 
L 130.909091 228.039185 
L 131.563636 222.857397 
L 132.545455 212.797827 
L 133.527273 200.344219 
L 134.836364 180.826982 
L 137.127273 142.276238 
L 139.418182 104.415723 
L 140.727273 85.785862 
L 141.709091 74.104758 
L 142.690909 64.802426 
L 143.345455 60.064932 
L 144 56.571869 
L 144.654545 54.364546 
L 144.981818 53.750643 
L 145.309091 53.464869 
L 145.636364 53.506927 
L 145.963636 53.875325 
L 146.290909 54.567384 
L 146.945455 56.905981 
L 147.6 60.478476 
L 148.254545 65.223351 
L 149.236364 74.365025 
L 150.218182 85.644075 
L 151.527273 103.33576 
L 153.490909 133.408309 
L 156.436364 178.882343 
L 157.745455 196.410616 
L 159.054545 210.950505 
L 160.036364 219.454132 
L 160.690909 223.84828 
L 161.345455 227.163564 
L 162 229.36621 
L 162.327273 230.043864 
L 162.654545 230.43753 
L 162.981818 230.547225 
L 163.309091 230.373897 
L 163.636364 229.919408 
L 163.963636 229.186525 
L 164.618182 226.901052 
L 165.272727 223.556946 
L 165.927273 219.206737 
L 166.909091 210.939533 
L 167.890909 200.820568 
L 169.2 184.990737 
L 171.163636 157.960867 
L 174.763636 107.494776 
L 176.4 88.165671 
L 177.709091 75.702543 
L 178.690909 68.461077 
L 179.345455 64.730031 
L 180 61.91727 
L 180.654545 60.045448 
L 180.981818 59.466415 
L 181.309091 59.126059 
L 181.636364 59.024087 
L 181.963636 59.159531 
L 182.290909 59.530752 
L 182.945455 60.970696 
L 183.6 63.317923 
L 184.254545 66.536664 
L 185.236364 72.898231 
L 186.218182 80.931072 
L 187.527273 93.85089 
L 189.163636 112.681403 
L 192.436364 154.176815 
L 194.4 177.869745 
L 196.036364 195.012159 
L 197.345455 206.2938 
L 198.327273 213.070599 
L 199.309091 218.264129 
L 199.963636 220.803738 
L 200.618182 222.586129 
L 201.272727 223.603611 
L 201.6 223.825174 
L 201.927273 223.856036 
L 202.254545 223.697325 
L 202.581818 223.350619 
L 203.236364 222.10169 
L 203.890909 220.130375 
L 204.545455 217.464229 
L 205.527273 212.237136 
L 206.509091 205.659531 
L 207.818182 195.068215 
L 209.454545 179.518764 
L 211.745455 155.127352 
L 215.345455 116.520333 
L 216.981818 101.081205 
L 218.290909 90.411261 
L 219.6 81.559808 
L 220.581818 76.25181 
L 221.563636 72.160646 
L 222.218182 70.131324 
L 222.872727 68.669117 
L 223.527273 67.776223 
L 223.854545 67.542726 
L 224.181818 67.450357 
L 224.509091 67.498157 
L 224.836364 67.684904 
L 225.490909 68.469098 
L 226.145455 69.788242 
L 226.8 71.623937 
L 227.781818 75.297368 
L 228.763636 79.996423 
L 230.072727 87.681874 
L 231.381818 96.742158 
L 233.018182 109.551073 
L 235.636364 132.040034 
L 239.236364 162.968059 
L 241.2 178.013812 
L 242.836364 188.865642 
L 244.145455 196.2098 
L 245.454545 202.234661 
L 246.436364 205.838413 
L 247.418182 208.6354 
L 248.4 210.617961 
L 249.054545 211.488466 
L 249.709091 212.001927 
L 250.363636 212.163909 
L 251.018182 211.981816 
L 251.672727 211.464768 
L 252.327273 210.623478 
L 252.981818 209.470117 
L 253.963636 207.184797 
L 254.945455 204.27838 
L 256.254545 199.533289 
L 257.563636 193.924467 
L 259.2 185.927074 
L 261.490909 173.4266 
L 269.672727 127.277173 
L 271.636364 117.94817 
L 273.272727 111.087733 
L 274.909091 105.139033 
L 276.218182 101.064333 
L 277.527273 97.604805 
L 278.836364 94.754171 
L 280.145455 92.495499 
L 281.127273 91.174478 
L 282.109091 90.157724 
L 283.090909 89.428935 
L 284.072727 88.969919 
L 285.054545 88.760904 
L 286.036364 88.780834 
L 287.018182 89.007653 
L 288.327273 89.592432 
L 289.636364 90.449147 
L 291.272727 91.817248 
L 293.563636 94.093044 
L 298.8 99.453711 
L 300.436364 100.798638 
L 301.745455 101.655973 
L 303.054545 102.273921 
L 304.363636 102.612327 
L 305.345455 102.659043 
L 306.327273 102.510012 
L 307.309091 102.148777 
L 308.290909 101.558678 
L 309.272727 100.722657 
L 310.254545 99.623063 
L 311.236364 98.241435 
L 312.545455 95.92663 
L 313.854545 93.025581 
L 315.163636 89.482937 
L 316.472727 85.236661 
L 317.781818 80.21653 
L 319.090909 74.342441 
L 320.4 67.522503 
L 321.709091 59.650863 
L 323.018182 50.605225 
L 324.327273 40.244 
L 325.636364 28.403034 
L 326.945455 14.891805 
L 328.292875 -1 
L 328.292875 -1 
" style="fill:none;stroke:#0000ff;stroke-dasharray:5.55,2.4;stroke-dashoffset:0;stroke-width:1.5;"/>
   </g>
   <g id="line2d_13">
    <path clip-path="url(#pfdf61b9e3b)" d="M 54 143.28 
L 388.8 143.28 
L 388.8 143.28 
" style="fill:none;stroke:#000000;stroke-linecap:square;stroke-width:1.5;"/>
   </g>
   <g id="patch_3">
    <path d="M 54 252 
L 54 34.56 
" style="fill:none;stroke:#000000;stroke-linecap:square;stroke-linejoin:miter;stroke-width:0.8;"/>
   </g>
   <g id="patch_4">
    <path d="M 388.8 252 
L 388.8 34.56 
" style="fill:none;stroke:#000000;stroke-linecap:square;stroke-linejoin:miter;stroke-width:0.8;"/>
   </g>
   <g id="patch_5">
    <path d="M 54 252 
L 388.8 252 
" style="fill:none;stroke:#000000;stroke-linecap:square;stroke-linejoin:miter;stroke-width:0.8;"/>
   </g>
   <g id="patch_6">
    <path d="M 54 34.56 
L 388.8 34.56 
" style="fill:none;stroke:#000000;stroke-linecap:square;stroke-linejoin:miter;stroke-width:0.8;"/>
   </g>
   <g id="text_12">
    <!-- Derivatives of the Airy functions -->
    <g transform="translate(104.204739 28.56)scale(0.168 -0.168)">
     <defs>
      <path d="M 333 4352 
L 333 4186 
C 774 4186 845 4186 845 3900 
L 845 452 
C 845 166 774 166 333 166 
L 333 0 
L 2368 0 
C 3398 0 4224 943 4224 2141 
C 4224 3346 3411 4352 2368 4352 
L 333 4352 
z
M 1523 166 
C 1267 166 1254 197 1254 414 
L 1254 3938 
C 1254 4155 1267 4186 1523 4186 
L 2240 4186 
C 2771 4186 3750 3874 3750 2141 
C 3750 1242 3488 879 3366 707 
C 3213 510 2848 166 2240 166 
L 1523 166 
z
" id="CMR17-44" transform="scale(0.015625)"/>
      <path d="M 2438 1472 
C 2464 1498 2464 1511 2464 1576 
C 2464 2238 2118 2816 1389 2816 
C 710 2816 173 2169 173 1383 
C 173 551 781 -64 1459 -64 
C 2176 -64 2458 607 2458 740 
C 2458 784 2419 784 2406 784 
C 2362 784 2355 771 2330 696 
C 2189 265 1837 51 1504 51 
C 1229 51 954 203 781 480 
C 582 803 582 1176 582 1472 
L 2438 1472 
z
M 589 1568 
C 634 2505 1126 2714 1382 2714 
C 1818 2714 2112 2297 2118 1568 
L 589 1568 
z
" id="CMR17-65" transform="scale(0.015625)"/>
      <path d="M 960 1497 
C 960 2112 1222 2688 1702 2688 
C 1747 2688 1792 2682 1837 2662 
C 1837 2662 1696 2617 1696 2452 
C 1696 2298 1818 2234 1914 2234 
C 1990 2234 2131 2279 2131 2458 
C 2131 2663 1926 2790 1709 2790 
C 1222 2790 1011 2317 947 2093 
L 941 2093 
L 941 2790 
L 198 2720 
L 198 2554 
C 576 2554 634 2515 634 2208 
L 634 428 
C 634 184 608 153 198 153 
L 198 -13 
C 352 0 646 0 813 0 
C 998 0 1325 0 1498 -13 
L 1498 153 
C 1037 153 960 153 960 440 
L 960 1497 
z
" id="CMR17-72" transform="scale(0.015625)"/>
      <path d="M 992 3909 
C 992 4049 877 4170 730 4170 
C 589 4170 467 4056 467 3909 
C 467 3769 582 3648 730 3648 
C 870 3648 992 3763 992 3909 
z
M 243 2706 
L 243 2541 
C 602 2541 653 2502 653 2197 
L 653 427 
C 653 184 627 153 218 153 
L 218 -13 
C 371 0 646 0 806 0 
C 960 0 1222 0 1370 -13 
L 1370 153 
C 992 153 979 191 979 420 
L 979 2776 
L 243 2706 
z
" id="CMR17-69" transform="scale(0.015625)"/>
      <path d="M 2502 2163 
C 2560 2304 2662 2560 3034 2560 
L 3034 2726 
C 2912 2726 2752 2726 2630 2726 
C 2496 2726 2285 2726 2157 2732 
L 2157 2566 
C 2317 2553 2406 2477 2406 2311 
C 2406 2253 2406 2240 2368 2151 
L 1664 377 
L 902 2286 
C 864 2369 864 2381 864 2407 
C 864 2560 1075 2560 1171 2560 
L 1171 2732 
C 1018 2726 736 2726 576 2726 
C 403 2726 205 2726 64 2732 
L 64 2560 
C 307 2560 442 2560 518 2362 
L 1446 44 
C 1485 -51 1491 -64 1549 -64 
C 1606 -64 1613 -51 1651 44 
L 2502 2163 
z
" id="CMR17-76" transform="scale(0.015625)"/>
      <path d="M 2304 1653 
C 2304 2072 2304 2294 2035 2543 
C 1798 2752 1523 2816 1306 2816 
C 800 2816 435 2407 435 1971 
C 435 1728 627 1728 666 1728 
C 749 1728 896 1778 896 1954 
C 896 2112 774 2181 666 2181 
C 640 2181 608 2174 589 2168 
C 723 2592 1069 2714 1293 2714 
C 1613 2714 1965 2429 1965 1885 
L 1965 1600 
C 1587 1600 1133 1549 774 1357 
C 371 1133 256 813 256 570 
C 256 77 832 -64 1171 -64 
C 1523 -64 1850 139 1990 511 
C 2003 233 2182 -18 2464 -18 
C 2598 -18 2938 70 2938 567 
L 2938 920 
L 2822 920 
L 2822 562 
C 2822 178 2650 128 2566 128 
C 2304 128 2304 458 2304 738 
L 2304 1653 
z
M 1965 870 
C 1965 317 1568 38 1216 38 
C 896 38 646 275 646 570 
C 646 761 730 1100 1101 1305 
C 1408 1478 1760 1504 1965 1504 
L 1965 870 
z
" id="CMR17-61" transform="scale(0.015625)"/>
      <path d="M 966 2560 
L 1862 2560 
L 1862 2725 
L 966 2725 
L 966 3904 
L 851 3904 
C 838 3245 614 2668 70 2668 
L 70 2560 
L 627 2560 
L 627 771 
C 627 650 627 -64 1370 -64 
C 1747 -64 1965 306 1965 777 
L 1965 1140 
L 1850 1140 
L 1850 783 
C 1850 344 1677 51 1408 51 
C 1222 51 966 178 966 758 
L 966 2560 
z
" id="CMR17-74" transform="scale(0.015625)"/>
      <path d="M 1978 2697 
C 1978 2813 1971 2819 1933 2819 
C 1907 2819 1901 2813 1824 2717 
C 1805 2691 1747 2626 1728 2601 
C 1523 2819 1235 2819 1126 2819 
C 416 2819 160 2447 160 2076 
C 160 1498 813 1365 998 1325 
C 1402 1243 1542 1217 1677 1101 
C 1760 1025 1901 884 1901 654 
C 1901 384 1747 38 1158 38 
C 602 38 403 460 288 1021 
C 269 1110 269 1117 218 1117 
C 166 1117 160 1110 160 983 
L 160 63 
C 160 -51 166 -58 205 -58 
C 237 -58 243 -51 275 0 
C 314 57 410 211 448 276 
C 576 103 800 -64 1158 -64 
C 1792 -64 2131 283 2131 784 
C 2131 1112 1958 1285 1875 1362 
C 1683 1561 1459 1606 1190 1657 
C 838 1735 390 1825 390 2217 
C 390 2383 480 2737 1126 2737 
C 1811 2737 1850 2094 1862 1888 
C 1869 1856 1901 1849 1920 1849 
C 1978 1849 1978 1869 1978 1978 
L 1978 2697 
z
" id="CMR17-73" transform="scale(0.015625)"/>
      <path d="M 2758 1356 
C 2758 2176 2163 2816 1466 2816 
C 768 2816 173 2176 173 1356 
C 173 551 768 -64 1466 -64 
C 2163 -64 2758 551 2758 1356 
z
M 1466 51 
C 1165 51 909 230 762 480 
C 602 767 582 1126 582 1408 
C 582 1677 595 2010 762 2298 
C 890 2509 1139 2714 1466 2714 
C 1754 2714 1997 2554 2150 2330 
C 2349 2029 2349 1607 2349 1408 
C 2349 1158 2336 775 2163 467 
C 1984 173 1709 51 1466 51 
z
" id="CMR17-6f" transform="scale(0.015625)"/>
      <path d="M 979 2560 
L 1709 2560 
L 1709 2725 
L 966 2725 
L 966 3494 
C 966 4022 1235 4352 1510 4352 
C 1594 4352 1690 4327 1754 4282 
C 1702 4269 1568 4225 1568 4067 
C 1568 3901 1696 3850 1786 3850 
C 1875 3850 2003 3901 2003 4067 
C 2003 4308 1773 4454 1517 4454 
C 1152 4454 653 4156 653 3481 
L 653 2725 
L 141 2725 
L 141 2560 
L 653 2560 
L 653 427 
C 653 184 627 153 218 153 
L 218 -13 
C 371 0 666 0 832 0 
C 1018 0 1344 0 1517 -13 
L 1517 153 
C 1056 153 979 153 979 439 
L 979 2560 
z
" id="CMR17-66" transform="scale(0.015625)"/>
      <path d="M 2656 1933 
C 2656 2259 2592 2790 1837 2790 
C 1312 2790 1056 2368 979 2157 
L 973 2157 
L 973 4396 
L 211 4326 
L 211 4160 
C 589 4160 646 4122 646 3817 
L 646 426 
C 646 184 621 153 211 153 
L 211 -13 
C 365 0 646 0 813 0 
C 979 0 1267 0 1421 -13 
L 1421 153 
C 1011 153 986 178 986 428 
L 986 1658 
C 986 2247 1344 2688 1792 2688 
C 2266 2688 2317 2266 2317 1958 
L 2317 428 
C 2317 184 2291 153 1882 153 
L 1882 -13 
C 2035 0 2317 0 2483 0 
C 2650 0 2938 0 3091 -13 
L 3091 153 
C 2682 153 2656 178 2656 428 
L 2656 1933 
z
" id="CMR17-68" transform="scale(0.015625)"/>
      <path d="M 2323 4378 
C 2291 4461 2278 4480 2214 4480 
C 2150 4480 2138 4461 2106 4378 
L 749 566 
C 627 223 371 153 147 153 
L 147 -13 
C 262 0 518 0 640 0 
C 800 0 1056 0 1210 -13 
L 1210 153 
C 909 153 864 361 864 439 
C 864 497 877 530 890 569 
L 1229 1536 
L 2906 1536 
L 3290 442 
C 3322 365 3322 352 3322 327 
C 3322 153 3046 153 2925 153 
L 2925 0 
C 3110 0 3443 0 3642 0 
C 3808 0 4128 0 4282 -13 
L 4282 153 
C 3942 153 3827 153 3744 387 
L 2323 4378 
z
M 2067 3893 
L 2848 1702 
L 1286 1702 
L 2067 3893 
z
" id="CMR17-41" transform="scale(0.015625)"/>
      <path d="M 2496 2197 
C 2656 2586 2944 2586 3034 2586 
L 3034 2752 
C 2912 2752 2752 2752 2630 2752 
C 2496 2752 2285 2752 2157 2758 
L 2157 2592 
C 2400 2573 2406 2394 2406 2343 
C 2406 2280 2394 2248 2362 2171 
L 1664 449 
L 902 2306 
C 870 2382 870 2426 870 2433 
C 870 2573 1018 2586 1171 2586 
L 1171 2758 
C 1018 2752 742 2752 582 2752 
C 410 2752 205 2752 64 2758 
L 64 2586 
C 410 2586 448 2554 531 2350 
L 1485 15 
C 1197 -738 1030 -1178 627 -1178 
C 557 -1178 397 -1159 282 -1044 
C 429 -1031 493 -942 493 -833 
C 493 -725 416 -629 288 -629 
C 147 -629 77 -725 77 -840 
C 77 -1095 339 -1280 627 -1280 
C 998 -1280 1229 -922 1357 -604 
L 2496 2197 
z
" id="CMR17-79" transform="scale(0.015625)"/>
      <path d="M 1882 2693 
L 1882 2528 
C 2259 2528 2317 2489 2317 2186 
L 2317 1032 
C 2317 500 2029 38 1555 38 
C 1030 38 986 348 986 678 
L 986 2763 
L 211 2693 
L 211 2528 
C 467 2528 640 2528 646 2274 
L 646 1058 
C 646 633 646 361 813 183 
C 896 101 1056 -64 1517 -64 
C 2061 -64 2272 377 2323 506 
L 2330 506 
L 2330 -63 
L 3091 -63 
L 3091 128 
C 2714 128 2656 166 2656 473 
L 2656 2763 
L 1882 2693 
z
" id="CMR17-75" transform="scale(0.015625)"/>
      <path d="M 2656 1933 
C 2656 2259 2592 2790 1837 2790 
C 1331 2790 1069 2400 973 2144 
L 966 2144 
L 966 2790 
L 211 2720 
L 211 2554 
C 589 2554 646 2515 646 2208 
L 646 428 
C 646 184 621 153 211 153 
L 211 -13 
C 365 0 646 0 813 0 
C 979 0 1267 0 1421 -13 
L 1421 153 
C 1011 153 986 178 986 428 
L 986 1658 
C 986 2247 1344 2688 1792 2688 
C 2266 2688 2317 2266 2317 1958 
L 2317 428 
C 2317 184 2291 153 1882 153 
L 1882 -13 
C 2035 0 2317 0 2483 0 
C 2650 0 2938 0 3091 -13 
L 3091 153 
C 2682 153 2656 178 2656 428 
L 2656 1933 
z
" id="CMR17-6e" transform="scale(0.015625)"/>
      <path d="M 2234 2240 
C 2112 2240 1933 2240 1933 2017 
C 1933 1838 2080 1787 2163 1787 
C 2208 1787 2394 1807 2394 2024 
C 2394 2467 1958 2803 1466 2803 
C 787 2803 211 2178 211 1363 
C 211 516 813 -64 1466 -64 
C 2259 -64 2458 677 2458 748 
C 2458 774 2451 793 2406 793 
C 2362 793 2355 787 2330 703 
C 2163 180 1798 51 1523 51 
C 1114 51 621 427 621 1369 
C 621 2338 1094 2688 1472 2688 
C 1722 2688 2093 2573 2234 2240 
z
" id="CMR17-63" transform="scale(0.015625)"/>
     </defs>
     <use transform="scale(0.996264)" xlink:href="#CMR17-44"/>
     <use transform="translate(70.393556 0)scale(0.996264)" xlink:href="#CMR17-65"/>
     <use transform="translate(110.879216 0)scale(0.996264)" xlink:href="#CMR17-72"/>
     <use transform="translate(146.159984 0)scale(0.996264)" xlink:href="#CMR17-69"/>
     <use transform="translate(171.031043 0)scale(0.996264)" xlink:href="#CMR17-76"/>
     <use transform="translate(214.119142 0)scale(0.996264)" xlink:href="#CMR17-61"/>
     <use transform="translate(259.809619 0)scale(0.996264)" xlink:href="#CMR17-74"/>
     <use transform="translate(295.090387 0)scale(0.996264)" xlink:href="#CMR17-69"/>
     <use transform="translate(319.961445 0)scale(0.996264)" xlink:href="#CMR17-76"/>
     <use transform="translate(365.651907 0)scale(0.996264)" xlink:href="#CMR17-65"/>
     <use transform="translate(406.137568 0)scale(0.996264)" xlink:href="#CMR17-73"/>
     <use transform="translate(472.014872 0)scale(0.996264)" xlink:href="#CMR17-6f"/>
     <use transform="translate(517.705349 0)scale(0.996264)" xlink:href="#CMR17-66"/>
     <use transform="translate(575.254827 0)scale(0.996264)" xlink:href="#CMR17-74"/>
     <use transform="translate(610.535595 0)scale(0.996264)" xlink:href="#CMR17-68"/>
     <use transform="translate(661.430965 0)scale(0.996264)" xlink:href="#CMR17-65"/>
     <use transform="translate(731.992592 0)scale(0.996264)" xlink:href="#CMR17-41"/>
     <use transform="translate(801.065022 0)scale(0.996264)" xlink:href="#CMR17-69"/>
     <use transform="translate(825.93608 0)scale(0.996264)" xlink:href="#CMR17-72"/>
     <use transform="translate(861.216848 0)scale(0.996264)" xlink:href="#CMR17-79"/>
     <use transform="translate(939.58573 0)scale(0.996264)" xlink:href="#CMR17-66"/>
     <use transform="translate(967.059243 0)scale(0.996264)" xlink:href="#CMR17-75"/>
     <use transform="translate(1017.954612 0)scale(0.996264)" xlink:href="#CMR17-6e"/>
     <use transform="translate(1068.849982 0)scale(0.996264)" xlink:href="#CMR17-63"/>
     <use transform="translate(1109.335643 0)scale(0.996264)" xlink:href="#CMR17-74"/>
     <use transform="translate(1144.61641 0)scale(0.996264)" xlink:href="#CMR17-69"/>
     <use transform="translate(1169.487469 0)scale(0.996264)" xlink:href="#CMR17-6f"/>
     <use transform="translate(1215.177946 0)scale(0.996264)" xlink:href="#CMR17-6e"/>
     <use transform="translate(1266.073316 0)scale(0.996264)" xlink:href="#CMR17-73"/>
    </g>
   </g>
   <g id="legend_1">
    <g id="patch_7">
     <path d="M 298.560409 245 
L 379 245 
Q 381.8 245 381.8 242.2 
L 381.8 199.586695 
Q 381.8 196.786695 379 196.786695 
L 298.560409 196.786695 
Q 295.760409 196.786695 295.760409 199.586695 
L 295.760409 242.2 
Q 295.760409 245 298.560409 245 
z
" style="fill:#ffffff;opacity:0.8;stroke:#cccccc;stroke-linejoin:miter;"/>
    </g>
    <g id="line2d_14">
     <path d="M 301.360409 209.006424 
L 329.360409 209.006424 
" style="fill:none;stroke:#ff0000;stroke-linecap:square;stroke-width:1.5;"/>
    </g>
    <g id="line2d_15"/>
    <g id="text_13">
     <!-- ${\rm Ai}'(x)$ -->
     <g transform="translate(340.560409 213.906424)scale(0.14 -0.14)">
      <defs>
       <path d="M 1619 3040 
C 1651 3117 1677 3174 1677 3238 
C 1677 3424 1510 3578 1312 3578 
C 1133 3578 1018 3456 973 3290 
L 211 493 
C 211 480 186 410 186 403 
C 186 333 352 288 403 288 
C 442 288 448 307 486 390 
L 1619 3040 
z
" id="CMSY10-30" transform="scale(0.015625)"/>
       <path d="M 1958 -1561 
C 1958 -1555 1958 -1542 1939 -1523 
C 1645 -1224 858 -407 858 1581 
C 858 3569 1632 4379 1946 4697 
C 1946 4704 1958 4717 1958 4736 
C 1958 4755 1939 4768 1914 4768 
C 1843 4768 1299 4296 986 3594 
C 666 2887 576 2199 576 1588 
C 576 1128 621 351 1005 -471 
C 1312 -1135 1837 -1600 1914 -1600 
C 1946 -1600 1958 -1587 1958 -1561 
z
" id="CMR17-28" transform="scale(0.015625)"/>
       <path d="M 1683 1581 
C 1683 2040 1638 2817 1254 3639 
C 947 4303 422 4768 346 4768 
C 326 4768 301 4761 301 4729 
C 301 4717 307 4710 314 4697 
C 621 4378 1402 3568 1402 1584 
C 1402 -407 627 -1217 314 -1537 
C 307 -1549 301 -1556 301 -1568 
C 301 -1600 326 -1600 346 -1600 
C 416 -1600 960 -1128 1274 -426 
C 1594 281 1683 969 1683 1581 
z
" id="CMR17-29" transform="scale(0.015625)"/>
      </defs>
      <use transform="scale(0.996264)" xlink:href="#CMR17-41"/>
      <use transform="translate(69.07243 0)scale(0.996264)" xlink:href="#CMR17-69"/>
      <use transform="translate(93.943488 41.137482)scale(0.697382)" xlink:href="#CMSY10-30"/>
      <use transform="translate(113.619581 0)scale(0.996264)" xlink:href="#CMR17-28"/>
      <use transform="translate(148.900349 0)scale(0.996264)" xlink:href="#CMMI12-78"/>
      <use transform="translate(204.334408 0)scale(0.996264)" xlink:href="#CMR17-29"/>
     </g>
    </g>
    <g id="line2d_16">
     <path d="M 301.360409 231.013076 
L 329.360409 231.013076 
" style="fill:none;stroke:#0000ff;stroke-dasharray:5.55,2.4;stroke-dashoffset:0;stroke-width:1.5;"/>
    </g>
    <g id="line2d_17"/>
    <g id="text_14">
     <!-- ${\rm Bi}'(x)$ -->
     <g transform="translate(340.560409 235.913076)scale(0.14 -0.14)">
      <defs>
       <path d="M 333 4352 
L 333 4186 
C 774 4186 845 4186 845 3900 
L 845 452 
C 845 166 774 166 333 166 
L 333 0 
L 2534 0 
C 3354 0 3885 583 3885 1164 
C 3885 1741 3360 2233 2675 2233 
C 3290 2356 3718 2771 3718 3264 
C 3718 3802 3194 4352 2368 4352 
L 333 4352 
z
M 1248 2304 
L 1248 3937 
C 1248 4155 1261 4186 1517 4186 
L 2336 4186 
C 2970 4186 3251 3674 3251 3277 
C 3251 2791 2861 2304 2170 2304 
L 1248 2304 
z
M 1517 166 
C 1261 166 1248 197 1248 413 
L 1248 2202 
L 2432 2202 
C 3091 2202 3411 1625 3411 1162 
C 3411 699 3046 166 2349 166 
L 1517 166 
z
" id="CMR17-42" transform="scale(0.015625)"/>
      </defs>
      <use transform="scale(0.996264)" xlink:href="#CMR17-42"/>
      <use transform="translate(65.188754 0)scale(0.996264)" xlink:href="#CMR17-69"/>
      <use transform="translate(90.059813 41.137482)scale(0.697382)" xlink:href="#CMSY10-30"/>
      <use transform="translate(109.735906 0)scale(0.996264)" xlink:href="#CMR17-28"/>
      <use transform="translate(145.016673 0)scale(0.996264)" xlink:href="#CMMI12-78"/>
      <use transform="translate(200.450733 0)scale(0.996264)" xlink:href="#CMR17-29"/>
     </g>
    </g>
   </g>
  </g>
 </g>
 <defs>
  <clipPath id="pfdf61b9e3b">
   <rect height="217.44" width="334.8" x="54" y="34.56"/>
  </clipPath>
 </defs>
</svg>
