<?xml version="1.0" encoding="utf-8" standalone="no"?>
<!DOCTYPE svg PUBLIC "-//W3C//DTD SVG 1.1//EN"
  "http://www.w3.org/Graphics/SVG/1.1/DTD/svg11.dtd">
<!-- Created with matplotlib (https://matplotlib.org/) -->
<svg height="288pt" version="1.1" viewBox="0 0 432 288" width="432pt" xmlns="http://www.w3.org/2000/svg" xmlns:xlink="http://www.w3.org/1999/xlink">
 <defs>
  <style type="text/css">
*{stroke-linecap:butt;stroke-linejoin:round;}
  </style>
 </defs>
 <g id="figure_1">
  <g id="patch_1">
   <path d="M 0 288 
L 432 288 
L 432 0 
L 0 0 
z
" style="fill:#ffffff;"/>
  </g>
  <g id="axes_1">
   <g id="patch_2">
    <path d="M 54 252 
L 388.8 252 
L 388.8 34.56 
L 54 34.56 
z
" style="fill:#ffffff;"/>
   </g>
   <g id="matplotlib.axis_1">
    <g id="xtick_1">
     <g id="line2d_1">
      <defs>
       <path d="M 0 0 
L 0 3.5 
" id="m34384e4a8b" style="stroke:#000000;stroke-width:0.8;"/>
      </defs>
      <g>
       <use style="stroke:#000000;stroke-width:0.8;" x="54" xlink:href="#m34384e4a8b" y="252"/>
      </g>
     </g>
     <g id="text_1">
      <!-- $-15$ -->
      <defs>
       <path d="M 65.90625 23 
C 67.59375 23 69.40625 23 69.40625 25 
C 69.40625 27 67.59375 27 65.90625 27 
L 11.796875 27 
C 10.09375 27 8.296875 27 8.296875 25 
C 8.296875 23 10.09375 23 11.796875 23 
z
" id="CMSY10-0"/>
       <path d="M 26.59375 63.796875 
C 26.59375 65.890625 26.5 66 25.09375 66 
C 21.203125 61.359375 15.296875 59.890625 9.703125 59.6875 
C 9.40625 59.6875 8.90625 59.6875 8.796875 59.5 
C 8.703125 59.296875 8.703125 59.09375 8.703125 57 
C 11.796875 57 17 57.59375 21 59.984375 
L 21 7.296875 
C 21 3.796875 20.796875 2.59375 12.203125 2.59375 
L 9.203125 2.59375 
L 9.203125 0 
C 14 0.09375 19 0.1875 23.796875 0.1875 
C 28.59375 0.1875 33.59375 0.09375 38.40625 0 
L 38.40625 2.59375 
L 35.40625 2.59375 
C 26.796875 2.59375 26.59375 3.6875 26.59375 7.296875 
z
" id="CMR17-49"/>
       <path d="M 11.40625 58.59375 
C 12.40625 58.1875 16.5 56.890625 20.703125 56.890625 
C 30 56.890625 35.09375 61.890625 38 64.6875 
C 38 65.484375 38 66 37.40625 66 
C 37.296875 66 37.09375 66 36.296875 65.59375 
C 32.796875 64.09375 28.703125 63 23.703125 63 
C 20.703125 63 16.203125 63.359375 11.296875 65.484375 
C 10.203125 66 10 66 9.90625 66 
C 9.40625 66 9.296875 65.890625 9.296875 63.90625 
L 9.296875 34.859375 
C 9.296875 33.015625 9.296875 32.5 10.296875 32.5 
C 10.796875 32.5 11 32.703125 11.5 33.421875 
C 14.703125 38.046875 19.09375 40 24.09375 40 
C 27.59375 40 35.09375 37.734375 35.09375 20.203125 
C 35.09375 16.984375 35.09375 11.1875 32.09375 6.59375 
C 29.59375 2.484375 25.703125 0.390625 21.40625 0.390625 
C 14.796875 0.390625 8.09375 4.984375 6.296875 12.6875 
C 6.703125 12.59375 7.5 12.390625 7.90625 12.390625 
C 9.203125 12.390625 11.703125 13.09375 11.703125 16.1875 
C 11.703125 18.890625 9.796875 20 7.90625 20 
C 5.59375 20 4.09375 18.59375 4.09375 15.796875 
C 4.09375 7.09375 11 -2 21.59375 -2 
C 31.90625 -2 41.703125 6.890625 41.703125 19.796875 
C 41.703125 32.09375 33.90625 41.59375 24.203125 41.59375 
C 19.09375 41.59375 14.796875 39.6875 11.40625 36 
z
" id="CMR17-53"/>
      </defs>
      <g transform="translate(41.747394 268.685876)scale(0.14 -0.14)">
       <use transform="scale(0.996264)" xlink:href="#CMSY10-0"/>
       <use transform="translate(77.487468 0)scale(0.996264)" xlink:href="#CMR17-49"/>
       <use transform="translate(123.177945 0)scale(0.996264)" xlink:href="#CMR17-53"/>
      </g>
     </g>
    </g>
    <g id="xtick_2">
     <g id="line2d_2">
      <g>
       <use style="stroke:#000000;stroke-width:0.8;" x="137.7" xlink:href="#m34384e4a8b" y="252"/>
      </g>
     </g>
     <g id="text_2">
      <!-- $-10$ -->
      <defs>
       <path d="M 42 31.84375 
C 42 37.96875 41.90625 48.421875 37.703125 56.453125 
C 34 63.484375 28.09375 66 22.90625 66 
C 18.09375 66 12 63.78125 8.203125 56.5625 
C 4.203125 49.015625 3.796875 39.671875 3.796875 31.84375 
C 3.796875 26.109375 3.90625 17.375 7 9.734375 
C 11.296875 -0.609375 19 -2 22.90625 -2 
C 27.5 -2 34.5 -0.109375 38.59375 9.4375 
C 41.59375 16.375 42 24.5 42 31.84375 
z
M 22.90625 -0.40625 
C 16.5 -0.40625 12.703125 5.125 11.296875 12.75 
C 10.203125 18.6875 10.203125 27.328125 10.203125 32.953125 
C 10.203125 40.6875 10.203125 47.109375 11.5 53.234375 
C 13.40625 61.78125 19 64.390625 22.90625 64.390625 
C 27 64.390625 32.296875 61.671875 34.203125 53.4375 
C 35.5 47.71875 35.59375 40.984375 35.59375 32.953125 
C 35.59375 26.421875 35.59375 18.375 34.40625 12.453125 
C 32.296875 1.5 26.40625 -0.40625 22.90625 -0.40625 
z
" id="CMR17-48"/>
      </defs>
      <g transform="translate(125.447394 268.685876)scale(0.14 -0.14)">
       <use transform="scale(0.996264)" xlink:href="#CMSY10-0"/>
       <use transform="translate(77.487468 0)scale(0.996264)" xlink:href="#CMR17-49"/>
       <use transform="translate(123.177945 0)scale(0.996264)" xlink:href="#CMR17-48"/>
      </g>
     </g>
    </g>
    <g id="xtick_3">
     <g id="line2d_3">
      <g>
       <use style="stroke:#000000;stroke-width:0.8;" x="221.4" xlink:href="#m34384e4a8b" y="252"/>
      </g>
     </g>
     <g id="text_3">
      <!-- $-5$ -->
      <g transform="translate(212.561638 268.685876)scale(0.14 -0.14)">
       <use transform="scale(0.996264)" xlink:href="#CMSY10-0"/>
       <use transform="translate(77.487468 0)scale(0.996264)" xlink:href="#CMR17-53"/>
      </g>
     </g>
    </g>
    <g id="xtick_4">
     <g id="line2d_4">
      <g>
       <use style="stroke:#000000;stroke-width:0.8;" x="305.1" xlink:href="#m34384e4a8b" y="252"/>
      </g>
     </g>
     <g id="text_4">
      <!-- $0$ -->
      <g transform="translate(301.685756 268.685876)scale(0.14 -0.14)">
       <use transform="scale(0.996264)" xlink:href="#CMR17-48"/>
      </g>
     </g>
    </g>
    <g id="xtick_5">
     <g id="line2d_5">
      <g>
       <use style="stroke:#000000;stroke-width:0.8;" x="388.8" xlink:href="#m34384e4a8b" y="252"/>
      </g>
     </g>
     <g id="text_5">
      <!-- $5$ -->
      <g transform="translate(385.385756 268.685876)scale(0.14 -0.14)">
       <use transform="scale(0.996264)" xlink:href="#CMR17-53"/>
      </g>
     </g>
    </g>
    <g id="text_6">
     <!-- $x$ -->
     <defs>
      <path d="M 47.40625 41 
C 44.203125 40.390625 43 37.984375 43 36.09375 
C 43 33.6875 44.90625 32.890625 46.296875 32.890625 
C 49.296875 32.890625 51.40625 35.484375 51.40625 38.1875 
C 51.40625 42.09375 46.59375 44 42.40625 44 
C 36.296875 44 32.90625 38.296875 32 36.390625 
C 29.703125 43.59375 23.5 44 21.703125 44 
C 11.5 44 6.09375 31.140625 6.09375 28.890625 
C 6.09375 28.484375 6.5 27.96875 7.203125 27.96875 
C 8 27.96875 8.203125 28.578125 8.40625 28.984375 
C 11.796875 40.1875 18.5 41.984375 21.40625 41.984375 
C 25.90625 41.984375 26.796875 38.09375 26.796875 35.6875 
C 26.796875 33.484375 26.203125 31.140625 25 26.21875 
L 21.59375 12.15625 
C 20.09375 6.09375 17.203125 1 11.90625 1 
C 11.40625 1 8.90625 1 6.796875 1.96875 
C 10.40625 2.59375 11.203125 5.59375 11.203125 6.796875 
C 11.203125 8.796875 9.703125 10 7.796875 10 
C 5.40625 10 2.796875 7.890625 2.796875 4.6875 
C 2.796875 0.890625 7.5 -1 11.796875 -1 
C 16.59375 -1 20 2.390625 22.09375 6.484375 
C 23.703125 1 28.703125 -1 32.40625 -1 
C 42.59375 -1 48 11.734375 48 14 
C 48 14.515625 47.59375 14.921875 47 14.921875 
C 46.09375 14.921875 46 14.40625 45.703125 13.59375 
C 43 4.6875 37.203125 1 32.703125 1 
C 29.203125 1 27.296875 3.1875 27.296875 7.296875 
C 27.296875 9.484375 27.703125 11.125 29.296875 17.90625 
L 32.796875 31.859375 
C 34.296875 37.890625 37.703125 41.984375 42.296875 41.984375 
C 42.5 41.984375 45.296875 41.984375 47.40625 41 
z
" id="CMMI12-120"/>
     </defs>
     <g transform="translate(217.519616 285.083781)scale(0.14 -0.14)">
      <use transform="scale(0.996264)" xlink:href="#CMMI12-120"/>
     </g>
    </g>
   </g>
   <g id="matplotlib.axis_2">
    <g id="ytick_1">
     <g id="line2d_6">
      <defs>
       <path d="M 0 0 
L -3.5 0 
" id="mc4fa2278e8" style="stroke:#000000;stroke-width:0.8;"/>
      </defs>
      <g>
       <use style="stroke:#000000;stroke-width:0.8;" x="54" xlink:href="#mc4fa2278e8" y="252"/>
      </g>
     </g>
     <g id="text_7">
      <!-- $-0.50$ -->
      <defs>
       <path d="M 18.40625 4.796875 
C 18.40625 7.6875 16 9.6875 13.59375 9.6875 
C 10.703125 9.6875 8.703125 7.296875 8.703125 4.890625 
C 8.703125 2 11.09375 0 13.5 0 
C 16.40625 0 18.40625 2.390625 18.40625 4.796875 
z
" id="CMMI12-58"/>
      </defs>
      <g transform="translate(11.872694 256.842938)scale(0.14 -0.14)">
       <use transform="scale(0.996264)" xlink:href="#CMSY10-0"/>
       <use transform="translate(77.487468 0)scale(0.996264)" xlink:href="#CMR17-48"/>
       <use transform="translate(123.177945 0)scale(0.996264)" xlink:href="#CMMI12-58"/>
       <use transform="translate(150.275122 0)scale(0.996264)" xlink:href="#CMR17-53"/>
       <use transform="translate(195.965599 0)scale(0.996264)" xlink:href="#CMR17-48"/>
      </g>
     </g>
    </g>
    <g id="ytick_2">
     <g id="line2d_7">
      <g>
       <use style="stroke:#000000;stroke-width:0.8;" x="54" xlink:href="#mc4fa2278e8" y="215.76"/>
      </g>
     </g>
     <g id="text_8">
      <!-- $-0.25$ -->
      <defs>
       <path d="M 41.703125 15.46875 
L 39.90625 15.46875 
C 38.90625 8.390625 38.09375 7.1875 37.703125 6.59375 
C 37.203125 5.796875 30 5.796875 28.59375 5.796875 
L 9.40625 5.796875 
C 13 9.6875 20 16.765625 28.5 24.9375 
C 34.59375 30.71875 41.703125 37.5 41.703125 47.390625 
C 41.703125 59.1875 32.296875 66 21.796875 66 
C 10.796875 66 4.09375 56.296875 4.09375 47.296875 
C 4.09375 43.390625 7 42.890625 8.203125 42.890625 
C 9.203125 42.890625 12.203125 43.484375 12.203125 46.984375 
C 12.203125 50.09375 9.59375 51 8.203125 51 
C 7.59375 51 7 50.890625 6.59375 50.6875 
C 8.5 59.1875 14.296875 63.390625 20.40625 63.390625 
C 29.09375 63.390625 34.796875 56.5 34.796875 47.390625 
C 34.796875 38.703125 29.703125 31.21875 24 24.734375 
L 4.09375 2.296875 
L 4.09375 0 
L 39.296875 0 
z
" id="CMR17-50"/>
      </defs>
      <g transform="translate(11.872694 220.602938)scale(0.14 -0.14)">
       <use transform="scale(0.996264)" xlink:href="#CMSY10-0"/>
       <use transform="translate(77.487468 0)scale(0.996264)" xlink:href="#CMR17-48"/>
       <use transform="translate(123.177945 0)scale(0.996264)" xlink:href="#CMMI12-58"/>
       <use transform="translate(150.275122 0)scale(0.996264)" xlink:href="#CMR17-50"/>
       <use transform="translate(195.965599 0)scale(0.996264)" xlink:href="#CMR17-53"/>
      </g>
     </g>
    </g>
    <g id="ytick_3">
     <g id="line2d_8">
      <g>
       <use style="stroke:#000000;stroke-width:0.8;" x="54" xlink:href="#mc4fa2278e8" y="179.52"/>
      </g>
     </g>
     <g id="text_9">
      <!-- $0.00$ -->
      <g transform="translate(22.720929 184.362938)scale(0.14 -0.14)">
       <use transform="scale(0.996264)" xlink:href="#CMR17-48"/>
       <use transform="translate(45.690477 0)scale(0.996264)" xlink:href="#CMMI12-58"/>
       <use transform="translate(72.787654 0)scale(0.996264)" xlink:href="#CMR17-48"/>
       <use transform="translate(118.478131 0)scale(0.996264)" xlink:href="#CMR17-48"/>
      </g>
     </g>
    </g>
    <g id="ytick_4">
     <g id="line2d_9">
      <g>
       <use style="stroke:#000000;stroke-width:0.8;" x="54" xlink:href="#mc4fa2278e8" y="143.28"/>
      </g>
     </g>
     <g id="text_10">
      <!-- $0.25$ -->
      <g transform="translate(22.720929 148.122938)scale(0.14 -0.14)">
       <use transform="scale(0.996264)" xlink:href="#CMR17-48"/>
       <use transform="translate(45.690477 0)scale(0.996264)" xlink:href="#CMMI12-58"/>
       <use transform="translate(72.787654 0)scale(0.996264)" xlink:href="#CMR17-50"/>
       <use transform="translate(118.478131 0)scale(0.996264)" xlink:href="#CMR17-53"/>
      </g>
     </g>
    </g>
    <g id="ytick_5">
     <g id="line2d_10">
      <g>
       <use style="stroke:#000000;stroke-width:0.8;" x="54" xlink:href="#mc4fa2278e8" y="107.04"/>
      </g>
     </g>
     <g id="text_11">
      <!-- $0.50$ -->
      <g transform="translate(22.720929 111.882938)scale(0.14 -0.14)">
       <use transform="scale(0.996264)" xlink:href="#CMR17-48"/>
       <use transform="translate(45.690477 0)scale(0.996264)" xlink:href="#CMMI12-58"/>
       <use transform="translate(72.787654 0)scale(0.996264)" xlink:href="#CMR17-53"/>
       <use transform="translate(118.478131 0)scale(0.996264)" xlink:href="#CMR17-48"/>
      </g>
     </g>
    </g>
    <g id="ytick_6">
     <g id="line2d_11">
      <g>
       <use style="stroke:#000000;stroke-width:0.8;" x="54" xlink:href="#mc4fa2278e8" y="70.8"/>
      </g>
     </g>
     <g id="text_12">
      <!-- $0.75$ -->
      <defs>
       <path d="M 45.09375 61.796875 
L 45.09375 64 
L 21.59375 64 
C 9.90625 64 9.703125 65.09375 9.296875 67 
L 7.5 67 
L 4.59375 48.5 
L 6.40625 48.5 
C 6.703125 50.40625 7.40625 55.5 8.59375 57.390625 
C 9.203125 58.1875 16.59375 58.1875 18.296875 58.1875 
L 40.296875 58.1875 
L 29.203125 41.71875 
C 21.796875 30.640625 16.703125 15.671875 16.703125 2.59375 
C 16.703125 1.390625 16.703125 -2 20.296875 -2 
C 23.90625 -2 23.90625 1.390625 23.90625 2.6875 
L 23.90625 7.28125 
C 23.90625 23.65625 26.703125 34.4375 31.296875 41.3125 
z
" id="CMR17-55"/>
      </defs>
      <g transform="translate(22.720929 75.642938)scale(0.14 -0.14)">
       <use transform="scale(0.996264)" xlink:href="#CMR17-48"/>
       <use transform="translate(45.690477 0)scale(0.996264)" xlink:href="#CMMI12-58"/>
       <use transform="translate(72.787654 0)scale(0.996264)" xlink:href="#CMR17-55"/>
       <use transform="translate(118.478131 0)scale(0.996264)" xlink:href="#CMR17-53"/>
      </g>
     </g>
    </g>
    <g id="ytick_7">
     <g id="line2d_12">
      <g>
       <use style="stroke:#000000;stroke-width:0.8;" x="54" xlink:href="#mc4fa2278e8" y="34.56"/>
      </g>
     </g>
     <g id="text_13">
      <!-- $1.00$ -->
      <g transform="translate(22.720929 39.402938)scale(0.14 -0.14)">
       <use transform="scale(0.996264)" xlink:href="#CMR17-49"/>
       <use transform="translate(45.690477 0)scale(0.996264)" xlink:href="#CMMI12-58"/>
       <use transform="translate(72.787654 0)scale(0.996264)" xlink:href="#CMR17-48"/>
       <use transform="translate(118.478131 0)scale(0.996264)" xlink:href="#CMR17-48"/>
      </g>
     </g>
    </g>
   </g>
   <g id="line2d_13">
    <path clip-path="url(#p5f804ebdaa)" d="M 54 139.189593 
L 54.490549 138.294349 
L 54.899341 137.952488 
L 55.226374 137.945548 
L 55.553407 138.175341 
L 55.962198 138.792898 
L 56.452747 140.009984 
L 57.025055 142.064672 
L 57.760879 145.651881 
L 58.66022 151.333419 
L 59.723077 159.564461 
L 61.276484 173.553624 
L 64.383297 201.937717 
L 65.527912 210.322061 
L 66.427253 215.495187 
L 67.163077 218.637889 
L 67.817143 220.533548 
L 68.307692 221.375317 
L 68.716484 221.689018 
L 69.043516 221.684486 
L 69.370549 221.453131 
L 69.779341 220.847457 
L 70.26989 219.664359 
L 70.842198 217.674873 
L 71.578022 214.207114 
L 72.477363 208.713587 
L 73.54022 200.736943 
L 75.011868 187.854438 
L 78.609231 155.579073 
L 79.753846 147.518693 
L 80.653187 142.57021 
L 81.389011 139.574875 
L 82.043077 137.774638 
L 82.533626 136.979563 
L 82.942418 136.687487 
L 83.269451 136.697738 
L 83.596484 136.924473 
L 84.005275 137.50999 
L 84.495824 138.648442 
L 85.068132 140.559404 
L 85.803956 143.889386 
L 86.703297 149.170977 
L 87.766154 156.863248 
L 89.237802 169.366488 
L 93.325714 205.253544 
L 94.47033 212.937819 
L 95.36967 217.62152 
L 96.105495 220.437793 
L 96.75956 222.115695 
L 97.25011 222.844887 
L 97.658901 223.100127 
L 97.985934 223.072567 
L 98.312967 222.839433 
L 98.721758 222.261186 
L 99.212308 221.153348 
L 99.784615 219.306753 
L 100.52044 216.100313 
L 101.41978 211.020128 
L 102.482637 203.610759 
L 103.872527 192.218715 
L 108.696264 151.059041 
L 109.759121 144.395895 
L 110.658462 140.033127 
L 111.394286 137.440501 
L 112.048352 135.923031 
L 112.538901 135.287075 
L 112.947692 135.090513 
L 113.274725 135.152146 
L 113.683516 135.501805 
L 114.174066 136.31697 
L 114.746374 137.801494 
L 115.40044 140.174722 
L 116.218022 144.090909 
L 117.199121 150.0349 
L 118.425495 159.027064 
L 120.142418 173.531648 
L 123.576264 202.877271 
L 124.884396 211.96177 
L 125.865495 217.410286 
L 126.683077 220.896265 
L 127.418901 223.138042 
L 127.991209 224.265802 
L 128.481758 224.792781 
L 128.890549 224.91888 
L 129.217582 224.814629 
L 129.626374 224.429141 
L 130.116923 223.596581 
L 130.689231 222.12638 
L 131.343297 219.812887 
L 132.160879 216.029836 
L 133.141978 210.315011 
L 134.368352 201.675598 
L 136.003516 188.369949 
L 140.091429 154.327576 
L 141.39956 145.636003 
L 142.462418 140.036839 
L 143.28 136.769715 
L 144.015824 134.668922 
L 144.588132 133.609322 
L 145.078681 133.11001 
L 145.487473 132.984703 
L 145.896264 133.123869 
L 146.305055 133.526041 
L 146.795604 134.351564 
L 147.367912 135.777243 
L 148.103736 138.314453 
L 148.921319 142.005421 
L 149.902418 147.525775 
L 151.128791 155.831113 
L 152.763956 168.636974 
L 157.505934 206.891731 
L 158.814066 215.137607 
L 159.876923 220.460737 
L 160.776264 223.855638 
L 161.512088 225.81707 
L 162.084396 226.813923 
L 162.574945 227.292982 
L 162.983736 227.425572 
L 163.392527 227.315734 
L 163.801319 226.964718 
L 164.291868 226.228694 
L 164.864176 224.944425 
L 165.518242 222.933534 
L 166.335824 219.647545 
L 167.316923 214.665855 
L 168.461538 207.612665 
L 169.933187 197.016845 
L 172.222418 178.640524 
L 175.002198 156.748489 
L 176.473846 146.838403 
L 177.70022 140.033835 
L 178.681319 135.736808 
L 179.498901 133.018091 
L 180.234725 131.280808 
L 180.807033 130.408929 
L 181.297582 130.000467 
L 181.706374 129.900192 
L 182.115165 130.017951 
L 182.605714 130.44526 
L 183.096264 131.180779 
L 183.75033 132.630564 
L 184.486154 134.880118 
L 185.303736 138.105861 
L 186.284835 142.902594 
L 187.511209 150.13504 
L 188.982857 160.244575 
L 191.19033 177.153214 
L 194.542418 202.709009 
L 196.095824 212.873584 
L 197.403956 220.009504 
L 198.466813 224.650373 
L 199.366154 227.677617 
L 200.183736 229.669976 
L 200.837802 230.725517 
L 201.41011 231.250171 
L 201.900659 231.401962 
L 202.309451 231.318674 
L 202.8 230.968576 
L 203.372308 230.219335 
L 204.026374 228.922908 
L 204.762198 226.921416 
L 205.661538 223.733567 
L 206.642637 219.394965 
L 207.869011 212.853242 
L 209.340659 203.655739 
L 211.302857 189.816112 
L 216.617143 151.506915 
L 218.170549 142.253842 
L 219.478681 135.735144 
L 220.623297 131.144625 
L 221.604396 128.113571 
L 222.421978 126.258136 
L 223.157802 125.1239 
L 223.73011 124.596969 
L 224.220659 124.393571 
L 224.711209 124.418809 
L 225.201758 124.671195 
L 225.774066 125.249457 
L 226.428132 126.277842 
L 227.163956 127.890485 
L 227.981538 130.225674 
L 228.962637 133.73918 
L 230.107253 138.73613 
L 231.415385 145.483794 
L 233.050549 155.177576 
L 235.258022 169.76394 
L 240.899341 207.722933 
L 242.698022 218.002202 
L 244.16967 225.201935 
L 245.477802 230.53052 
L 246.622418 234.287416 
L 247.603516 236.798053 
L 248.502857 238.506783 
L 249.238681 239.477225 
L 249.892747 240.015471 
L 250.465055 240.236629 
L 251.037363 240.226243 
L 251.60967 239.986776 
L 252.263736 239.436886 
L 252.99956 238.473657 
L 253.817143 236.988342 
L 254.716484 234.870473 
L 255.779341 231.750342 
L 257.005714 227.383476 
L 258.395604 221.547978 
L 260.030769 213.659722 
L 262.074725 202.595986 
L 264.936264 185.727585 
L 270.577582 152.257675 
L 272.948571 139.661408 
L 274.910769 130.376473 
L 276.627692 123.242833 
L 278.262857 117.381767 
L 279.734505 112.917186 
L 281.042637 109.602452 
L 282.269011 107.051687 
L 283.413626 105.149399 
L 284.476484 103.786346 
L 285.457582 102.862122 
L 286.438681 102.246734 
L 287.338022 101.942807 
L 288.237363 101.876393 
L 289.136703 102.035667 
L 290.117802 102.452156 
L 291.180659 103.170124 
L 292.325275 104.228847 
L 293.633407 105.766072 
L 295.105055 107.862139 
L 296.821978 110.721522 
L 298.865934 114.58536 
L 301.482198 120.04012 
L 306.060659 130.20662 
L 310.802637 140.538752 
L 313.909451 146.783737 
L 316.607473 151.733162 
L 319.141978 155.933426 
L 321.594725 159.567882 
L 323.965714 162.680868 
L 326.254945 165.325688 
L 328.544176 167.635445 
L 330.833407 169.634174 
L 333.204396 171.405149 
L 335.575385 172.902825 
L 338.10989 174.237241 
L 340.726154 175.364421 
L 343.587692 176.350874 
L 346.694505 177.181623 
L 350.128352 177.868044 
L 354.134505 178.434809 
L 358.876484 178.873079 
L 364.926593 179.195562 
L 373.347692 179.402343 
L 387.818901 179.502052 
L 388.8 179.504294 
L 388.8 179.504294 
" style="fill:none;stroke:#ff0000;stroke-linecap:square;stroke-width:1.5;"/>
   </g>
   <g id="line2d_14">
    <path clip-path="url(#p5f804ebdaa)" d="M 54 189.540591 
L 57.924396 153.910532 
L 58.987253 146.684062 
L 59.804835 142.424914 
L 60.540659 139.693787 
L 61.112967 138.342285 
L 61.521758 137.805022 
L 61.848791 137.635549 
L 62.175824 137.698255 
L 62.502857 137.992481 
L 62.911648 138.682767 
L 63.402198 139.975061 
L 64.056264 142.456221 
L 64.792088 146.216134 
L 65.691429 152.050377 
L 66.836044 161.073119 
L 68.552967 176.686135 
L 71.250989 201.157658 
L 72.477363 210.211094 
L 73.458462 215.84262 
L 74.194286 218.94907 
L 74.848352 220.832013 
L 75.338901 221.677292 
L 75.747692 222.002708 
L 76.074725 222.013304 
L 76.401758 221.802116 
L 76.810549 221.228512 
L 77.301099 220.093412 
L 77.873407 218.171773 
L 78.609231 214.806788 
L 79.508571 209.455056 
L 80.571429 201.653213 
L 82.043077 188.98506 
L 85.967473 154.221898 
L 87.112088 146.44428 
L 88.011429 141.719549 
L 88.747253 138.896843 
L 89.401319 137.236066 
L 89.891868 136.534391 
L 90.300659 136.311703 
L 90.627692 136.371486 
L 90.954725 136.642168 
L 91.363516 137.274501 
L 91.854066 138.456974 
L 92.508132 140.728601 
L 93.243956 144.178849 
L 94.143297 149.556594 
L 95.287912 157.942143 
L 96.841319 171.229466 
L 100.602198 204.123925 
L 101.746813 212.02284 
L 102.727912 217.345153 
L 103.545495 220.591959 
L 104.19956 222.345274 
L 104.69011 223.147229 
L 105.098901 223.47337 
L 105.425934 223.50895 
L 105.752967 223.344351 
L 106.161758 222.858826 
L 106.652308 221.871523 
L 107.224615 220.176241 
L 107.96044 217.176544 
L 108.778022 212.844225 
L 109.759121 206.430454 
L 111.067253 196.257576 
L 113.192967 177.567658 
L 115.482198 157.928367 
L 116.79033 148.491676 
L 117.853187 142.359804 
L 118.670769 138.76749 
L 119.406593 136.455935 
L 119.978901 135.293363 
L 120.469451 134.751065 
L 120.878242 134.622743 
L 121.205275 134.732169 
L 121.614066 135.132756 
L 122.104615 135.995809 
L 122.676923 137.517839 
L 123.330989 139.910171 
L 124.148571 143.816741 
L 125.12967 149.706429 
L 126.356044 158.582332 
L 128.072967 172.88752 
L 131.67033 203.290423 
L 132.978462 212.270401 
L 134.041319 218.082018 
L 134.858901 221.485076 
L 135.594725 223.680946 
L 136.167033 224.793925 
L 136.657582 225.323553 
L 137.066374 225.462842 
L 137.475165 225.327257 
L 137.883956 224.918274 
L 138.374505 224.071089 
L 138.946813 222.602231 
L 139.600879 220.313467 
L 140.418462 216.592954 
L 141.39956 210.991609 
L 142.625934 202.533301 
L 144.261099 189.484285 
L 148.676044 153.271939 
L 149.984176 144.798765 
L 151.047033 139.335944 
L 151.946374 135.868046 
L 152.682198 133.883249 
L 153.254505 132.892655 
L 153.745055 132.436501 
L 154.153846 132.335427 
L 154.562637 132.487962 
L 154.971429 132.892602 
L 155.461978 133.706848 
L 156.034286 135.100322 
L 156.77011 137.567865 
L 157.587692 141.148396 
L 158.568791 146.499739 
L 159.795165 154.559451 
L 161.348571 166.377478 
L 166.826374 209.520892 
L 168.052747 216.822692 
L 169.115604 221.839467 
L 169.933187 224.764588 
L 170.669011 226.654468 
L 171.241319 227.620317 
L 171.731868 228.090814 
L 172.140659 228.229218 
L 172.549451 228.137003 
L 172.958242 227.815312 
L 173.448791 227.129577 
L 174.021099 225.923931 
L 174.675165 224.027323 
L 175.492747 220.916373 
L 176.473846 216.181984 
L 177.618462 209.448707 
L 179.008352 199.8705 
L 181.052308 184.029145 
L 184.64967 156.030702 
L 186.121319 146.309667 
L 187.347692 139.576494 
L 188.410549 134.949611 
L 189.30989 132.006636 
L 190.045714 130.30136 
L 190.69978 129.333262 
L 191.19033 128.950309 
L 191.599121 128.856806 
L 192.007912 128.968082 
L 192.498462 129.370193 
L 193.070769 130.204923 
L 193.724835 131.630314 
L 194.460659 133.813772 
L 195.36 137.270498 
L 196.422857 142.378331 
L 197.649231 149.467152 
L 199.202637 159.89288 
L 201.491868 177.019159 
L 204.925714 202.63931 
L 206.560879 213.183788 
L 207.869011 220.288821 
L 209.013626 225.330142 
L 209.994725 228.678855 
L 210.812308 230.739683 
L 211.548132 232.007166 
L 212.12044 232.601779 
L 212.610989 232.837324 
L 213.101538 232.820005 
L 213.592088 232.551245 
L 214.164396 231.92343 
L 214.818462 230.799167 
L 215.554286 229.030788 
L 216.371868 226.4674 
L 217.352967 222.612422 
L 218.497582 217.14184 
L 219.887473 209.29314 
L 221.604396 198.192931 
L 224.302418 179.020125 
L 227.654505 155.532557 
L 229.453187 144.489233 
L 230.924835 136.784809 
L 232.151209 131.470185 
L 233.214066 127.768089 
L 234.195165 125.143773 
L 235.012747 123.559579 
L 235.748571 122.611077 
L 236.320879 122.18806 
L 236.893187 122.040256 
L 237.383736 122.131449 
L 237.956044 122.489564 
L 238.528352 123.114944 
L 239.182418 124.150228 
L 240 125.910887 
L 240.899341 128.420589 
L 241.962198 132.112115 
L 243.188571 137.261474 
L 244.578462 144.103191 
L 246.295385 153.749527 
L 248.584615 168.020714 
L 255.207033 210.160573 
L 257.087473 220.333612 
L 258.722637 227.993951 
L 260.112527 233.505999 
L 261.338901 237.542522 
L 262.483516 240.577041 
L 263.464615 242.60072 
L 264.363956 243.982754 
L 265.181538 244.846442 
L 265.917363 245.306095 
L 266.571429 245.464869 
L 267.225495 245.392002 
L 267.87956 245.091677 
L 268.615385 244.48811 
L 269.432967 243.497097 
L 270.332308 242.03209 
L 271.313407 240.007377 
L 272.458022 237.117404 
L 273.766154 233.174689 
L 275.237802 228.0101 
L 276.954725 221.147656 
L 278.998681 212.032066 
L 281.614945 199.296564 
L 286.111648 176.08272 
L 291.262418 149.83712 
L 294.696264 133.501635 
L 297.884835 119.389032 
L 301.318681 105.216206 
L 306.551209 84.736728 
L 310.393846 69.305221 
L 312.928352 58.206766 
L 315.054066 47.913051 
L 317.016264 37.295767 
L 318.814945 26.346207 
L 320.531868 14.543885 
L 322.248791 1.138173 
L 322.502739 -1 
L 322.502739 -1 
" style="fill:none;stroke:#0000ff;stroke-dasharray:5.55,2.4;stroke-dashoffset:0;stroke-width:1.5;"/>
   </g>
   <g id="line2d_15">
    <path clip-path="url(#p5f804ebdaa)" d="M 54 179.52 
L 388.8 179.52 
L 388.8 179.52 
" style="fill:none;stroke:#000000;stroke-linecap:square;stroke-width:1.5;"/>
   </g>
   <g id="patch_3">
    <path d="M 54 252 
L 54 34.56 
" style="fill:none;stroke:#000000;stroke-linecap:square;stroke-linejoin:miter;stroke-width:0.8;"/>
   </g>
   <g id="patch_4">
    <path d="M 388.8 252 
L 388.8 34.56 
" style="fill:none;stroke:#000000;stroke-linecap:square;stroke-linejoin:miter;stroke-width:0.8;"/>
   </g>
   <g id="patch_5">
    <path d="M 54 252 
L 388.8 252 
" style="fill:none;stroke:#000000;stroke-linecap:square;stroke-linejoin:miter;stroke-width:0.8;"/>
   </g>
   <g id="patch_6">
    <path d="M 54 34.56 
L 388.8 34.56 
" style="fill:none;stroke:#000000;stroke-linecap:square;stroke-linejoin:miter;stroke-width:0.8;"/>
   </g>
   <g id="text_14">
    <!-- Airy functions -->
    <defs>
     <path d="M 36.296875 69.390625 
C 35.796875 70.6875 35.59375 71 34.59375 71 
C 33.59375 71 33.40625 70.6875 32.90625 69.390625 
L 11.703125 9.0625 
C 9.796875 3.6875 5.796875 2.59375 2.296875 2.59375 
L 2.296875 0 
C 4.09375 0.1875 8.09375 0.1875 10 0.1875 
C 12.5 0.1875 16.5 0.1875 18.90625 0 
L 18.90625 2.59375 
C 14.203125 2.796875 13.5 5.96875 13.5 7.171875 
C 13.5 8.0625 13.703125 8.5625 13.90625 9.15625 
L 19.203125 24 
L 45.40625 24 
L 51.40625 7.078125 
C 51.90625 5.875 51.90625 5.671875 51.90625 5.28125 
C 51.90625 2.59375 47.59375 2.59375 45.703125 2.59375 
L 45.703125 0 
C 48.59375 0.1875 53.796875 0.1875 56.90625 0.1875 
C 59.5 0.1875 64.5 0.1875 66.90625 0 
L 66.90625 2.59375 
C 61.59375 2.59375 59.796875 2.59375 58.5 6.28125 
z
M 32.296875 61.3125 
L 44.5 26.59375 
L 20.09375 26.59375 
z
" id="CMR17-65"/>
     <path d="M 15.5 61.890625 
C 15.5 64.09375 13.703125 66 11.40625 66 
C 9.203125 66 7.296875 64.1875 7.296875 61.890625 
C 7.296875 59.6875 9.09375 57.796875 11.40625 57.796875 
C 13.59375 57.796875 15.5 59.59375 15.5 61.890625 
z
M 3.796875 42.890625 
L 3.796875 40.296875 
C 9.40625 40.296875 10.203125 39.6875 10.203125 34.859375 
L 10.203125 6.921875 
C 10.203125 3.09375 9.796875 2.59375 3.40625 2.59375 
L 3.40625 0 
C 5.796875 0.1875 10.09375 0.1875 12.59375 0.1875 
C 15 0.1875 19.09375 0.1875 21.40625 0 
L 21.40625 2.59375 
C 15.5 2.59375 15.296875 3.203125 15.296875 6.8125 
L 15.296875 44 
z
" id="CMR17-105"/>
     <path d="M 15 23.703125 
C 15 33.34375 19.09375 42.390625 26.59375 42.390625 
C 27.296875 42.390625 28 42.296875 28.703125 41.984375 
C 28.703125 41.984375 26.5 41.28125 26.5 38.671875 
C 26.5 36.265625 28.40625 35.265625 29.90625 35.265625 
C 31.09375 35.265625 33.296875 35.96875 33.296875 38.78125 
C 33.296875 41.984375 30.09375 44 26.703125 44 
C 19.09375 44 15.796875 36.5625 14.796875 33.046875 
L 14.703125 33.046875 
L 14.703125 44 
L 3.09375 42.890625 
L 3.09375 40.28125 
C 9 40.28125 9.90625 39.6875 9.90625 34.859375 
L 9.90625 6.921875 
C 9.90625 3.09375 9.5 2.59375 3.09375 2.59375 
L 3.09375 0 
C 5.5 0.1875 10.09375 0.1875 12.703125 0.1875 
C 15.59375 0.1875 20.703125 0.1875 23.40625 0 
L 23.40625 2.59375 
C 16.203125 2.59375 15 2.59375 15 7.109375 
z
" id="CMR17-114"/>
     <path d="M 39 34.109375 
C 41.5 40.296875 46 40.390625 47.40625 40.390625 
L 47.40625 43 
C 45.5 42.890625 43 42.796875 41.09375 42.796875 
C 39 42.796875 35.703125 42.796875 33.703125 43 
L 33.703125 40.390625 
C 37.5 40.09375 37.59375 37.25 37.59375 36.4375 
C 37.59375 35.4375 37.40625 34.921875 36.90625 33.71875 
L 26 6.390625 
L 14.09375 35.9375 
C 13.59375 37.15625 13.59375 37.859375 13.59375 37.96875 
C 13.59375 40.1875 15.90625 40.390625 18.296875 40.390625 
L 18.296875 43 
C 15.90625 42.796875 11.59375 42.796875 9.09375 42.796875 
C 6.40625 42.796875 3.203125 42.796875 1 43 
L 1 40.390625 
C 6.40625 40.390625 7 39.890625 8.296875 36.640625 
L 23.203125 -0.484375 
C 18.703125 -12.421875 16.09375 -19.40625 9.796875 -19.40625 
C 8.703125 -19.40625 6.203125 -19.109375 4.40625 -17.28125 
C 6.703125 -17.078125 7.703125 -15.65625 7.703125 -13.9375 
C 7.703125 -12.21875 6.5 -10.703125 4.5 -10.703125 
C 2.296875 -10.703125 1.203125 -12.21875 1.203125 -14.046875 
C 1.203125 -18.09375 5.296875 -21 9.796875 -21 
C 15.59375 -21 19.203125 -15.359375 21.203125 -10.296875 
z
" id="CMR17-121"/>
     <path d="M 15.296875 40.390625 
L 26.703125 40.390625 
L 26.703125 43 
L 15.09375 43 
L 15.09375 55.296875 
C 15.09375 63.6875 19.296875 68.390625 23.59375 68.390625 
C 24.90625 68.390625 26.40625 68.171875 27.40625 67.796875 
C 26.59375 67.59375 24.5 66.890625 24.5 64.390625 
C 24.5 61.796875 26.5 61 27.90625 61 
C 29.296875 61 31.296875 61.796875 31.296875 64.390625 
C 31.296875 68.015625 27.703125 70 23.703125 70 
C 18 70 10.203125 65.796875 10.203125 55.09375 
L 10.203125 43 
L 2.203125 43 
L 2.203125 40.390625 
L 10.203125 40.390625 
L 10.203125 6.890625 
C 10.203125 3.09375 9.796875 2.59375 3.40625 2.59375 
L 3.40625 0 
C 5.796875 0.1875 10.40625 0.1875 13 0.1875 
C 15.90625 0.1875 21 0.1875 23.703125 0 
L 23.703125 2.59375 
C 16.5 2.59375 15.296875 2.59375 15.296875 7.09375 
z
" id="CMR17-102"/>
     <path d="M 29.40625 42.890625 
L 29.40625 40.296875 
C 35.296875 40.296875 36.203125 39.6875 36.203125 34.828125 
L 36.203125 16.453125 
C 36.203125 7.96875 31.703125 0.59375 24.296875 0.59375 
C 16.09375 0.59375 15.40625 5.546875 15.40625 10.796875 
L 15.40625 44 
L 3.296875 42.890625 
L 3.296875 40.296875 
C 7.296875 40.296875 10 40.296875 10.09375 36.25 
L 10.09375 16.859375 
C 10.09375 10.09375 10.09375 5.75 12.703125 2.921875 
C 14 1.609375 16.5 -1 23.703125 -1 
C 32.203125 -1 35.5 6.25 36.296875 8.375 
L 36.40625 8.375 
L 36.40625 -1 
L 48.296875 -0.203125 
L 48.296875 2.40625 
C 42.40625 2.40625 41.5 3.015625 41.5 7.859375 
L 41.5 44 
z
" id="CMR17-117"/>
     <path d="M 41.5 30.53125 
C 41.5 35.65625 40.5 44 28.703125 44 
C 20.796875 44 16.703125 37.875 15.203125 33.84375 
L 15.09375 33.84375 
L 15.09375 44 
L 3.296875 42.890625 
L 3.296875 40.28125 
C 9.203125 40.28125 10.09375 39.6875 10.09375 34.859375 
L 10.09375 6.921875 
C 10.09375 3.09375 9.703125 2.59375 3.296875 2.59375 
L 3.296875 0 
C 5.703125 0.1875 10.09375 0.1875 12.703125 0.1875 
C 15.296875 0.1875 19.796875 0.1875 22.203125 0 
L 22.203125 2.59375 
C 15.796875 2.59375 15.40625 3 15.40625 6.921875 
L 15.40625 26.21875 
C 15.40625 35.453125 21 42.390625 28 42.390625 
C 35.40625 42.390625 36.203125 35.765625 36.203125 30.9375 
L 36.203125 6.921875 
C 36.203125 3.09375 35.796875 2.59375 29.40625 2.59375 
L 29.40625 0 
C 31.796875 0.1875 36.203125 0.1875 38.796875 0.1875 
C 41.40625 0.1875 45.90625 0.1875 48.296875 0 
L 48.296875 2.59375 
C 41.90625 2.59375 41.5 3 41.5 6.921875 
z
" id="CMR17-110"/>
     <path d="M 34.90625 35 
C 33 35 30.203125 35 30.203125 31.484375 
C 30.203125 28.6875 32.5 27.890625 33.796875 27.890625 
C 34.5 27.890625 37.40625 28.1875 37.40625 31.6875 
C 37.40625 38.6875 30.59375 44 22.90625 44 
C 12.296875 44 3.296875 34.390625 3.296875 21.546875 
C 3.296875 8.140625 12.703125 -1 22.90625 -1 
C 35.296875 -1 38.40625 10.5625 38.40625 11.671875 
C 38.40625 12.078125 38.296875 12.375 37.59375 12.375 
C 36.90625 12.375 36.796875 12.28125 36.40625 10.96875 
C 33.796875 2.8125 28.09375 0.796875 23.796875 0.796875 
C 17.40625 0.796875 9.703125 6.734375 9.703125 21.640625 
C 9.703125 36.84375 17.09375 42.1875 23 42.1875 
C 26.90625 42.1875 32.703125 40.34375 34.90625 35 
z
" id="CMR17-99"/>
     <path d="M 15.09375 40.390625 
L 29.09375 40.390625 
L 29.09375 43 
L 15.09375 43 
L 15.09375 62 
L 13.296875 62 
C 13.09375 51.4375 9.59375 42.1875 1.09375 41.984375 
L 1.09375 40.390625 
L 9.796875 40.390625 
L 9.796875 12.15625 
C 9.796875 10.234375 9.796875 -1 21.40625 -1 
C 27.296875 -1 30.703125 4.8125 30.703125 12.25 
L 30.703125 17.984375 
L 28.90625 17.984375 
L 28.90625 12.34375 
C 28.90625 5.421875 26.203125 0.796875 22 0.796875 
C 19.09375 0.796875 15.09375 2.796875 15.09375 11.953125 
z
" id="CMR17-116"/>
     <path d="M 43.09375 21.1875 
C 43.09375 34 33.796875 44 22.90625 44 
C 12 44 2.703125 34 2.703125 21.1875 
C 2.703125 8.59375 12 -1 22.90625 -1 
C 33.796875 -1 43.09375 8.59375 43.09375 21.1875 
z
M 22.90625 0.796875 
C 18.203125 0.796875 14.203125 3.59375 11.90625 7.5 
C 9.40625 12 9.09375 17.59375 9.09375 22 
C 9.09375 26.1875 9.296875 31.390625 11.90625 35.890625 
C 13.90625 39.1875 17.796875 42.390625 22.90625 42.390625 
C 27.40625 42.390625 31.203125 39.890625 33.59375 36.390625 
C 36.703125 31.6875 36.703125 25.09375 36.703125 22 
C 36.703125 18.09375 36.5 12.09375 33.796875 7.296875 
C 31 2.6875 26.703125 0.796875 22.90625 0.796875 
z
" id="CMR17-111"/>
     <path d="M 30.90625 42 
C 30.90625 43.796875 30.796875 43.890625 30.203125 43.890625 
C 29.796875 43.890625 29.703125 43.796875 28.5 42.296875 
C 28.203125 41.890625 27.296875 40.890625 27 40.5 
C 23.796875 43.890625 19.296875 44 17.59375 44 
C 6.5 44 2.5 38.1875 2.5 32.390625 
C 2.5 23.390625 12.703125 21.296875 15.59375 20.6875 
C 21.90625 19.390625 24.09375 19 26.203125 17.1875 
C 27.5 16 29.703125 13.796875 29.703125 10.1875 
C 29.703125 6 27.296875 0.59375 18.09375 0.59375 
C 9.40625 0.59375 6.296875 7.1875 4.5 16 
C 4.203125 17.390625 4.203125 17.5 3.40625 17.5 
C 2.59375 17.5 2.5 17.390625 2.5 15.390625 
L 2.5 1 
C 2.5 -0.8125 2.59375 -0.90625 3.203125 -0.90625 
C 3.703125 -0.90625 3.796875 -0.8125 4.296875 0 
C 4.90625 0.890625 6.40625 3.296875 7 4.296875 
C 9 1.59375 12.5 -1 18.09375 -1 
C 28 -1 33.296875 4.390625 33.296875 12.1875 
C 33.296875 17.296875 30.59375 20 29.296875 21.1875 
C 26.296875 24.296875 22.796875 25 18.59375 25.796875 
C 13.09375 27 6.09375 28.390625 6.09375 34.5 
C 6.09375 37.09375 7.5 42.59375 17.59375 42.59375 
C 28.296875 42.59375 28.90625 32.59375 29.09375 29.390625 
C 29.203125 28.890625 29.703125 28.796875 30 28.796875 
C 30.90625 28.796875 30.90625 29.09375 30.90625 30.796875 
z
" id="CMR17-115"/>
    </defs>
    <g transform="translate(170.143717 28.56)scale(0.168 -0.168)">
     <use transform="scale(0.996264)" xlink:href="#CMR17-65"/>
     <use transform="translate(69.07243 0)scale(0.996264)" xlink:href="#CMR17-105"/>
     <use transform="translate(93.943488 0)scale(0.996264)" xlink:href="#CMR17-114"/>
     <use transform="translate(129.224256 0)scale(0.996264)" xlink:href="#CMR17-121"/>
     <use transform="translate(207.593138 0)scale(0.996264)" xlink:href="#CMR17-102"/>
     <use transform="translate(235.066651 0)scale(0.996264)" xlink:href="#CMR17-117"/>
     <use transform="translate(285.96202 0)scale(0.996264)" xlink:href="#CMR17-110"/>
     <use transform="translate(336.85739 0)scale(0.996264)" xlink:href="#CMR17-99"/>
     <use transform="translate(377.343051 0)scale(0.996264)" xlink:href="#CMR17-116"/>
     <use transform="translate(412.623819 0)scale(0.996264)" xlink:href="#CMR17-105"/>
     <use transform="translate(437.494877 0)scale(0.996264)" xlink:href="#CMR17-111"/>
     <use transform="translate(483.185354 0)scale(0.996264)" xlink:href="#CMR17-110"/>
     <use transform="translate(534.080724 0)scale(0.996264)" xlink:href="#CMR17-115"/>
    </g>
   </g>
   <g id="legend_1">
    <g id="patch_7">
     <path d="M 63.8 87.655392 
L 141.014365 87.655392 
Q 143.814365 87.655392 143.814365 84.855392 
L 143.814365 44.36 
Q 143.814365 41.56 141.014365 41.56 
L 63.8 41.56 
Q 61 41.56 61 44.36 
L 61 84.855392 
Q 61 87.655392 63.8 87.655392 
z
" style="fill:#ffffff;opacity:0.8;stroke:#cccccc;stroke-linejoin:miter;"/>
    </g>
    <g id="line2d_16">
     <path d="M 66.6 52.720772 
L 94.6 52.720772 
" style="fill:none;stroke:#ff0000;stroke-linecap:square;stroke-width:1.5;"/>
    </g>
    <g id="line2d_17"/>
    <g id="text_15">
     <!-- ${\rm Ai}(x)$ -->
     <defs>
      <path d="M 30.59375 -24.40625 
C 30.59375 -24.3125 30.59375 -24.109375 30.296875 -23.8125 
C 25.703125 -19.109375 13.40625 -6.296875 13.40625 24.9375 
C 13.40625 56.171875 25.5 68.875 30.40625 73.890625 
C 30.40625 73.984375 30.59375 74.1875 30.59375 74.484375 
C 30.59375 74.796875 30.296875 75 29.90625 75 
C 28.796875 75 20.296875 67.578125 15.40625 56.5625 
C 10.40625 45.453125 9 34.65625 9 25.046875 
C 9 17.828125 9.703125 5.625 15.703125 -7.296875 
C 20.5 -17.703125 28.703125 -25 29.90625 -25 
C 30.40625 -25 30.59375 -24.8125 30.59375 -24.40625 
z
" id="CMR17-40"/>
      <path d="M 26.296875 24.9375 
C 26.296875 32.140625 25.59375 44.359375 19.59375 57.265625 
C 14.796875 67.6875 6.59375 75 5.40625 75 
C 5.09375 75 4.703125 74.890625 4.703125 74.390625 
C 4.703125 74.1875 4.796875 74.09375 4.90625 73.890625 
C 9.703125 68.875 21.90625 56.171875 21.90625 25.046875 
C 21.90625 -6.1875 9.796875 -18.90625 4.90625 -23.90625 
C 4.796875 -24.109375 4.703125 -24.203125 4.703125 -24.40625 
C 4.703125 -24.90625 5.09375 -25 5.40625 -25 
C 6.5 -25 15 -17.609375 19.90625 -6.59375 
C 24.90625 4.515625 26.296875 15.328125 26.296875 24.9375 
z
" id="CMR17-41"/>
     </defs>
     <g transform="translate(105.8 57.620772)scale(0.14 -0.14)">
      <use transform="scale(0.996264)" xlink:href="#CMR17-65"/>
      <use transform="translate(69.07243 0)scale(0.996264)" xlink:href="#CMR17-105"/>
      <use transform="translate(93.943488 0)scale(0.996264)" xlink:href="#CMR17-40"/>
      <use transform="translate(129.224256 0)scale(0.996264)" xlink:href="#CMMI12-120"/>
      <use transform="translate(184.658316 0)scale(0.996264)" xlink:href="#CMR17-41"/>
     </g>
    </g>
    <g id="line2d_18">
     <path d="M 66.6 73.668468 
L 94.6 73.668468 
" style="fill:none;stroke:#0000ff;stroke-dasharray:5.55,2.4;stroke-dashoffset:0;stroke-width:1.5;"/>
    </g>
    <g id="line2d_19"/>
    <g id="text_16">
     <!-- ${\rm Bi}(x)$ -->
     <defs>
      <path d="M 5.203125 68 
L 5.203125 65.390625 
C 12.09375 65.390625 13.203125 65.390625 13.203125 60.890625 
L 13.203125 7.046875 
C 13.203125 2.59375 12.09375 2.59375 5.203125 2.59375 
L 5.203125 0 
L 39.59375 0 
C 52.40625 0 60.703125 9.03125 60.703125 18.046875 
C 60.703125 26.96875 52.5 34.59375 41.796875 35.296875 
C 51.40625 37.1875 58.09375 43.59375 58.09375 51.1875 
C 58.09375 59.5 49.90625 68 37 68 
z
M 19.5 36 
L 19.5 61.5 
C 19.5 64.890625 19.703125 65.390625 23.703125 65.390625 
L 36.5 65.390625 
C 46.40625 65.390625 50.796875 57.390625 50.796875 51.1875 
C 50.796875 43.59375 44.703125 36 33.90625 36 
z
M 23.703125 2.59375 
C 19.703125 2.59375 19.5 3.09375 19.5 6.453125 
L 19.5 34.390625 
L 38 34.390625 
C 48.296875 34.390625 53.296875 25.375 53.296875 18.140625 
C 53.296875 10.90625 47.59375 2.59375 36.703125 2.59375 
z
" id="CMR17-66"/>
     </defs>
     <g transform="translate(105.8 78.568468)scale(0.14 -0.14)">
      <use transform="scale(0.996264)" xlink:href="#CMR17-66"/>
      <use transform="translate(65.188754 0)scale(0.996264)" xlink:href="#CMR17-105"/>
      <use transform="translate(90.059813 0)scale(0.996264)" xlink:href="#CMR17-40"/>
      <use transform="translate(125.340581 0)scale(0.996264)" xlink:href="#CMMI12-120"/>
      <use transform="translate(180.77464 0)scale(0.996264)" xlink:href="#CMR17-41"/>
     </g>
    </g>
   </g>
  </g>
 </g>
 <defs>
  <clipPath id="p5f804ebdaa">
   <rect height="217.44" width="334.8" x="54" y="34.56"/>
  </clipPath>
 </defs>
</svg>
