<?xml version="1.0" encoding="utf-8" standalone="no"?>
<!DOCTYPE svg PUBLIC "-//W3C//DTD SVG 1.1//EN"
  "http://www.w3.org/Graphics/SVG/1.1/DTD/svg11.dtd">
<!-- Created with matplotlib (https://matplotlib.org/) -->
<svg height="288pt" version="1.1" viewBox="0 0 432 288" width="432pt" xmlns="http://www.w3.org/2000/svg" xmlns:xlink="http://www.w3.org/1999/xlink">
 <defs>
  <style type="text/css">
*{stroke-linecap:butt;stroke-linejoin:round;}
  </style>
 </defs>
 <g id="figure_1">
  <g id="patch_1">
   <path d="M 0 288 
L 432 288 
L 432 0 
L 0 0 
z
" style="fill:#ffffff;"/>
  </g>
  <g id="axes_1">
   <g id="patch_2">
    <path d="M 54 252 
L 388.8 252 
L 388.8 34.56 
L 54 34.56 
z
" style="fill:#ffffff;"/>
   </g>
   <g id="matplotlib.axis_1">
    <g id="xtick_1">
     <g id="line2d_1">
      <defs>
       <path d="M 0 0 
L 0 3.5 
" id="md94605d45c" style="stroke:#000000;stroke-width:0.8;"/>
      </defs>
      <g>
       <use style="stroke:#000000;stroke-width:0.8;" x="133.756021" xlink:href="#md94605d45c" y="252"/>
      </g>
     </g>
     <g id="text_1">
      <!-- $-5$ -->
      <defs>
       <path d="M 65.90625 23 
C 67.59375 23 69.40625 23 69.40625 25 
C 69.40625 27 67.59375 27 65.90625 27 
L 11.796875 27 
C 10.09375 27 8.296875 27 8.296875 25 
C 8.296875 23 10.09375 23 11.796875 23 
z
" id="CMSY10-0"/>
       <path d="M 11.40625 58.59375 
C 12.40625 58.1875 16.5 56.890625 20.703125 56.890625 
C 30 56.890625 35.09375 61.890625 38 64.6875 
C 38 65.484375 38 66 37.40625 66 
C 37.296875 66 37.09375 66 36.296875 65.59375 
C 32.796875 64.09375 28.703125 63 23.703125 63 
C 20.703125 63 16.203125 63.359375 11.296875 65.484375 
C 10.203125 66 10 66 9.90625 66 
C 9.40625 66 9.296875 65.890625 9.296875 63.90625 
L 9.296875 34.859375 
C 9.296875 33.015625 9.296875 32.5 10.296875 32.5 
C 10.796875 32.5 11 32.703125 11.5 33.421875 
C 14.703125 38.046875 19.09375 40 24.09375 40 
C 27.59375 40 35.09375 37.734375 35.09375 20.203125 
C 35.09375 16.984375 35.09375 11.1875 32.09375 6.59375 
C 29.59375 2.484375 25.703125 0.390625 21.40625 0.390625 
C 14.796875 0.390625 8.09375 4.984375 6.296875 12.6875 
C 6.703125 12.59375 7.5 12.390625 7.90625 12.390625 
C 9.203125 12.390625 11.703125 13.09375 11.703125 16.1875 
C 11.703125 18.890625 9.796875 20 7.90625 20 
C 5.59375 20 4.09375 18.59375 4.09375 15.796875 
C 4.09375 7.09375 11 -2 21.59375 -2 
C 31.90625 -2 41.703125 6.890625 41.703125 19.796875 
C 41.703125 32.09375 33.90625 41.59375 24.203125 41.59375 
C 19.09375 41.59375 14.796875 39.6875 11.40625 36 
z
" id="CMR17-53"/>
      </defs>
      <g transform="translate(124.917659 268.685876)scale(0.14 -0.14)">
       <use transform="scale(0.996264)" xlink:href="#CMSY10-0"/>
       <use transform="translate(77.487468 0)scale(0.996264)" xlink:href="#CMR17-53"/>
      </g>
     </g>
    </g>
    <g id="xtick_2">
     <g id="line2d_2">
      <g>
       <use style="stroke:#000000;stroke-width:0.8;" x="221.4" xlink:href="#md94605d45c" y="252"/>
      </g>
     </g>
     <g id="text_2">
      <!-- $0$ -->
      <defs>
       <path d="M 42 31.84375 
C 42 37.96875 41.90625 48.421875 37.703125 56.453125 
C 34 63.484375 28.09375 66 22.90625 66 
C 18.09375 66 12 63.78125 8.203125 56.5625 
C 4.203125 49.015625 3.796875 39.671875 3.796875 31.84375 
C 3.796875 26.109375 3.90625 17.375 7 9.734375 
C 11.296875 -0.609375 19 -2 22.90625 -2 
C 27.5 -2 34.5 -0.109375 38.59375 9.4375 
C 41.59375 16.375 42 24.5 42 31.84375 
z
M 22.90625 -0.40625 
C 16.5 -0.40625 12.703125 5.125 11.296875 12.75 
C 10.203125 18.6875 10.203125 27.328125 10.203125 32.953125 
C 10.203125 40.6875 10.203125 47.109375 11.5 53.234375 
C 13.40625 61.78125 19 64.390625 22.90625 64.390625 
C 27 64.390625 32.296875 61.671875 34.203125 53.4375 
C 35.5 47.71875 35.59375 40.984375 35.59375 32.953125 
C 35.59375 26.421875 35.59375 18.375 34.40625 12.453125 
C 32.296875 1.5 26.40625 -0.40625 22.90625 -0.40625 
z
" id="CMR17-48"/>
      </defs>
      <g transform="translate(217.985756 268.685876)scale(0.14 -0.14)">
       <use transform="scale(0.996264)" xlink:href="#CMR17-48"/>
      </g>
     </g>
    </g>
    <g id="xtick_3">
     <g id="line2d_3">
      <g>
       <use style="stroke:#000000;stroke-width:0.8;" x="309.043979" xlink:href="#md94605d45c" y="252"/>
      </g>
     </g>
     <g id="text_3">
      <!-- $5$ -->
      <g transform="translate(305.629735 268.685876)scale(0.14 -0.14)">
       <use transform="scale(0.996264)" xlink:href="#CMR17-53"/>
      </g>
     </g>
    </g>
    <g id="text_4">
     <!-- $z/z_0$ -->
     <defs>
      <path d="M 12.703125 7.59375 
C 17 12.640625 20.5 15.859375 25.5 20.515625 
C 31.5 25.890625 34.09375 28.46875 35.5 30.03125 
C 42.5 37.046875 46 42.390625 46 43.1875 
C 46 44 45.203125 44 45 44 
C 44.296875 44 44.09375 43.59375 43.59375 42.890625 
C 41.09375 38.59375 38.703125 37 36.09375 37 
C 34 37 32.90625 37.546875 31 39.796875 
C 28.90625 42.296875 27.203125 44 24.296875 44 
C 17 44 12.59375 35.390625 12.59375 33.234375 
C 12.59375 32.921875 12.703125 32.296875 13.59375 32.296875 
C 14.40625 32.296875 14.5 32.71875 14.796875 33.4375 
C 16.5 37.296875 21.296875 37.734375 23.203125 37.734375 
C 25.296875 37.734375 27.296875 37.296875 29.40625 36.59375 
C 33.203125 34.984375 34.796875 34.984375 35.796875 34.984375 
C 36.5 34.984375 36.90625 34.984375 37.40625 35.09375 
C 34.09375 31.0625 28.703125 26.09375 24.203125 21.859375 
L 14.09375 12.234375 
C 8 5.9375 4.296875 0.5 4.296875 -0.203125 
C 4.296875 -0.8125 4.796875 -1 5.40625 -1 
C 6 -1 6.09375 -0.90625 6.796875 0.296875 
C 8.40625 2.796875 11.59375 6 15.296875 6 
C 17.40625 6 18.40625 5.5625 20.40625 3.296875 
C 22.296875 1.09375 24 -1 27.203125 -1 
C 37 -1 42.59375 11.296875 42.59375 13.6875 
C 42.59375 14.09375 42.5 14.71875 41.5 14.71875 
C 40.703125 14.71875 40.59375 14.296875 40.296875 13.265625 
C 38.09375 7.1875 32.203125 5.25 28.296875 5.25 
C 26.203125 5.25 24.203125 5.6875 22.09375 6.390625 
C 18.09375 8 17 8 15.703125 8 
C 14.703125 8 13.59375 8 12.703125 7.59375 
z
" id="CMMI12-122"/>
      <path d="M 42.90625 71.296875 
C 42.90625 71.390625 43.5 72.890625 43.5 73.09375 
C 43.5 74.296875 42.5 75 41.703125 75 
C 41.203125 75 40.296875 75 39.5 72.796875 
L 6 -21.3125 
C 6 -21.40625 5.40625 -22.90625 5.40625 -23.109375 
C 5.40625 -24.3125 6.40625 -25 7.203125 -25 
C 7.796875 -25 8.703125 -24.90625 9.40625 -22.8125 
z
" id="CMMI12-61"/>
     </defs>
     <g transform="translate(208.822182 286.633573)scale(0.14 -0.14)">
      <use transform="translate(0 14.943915)scale(0.996264)" xlink:href="#CMMI12-122"/>
      <use transform="translate(49.755145 14.943915)scale(0.996264)" xlink:href="#CMMI12-61"/>
      <use transform="translate(98.530064 14.943915)scale(0.996264)" xlink:href="#CMMI12-122"/>
      <use transform="translate(143.845817 0)scale(0.697382)" xlink:href="#CMR17-48"/>
     </g>
    </g>
   </g>
   <g id="matplotlib.axis_2">
    <g id="ytick_1">
     <g id="line2d_4">
      <defs>
       <path d="M 0 0 
L -3.5 0 
" id="md2add323b4" style="stroke:#000000;stroke-width:0.8;"/>
      </defs>
      <g>
       <use style="stroke:#000000;stroke-width:0.8;" x="54" xlink:href="#md2add323b4" y="252"/>
      </g>
     </g>
     <g id="text_5">
      <!-- $0$ -->
      <g transform="translate(40.171511 256.842938)scale(0.14 -0.14)">
       <use transform="scale(0.996264)" xlink:href="#CMR17-48"/>
      </g>
     </g>
    </g>
    <g id="ytick_2">
     <g id="line2d_5">
      <g>
       <use style="stroke:#000000;stroke-width:0.8;" x="54" xlink:href="#md2add323b4" y="206.462827"/>
      </g>
     </g>
     <g id="text_6">
      <!-- $2$ -->
      <defs>
       <path d="M 41.703125 15.46875 
L 39.90625 15.46875 
C 38.90625 8.390625 38.09375 7.1875 37.703125 6.59375 
C 37.203125 5.796875 30 5.796875 28.59375 5.796875 
L 9.40625 5.796875 
C 13 9.6875 20 16.765625 28.5 24.9375 
C 34.59375 30.71875 41.703125 37.5 41.703125 47.390625 
C 41.703125 59.1875 32.296875 66 21.796875 66 
C 10.796875 66 4.09375 56.296875 4.09375 47.296875 
C 4.09375 43.390625 7 42.890625 8.203125 42.890625 
C 9.203125 42.890625 12.203125 43.484375 12.203125 46.984375 
C 12.203125 50.09375 9.59375 51 8.203125 51 
C 7.59375 51 7 50.890625 6.59375 50.6875 
C 8.5 59.1875 14.296875 63.390625 20.40625 63.390625 
C 29.09375 63.390625 34.796875 56.5 34.796875 47.390625 
C 34.796875 38.703125 29.703125 31.21875 24 24.734375 
L 4.09375 2.296875 
L 4.09375 0 
L 39.296875 0 
z
" id="CMR17-50"/>
      </defs>
      <g transform="translate(40.171511 211.305765)scale(0.14 -0.14)">
       <use transform="scale(0.996264)" xlink:href="#CMR17-50"/>
      </g>
     </g>
    </g>
    <g id="ytick_3">
     <g id="line2d_6">
      <g>
       <use style="stroke:#000000;stroke-width:0.8;" x="54" xlink:href="#md2add323b4" y="160.925654"/>
      </g>
     </g>
     <g id="text_7">
      <!-- $4$ -->
      <defs>
       <path d="M 33.59375 64.796875 
C 33.59375 66.890625 33.5 67 31.703125 67 
L 2 19.59375 
L 2 17 
L 27.796875 17 
L 27.796875 7.1875 
C 27.796875 3.59375 27.59375 2.59375 20.59375 2.59375 
L 18.703125 2.59375 
L 18.703125 0 
C 21.90625 0.1875 27.296875 0.1875 30.703125 0.1875 
C 34.09375 0.1875 39.5 0.1875 42.703125 0 
L 42.703125 2.59375 
L 40.796875 2.59375 
C 33.796875 2.59375 33.59375 3.59375 33.59375 7.1875 
L 33.59375 17 
L 43.796875 17 
L 43.796875 19.59375 
L 33.59375 19.59375 
z
M 28.09375 58.171875 
L 28.09375 19.59375 
L 4 19.59375 
z
" id="CMR17-52"/>
      </defs>
      <g transform="translate(40.171511 165.768593)scale(0.14 -0.14)">
       <use transform="scale(0.996264)" xlink:href="#CMR17-52"/>
      </g>
     </g>
    </g>
    <g id="ytick_4">
     <g id="line2d_7">
      <g>
       <use style="stroke:#000000;stroke-width:0.8;" x="54" xlink:href="#md2add323b4" y="115.388482"/>
      </g>
     </g>
     <g id="text_8">
      <!-- $6$ -->
      <defs>
       <path d="M 10.59375 34.34375 
C 10.59375 58 21.796875 63.6875 28.296875 63.6875 
C 30.40625 63.6875 35.5 63.265625 37.5 59.09375 
C 35.90625 59.09375 32.90625 59.09375 32.90625 55.59375 
C 32.90625 52.890625 35.09375 52 36.5 52 
C 37.40625 52 40.09375 52.390625 40.09375 55.796875 
C 40.09375 62.296875 35.09375 66 28.203125 66 
C 16.296875 66 3.796875 53.296875 3.796875 31.421875 
C 3.796875 4.015625 15.09375 -2 23.09375 -2 
C 32.796875 -2 42 6.734375 42 20.234375 
C 42 32.828125 33.90625 42 23.703125 42 
C 17.59375 42 13.09375 37.96875 10.59375 30.921875 
z
M 23.09375 0.390625 
C 10.796875 0.390625 10.796875 18.9375 10.796875 22.65625 
C 10.796875 29.90625 14.203125 40.390625 23.5 40.390625 
C 25.203125 40.390625 30.09375 40.390625 33.40625 33.4375 
C 35.203125 29.515625 35.203125 25.375 35.203125 20.34375 
C 35.203125 14.90625 35.203125 10.875 33.09375 6.84375 
C 30.90625 2.703125 27.703125 0.390625 23.09375 0.390625 
z
" id="CMR17-54"/>
      </defs>
      <g transform="translate(40.171511 120.23142)scale(0.14 -0.14)">
       <use transform="scale(0.996264)" xlink:href="#CMR17-54"/>
      </g>
     </g>
    </g>
    <g id="ytick_5">
     <g id="line2d_8">
      <g>
       <use style="stroke:#000000;stroke-width:0.8;" x="54" xlink:href="#md2add323b4" y="69.851309"/>
      </g>
     </g>
     <g id="text_9">
      <!-- $8$ -->
      <defs>
       <path d="M 27.203125 35.765625 
C 33.5 38.96875 39.90625 43.796875 39.90625 51.53125 
C 39.90625 60.6875 31.09375 66 23 66 
C 13.90625 66 5.90625 59.375 5.90625 50.234375 
C 5.90625 47.71875 6.5 43.390625 10.40625 39.578125 
C 11.40625 38.578125 15.59375 35.5625 18.296875 33.65625 
C 13.796875 31.34375 3.296875 25.8125 3.296875 14.765625 
C 3.296875 4.40625 13.09375 -2 22.796875 -2 
C 33.5 -2 42.5 5.71875 42.5 15.96875 
C 42.5 25.109375 36.40625 29.328125 32.40625 32.046875 
z
M 14.09375 44.609375 
C 13.296875 45.109375 9.296875 48.21875 9.296875 52.9375 
C 9.296875 59.078125 15.59375 63.6875 22.796875 63.6875 
C 30.703125 63.6875 36.5 58.0625 36.5 51.53125 
C 36.5 42.1875 26.09375 36.859375 25.59375 36.859375 
C 25.5 36.859375 25.40625 36.859375 24.59375 37.46875 
z
M 32.5 24 
C 34 22.90625 38.796875 19.578125 38.796875 13.453125 
C 38.796875 6.015625 31.40625 0.390625 23 0.390625 
C 13.90625 0.390625 7 6.921875 7 14.859375 
C 7 22.796875 13.09375 29.4375 20 32.546875 
z
" id="CMR17-56"/>
      </defs>
      <g transform="translate(40.171511 74.694247)scale(0.14 -0.14)">
       <use transform="scale(0.996264)" xlink:href="#CMR17-56"/>
      </g>
     </g>
    </g>
    <g id="text_10">
     <!-- Energy ($mgz_0$) -->
     <defs>
      <path d="M 60.703125 25.21875 
L 58.90625 25.21875 
C 56.703125 10.5625 55.40625 2.59375 37.796875 2.59375 
L 23.90625 2.59375 
C 19.90625 2.59375 19.703125 3.09375 19.703125 6.484375 
L 19.703125 34 
L 29.09375 34 
C 38.5 34 39.40625 30.609375 39.40625 22.328125 
L 41.203125 22.328125 
L 41.203125 48.21875 
L 39.40625 48.21875 
C 39.40625 39.96875 38.5 36.59375 29.09375 36.59375 
L 19.703125 36.59375 
L 19.703125 61.3125 
C 19.703125 64.703125 19.90625 65.1875 23.90625 65.1875 
L 37.59375 65.1875 
C 53.09375 65.1875 54.90625 59.03125 56.296875 45.828125 
L 58.09375 45.828125 
L 55.703125 67.796875 
L 5.09375 67.796875 
L 5.09375 65.1875 
C 12 65.1875 13.09375 65.1875 13.09375 60.71875 
L 13.09375 7.078125 
C 13.09375 2.59375 12 2.59375 5.09375 2.59375 
L 5.09375 0 
L 57.09375 0 
z
" id="CMR17-69"/>
      <path d="M 41.5 30.53125 
C 41.5 35.65625 40.5 44 28.703125 44 
C 20.796875 44 16.703125 37.875 15.203125 33.84375 
L 15.09375 33.84375 
L 15.09375 44 
L 3.296875 42.890625 
L 3.296875 40.28125 
C 9.203125 40.28125 10.09375 39.6875 10.09375 34.859375 
L 10.09375 6.921875 
C 10.09375 3.09375 9.703125 2.59375 3.296875 2.59375 
L 3.296875 0 
C 5.703125 0.1875 10.09375 0.1875 12.703125 0.1875 
C 15.296875 0.1875 19.796875 0.1875 22.203125 0 
L 22.203125 2.59375 
C 15.796875 2.59375 15.40625 3 15.40625 6.921875 
L 15.40625 26.21875 
C 15.40625 35.453125 21 42.390625 28 42.390625 
C 35.40625 42.390625 36.203125 35.765625 36.203125 30.9375 
L 36.203125 6.921875 
C 36.203125 3.09375 35.796875 2.59375 29.40625 2.59375 
L 29.40625 0 
C 31.796875 0.1875 36.203125 0.1875 38.796875 0.1875 
C 41.40625 0.1875 45.90625 0.1875 48.296875 0 
L 48.296875 2.59375 
C 41.90625 2.59375 41.5 3 41.5 6.921875 
z
" id="CMR17-110"/>
      <path d="M 38.09375 23.484375 
C 38.5 23.890625 38.5 24.09375 38.5 25.09375 
C 38.5 35.171875 33.09375 44 21.703125 44 
C 11.09375 44 2.703125 33.984375 2.703125 21.78125 
C 2.703125 8.65625 12.203125 -1 22.796875 -1 
C 34 -1 38.40625 9.671875 38.40625 11.796875 
C 38.40625 12.5 37.796875 12.5 37.59375 12.5 
C 36.90625 12.5 36.796875 12.296875 36.40625 11.078125 
C 34.203125 4.21875 28.703125 0.796875 23.5 0.796875 
C 19.203125 0.796875 14.90625 3.21875 12.203125 7.65625 
C 9.09375 12.796875 9.09375 18.75 9.09375 23.484375 
z
M 9.203125 25 
C 9.90625 39.234375 17.59375 42.390625 21.59375 42.390625 
C 28.40625 42.390625 33 36.0625 33.09375 25 
z
" id="CMR17-101"/>
      <path d="M 15 23.703125 
C 15 33.34375 19.09375 42.390625 26.59375 42.390625 
C 27.296875 42.390625 28 42.296875 28.703125 41.984375 
C 28.703125 41.984375 26.5 41.28125 26.5 38.671875 
C 26.5 36.265625 28.40625 35.265625 29.90625 35.265625 
C 31.09375 35.265625 33.296875 35.96875 33.296875 38.78125 
C 33.296875 41.984375 30.09375 44 26.703125 44 
C 19.09375 44 15.796875 36.5625 14.796875 33.046875 
L 14.703125 33.046875 
L 14.703125 44 
L 3.09375 42.890625 
L 3.09375 40.28125 
C 9 40.28125 9.90625 39.6875 9.90625 34.859375 
L 9.90625 6.921875 
C 9.90625 3.09375 9.5 2.59375 3.09375 2.59375 
L 3.09375 0 
C 5.5 0.1875 10.09375 0.1875 12.703125 0.1875 
C 15.59375 0.1875 20.703125 0.1875 23.40625 0 
L 23.40625 2.59375 
C 16.203125 2.59375 15 2.59375 15 7.109375 
z
" id="CMR17-114"/>
      <path d="M 11.09375 18.203125 
C 13 16.6875 16.296875 15 20.296875 15 
C 28.203125 15 35 21.234375 35 29.609375 
C 35 32.234375 34.203125 36.265625 31.203125 39.390625 
C 34 42.390625 38.09375 43.390625 40.40625 43.390625 
C 40.796875 43.390625 41.40625 43.390625 41.90625 43.09375 
C 41.5 42.984375 40.59375 42.59375 40.59375 40.984375 
C 40.59375 39.6875 41.5 38.796875 42.796875 38.796875 
C 44.296875 38.796875 45.09375 39.796875 45.09375 41.09375 
C 45.09375 42.984375 43.59375 45 40.40625 45 
C 36.40625 45 32.90625 43.09375 30.09375 40.484375 
C 27.09375 43.1875 23.5 44.1875 20.296875 44.1875 
C 12.40625 44.1875 5.59375 37.984375 5.59375 29.609375 
C 5.59375 23.859375 8.90625 20.21875 9.90625 19.21875 
C 6.90625 15.6875 6.90625 11.59375 6.90625 11.09375 
C 6.90625 8.5 7.90625 4.6875 11.296875 2.59375 
C 6.09375 1.28125 2 -2.875 2 -8.078125 
C 2 -15.5625 11.5 -21 22.90625 -21 
C 33.90625 -21 43.796875 -15.765625 43.796875 -7.96875 
C 43.796875 6 29 6 21.296875 6 
C 19 6 14.90625 6 14.40625 6.09375 
C 11.296875 6.59375 9.203125 9.390625 9.203125 12.890625 
C 9.203125 13.796875 9.203125 16 11.09375 18.203125 
z
M 20.296875 16.6875 
C 11.5 16.6875 11.5 27.59375 11.5 29.609375 
C 11.5 31.625 11.5 42.484375 20.296875 42.484375 
C 29.09375 42.484375 29.09375 31.625 29.09375 29.609375 
C 29.09375 27.59375 29.09375 16.6875 20.296875 16.6875 
z
M 22.90625 -19.3125 
C 12.90625 -19.3125 6 -13.796875 6 -8.078125 
C 6 -4.859375 7.703125 -1.84375 9.90625 -0.171875 
C 12.40625 1.59375 13.40625 1.59375 20.203125 1.59375 
C 28.40625 1.59375 39.796875 1.59375 39.796875 -8.078125 
C 39.796875 -13.796875 32.90625 -19.3125 22.90625 -19.3125 
z
" id="CMR17-103"/>
      <path d="M 39 34.109375 
C 41.5 40.296875 46 40.390625 47.40625 40.390625 
L 47.40625 43 
C 45.5 42.890625 43 42.796875 41.09375 42.796875 
C 39 42.796875 35.703125 42.796875 33.703125 43 
L 33.703125 40.390625 
C 37.5 40.09375 37.59375 37.25 37.59375 36.4375 
C 37.59375 35.4375 37.40625 34.921875 36.90625 33.71875 
L 26 6.390625 
L 14.09375 35.9375 
C 13.59375 37.15625 13.59375 37.859375 13.59375 37.96875 
C 13.59375 40.1875 15.90625 40.390625 18.296875 40.390625 
L 18.296875 43 
C 15.90625 42.796875 11.59375 42.796875 9.09375 42.796875 
C 6.40625 42.796875 3.203125 42.796875 1 43 
L 1 40.390625 
C 6.40625 40.390625 7 39.890625 8.296875 36.640625 
L 23.203125 -0.484375 
C 18.703125 -12.421875 16.09375 -19.40625 9.796875 -19.40625 
C 8.703125 -19.40625 6.203125 -19.109375 4.40625 -17.28125 
C 6.703125 -17.078125 7.703125 -15.65625 7.703125 -13.9375 
C 7.703125 -12.21875 6.5 -10.703125 4.5 -10.703125 
C 2.296875 -10.703125 1.203125 -12.21875 1.203125 -14.046875 
C 1.203125 -18.09375 5.296875 -21 9.796875 -21 
C 15.59375 -21 19.203125 -15.359375 21.203125 -10.296875 
z
" id="CMR17-121"/>
      <path d="M 30.59375 -24.40625 
C 30.59375 -24.3125 30.59375 -24.109375 30.296875 -23.8125 
C 25.703125 -19.109375 13.40625 -6.296875 13.40625 24.9375 
C 13.40625 56.171875 25.5 68.875 30.40625 73.890625 
C 30.40625 73.984375 30.59375 74.1875 30.59375 74.484375 
C 30.59375 74.796875 30.296875 75 29.90625 75 
C 28.796875 75 20.296875 67.578125 15.40625 56.5625 
C 10.40625 45.453125 9 34.65625 9 25.046875 
C 9 17.828125 9.703125 5.625 15.703125 -7.296875 
C 20.5 -17.703125 28.703125 -25 29.90625 -25 
C 30.40625 -25 30.59375 -24.8125 30.59375 -24.40625 
z
" id="CMR17-40"/>
      <path d="M 20.59375 29.21875 
C 20.796875 29.828125 23.296875 34.8125 27 38 
C 29.59375 40.390625 33 41.984375 36.90625 41.984375 
C 40.90625 41.984375 42.296875 39 42.296875 35.015625 
C 42.296875 34.40625 42.296875 32.421875 41.09375 27.734375 
L 38.59375 17.453125 
C 37.796875 14.453125 35.90625 7.078125 35.703125 5.984375 
C 35.296875 4.484375 34.703125 1.890625 34.703125 1.484375 
C 34.703125 0.09375 35.796875 -1 37.296875 -1 
C 40.296875 -1 40.796875 1.296875 41.703125 4.890625 
L 47.703125 28.71875 
C 47.90625 29.53125 53.09375 41.984375 64.09375 41.984375 
C 68.09375 41.984375 69.5 39 69.5 35.015625 
C 69.5 29.421875 65.59375 18.546875 63.40625 12.5625 
C 62.5 10.171875 62 8.875 62 7.078125 
C 62 2.59375 65.09375 -1 69.90625 -1 
C 79.203125 -1 82.703125 13.65625 82.703125 14.265625 
C 82.703125 14.765625 82.296875 15.15625 81.703125 15.15625 
C 80.796875 15.15625 80.703125 14.859375 80.203125 13.15625 
C 77.90625 5.1875 74.203125 1 70.203125 1 
C 69.203125 1 67.59375 1.09375 67.59375 4.28125 
C 67.59375 6.875 68.796875 10.078125 69.203125 11.171875 
C 71 15.953125 75.5 27.734375 75.5 33.515625 
C 75.5 39.5 72 44 64.40625 44 
C 57.703125 44 52.296875 40.203125 48.296875 34.3125 
C 48 39.703125 44.703125 44 37.203125 44 
C 28.296875 44 23.59375 37.703125 21.796875 35.203125 
C 21.5 40.890625 17.40625 44 13 44 
C 10.09375 44 7.796875 42.59375 5.90625 38.796875 
C 4.09375 35.203125 2.703125 29.125 2.703125 28.71875 
C 2.703125 28.328125 3.09375 27.828125 3.796875 27.828125 
C 4.59375 27.828125 4.703125 27.921875 5.296875 30.21875 
C 6.796875 36.109375 8.703125 41.984375 12.703125 41.984375 
C 15 41.984375 15.796875 40.390625 15.796875 37.40625 
C 15.796875 35.203125 14.796875 31.3125 14.09375 28.234375 
L 11.296875 17.453125 
C 10.90625 15.5625 9.796875 11.0625 9.296875 9.265625 
C 8.59375 6.671875 7.5 1.984375 7.5 1.484375 
C 7.5 0.09375 8.59375 -1 10.09375 -1 
C 11.296875 -1 12.703125 -0.40625 13.5 1.09375 
C 13.703125 1.59375 14.59375 5.078125 15.09375 7.078125 
L 17.296875 16.0625 
z
" id="CMMI12-109"/>
      <path d="M 33.796875 12.671875 
C 33.40625 11.0625 33.203125 10.671875 31.90625 9.171875 
C 27.796875 3.890625 23.59375 2 20.5 2 
C 17.203125 2 14.09375 4.578125 14.09375 11.46875 
C 14.09375 16.75 17.09375 27.921875 19.296875 32.421875 
C 22.203125 38 26.703125 41.984375 30.90625 41.984375 
C 37.5 41.984375 38.796875 33.8125 38.796875 33.21875 
L 38.5 31.8125 
z
M 40 37.40625 
C 38.703125 40.296875 35.90625 44 30.90625 44 
C 20 44 7.59375 30.328125 7.59375 15.453125 
C 7.59375 5.078125 13.90625 0 20.296875 0 
C 25.59375 0 30.296875 4.1875 32.09375 6.1875 
L 29.90625 -2.75 
C 28.5 -8.125 27.90625 -10.578125 24.296875 -14 
C 20.203125 -18 16.40625 -18 14.203125 -18 
C 11.203125 -18 8.703125 -17.8125 6.203125 -17.03125 
C 9.40625 -16.15625 10.203125 -13.40625 10.203125 -12.328125 
C 10.203125 -10.765625 9 -9.203125 6.796875 -9.203125 
C 4.40625 -9.203125 1.796875 -11.15625 1.796875 -14.390625 
C 1.796875 -18.40625 5.90625 -20 14.40625 -20 
C 27.296875 -20 34 -11.84375 35.296875 -6.5625 
L 46.40625 37.90625 
C 46.703125 39.09375 46.703125 39.296875 46.703125 39.5 
C 46.703125 40.890625 45.59375 42 44.09375 42 
C 41.703125 42 40.296875 40 40 37.3125 
z
" id="CMMI12-103"/>
      <path d="M 26.296875 24.9375 
C 26.296875 32.140625 25.59375 44.359375 19.59375 57.265625 
C 14.796875 67.6875 6.59375 75 5.40625 75 
C 5.09375 75 4.703125 74.890625 4.703125 74.390625 
C 4.703125 74.1875 4.796875 74.09375 4.90625 73.890625 
C 9.703125 68.875 21.90625 56.171875 21.90625 25.046875 
C 21.90625 -6.1875 9.796875 -18.90625 4.90625 -23.90625 
C 4.796875 -24.109375 4.703125 -24.203125 4.703125 -24.40625 
C 4.703125 -24.90625 5.09375 -25 5.40625 -25 
C 6.5 -25 15 -17.609375 19.90625 -6.59375 
C 24.90625 4.515625 26.296875 15.328125 26.296875 24.9375 
z
" id="CMR17-41"/>
     </defs>
     <g transform="translate(33.459483 187.438016)rotate(-90)scale(0.14 -0.14)">
      <use transform="translate(0 14.943915)scale(0.996264)" xlink:href="#CMR17-69"/>
      <use transform="translate(62.586301 14.943915)scale(0.996264)" xlink:href="#CMR17-110"/>
      <use transform="translate(113.48167 14.943915)scale(0.996264)" xlink:href="#CMR17-101"/>
      <use transform="translate(153.967331 14.943915)scale(0.996264)" xlink:href="#CMR17-114"/>
      <use transform="translate(189.248099 14.943915)scale(0.996264)" xlink:href="#CMR17-103"/>
      <use transform="translate(234.938576 14.943915)scale(0.996264)" xlink:href="#CMR17-121"/>
      <use transform="translate(313.307458 14.943915)scale(0.996264)" xlink:href="#CMR17-40"/>
      <use transform="translate(348.588226 14.943915)scale(0.996264)" xlink:href="#CMMI12-109"/>
      <use transform="translate(433.91545 14.943915)scale(0.996264)" xlink:href="#CMMI12-103"/>
      <use transform="translate(484.20094 14.943915)scale(0.996264)" xlink:href="#CMMI12-122"/>
      <use transform="translate(529.516693 0)scale(0.697382)" xlink:href="#CMR17-48"/>
      <use transform="translate(561.998007 14.943915)scale(0.996264)" xlink:href="#CMR17-41"/>
     </g>
    </g>
   </g>
   <g id="line2d_9">
    <path clip-path="url(#peedc004746)" d="M 54 228.803524 
L 173.39619 228.693885 
L 180.919785 228.451626 
L 186.153591 228.070325 
L 190.406058 227.537603 
L 194.004299 226.868174 
L 197.438984 225.999111 
L 200.710112 224.941345 
L 204.144797 223.597285 
L 208.724377 221.540112 
L 214.121739 219.15312 
L 216.738642 218.250637 
L 218.864875 217.752158 
L 220.663996 217.544687 
L 222.463117 217.566097 
L 224.262237 217.812265 
L 226.224915 218.298733 
L 228.678261 219.15312 
L 231.949389 220.557378 
L 240.454323 224.329044 
L 243.889008 225.551258 
L 247.160137 226.484331 
L 250.594822 227.231289 
L 254.356619 227.813923 
L 258.609086 228.242419 
L 264.006448 228.547151 
L 271.530044 228.726409 
L 285.759453 228.797727 
L 388.8 228.803524 
L 388.8 228.803524 
" style="fill:none;stroke:#000000;stroke-linecap:square;stroke-width:1.5;"/>
   </g>
   <g id="line2d_10">
    <path clip-path="url(#peedc004746)" d="M 54 198.764599 
L 152.78808 198.656174 
L 160.802345 198.40749 
L 166.363263 198.018823 
L 170.942843 197.477731 
L 175.031754 196.772861 
L 179.120664 195.836446 
L 183.700244 194.548171 
L 192.205178 192.097349 
L 194.985638 191.56722 
L 197.275427 191.343574 
L 199.401661 191.351449 
L 201.527894 191.593247 
L 203.654128 192.078241 
L 205.780362 192.794695 
L 208.233708 193.860676 
L 212.322618 195.933603 
L 215.430191 197.404707 
L 217.556424 198.172768 
L 219.355545 198.592826 
L 220.991109 198.75766 
L 222.626673 198.702352 
L 224.262237 198.43119 
L 226.061358 197.9083 
L 228.187592 197.048011 
L 231.295164 195.512724 
L 235.874744 193.264755 
L 238.32809 192.327818 
L 240.454323 191.751137 
L 242.580557 191.415846 
L 244.70679 191.320247 
L 246.833024 191.444472 
L 249.28637 191.817744 
L 252.230386 192.506296 
L 256.646409 193.799648 
L 263.515779 195.794329 
L 267.60469 196.739865 
L 271.6936 197.453822 
L 276.109624 197.987729 
L 281.179873 198.364712 
L 287.72213 198.609881 
L 297.699072 198.734334 
L 324.849438 198.764464 
L 388.8 198.764599 
L 388.8 198.764599 
" style="fill:none;stroke:#000000;stroke-linecap:square;stroke-width:1.5;"/>
   </g>
   <g id="line2d_11">
    <path clip-path="url(#peedc004746)" d="M 54 178.043133 
L 134.796873 177.934644 
L 142.484025 177.689418 
L 147.717831 177.312139 
L 151.970298 176.789951 
L 155.732096 176.104646 
L 159.166781 175.257064 
L 162.601466 174.181789 
L 166.363263 172.765493 
L 176.994431 168.570817 
L 179.284221 168.015292 
L 181.246898 167.758992 
L 183.046019 167.738541 
L 184.845139 167.946951 
L 186.64426 168.396216 
L 188.443381 169.084445 
L 190.406058 170.085879 
L 192.695848 171.520589 
L 200.710112 176.819008 
L 202.345677 177.502189 
L 203.817684 177.891262 
L 205.289692 178.041704 
L 206.7617 177.944097 
L 208.233708 177.605136 
L 209.869272 176.974956 
L 211.831949 175.946378 
L 218.047093 172.434386 
L 219.519101 171.957287 
L 220.827553 171.748295 
L 222.136004 171.76246 
L 223.444455 171.998297 
L 224.916463 172.501375 
L 226.715584 173.385388 
L 229.496043 175.058697 
L 232.276502 176.659717 
L 234.075623 177.442133 
L 235.547631 177.857106 
L 237.019638 178.036745 
L 238.491646 177.968702 
L 239.963654 177.657205 
L 241.435662 177.121345 
L 243.234783 176.2083 
L 245.361016 174.861997 
L 253.048168 169.725343 
L 255.010845 168.807308 
L 256.809966 168.204768 
L 258.609086 167.843659 
L 260.408207 167.720498 
L 262.207328 167.818982 
L 264.170005 168.148547 
L 266.459795 168.77086 
L 269.240254 169.769433 
L 274.310503 171.885643 
L 279.217196 173.834165 
L 282.815437 175.021692 
L 286.250122 175.92309 
L 289.848363 176.63359 
L 293.773718 177.175934 
L 298.353298 177.575118 
L 304.077772 177.841451 
L 312.582706 177.99265 
L 331.228139 178.041665 
L 388.8 178.043133 
L 388.8 178.043133 
" style="fill:none;stroke:#000000;stroke-linecap:square;stroke-width:1.5;"/>
   </g>
   <g id="line2d_12">
    <path clip-path="url(#peedc004746)" d="M 54 158.92317 
L 120.894577 158.812828 
L 128.581729 158.568471 
L 133.979091 158.1822 
L 138.395115 157.642214 
L 142.156913 156.965599 
L 145.755154 156.098481 
L 149.516952 154.956663 
L 154.096532 153.311286 
L 160.638788 150.95037 
L 163.419248 150.204857 
L 165.709038 149.826507 
L 167.671715 149.721661 
L 169.470835 149.831418 
L 171.269956 150.153279 
L 173.069077 150.69035 
L 175.031754 151.50865 
L 177.321544 152.722462 
L 180.592672 154.750834 
L 184.35447 157.029518 
L 186.317147 157.970725 
L 187.952711 158.535468 
L 189.588276 158.856796 
L 191.060283 158.917484 
L 192.532291 158.757391 
L 194.167855 158.334469 
L 195.966976 157.6156 
L 198.420322 156.353075 
L 202.345677 154.314157 
L 204.144797 153.661208 
L 205.616805 153.35921 
L 206.925256 153.296168 
L 208.233708 153.436315 
L 209.705716 153.829123 
L 211.34128 154.519605 
L 213.467513 155.692498 
L 217.392868 157.914997 
L 219.028432 158.55374 
L 220.336883 158.847462 
L 221.645335 158.919119 
L 222.953786 158.762358 
L 224.262237 158.391022 
L 225.897802 157.675596 
L 228.187592 156.380266 
L 231.622277 154.440344 
L 233.257841 153.773918 
L 234.729849 153.407734 
L 236.0383 153.292984 
L 237.346751 153.381079 
L 238.818759 153.708664 
L 240.454323 154.314157 
L 242.580557 155.364491 
L 247.48725 157.903548 
L 249.28637 158.532809 
L 250.921935 158.855449 
L 252.393942 158.917873 
L 253.86595 158.759437 
L 255.337958 158.390038 
L 256.973522 157.759536 
L 258.936199 156.758929 
L 261.716659 155.064489 
L 266.296238 152.261632 
L 268.586028 151.139889 
L 270.548705 150.419888 
L 272.347826 149.980189 
L 274.146947 149.755874 
L 276.109624 149.746378 
L 278.072301 149.957911 
L 280.362091 150.437407 
L 283.14255 151.267936 
L 287.231461 152.75367 
L 293.773718 155.118317 
L 297.535515 156.229947 
L 301.133757 157.066678 
L 304.895554 157.71469 
L 309.148021 158.213088 
L 314.218271 158.568471 
L 320.924084 158.794144 
L 331.718808 158.902507 
L 367.374108 158.923159 
L 388.8 158.92317 
L 388.8 158.92317 
" style="fill:none;stroke:#000000;stroke-linecap:square;stroke-width:1.5;"/>
   </g>
   <g id="line2d_13">
    <path clip-path="url(#peedc004746)" d="M 54 142.253153 
L 107.319394 142.143759 
L 115.006546 141.896952 
L 120.240352 141.517732 
L 124.492819 140.993446 
L 128.254617 140.306126 
L 131.689301 139.456986 
L 135.123986 138.381044 
L 138.885784 136.966048 
L 149.353395 132.844474 
L 151.643185 132.281931 
L 153.605862 132.016635 
L 155.404983 131.985687 
L 157.204104 132.181801 
L 159.003224 132.617521 
L 160.802345 133.291702 
L 162.765022 134.278303 
L 165.054812 135.698086 
L 169.143723 138.573592 
L 171.760625 140.280059 
L 173.723302 141.296922 
L 175.358867 141.890499 
L 176.830874 142.188567 
L 178.302882 142.243557 
L 179.77489 142.052078 
L 181.246898 141.627306 
L 182.882462 140.919071 
L 185.008696 139.733442 
L 189.751832 136.988994 
L 191.387396 136.349971 
L 192.859404 136.026029 
L 194.167855 135.968706 
L 195.476307 136.138506 
L 196.784758 136.528034 
L 198.256766 137.197956 
L 200.219443 138.370693 
L 204.799023 141.249458 
L 206.271031 141.865908 
L 207.579482 142.18022 
L 208.887934 142.245377 
L 210.196385 142.055653 
L 211.504836 141.628624 
L 212.976844 140.915496 
L 215.266634 139.523883 
L 217.883537 137.998143 
L 219.355545 137.397824 
L 220.663996 137.111617 
L 221.808891 137.081371 
L 222.953786 137.260552 
L 224.262237 137.69928 
L 225.734245 138.430471 
L 228.351148 140.040402 
L 230.640938 141.337879 
L 232.112946 141.92164 
L 233.421397 142.203668 
L 234.566292 142.244838 
L 235.874744 142.052968 
L 237.183195 141.62314 
L 238.655203 140.902123 
L 240.781436 139.572579 
L 244.379678 137.285307 
L 246.015242 136.528034 
L 247.48725 136.104949 
L 248.795701 135.963484 
L 250.104152 136.048879 
L 251.412604 136.349971 
L 252.884612 136.913774 
L 254.683732 137.84737 
L 261.225989 141.503945 
L 262.861553 142.015995 
L 264.333561 142.234359 
L 265.805569 142.20688 
L 267.277577 141.93517 
L 268.749585 141.435989 
L 270.385149 140.650757 
L 272.511383 139.355221 
L 276.109624 136.829044 
L 279.217196 134.756786 
L 281.343429 133.593137 
L 283.306106 132.778158 
L 285.105227 132.276647 
L 286.904348 132.015906 
L 288.703468 131.986838 
L 290.666146 132.194919 
L 292.792379 132.659731 
L 295.245725 133.432987 
L 298.68041 134.777228 
L 307.185344 138.209376 
L 310.783586 139.364291 
L 314.218271 140.234812 
L 317.816512 140.916865 
L 321.741866 141.434561 
L 326.485002 141.82351 
L 332.53659 142.078521 
L 341.69575 142.214786 
L 364.10298 142.25268 
L 388.8 142.253153 
L 388.8 142.253153 
" style="fill:none;stroke:#000000;stroke-linecap:square;stroke-width:1.5;"/>
   </g>
   <g id="line2d_14">
    <path clip-path="url(#peedc004746)" d="M 54 126.30463 
L 95.543332 126.1938 
L 103.230484 125.946818 
L 108.464289 125.570592 
L 112.716756 125.054299 
L 116.478554 124.382289 
L 120.076795 123.513572 
L 123.675037 122.413123 
L 127.763947 120.922666 
L 136.105325 117.797112 
L 138.722228 117.111814 
L 140.848461 116.780483 
L 142.811138 116.700885 
L 144.610259 116.845747 
L 146.40938 117.213293 
L 148.2085 117.804882 
L 150.171177 118.689587 
L 152.460967 119.983984 
L 156.059209 122.334401 
L 159.330337 124.376782 
L 161.293014 125.347721 
L 162.928578 125.924645 
L 164.400586 126.225869 
L 165.872594 126.301114 
L 167.344602 126.145686 
L 168.81661 125.770255 
L 170.452174 125.127997 
L 172.578407 124.035518 
L 177.648657 121.310637 
L 179.284221 120.740102 
L 180.756229 120.466676 
L 182.06468 120.441338 
L 183.373131 120.628218 
L 184.845139 121.080257 
L 186.480703 121.838209 
L 188.770493 123.190675 
L 192.041622 125.132597 
L 193.677186 125.839594 
L 194.985638 126.186316 
L 196.294089 126.304654 
L 197.60254 126.18415 
L 198.910992 125.835948 
L 200.383 125.213511 
L 202.509233 124.037987 
L 205.616805 122.323466 
L 207.088813 121.764427 
L 208.397264 121.4991 
L 209.542159 121.472868 
L 210.687054 121.644402 
L 211.995506 122.06698 
L 213.467513 122.778409 
L 216.084416 124.35497 
L 218.21065 125.52343 
L 219.682658 126.068256 
L 220.827553 126.277977 
L 221.972447 126.277977 
L 223.117342 126.068256 
L 224.425794 125.597263 
L 226.061358 124.746165 
L 230.804494 122.06698 
L 232.112946 121.644402 
L 233.421397 121.464443 
L 234.566292 121.518915 
L 235.874744 121.813973 
L 237.346751 122.399639 
L 239.309428 123.458641 
L 242.90767 125.444264 
L 244.379678 125.991588 
L 245.688129 126.257101 
L 246.99658 126.288165 
L 248.305032 126.081839 
L 249.613483 125.656291 
L 251.249047 124.873485 
L 253.702394 123.396324 
L 256.646409 121.66848 
L 258.281974 120.959112 
L 259.753981 120.561824 
L 261.062433 120.427773 
L 262.370884 120.505729 
L 263.842892 120.833461 
L 265.478456 121.452982 
L 267.441133 122.449014 
L 272.838495 125.342642 
L 274.47406 125.918527 
L 275.946067 126.222795 
L 277.418075 126.301735 
L 278.890083 126.149922 
L 280.362091 125.776851 
L 281.997655 125.130555 
L 283.960332 124.096507 
L 286.740791 122.334401 
L 291.483928 119.306511 
L 293.610161 118.217858 
L 295.572838 117.454863 
L 297.371959 116.984809 
L 299.17108 116.739747 
L 300.9702 116.711253 
L 302.932877 116.904405 
L 305.059111 117.337602 
L 307.676014 118.113809 
L 311.274255 119.44224 
L 319.28852 122.467933 
L 323.050318 123.6022 
L 326.648559 124.449904 
L 330.410357 125.102438 
L 334.662824 125.601429 
L 339.733073 125.955137 
L 346.438886 126.178293 
L 357.397167 126.285187 
L 388.8 126.30463 
L 388.8 126.30463 
" style="fill:none;stroke:#000000;stroke-linecap:square;stroke-width:1.5;"/>
   </g>
   <g id="line2d_15">
    <path clip-path="url(#peedc004746)" d="M 54 111.669834 
L 83.930826 111.558116 
L 91.617978 111.306217 
L 96.851783 110.920208 
L 101.10425 110.387764 
L 104.866048 109.691295 
L 108.300733 108.832801 
L 111.735418 107.747738 
L 115.660772 106.259037 
L 125.474157 102.371608 
L 127.763947 101.775307 
L 129.726624 101.472745 
L 131.525745 101.401949 
L 133.324866 101.554397 
L 135.123986 101.944836 
L 136.923107 102.574874 
L 138.885784 103.51835 
L 141.012018 104.79336 
L 144.11959 106.945249 
L 147.881387 109.499241 
L 149.844064 110.563152 
L 151.479629 111.208026 
L 152.951637 111.558913 
L 154.423644 111.669884 
L 155.895652 111.533987 
L 157.36766 111.160537 
L 159.003224 110.499615 
L 160.965901 109.448889 
L 166.690376 106.19583 
L 168.162384 105.68056 
L 169.470835 105.430568 
L 170.779287 105.400229 
L 172.087738 105.596799 
L 173.39619 106.010861 
L 174.868197 106.703279 
L 176.830874 107.893642 
L 181.083341 110.580677 
L 182.555349 111.225172 
L 183.863801 111.570085 
L 185.172252 111.668496 
L 186.480703 111.511713 
L 187.789155 111.114243 
L 189.261163 110.42675 
L 191.387396 109.155312 
L 194.331412 107.422952 
L 195.80342 106.82193 
L 197.111871 106.534575 
L 198.256766 106.503051 
L 199.401661 106.683026 
L 200.710112 107.131353 
L 202.18212 107.889096 
L 204.635467 109.466207 
L 206.7617 110.743292 
L 208.233708 111.362137 
L 209.378603 111.620684 
L 210.523498 111.656945 
L 211.668393 111.467617 
L 212.976844 110.999036 
L 214.448852 110.222953 
L 219.191988 107.51574 
L 220.336883 107.187415 
L 221.481778 107.085187 
L 222.626673 107.221082 
L 223.771568 107.579257 
L 225.243576 108.301415 
L 227.860479 109.925556 
L 229.659599 110.924035 
L 230.968051 111.422942 
L 232.112946 111.64352 
L 233.257841 111.639779 
L 234.402736 111.411991 
L 235.711187 110.904983 
L 237.346751 109.992224 
L 242.089888 107.131353 
L 243.398339 106.683026 
L 244.543234 106.503051 
L 245.688129 106.534575 
L 246.833024 106.772234 
L 248.141475 107.267571 
L 249.77704 108.139144 
L 254.847289 111.04926 
L 256.15574 111.474639 
L 257.464191 111.662782 
L 258.609086 111.618524 
L 259.917538 111.333202 
L 261.225989 110.822104 
L 262.861553 109.933969 
L 265.805569 108.001344 
L 268.095359 106.616116 
L 269.730923 105.888111 
L 271.039375 105.526607 
L 272.347826 105.386547 
L 273.656277 105.473107 
L 274.964729 105.775047 
L 276.436737 106.339364 
L 278.235857 107.272919 
L 284.778114 110.924587 
L 286.413679 111.434948 
L 287.885686 111.651902 
L 289.357694 111.623222 
L 290.829702 111.350598 
L 292.30171 110.850843 
L 293.937274 110.065403 
L 296.063508 108.770271 
L 299.661749 106.246239 
L 302.769321 104.176758 
L 304.895554 103.015154 
L 306.858232 102.201975 
L 308.657352 101.701931 
L 310.456473 101.442413 
L 312.255594 101.414278 
L 314.218271 101.623023 
L 316.344504 102.088144 
L 318.797851 102.861273 
L 322.232535 104.204641 
L 330.737469 107.632972 
L 334.335711 108.786262 
L 337.770396 109.655451 
L 341.368637 110.33639 
L 345.293991 110.853188 
L 350.037128 111.241425 
L 356.088715 111.49594 
L 365.247875 111.631922 
L 387.655105 111.66973 
L 388.8 111.669834 
L 388.8 111.669834 
" style="fill:none;stroke:#000000;stroke-linecap:square;stroke-width:1.5;"/>
   </g>
   <g id="line2d_16">
    <path clip-path="url(#peedc004746)" d="M 54 97.472816 
L 74.11744 97.348517 
L 81.477479 97.087909 
L 86.711285 96.684129 
L 90.963752 96.133675 
L 94.72555 95.42176 
L 98.323791 94.507636 
L 101.922032 93.358582 
L 106.174499 91.753048 
L 113.534538 88.92886 
L 116.151441 88.193323 
L 118.277675 87.814569 
L 120.240352 87.688059 
L 122.039472 87.789544 
L 123.838593 88.115937 
L 125.637714 88.671483 
L 127.600391 89.526297 
L 129.726624 90.703798 
L 132.67064 92.618734 
L 136.923107 95.389537 
L 138.885784 96.407485 
L 140.521348 97.026492 
L 141.993356 97.365488 
L 143.465364 97.476145 
L 144.937372 97.35153 
L 146.40938 97.000183 
L 148.044944 96.374565 
L 150.007621 95.376597 
L 155.895652 92.206493 
L 157.36766 91.735128 
L 158.839668 91.504719 
L 160.148119 91.524723 
L 161.456571 91.760349 
L 162.928578 92.266795 
L 164.564143 93.078359 
L 167.017489 94.586135 
L 169.797948 96.256242 
L 171.433512 96.984793 
L 172.741964 97.346391 
L 174.050415 97.476114 
L 175.358867 97.3625 
L 176.667318 97.016055 
L 178.139326 96.389244 
L 180.265559 95.196664 
L 183.373131 93.443251 
L 184.845139 92.865331 
L 186.153591 92.585755 
L 187.298486 92.550286 
L 188.443381 92.716447 
L 189.751832 93.138246 
L 191.22384 93.855819 
L 193.677186 95.356593 
L 195.80342 96.577824 
L 197.275427 97.173283 
L 198.583879 97.444163 
L 199.728774 97.453569 
L 200.873669 97.248947 
L 202.18212 96.778881 
L 203.817684 95.927428 
L 207.906595 93.654313 
L 209.215046 93.242925 
L 210.359941 93.107411 
L 211.504836 93.199341 
L 212.649731 93.511415 
L 213.958183 94.097145 
L 215.92086 95.258805 
L 218.374206 96.687563 
L 219.682658 97.210389 
L 220.827553 97.446138 
L 221.972447 97.446138 
L 223.117342 97.210389 
L 224.425794 96.687563 
L 226.061358 95.769652 
L 229.496043 93.777639 
L 230.804494 93.307406 
L 231.949389 93.118833 
L 233.094284 93.157521 
L 234.239179 93.417109 
L 235.547631 93.946177 
L 237.346751 94.943403 
L 240.454323 96.704926 
L 241.926331 97.248947 
L 243.071226 97.453569 
L 244.216121 97.444163 
L 245.361016 97.221533 
L 246.669468 96.733013 
L 248.305032 95.858842 
L 253.048168 93.138246 
L 254.356619 92.716447 
L 255.665071 92.542959 
L 256.809966 92.607161 
L 258.118417 92.916865 
L 259.590425 93.521607 
L 261.553102 94.606138 
L 264.987787 96.546953 
L 266.459795 97.123081 
L 267.768246 97.413525 
L 269.076698 97.466415 
L 270.385149 97.27682 
L 271.6936 96.861455 
L 273.329165 96.081003 
L 275.618955 94.690978 
L 278.726527 92.811934 
L 280.362091 92.071573 
L 281.834099 91.647168 
L 283.14255 91.491792 
L 284.451001 91.552608 
L 285.759453 91.820434 
L 287.231461 92.339547 
L 289.030581 93.213727 
L 295.899951 96.836501 
L 297.535515 97.29243 
L 299.007523 97.468736 
L 300.479531 97.410285 
L 301.951539 97.120696 
L 303.587103 96.549867 
L 305.386224 95.667543 
L 307.676014 94.271881 
L 314.70894 89.776982 
L 316.671617 88.861788 
L 318.470738 88.244875 
L 320.269858 87.855835 
L 322.068979 87.694169 
L 323.8681 87.746646 
L 325.830777 88.020918 
L 328.120567 88.576372 
L 330.901026 89.496265 
L 335.480606 91.293831 
L 341.041524 93.415583 
L 344.803322 94.600604 
L 348.401563 95.493189 
L 352.163361 96.184857 
L 356.252272 96.700776 
L 360.995408 97.06942 
L 367.210552 97.315139 
L 376.860381 97.443905 
L 388.8 97.472816 
L 388.8 97.472816 
" style="fill:none;stroke:#000000;stroke-linecap:square;stroke-width:1.5;"/>
   </g>
   <g id="line2d_17">
    <path clip-path="url(#peedc004746)" d="M 54 84.120773 
L 66.103175 83.955303 
L 72.481876 83.658877 
L 77.225012 83.227774 
L 81.313923 82.632483 
L 84.912164 81.88473 
L 88.346849 80.945155 
L 91.94509 79.721224 
L 96.197557 78.022938 
L 103.066927 75.250804 
L 105.68383 74.458919 
L 107.810064 74.038842 
L 109.772741 73.880748 
L 111.571861 73.961188 
L 113.370982 74.276187 
L 115.170103 74.831775 
L 116.969223 75.618968 
L 119.095457 76.811159 
L 121.71236 78.557588 
L 126.946165 82.128598 
L 128.908842 83.155778 
L 130.544406 83.761061 
L 132.016414 84.071454 
L 133.488422 84.139726 
L 134.96043 83.961635 
L 136.432438 83.54942 
L 138.068002 82.853001 
L 140.194235 81.677469 
L 145.100928 78.850106 
L 146.736492 78.225464 
L 148.2085 77.916903 
L 149.516952 77.874105 
L 150.825403 78.058155 
L 152.133854 78.460581 
L 153.605862 79.14211 
L 155.568539 80.323492 
L 159.984563 83.103535 
L 161.456571 83.732604 
L 162.765022 84.060945 
L 164.073473 84.141546 
L 165.381925 83.967302 
L 166.690376 83.554342 
L 168.162384 82.853653 
L 170.452174 81.470754 
L 173.069077 79.936109 
L 174.541085 79.322659 
L 175.849536 79.021326 
L 176.994431 78.976462 
L 178.139326 79.143192 
L 179.447777 79.577919 
L 180.919785 80.324152 
L 183.209575 81.787179 
L 185.499365 83.182035 
L 186.971373 83.814658 
L 188.116268 84.086547 
L 189.261163 84.137146 
L 190.406058 83.961822 
L 191.714509 83.507117 
L 193.186517 82.741825 
L 198.09321 79.959326 
L 199.238105 79.648101 
L 200.383 79.564812 
L 201.527894 79.720554 
L 202.672789 80.101401 
L 204.144797 80.858026 
L 209.215046 83.798402 
L 210.359941 84.087796 
L 211.504836 84.132915 
L 212.649731 83.928682 
L 213.794626 83.498835 
L 215.266634 82.698432 
L 219.028432 80.490774 
L 220.173327 80.102202 
L 221.318222 79.953779 
L 222.29956 80.033801 
L 223.444455 80.35766 
L 224.752907 80.97791 
L 226.87914 82.289855 
L 228.841817 83.421653 
L 230.150269 83.928682 
L 231.295164 84.132915 
L 232.440059 84.087796 
L 233.584954 83.798402 
L 234.893405 83.211543 
L 236.692526 82.115813 
L 239.472985 80.406341 
L 240.781436 79.857905 
L 241.926331 79.602525 
L 243.071226 79.583284 
L 244.216121 79.799741 
L 245.524573 80.302979 
L 247.160137 81.208952 
L 251.085491 83.507117 
L 252.393942 83.961822 
L 253.538837 84.137146 
L 254.683732 84.086547 
L 255.828627 83.814658 
L 257.137079 83.265708 
L 258.772643 82.319947 
L 263.02511 79.722935 
L 264.333561 79.22859 
L 265.478456 79.002659 
L 266.623351 78.986971 
L 267.768246 79.180015 
L 269.076698 79.632027 
L 270.712262 80.467007 
L 276.436737 83.678206 
L 277.745188 84.034273 
L 279.053639 84.145402 
L 280.198534 84.033059 
L 281.506986 83.675355 
L 282.978994 83.019269 
L 284.778114 81.954489 
L 289.684807 78.891057 
L 291.156815 78.285328 
L 292.465266 77.962719 
L 293.773718 77.863656 
L 295.082169 77.990278 
L 296.39062 78.328542 
L 298.026185 79.004674 
L 299.988862 80.079321 
L 305.222667 83.085102 
L 306.858232 83.711379 
L 308.330239 84.047968 
L 309.802247 84.14446 
L 311.274255 83.994235 
L 312.746263 83.606699 
L 314.381827 82.926654 
L 316.180948 81.931768 
L 318.634294 80.301062 
L 324.195213 76.514005 
L 326.321446 75.382473 
L 328.120567 74.656607 
L 329.919687 74.16642 
L 331.718808 73.916559 
L 333.517929 73.897364 
L 335.480606 74.114597 
L 337.606839 74.587073 
L 340.060186 75.36611 
L 343.494871 76.713309 
L 351.836248 80.077911 
L 355.434489 81.236919 
L 358.869174 82.111755 
L 362.467416 82.798018 
L 366.39277 83.319503 
L 370.97235 83.701602 
L 376.860381 83.960061 
L 385.692428 84.102371 
L 388.8 84.120773 
L 388.8 84.120773 
" style="fill:none;stroke:#000000;stroke-linecap:square;stroke-width:1.5;"/>
   </g>
   <g id="line2d_18">
    <path clip-path="url(#peedc004746)" d="M 54 70.990677 
L 61.196483 70.730486 
L 66.266732 70.338957 
L 70.519199 69.791559 
L 74.280997 69.081988 
L 77.879238 68.168683 
L 81.477479 67.017489 
L 85.729946 65.402914 
L 93.417098 62.430451 
L 96.034001 61.704022 
L 98.160234 61.339958 
L 100.122912 61.232779 
L 101.922032 61.356373 
L 103.721153 61.708207 
L 105.520274 62.291274 
L 107.482951 63.176573 
L 109.609184 64.384817 
L 112.716756 66.444627 
L 116.64211 69.018972 
L 118.604787 70.046627 
L 120.240352 70.671064 
L 121.71236 71.012516 
L 123.184367 71.123163 
L 124.656375 70.996074 
L 126.128383 70.639957 
L 127.763947 70.006767 
L 129.726624 68.997531 
L 135.451099 65.861329 
L 137.086663 65.320179 
L 138.395115 65.101288 
L 139.703566 65.095397 
L 141.012018 65.30782 
L 142.484025 65.793645 
L 144.11959 66.591664 
L 146.40938 67.995683 
L 149.516952 69.894345 
L 151.152516 70.629326 
L 152.460967 70.993484 
L 153.769419 71.123213 
L 155.07787 71.007048 
L 156.386321 70.655731 
L 157.858329 70.021248 
L 159.984563 68.815388 
L 163.092135 67.044537 
L 164.564143 66.461784 
L 165.872594 66.180642 
L 167.017489 66.146097 
L 168.162384 66.315278 
L 169.470835 66.742803 
L 170.942843 67.468988 
L 173.39619 68.986029 
L 175.522423 70.219073 
L 176.994431 70.819416 
L 178.139326 71.072612 
L 179.284221 71.112033 
L 180.429116 70.934079 
L 181.737567 70.48713 
L 183.373131 69.649284 
L 187.789155 67.192984 
L 189.097606 66.810942 
L 190.242501 66.707818 
L 191.387396 66.834965 
L 192.532291 67.181392 
L 194.004299 67.891078 
L 196.457645 69.403328 
L 198.256766 70.408563 
L 199.565217 70.904558 
L 200.710112 71.108313 
L 201.855007 71.072094 
L 202.999902 70.800146 
L 204.308354 70.24252 
L 206.271031 69.103695 
L 208.560821 67.799129 
L 209.869272 67.29897 
L 211.014167 67.096769 
L 212.159062 67.143735 
L 213.303957 67.43615 
L 214.612408 68.025037 
L 216.575085 69.206537 
L 218.701319 70.434485 
L 220.00977 70.931912 
L 221.154665 71.117251 
L 222.136004 71.06902 
L 223.280899 70.77776 
L 224.58935 70.184869 
L 226.552027 68.999443 
L 228.678261 67.777195 
L 229.986712 67.282317 
L 231.131607 67.092608 
L 232.276502 67.153817 
L 233.421397 67.456205 
L 234.729849 68.045565 
L 236.856082 69.305357 
L 238.982316 70.478116 
L 240.290767 70.944134 
L 241.435662 71.117371 
L 242.580557 71.049633 
L 243.725452 70.748579 
L 245.033903 70.163394 
L 246.99658 68.991158 
L 249.449927 67.544842 
L 250.758378 67.007771 
L 251.903273 66.752425 
L 253.048168 66.724038 
L 254.193063 66.923214 
L 255.501514 67.399155 
L 257.137079 68.265212 
L 261.062433 70.48713 
L 262.370884 70.934079 
L 263.515779 71.112033 
L 264.660674 71.072612 
L 265.805569 70.819416 
L 267.114021 70.298826 
L 268.749585 69.39411 
L 273.002052 66.884399 
L 274.310503 66.399872 
L 275.618955 66.157873 
L 276.76385 66.163264 
L 278.072301 66.413411 
L 279.380752 66.894141 
L 281.016317 67.736489 
L 286.086566 70.534555 
L 287.558574 70.975526 
L 288.867025 71.122137 
L 290.175476 71.022962 
L 291.483928 70.686761 
L 292.955936 70.062406 
L 294.755056 69.042475 
L 299.825305 66.007674 
L 301.297313 65.442079 
L 302.605765 65.149694 
L 303.914216 65.07349 
L 305.222667 65.214113 
L 306.694675 65.612485 
L 308.330239 66.303591 
L 310.456473 67.461832 
L 314.872496 69.931638 
L 316.671617 70.639957 
L 318.143625 70.996074 
L 319.615633 71.123163 
L 321.08764 71.012516 
L 322.559648 70.671064 
L 324.195213 70.046627 
L 325.994333 69.114088 
L 328.44768 67.562755 
L 334.499267 63.614128 
L 336.625501 62.5588 
L 338.588178 61.844506 
L 340.387298 61.429318 
L 342.186419 61.244533 
L 343.98554 61.27788 
L 345.948217 61.53648 
L 348.238007 62.080767 
L 351.018466 62.99681 
L 355.270933 64.673098 
L 361.158964 66.959872 
L 364.920762 68.168683 
L 368.519003 69.081988 
L 372.117245 69.765479 
L 376.206155 70.304981 
L 380.949292 70.692305 
L 387.000879 70.947396 
L 388.8 70.990677 
L 388.8 70.990677 
" style="fill:none;stroke:#000000;stroke-linecap:square;stroke-width:1.5;"/>
   </g>
   <g id="line2d_19">
    <path clip-path="url(#peedc004746)" d="M 54 58.163335 
L 58.57958 57.697627 
L 62.504934 57.077261 
L 66.103175 56.280469 
L 69.53786 55.290764 
L 73.136102 54.018991 
L 77.879238 52.08034 
L 83.2766 49.913852 
L 85.893503 49.100793 
L 88.019736 48.656636 
L 89.982413 48.471439 
L 91.781534 48.52388 
L 93.580655 48.809179 
L 95.379775 49.335039 
L 97.178896 50.094465 
L 99.141573 51.160807 
L 101.594919 52.757799 
L 107.97362 57.053117 
L 109.772741 57.923362 
L 111.408305 58.459522 
L 112.880313 58.700255 
L 114.35232 58.696043 
L 115.824328 58.447345 
L 117.296336 57.971391 
L 119.095457 57.132249 
L 121.548803 55.699193 
L 124.983488 53.698872 
L 126.619052 52.989641 
L 128.09106 52.585532 
L 129.399511 52.448938 
L 130.707963 52.537691 
L 132.016414 52.850411 
L 133.488422 53.446473 
L 135.287543 54.451794 
L 141.33913 58.110235 
L 142.647582 58.535193 
L 143.956033 58.722042 
L 145.100928 58.6767 
L 146.40938 58.390548 
L 147.881387 57.803436 
L 149.680508 56.807581 
L 153.932975 54.314414 
L 155.404983 53.779535 
L 156.713434 53.56378 
L 157.858329 53.598824 
L 159.003224 53.843337 
L 160.311676 54.355958 
L 161.94724 55.26612 
L 166.690376 58.126878 
L 167.998828 58.565738 
L 169.143723 58.724463 
L 170.288617 58.656893 
L 171.433512 58.369451 
L 172.741964 57.807826 
L 174.541085 56.760928 
L 177.648657 54.915157 
L 178.957108 54.401002 
L 180.102003 54.172872 
L 181.246898 54.179695 
L 182.391793 54.423208 
L 183.700244 54.960381 
L 185.335809 55.910984 
L 188.770493 58.014302 
L 190.078945 58.517887 
L 191.22384 58.717599 
L 192.368735 58.667795 
L 193.51363 58.374284 
L 194.822081 57.785528 
L 196.784758 56.597415 
L 199.074548 55.251922 
L 200.383 54.744117 
L 201.527894 54.546411 
L 202.509233 54.58308 
L 203.654128 54.863599 
L 204.962579 55.45444 
L 206.7617 56.561345 
L 209.215046 58.041637 
L 210.523498 58.54584 
L 211.668393 58.725395 
L 212.649731 58.66403 
L 213.794626 58.349875 
L 215.103078 57.726198 
L 217.392868 56.302263 
L 219.028432 55.395179 
L 220.173327 54.98149 
L 221.154665 54.828219 
L 222.136004 54.879818 
L 223.280899 55.189845 
L 224.58935 55.8143 
L 226.87914 57.239327 
L 228.514704 58.144432 
L 229.659599 58.559773 
L 230.804494 58.727185 
L 231.785833 58.655176 
L 232.930728 58.3296 
L 234.239179 57.694381 
L 236.365413 56.34732 
L 238.32809 55.203877 
L 239.636541 54.713372 
L 240.781436 54.540582 
L 241.762775 54.600251 
L 242.90767 54.902651 
L 244.216121 55.504524 
L 246.178798 56.702258 
L 248.305032 57.953967 
L 249.613483 58.481528 
L 250.758378 58.707692 
L 251.903273 58.685528 
L 253.048168 58.417488 
L 254.356619 57.850038 
L 255.992184 56.874221 
L 259.099756 54.960381 
L 260.408207 54.423208 
L 261.553102 54.179695 
L 262.697997 54.172872 
L 263.842892 54.401002 
L 265.151343 54.915157 
L 266.786908 55.829165 
L 270.548705 58.043941 
L 271.857157 58.51827 
L 273.002052 58.713641 
L 274.146947 58.683764 
L 275.291842 58.43135 
L 276.600293 57.900888 
L 278.235857 56.969619 
L 282.651881 54.279748 
L 283.960332 53.796061 
L 285.105227 53.580801 
L 286.250122 53.576095 
L 287.395017 53.779535 
L 288.703468 54.241664 
L 290.339033 55.085222 
L 295.899951 58.223413 
L 297.208403 58.597804 
L 298.516854 58.729129 
L 299.661749 58.634527 
L 300.9702 58.295565 
L 302.442208 57.656734 
L 304.241329 56.605188 
L 309.311578 53.446473 
L 310.783586 52.850411 
L 312.092037 52.537691 
L 313.400489 52.448938 
L 314.70894 52.585532 
L 316.180948 52.989641 
L 317.816512 53.698872 
L 319.942745 54.895302 
L 324.358769 57.465405 
L 326.15789 58.209178 
L 327.629897 58.587355 
L 329.101905 58.728503 
L 330.573913 58.622949 
L 332.045921 58.277301 
L 333.681485 57.637679 
L 335.480606 56.677031 
L 337.770396 55.186258 
L 344.149096 50.873442 
L 346.27533 49.792411 
L 348.07445 49.11608 
L 349.873571 48.677716 
L 351.672692 48.478672 
L 353.471812 48.506592 
L 355.434489 48.768656 
L 357.560723 49.280151 
L 360.177626 50.151194 
L 363.939424 51.665561 
L 370.808793 54.447561 
L 374.407035 55.646023 
L 377.84172 56.559862 
L 381.439961 57.282969 
L 385.365315 57.83695 
L 388.8 58.163335 
L 388.8 58.163335 
" style="fill:none;stroke:#000000;stroke-linecap:square;stroke-width:1.5;"/>
   </g>
   <g id="line2d_20">
    <path clip-path="url(#peedc004746)" d="M 54 44.801023 
L 57.598241 43.972776 
L 61.032926 42.957803 
L 64.794724 41.611583 
L 76.243674 37.302047 
L 78.533464 36.815869 
L 80.496141 36.621902 
L 82.295261 36.657903 
L 84.094382 36.9188 
L 85.893503 37.412942 
L 87.692623 38.134598 
L 89.6553 39.155058 
L 92.108647 40.692653 
L 98.650904 44.963021 
L 100.450024 45.801363 
L 102.085589 46.314978 
L 103.557596 46.542064 
L 105.029604 46.53137 
L 106.501612 46.283775 
L 107.97362 45.81645 
L 109.772741 44.997178 
L 112.226087 43.603855 
L 115.660772 41.668196 
L 117.296336 40.986033 
L 118.768344 40.600721 
L 120.076795 40.474866 
L 121.385247 40.567787 
L 122.693698 40.87764 
L 124.165706 41.462142 
L 125.964827 42.442663 
L 131.852858 45.917181 
L 133.324866 46.388078 
L 134.633317 46.561791 
L 135.941768 46.488413 
L 137.25022 46.17475 
L 138.722228 45.571995 
L 140.684905 44.483484 
L 144.283146 42.41537 
L 145.755154 41.845262 
L 147.063605 41.580517 
L 148.2085 41.562978 
L 149.353395 41.750226 
L 150.661847 42.197771 
L 152.133854 42.94301 
L 154.750757 44.580262 
L 156.713434 45.704251 
L 158.185442 46.290296 
L 159.330337 46.527754 
L 160.475232 46.54892 
L 161.620127 46.351894 
L 162.928578 45.884492 
L 164.564143 45.026905 
L 168.81661 42.637079 
L 170.125061 42.23899 
L 171.269956 42.121701 
L 172.414851 42.236111 
L 173.559746 42.572592 
L 174.868197 43.185246 
L 176.994431 44.482039 
L 179.284221 45.815226 
L 180.592672 46.327532 
L 181.737567 46.546413 
L 182.882462 46.524339 
L 184.027357 46.263928 
L 185.335809 45.714569 
L 187.134929 44.677376 
L 189.751832 43.175296 
L 191.060283 42.690838 
L 192.205178 42.50771 
L 193.350073 42.576322 
L 194.494968 42.890262 
L 195.80342 43.500104 
L 197.929653 44.802348 
L 199.89233 45.919252 
L 201.200782 46.399671 
L 202.345677 46.564738 
L 203.327015 46.49723 
L 204.47191 46.184081 
L 205.780362 45.572077 
L 208.397264 43.99412 
L 209.869272 43.245798 
L 211.014167 42.885187 
L 211.995506 42.777175 
L 212.976844 42.868973 
L 214.121739 43.216186 
L 215.430191 43.867414 
L 219.846214 46.312306 
L 220.991109 46.548966 
L 221.972447 46.531713 
L 222.953786 46.312306 
L 224.098681 45.834421 
L 225.734245 44.880261 
L 228.187592 43.43371 
L 229.496043 42.943124 
L 230.640938 42.778563 
L 231.622277 42.85359 
L 232.767171 43.180391 
L 234.075623 43.807474 
L 238.655203 46.297527 
L 239.800098 46.541201 
L 240.781436 46.544042 
L 241.926331 46.306532 
L 243.071226 45.840785 
L 244.70679 44.905431 
L 247.650806 43.166572 
L 248.959257 42.682328 
L 250.104152 42.505932 
L 251.249047 42.58243 
L 252.393942 42.900177 
L 253.702394 43.504778 
L 255.992184 44.87906 
L 257.954861 45.947774 
L 259.263312 46.403387 
L 260.408207 46.563782 
L 261.553102 46.481271 
L 262.697997 46.165195 
L 264.006448 45.56467 
L 265.969126 44.377459 
L 268.422472 42.93127 
L 269.730923 42.402814 
L 270.875818 42.158763 
L 272.020713 42.143902 
L 273.165608 42.357404 
L 274.47406 42.848812 
L 276.109624 43.72993 
L 279.871422 45.884492 
L 281.179873 46.351894 
L 282.324768 46.54892 
L 283.469663 46.527754 
L 284.614558 46.290296 
L 285.923009 45.782809 
L 287.558574 44.885104 
L 292.138153 42.197771 
L 293.446605 41.750226 
L 294.5915 41.562978 
L 295.736395 41.580517 
L 297.044846 41.845262 
L 298.353298 42.339889 
L 300.152418 43.291974 
L 304.731998 45.868819 
L 306.204006 46.360302 
L 307.512457 46.556097 
L 308.820909 46.505363 
L 310.12936 46.21254 
L 311.601368 45.626385 
L 313.400489 44.632726 
L 318.961407 41.312746 
L 320.433415 40.780558 
L 321.741866 40.523868 
L 323.050318 40.486103 
L 324.358769 40.665069 
L 325.830777 41.103144 
L 327.466341 41.830296 
L 329.756131 43.1148 
L 333.517929 45.24341 
L 335.317049 45.994896 
L 336.789057 46.391912 
L 338.261065 46.561627 
L 339.733073 46.492383 
L 341.205081 46.188486 
L 342.840645 45.59867 
L 344.639766 44.693195 
L 346.929555 43.267287 
L 353.798925 38.790465 
L 355.761602 37.846873 
L 357.560723 37.206297 
L 359.359844 36.797104 
L 361.158964 36.619611 
L 362.958085 36.661027 
L 364.920762 36.928762 
L 367.210552 37.483486 
L 369.991011 38.411073 
L 374.407035 40.168478 
L 380.13151 42.399701 
L 383.893307 43.612087 
L 387.327992 44.490586 
L 388.8 44.801023 
L 388.8 44.801023 
" style="fill:none;stroke:#000000;stroke-linecap:square;stroke-width:1.5;"/>
   </g>
   <g id="line2d_21">
    <path clip-path="url(#peedc004746)" d="M 54 34.56 
L 221.318222 251.893776 
L 221.481778 251.893776 
L 388.8 34.56 
L 388.8 34.56 
" style="fill:none;stroke:#000000;stroke-linecap:square;stroke-width:1.5;"/>
   </g>
   <g id="patch_3">
    <path d="M 54 252 
L 54 34.56 
" style="fill:none;stroke:#000000;stroke-linecap:square;stroke-linejoin:miter;stroke-width:0.8;"/>
   </g>
   <g id="patch_4">
    <path d="M 388.8 252 
L 388.8 34.56 
" style="fill:none;stroke:#000000;stroke-linecap:square;stroke-linejoin:miter;stroke-width:0.8;"/>
   </g>
   <g id="patch_5">
    <path d="M 54 252 
L 388.8 252 
" style="fill:none;stroke:#000000;stroke-linecap:square;stroke-linejoin:miter;stroke-width:0.8;"/>
   </g>
   <g id="patch_6">
    <path d="M 54 34.56 
L 388.8 34.56 
" style="fill:none;stroke:#000000;stroke-linecap:square;stroke-linejoin:miter;stroke-width:0.8;"/>
   </g>
   <g id="text_11">
    <!-- Probability densities of the linear potential well -->
    <defs>
     <path d="M 19.796875 32 
L 35.796875 32 
C 48.703125 32 58.09375 40.359375 58.09375 49.796875 
C 58.09375 59.234375 48.90625 68 35.796875 68 
L 5.203125 68 
L 5.203125 65.390625 
C 12.09375 65.390625 13.203125 65.390625 13.203125 60.921875 
L 13.203125 7.078125 
C 13.203125 2.59375 12.09375 2.59375 5.203125 2.59375 
L 5.203125 0 
C 8.09375 0.1875 13.40625 0.1875 16.5 0.1875 
C 19.59375 0.1875 24.90625 0.1875 27.796875 0 
L 27.796875 2.59375 
C 20.90625 2.59375 19.796875 2.59375 19.796875 7.078125 
z
M 19.59375 34.09375 
L 19.59375 61.515625 
C 19.59375 64.890625 19.796875 65.390625 23.796875 65.390625 
L 33.90625 65.390625 
C 46.796875 65.390625 50.5 58.046875 50.5 49.796875 
C 50.5 40.75 46.09375 34.09375 33.90625 34.09375 
z
" id="CMR17-80"/>
     <path d="M 43.09375 21.1875 
C 43.09375 34 33.796875 44 22.90625 44 
C 12 44 2.703125 34 2.703125 21.1875 
C 2.703125 8.59375 12 -1 22.90625 -1 
C 33.796875 -1 43.09375 8.59375 43.09375 21.1875 
z
M 22.90625 0.796875 
C 18.203125 0.796875 14.203125 3.59375 11.90625 7.5 
C 9.40625 12 9.09375 17.59375 9.09375 22 
C 9.09375 26.1875 9.296875 31.390625 11.90625 35.890625 
C 13.90625 39.1875 17.796875 42.390625 22.90625 42.390625 
C 27.40625 42.390625 31.203125 39.890625 33.59375 36.390625 
C 36.703125 31.6875 36.703125 25.09375 36.703125 22 
C 36.703125 18.09375 36.5 12.09375 33.796875 7.296875 
C 31 2.6875 26.703125 0.796875 22.90625 0.796875 
z
" id="CMR17-111"/>
     <path d="M 15 69 
L 3.09375 67.890625 
L 3.09375 65.296875 
C 9 65.296875 9.90625 64.703125 9.90625 60.046875 
L 9.90625 -0.203125 
L 11.703125 -0.203125 
L 14.59375 6.953125 
C 17.5 2.203125 21.796875 -1 27.59375 -1 
C 37.59375 -1 47.703125 7.859375 47.703125 21.59375 
C 47.703125 34.515625 38.703125 44 28.59375 44 
C 22.40625 44 18 40.671875 15 36.734375 
z
M 15.203125 31.59375 
C 15.203125 33.40625 15.203125 33.703125 16.59375 35.828125 
C 20.5 41.890625 26.09375 42.390625 28 42.390625 
C 31 42.390625 41.296875 40.78125 41.296875 21.6875 
C 41.296875 1.703125 29.5 0.59375 27.09375 0.59375 
C 24 0.59375 19.5 1.796875 16.296875 7.65625 
C 15.203125 9.578125 15.203125 9.78125 15.203125 11.59375 
z
" id="CMR17-98"/>
     <path d="M 36 25.875 
C 36 32 36 35.546875 31.796875 39.59375 
C 28.09375 42.984375 23.796875 44 20.40625 44 
C 12.5 44 6.796875 37.625 6.796875 30.890625 
C 6.796875 27.1875 9.796875 27 10.40625 27 
C 11.703125 27 14 27.796875 14 30.59375 
C 14 33.09375 12.09375 34.1875 10.40625 34.1875 
C 10 34.1875 9.5 34.09375 9.203125 34 
C 11.296875 40.53125 16.703125 42.390625 20.203125 42.390625 
C 25.203125 42.390625 30.703125 37.828125 30.703125 29.296875 
L 30.703125 25.5 
C 24.796875 25.296875 17.703125 24.5 12.09375 21.453125 
C 5.796875 17.921875 4 12.84375 4 9 
C 4 1.203125 13 -1 18.296875 -1 
C 23.796875 -1 28.90625 2.109375 31.09375 7.890625 
C 31.296875 3.421875 34.09375 -0.609375 38.5 -0.609375 
C 40.59375 -0.609375 45.90625 0.796875 45.90625 8.796875 
L 45.90625 14.46875 
L 44.09375 14.46875 
L 44.09375 8.703125 
C 44.09375 2.515625 41.40625 1.703125 40.09375 1.703125 
C 36 1.703125 36 6.96875 36 11.4375 
z
M 30.703125 13.859375 
C 30.703125 5.046875 24.5 0.59375 19 0.59375 
C 14 0.59375 10.09375 4.34375 10.09375 9 
C 10.09375 12.046875 11.40625 17.40625 17.203125 20.65625 
C 22 23.390625 27.5 23.796875 30.703125 24 
z
" id="CMR17-97"/>
     <path d="M 15.5 61.890625 
C 15.5 64.09375 13.703125 66 11.40625 66 
C 9.203125 66 7.296875 64.1875 7.296875 61.890625 
C 7.296875 59.6875 9.09375 57.796875 11.40625 57.796875 
C 13.59375 57.796875 15.5 59.59375 15.5 61.890625 
z
M 3.796875 42.890625 
L 3.796875 40.296875 
C 9.40625 40.296875 10.203125 39.6875 10.203125 34.859375 
L 10.203125 6.921875 
C 10.203125 3.09375 9.796875 2.59375 3.40625 2.59375 
L 3.40625 0 
C 5.796875 0.1875 10.09375 0.1875 12.59375 0.1875 
C 15 0.1875 19.09375 0.1875 21.40625 0 
L 21.40625 2.59375 
C 15.5 2.59375 15.296875 3.203125 15.296875 6.8125 
L 15.296875 44 
z
" id="CMR17-105"/>
     <path d="M 15.296875 69 
L 3.40625 67.890625 
L 3.40625 65.296875 
C 9.296875 65.296875 10.203125 64.703125 10.203125 59.921875 
L 10.203125 6.859375 
C 10.203125 3.09375 9.796875 2.59375 3.40625 2.59375 
L 3.40625 0 
C 5.796875 0.1875 10.203125 0.1875 12.703125 0.1875 
C 15.296875 0.1875 19.703125 0.1875 22.09375 0 
L 22.09375 2.59375 
C 15.703125 2.59375 15.296875 2.984375 15.296875 6.859375 
z
" id="CMR17-108"/>
     <path d="M 15.09375 40.390625 
L 29.09375 40.390625 
L 29.09375 43 
L 15.09375 43 
L 15.09375 62 
L 13.296875 62 
C 13.09375 51.4375 9.59375 42.1875 1.09375 41.984375 
L 1.09375 40.390625 
L 9.796875 40.390625 
L 9.796875 12.15625 
C 9.796875 10.234375 9.796875 -1 21.40625 -1 
C 27.296875 -1 30.703125 4.8125 30.703125 12.25 
L 30.703125 17.984375 
L 28.90625 17.984375 
L 28.90625 12.34375 
C 28.90625 5.421875 26.203125 0.796875 22 0.796875 
C 19.09375 0.796875 15.09375 2.796875 15.09375 11.953125 
z
" id="CMR17-116"/>
     <path d="M 29.203125 67.890625 
L 29.203125 65.296875 
C 35.09375 65.296875 36 64.703125 36 60.046875 
L 36 37.046875 
C 35.59375 37.546875 31.5 44 23.40625 44 
C 13.203125 44 3.296875 34.8125 3.296875 21.5 
C 3.296875 8.265625 12.59375 -1 22.40625 -1 
C 30.90625 -1 35.296875 5.640625 35.796875 6.34375 
L 35.796875 -1 
L 47.90625 -0.203125 
L 47.90625 2.40625 
C 42 2.40625 41.09375 3.015625 41.09375 7.859375 
L 41.09375 69 
z
M 35.796875 11.90625 
C 35.796875 8.875 34 6.140625 31.703125 4.125 
C 28.296875 1.09375 24.90625 0.59375 23 0.59375 
C 20.09375 0.59375 9.703125 2.109375 9.703125 21.390625 
C 9.703125 41.1875 21.296875 42.390625 23.90625 42.390625 
C 28.5 42.390625 32.203125 39.765625 34.5 36.140625 
C 35.796875 34.015625 35.796875 33.703125 35.796875 31.890625 
z
" id="CMR17-100"/>
     <path d="M 30.90625 42 
C 30.90625 43.796875 30.796875 43.890625 30.203125 43.890625 
C 29.796875 43.890625 29.703125 43.796875 28.5 42.296875 
C 28.203125 41.890625 27.296875 40.890625 27 40.5 
C 23.796875 43.890625 19.296875 44 17.59375 44 
C 6.5 44 2.5 38.1875 2.5 32.390625 
C 2.5 23.390625 12.703125 21.296875 15.59375 20.6875 
C 21.90625 19.390625 24.09375 19 26.203125 17.1875 
C 27.5 16 29.703125 13.796875 29.703125 10.1875 
C 29.703125 6 27.296875 0.59375 18.09375 0.59375 
C 9.40625 0.59375 6.296875 7.1875 4.5 16 
C 4.203125 17.390625 4.203125 17.5 3.40625 17.5 
C 2.59375 17.5 2.5 17.390625 2.5 15.390625 
L 2.5 1 
C 2.5 -0.8125 2.59375 -0.90625 3.203125 -0.90625 
C 3.703125 -0.90625 3.796875 -0.8125 4.296875 0 
C 4.90625 0.890625 6.40625 3.296875 7 4.296875 
C 9 1.59375 12.5 -1 18.09375 -1 
C 28 -1 33.296875 4.390625 33.296875 12.1875 
C 33.296875 17.296875 30.59375 20 29.296875 21.1875 
C 26.296875 24.296875 22.796875 25 18.59375 25.796875 
C 13.09375 27 6.09375 28.390625 6.09375 34.5 
C 6.09375 37.09375 7.5 42.59375 17.59375 42.59375 
C 28.296875 42.59375 28.90625 32.59375 29.09375 29.390625 
C 29.203125 28.890625 29.703125 28.796875 30 28.796875 
C 30.90625 28.796875 30.90625 29.09375 30.90625 30.796875 
z
" id="CMR17-115"/>
     <path d="M 15.296875 40.390625 
L 26.703125 40.390625 
L 26.703125 43 
L 15.09375 43 
L 15.09375 55.296875 
C 15.09375 63.6875 19.296875 68.390625 23.59375 68.390625 
C 24.90625 68.390625 26.40625 68.171875 27.40625 67.796875 
C 26.59375 67.59375 24.5 66.890625 24.5 64.390625 
C 24.5 61.796875 26.5 61 27.90625 61 
C 29.296875 61 31.296875 61.796875 31.296875 64.390625 
C 31.296875 68.015625 27.703125 70 23.703125 70 
C 18 70 10.203125 65.796875 10.203125 55.09375 
L 10.203125 43 
L 2.203125 43 
L 2.203125 40.390625 
L 10.203125 40.390625 
L 10.203125 6.890625 
C 10.203125 3.09375 9.796875 2.59375 3.40625 2.59375 
L 3.40625 0 
C 5.796875 0.1875 10.40625 0.1875 13 0.1875 
C 15.90625 0.1875 21 0.1875 23.703125 0 
L 23.703125 2.59375 
C 16.5 2.59375 15.296875 2.59375 15.296875 7.09375 
z
" id="CMR17-102"/>
     <path d="M 41.5 30.53125 
C 41.5 35.65625 40.5 44 28.703125 44 
C 20.5 44 16.5 37.375 15.296875 34.046875 
L 15.203125 34.046875 
L 15.203125 69 
L 3.296875 67.890625 
L 3.296875 65.296875 
C 9.203125 65.296875 10.09375 64.703125 10.09375 60.046875 
L 10.09375 6.921875 
C 10.09375 3.09375 9.703125 2.59375 3.296875 2.59375 
L 3.296875 0 
C 5.703125 0.1875 10.09375 0.1875 12.703125 0.1875 
C 15.296875 0.1875 19.796875 0.1875 22.203125 0 
L 22.203125 2.59375 
C 15.796875 2.59375 15.40625 3 15.40625 6.921875 
L 15.40625 26.21875 
C 15.40625 35.453125 21 42.390625 28 42.390625 
C 35.40625 42.390625 36.203125 35.765625 36.203125 30.9375 
L 36.203125 6.921875 
C 36.203125 3.09375 35.796875 2.59375 29.40625 2.59375 
L 29.40625 0 
C 31.796875 0.1875 36.203125 0.1875 38.796875 0.1875 
C 41.40625 0.1875 45.90625 0.1875 48.296875 0 
L 48.296875 2.59375 
C 41.90625 2.59375 41.5 3 41.5 6.921875 
z
" id="CMR17-104"/>
     <path d="M 22 -17.40625 
C 15.59375 -17.40625 15.203125 -17 15.203125 -13.03125 
L 15.203125 5.9375 
C 18.09375 1.703125 22.296875 -1 27.59375 -1 
C 37.59375 -1 47.703125 7.859375 47.703125 21.59375 
C 47.703125 34.3125 39 44 28.703125 44 
C 22.703125 44 17.796875 40.671875 15 36.640625 
L 15 44 
L 3.09375 42.890625 
L 3.09375 40.265625 
C 9 40.265625 9.90625 39.671875 9.90625 34.8125 
L 9.90625 -13.03125 
C 9.90625 -16.890625 9.5 -17.40625 3.09375 -17.40625 
L 3.09375 -20 
C 5.5 -19.8125 9.90625 -19.8125 12.5 -19.8125 
C 15.09375 -19.8125 19.59375 -19.8125 22 -20 
z
M 15.203125 31.484375 
C 15.203125 32.90625 15.203125 35.015625 19.09375 38.765625 
C 19.59375 39.15625 23 42.1875 28 42.1875 
C 35.296875 42.1875 41.296875 33 41.296875 21.5 
C 41.296875 9.984375 34.90625 0.59375 27 0.59375 
C 23.40625 0.59375 19.5 2.3125 16.5 7.046875 
C 15.203125 9.28125 15.203125 9.875 15.203125 11.5 
z
" id="CMR17-112"/>
     <path d="M 58.203125 34.15625 
C 60.203125 40.09375 64.203125 40.296875 65.703125 40.390625 
L 65.703125 43 
C 63.703125 42.890625 61.703125 42.796875 59.703125 42.796875 
C 57.796875 42.796875 53.5 42.796875 51.796875 43 
L 51.796875 40.390625 
C 54.90625 40.1875 56.59375 38.375 56.59375 35.875 
C 56.59375 35.171875 56.40625 34.265625 56.203125 33.5625 
L 46.796875 6.21875 
L 36.59375 35.875 
C 36.40625 36.578125 36.09375 37.375 36.09375 37.78125 
C 36.09375 40.390625 39.5 40.390625 41.09375 40.390625 
L 41.09375 43 
C 38.796875 42.796875 34.59375 42.796875 32.203125 42.796875 
C 29.703125 42.796875 27.09375 42.796875 24.796875 43 
L 24.796875 40.390625 
C 30.296875 40.390625 30.296875 40.1875 32.40625 33.859375 
L 23.203125 6.921875 
L 13.296875 35.96875 
C 12.796875 37.28125 12.796875 37.484375 12.796875 37.78125 
C 12.796875 40.390625 16.203125 40.390625 17.796875 40.390625 
L 17.796875 43 
C 15.40625 42.796875 11.203125 42.796875 8.703125 42.796875 
C 6.5 42.796875 3.09375 42.796875 1 43 
L 1 40.390625 
C 5.40625 40.390625 6.5 40.09375 7.59375 36.765625 
L 19.90625 0.59375 
C 20.296875 -0.703125 20.59375 -1 21.40625 -1 
C 22.09375 -1 22.5 -0.8125 23 0.6875 
L 33.296875 31.046875 
L 43.703125 0.6875 
C 44.203125 -0.8125 44.59375 -1 45.296875 -1 
C 46.09375 -1 46.40625 -0.703125 46.796875 0.59375 
z
" id="CMR17-119"/>
    </defs>
    <g transform="translate(50.4844 28.56)scale(0.168 -0.168)">
     <use transform="scale(0.996264)" xlink:href="#CMR17-80"/>
     <use transform="translate(62.586301 0)scale(0.996264)" xlink:href="#CMR17-114"/>
     <use transform="translate(97.867068 0)scale(0.996264)" xlink:href="#CMR17-111"/>
     <use transform="translate(143.557545 0)scale(0.996264)" xlink:href="#CMR17-98"/>
     <use transform="translate(194.452915 0)scale(0.996264)" xlink:href="#CMR17-97"/>
     <use transform="translate(240.143392 0)scale(0.996264)" xlink:href="#CMR17-98"/>
     <use transform="translate(291.038762 0)scale(0.996264)" xlink:href="#CMR17-105"/>
     <use transform="translate(315.909821 0)scale(0.996264)" xlink:href="#CMR17-108"/>
     <use transform="translate(340.780879 0)scale(0.996264)" xlink:href="#CMR17-105"/>
     <use transform="translate(365.651938 0)scale(0.996264)" xlink:href="#CMR17-116"/>
     <use transform="translate(398.330251 0)scale(0.996264)" xlink:href="#CMR17-121"/>
     <use transform="translate(476.699134 0)scale(0.996264)" xlink:href="#CMR17-100"/>
     <use transform="translate(527.594503 0)scale(0.996264)" xlink:href="#CMR17-101"/>
     <use transform="translate(568.080164 0)scale(0.996264)" xlink:href="#CMR17-110"/>
     <use transform="translate(618.975534 0)scale(0.996264)" xlink:href="#CMR17-115"/>
     <use transform="translate(654.776871 0)scale(0.996264)" xlink:href="#CMR17-105"/>
     <use transform="translate(679.64793 0)scale(0.996264)" xlink:href="#CMR17-116"/>
     <use transform="translate(714.928698 0)scale(0.996264)" xlink:href="#CMR17-105"/>
     <use transform="translate(739.799756 0)scale(0.996264)" xlink:href="#CMR17-101"/>
     <use transform="translate(780.285417 0)scale(0.996264)" xlink:href="#CMR17-115"/>
     <use transform="translate(846.16272 0)scale(0.996264)" xlink:href="#CMR17-111"/>
     <use transform="translate(891.853198 0)scale(0.996264)" xlink:href="#CMR17-102"/>
     <use transform="translate(949.402676 0)scale(0.996264)" xlink:href="#CMR17-116"/>
     <use transform="translate(984.683444 0)scale(0.996264)" xlink:href="#CMR17-104"/>
     <use transform="translate(1035.578814 0)scale(0.996264)" xlink:href="#CMR17-101"/>
     <use transform="translate(1106.140441 0)scale(0.996264)" xlink:href="#CMR17-108"/>
     <use transform="translate(1131.011499 0)scale(0.996264)" xlink:href="#CMR17-105"/>
     <use transform="translate(1155.882558 0)scale(0.996264)" xlink:href="#CMR17-110"/>
     <use transform="translate(1206.777927 0)scale(0.996264)" xlink:href="#CMR17-101"/>
     <use transform="translate(1247.263588 0)scale(0.996264)" xlink:href="#CMR17-97"/>
     <use transform="translate(1292.954065 0)scale(0.996264)" xlink:href="#CMR17-114"/>
     <use transform="translate(1358.310799 0)scale(0.996264)" xlink:href="#CMR17-112"/>
     <use transform="translate(1411.808608 0)scale(0.996264)" xlink:href="#CMR17-111"/>
     <use transform="translate(1457.499085 0)scale(0.996264)" xlink:href="#CMR17-116"/>
     <use transform="translate(1492.779853 0)scale(0.996264)" xlink:href="#CMR17-101"/>
     <use transform="translate(1533.265513 0)scale(0.996264)" xlink:href="#CMR17-110"/>
     <use transform="translate(1581.558429 0)scale(0.996264)" xlink:href="#CMR17-116"/>
     <use transform="translate(1616.839197 0)scale(0.996264)" xlink:href="#CMR17-105"/>
     <use transform="translate(1641.710255 0)scale(0.996264)" xlink:href="#CMR17-97"/>
     <use transform="translate(1687.400732 0)scale(0.996264)" xlink:href="#CMR17-108"/>
     <use transform="translate(1742.347757 0)scale(0.996264)" xlink:href="#CMR17-119"/>
     <use transform="translate(1806.255184 0)scale(0.996264)" xlink:href="#CMR17-101"/>
     <use transform="translate(1846.740844 0)scale(0.996264)" xlink:href="#CMR17-108"/>
     <use transform="translate(1871.611903 0)scale(0.996264)" xlink:href="#CMR17-108"/>
    </g>
   </g>
  </g>
 </g>
 <defs>
  <clipPath id="peedc004746">
   <rect height="217.44" width="334.8" x="54" y="34.56"/>
  </clipPath>
 </defs>
</svg>
