<?xml version="1.0" encoding="utf-8" standalone="no"?>
<!DOCTYPE svg PUBLIC "-//W3C//DTD SVG 1.1//EN"
  "http://www.w3.org/Graphics/SVG/1.1/DTD/svg11.dtd">
<svg height="288pt" version="1.1" viewBox="0 0 432 288" width="432pt" xmlns="http://www.w3.org/2000/svg" xmlns:xlink="http://www.w3.org/1999/xlink">
 <metadata>
  <rdf:RDF xmlns:cc="http://creativecommons.org/ns#" xmlns:dc="http://purl.org/dc/elements/1.1/" xmlns:rdf="http://www.w3.org/1999/02/22-rdf-syntax-ns#">
   <cc:Work>
    <dc:type rdf:resource="http://purl.org/dc/dcmitype/StillImage"/>
    <dc:date>2021-09-16T17:50:34.468821</dc:date>
    <dc:format>image/svg+xml</dc:format>
    <dc:creator>
     <cc:Agent>
      <dc:title>Matplotlib v3.4.2, https://matplotlib.org/</dc:title>
     </cc:Agent>
    </dc:creator>
   </cc:Work>
  </rdf:RDF>
 </metadata>
 <defs>
  <style type="text/css">*{stroke-linecap:butt;stroke-linejoin:round;}</style>
 </defs>
 <g id="figure_1">
  <g id="patch_1">
   <path d="M 0 288 
L 432 288 
L 432 0 
L 0 0 
z
" style="fill:none;"/>
  </g>
  <g id="axes_1">
   <g id="patch_2">
    <path d="M 54 252 
L 388.8 252 
L 388.8 34.56 
L 54 34.56 
z
" style="fill:#ffffff;"/>
   </g>
   <g id="matplotlib.axis_1">
    <g id="xtick_1">
     <g id="line2d_1">
      <defs>
       <path d="M 0 0 
L 0 3.5 
" id="m8d36031b12" style="stroke:#000000;stroke-width:0.8;"/>
      </defs>
      <g>
       <use style="stroke:#000000;stroke-width:0.8;" x="133.756021" xlink:href="#m8d36031b12" y="252"/>
      </g>
     </g>
     <g id="text_1">
      <!-- $\mathdefault{−5}$ -->
      <g transform="translate(124.917659 268.685876)scale(0.14 -0.14)">
       <defs>
        <path d="M 4218 1472 
C 4326 1472 4442 1472 4442 1600 
C 4442 1728 4326 1728 4218 1728 
L 755 1728 
C 646 1728 531 1728 531 1600 
C 531 1472 646 1472 755 1472 
L 4218 1472 
z
" id="CMSY10-0" transform="scale(0.015625)"/>
        <path d="M 730 3692 
C 794 3666 1056 3584 1325 3584 
C 1920 3584 2246 3911 2432 4100 
C 2432 4157 2432 4192 2394 4192 
C 2387 4192 2374 4192 2323 4163 
C 2099 4058 1837 3973 1517 3973 
C 1325 3973 1037 3999 723 4139 
C 653 4171 640 4171 634 4171 
C 602 4171 595 4164 595 4037 
L 595 2203 
C 595 2089 595 2057 659 2057 
C 691 2057 704 2070 736 2114 
C 941 2401 1222 2522 1542 2522 
C 1766 2522 2246 2382 2246 1289 
C 2246 1085 2246 715 2054 421 
C 1894 159 1645 25 1370 25 
C 947 25 518 320 403 814 
C 429 807 480 795 506 795 
C 589 795 749 840 749 1038 
C 749 1210 627 1280 506 1280 
C 358 1280 262 1190 262 1011 
C 262 454 704 -128 1382 -128 
C 2042 -128 2669 440 2669 1264 
C 2669 2030 2170 2624 1549 2624 
C 1222 2624 947 2503 730 2274 
L 730 3692 
z
" id="CMR17-35" transform="scale(0.015625)"/>
       </defs>
       <use transform="scale(0.996264)" xlink:href="#CMSY10-0"/>
       <use transform="translate(77.487468 0)scale(0.996264)" xlink:href="#CMR17-35"/>
      </g>
     </g>
    </g>
    <g id="xtick_2">
     <g id="line2d_2">
      <g>
       <use style="stroke:#000000;stroke-width:0.8;" x="221.4" xlink:href="#m8d36031b12" y="252"/>
      </g>
     </g>
     <g id="text_2">
      <!-- $\mathdefault{0}$ -->
      <g transform="translate(217.985756 268.685876)scale(0.14 -0.14)">
       <defs>
        <path d="M 2688 2025 
C 2688 2416 2682 3080 2413 3591 
C 2176 4039 1798 4198 1466 4198 
C 1158 4198 768 4058 525 3597 
C 269 3118 243 2524 243 2025 
C 243 1661 250 1106 448 619 
C 723 -39 1216 -128 1466 -128 
C 1760 -128 2208 -7 2470 600 
C 2662 1042 2688 1559 2688 2025 
z
M 1466 -26 
C 1056 -26 813 325 723 812 
C 653 1188 653 1738 653 2096 
C 653 2588 653 2997 736 3387 
C 858 3929 1216 4096 1466 4096 
C 1728 4096 2067 3923 2189 3400 
C 2272 3036 2278 2607 2278 2096 
C 2278 1680 2278 1169 2202 792 
C 2067 95 1690 -26 1466 -26 
z
" id="CMR17-30" transform="scale(0.015625)"/>
       </defs>
       <use transform="scale(0.996264)" xlink:href="#CMR17-30"/>
      </g>
     </g>
    </g>
    <g id="xtick_3">
     <g id="line2d_3">
      <g>
       <use style="stroke:#000000;stroke-width:0.8;" x="309.043979" xlink:href="#m8d36031b12" y="252"/>
      </g>
     </g>
     <g id="text_3">
      <!-- $\mathdefault{5}$ -->
      <g transform="translate(305.629735 268.685876)scale(0.14 -0.14)">
       <use transform="scale(0.996264)" xlink:href="#CMR17-35"/>
      </g>
     </g>
    </g>
    <g id="text_4">
     <!-- $z/z_0$ -->
     <g transform="translate(208.822182 285.858677)scale(0.14 -0.14)">
      <defs>
       <path d="M 813 486 
C 1088 803 1312 1004 1632 1296 
C 2016 1632 2182 1793 2272 1891 
C 2720 2338 2944 2713 2944 2764 
C 2944 2816 2893 2816 2880 2816 
C 2835 2816 2822 2793 2790 2750 
C 2630 2494 2477 2367 2310 2367 
C 2176 2367 2106 2421 1984 2565 
C 1850 2715 1741 2816 1555 2816 
C 1088 2816 806 2257 806 2128 
C 806 2108 813 2068 870 2068 
C 922 2068 928 2091 947 2133 
C 1056 2372 1363 2414 1485 2414 
C 1619 2414 1747 2376 1882 2327 
C 2125 2240 2227 2240 2291 2240 
C 2336 2240 2362 2240 2394 2246 
C 2182 1994 1837 1683 1549 1418 
L 902 816 
C 512 415 275 33 275 -12 
C 275 -51 307 -64 346 -64 
C 384 -64 390 -57 435 14 
C 538 163 742 384 979 384 
C 1114 384 1178 342 1306 193 
C 1427 61 1536 -64 1741 -64 
C 2368 -64 2726 732 2726 876 
C 2726 903 2720 942 2656 942 
C 2605 942 2598 917 2579 855 
C 2438 488 2061 338 1811 338 
C 1677 338 1549 376 1414 425 
C 1158 512 1088 512 1005 512 
C 941 512 870 512 813 486 
z
" id="CMMI12-7a" transform="scale(0.015625)"/>
       <path d="M 2746 4562 
C 2746 4569 2784 4666 2784 4678 
C 2784 4755 2720 4800 2669 4800 
C 2637 4800 2579 4800 2528 4659 
L 384 -1363 
C 384 -1370 346 -1465 346 -1478 
C 346 -1555 410 -1600 461 -1600 
C 499 -1600 557 -1593 602 -1459 
L 2746 4562 
z
" id="CMMI12-3d" transform="scale(0.015625)"/>
      </defs>
      <use transform="scale(0.996264)" xlink:href="#CMMI12-7a"/>
      <use transform="translate(49.755145 0)scale(0.996264)" xlink:href="#CMMI12-3d"/>
      <use transform="translate(98.530064 0)scale(0.996264)" xlink:href="#CMMI12-7a"/>
      <use transform="translate(143.845817 -14.943915)scale(0.697382)" xlink:href="#CMR17-30"/>
     </g>
    </g>
   </g>
   <g id="matplotlib.axis_2">
    <g id="ytick_1">
     <g id="line2d_4">
      <defs>
       <path d="M 0 0 
L -3.5 0 
" id="m9be0dc5667" style="stroke:#000000;stroke-width:0.8;"/>
      </defs>
      <g>
       <use style="stroke:#000000;stroke-width:0.8;" x="54" xlink:href="#m9be0dc5667" y="252"/>
      </g>
     </g>
     <g id="text_5">
      <!-- $\mathdefault{0}$ -->
      <g transform="translate(40.171511 256.842938)scale(0.14 -0.14)">
       <use transform="scale(0.996264)" xlink:href="#CMR17-30"/>
      </g>
     </g>
    </g>
    <g id="ytick_2">
     <g id="line2d_5">
      <g>
       <use style="stroke:#000000;stroke-width:0.8;" x="54" xlink:href="#m9be0dc5667" y="206.462827"/>
      </g>
     </g>
     <g id="text_6">
      <!-- $\mathdefault{2}$ -->
      <g transform="translate(40.171511 211.305765)scale(0.14 -0.14)">
       <defs>
        <path d="M 2669 989 
L 2554 989 
C 2490 536 2438 459 2413 420 
C 2381 369 1920 369 1830 369 
L 602 369 
C 832 619 1280 1072 1824 1597 
C 2214 1967 2669 2402 2669 3035 
C 2669 3790 2067 4224 1395 4224 
C 691 4224 262 3604 262 3030 
C 262 2780 448 2748 525 2748 
C 589 2748 781 2787 781 3010 
C 781 3207 614 3264 525 3264 
C 486 3264 448 3258 422 3245 
C 544 3790 915 4058 1306 4058 
C 1862 4058 2227 3617 2227 3035 
C 2227 2479 1901 2000 1536 1584 
L 262 146 
L 262 0 
L 2515 0 
L 2669 989 
z
" id="CMR17-32" transform="scale(0.015625)"/>
       </defs>
       <use transform="scale(0.996264)" xlink:href="#CMR17-32"/>
      </g>
     </g>
    </g>
    <g id="ytick_3">
     <g id="line2d_6">
      <g>
       <use style="stroke:#000000;stroke-width:0.8;" x="54" xlink:href="#m9be0dc5667" y="160.925654"/>
      </g>
     </g>
     <g id="text_7">
      <!-- $\mathdefault{4}$ -->
      <g transform="translate(40.171511 165.768593)scale(0.14 -0.14)">
       <defs>
        <path d="M 2150 4122 
C 2150 4256 2144 4256 2029 4256 
L 128 1254 
L 128 1088 
L 1779 1088 
L 1779 457 
C 1779 224 1766 160 1318 160 
L 1197 160 
L 1197 0 
C 1402 0 1747 0 1965 0 
C 2182 0 2528 0 2733 0 
L 2733 160 
L 2611 160 
C 2163 160 2150 224 2150 457 
L 2150 1088 
L 2803 1088 
L 2803 1254 
L 2150 1254 
L 2150 4122 
z
M 1798 3703 
L 1798 1254 
L 256 1254 
L 1798 3703 
z
" id="CMR17-34" transform="scale(0.015625)"/>
       </defs>
       <use transform="scale(0.996264)" xlink:href="#CMR17-34"/>
      </g>
     </g>
    </g>
    <g id="ytick_4">
     <g id="line2d_7">
      <g>
       <use style="stroke:#000000;stroke-width:0.8;" x="54" xlink:href="#m9be0dc5667" y="115.388482"/>
      </g>
     </g>
     <g id="text_8">
      <!-- $\mathdefault{6}$ -->
      <g transform="translate(40.171511 120.23142)scale(0.14 -0.14)">
       <defs>
        <path d="M 678 2176 
C 678 3690 1395 4032 1811 4032 
C 1946 4032 2272 4009 2400 3776 
C 2298 3776 2106 3776 2106 3553 
C 2106 3381 2246 3323 2336 3323 
C 2394 3323 2566 3348 2566 3560 
C 2566 3954 2246 4179 1805 4179 
C 1043 4179 243 3390 243 1984 
C 243 253 966 -128 1478 -128 
C 2099 -128 2688 427 2688 1283 
C 2688 2081 2170 2662 1517 2662 
C 1126 2662 838 2407 678 1960 
L 678 2176 
z
M 1478 25 
C 691 25 691 1200 691 1436 
C 691 1896 909 2560 1504 2560 
C 1613 2560 1926 2560 2138 2120 
C 2253 1870 2253 1609 2253 1289 
C 2253 944 2253 690 2118 434 
C 1978 171 1773 25 1478 25 
z
" id="CMR17-36" transform="scale(0.015625)"/>
       </defs>
       <use transform="scale(0.996264)" xlink:href="#CMR17-36"/>
      </g>
     </g>
    </g>
    <g id="ytick_5">
     <g id="line2d_8">
      <g>
       <use style="stroke:#000000;stroke-width:0.8;" x="54" xlink:href="#m9be0dc5667" y="69.851309"/>
      </g>
     </g>
     <g id="text_9">
      <!-- $\mathdefault{8}$ -->
      <g transform="translate(40.171511 74.694247)scale(0.14 -0.14)">
       <defs>
        <path d="M 1741 2264 
C 2144 2467 2554 2773 2554 3263 
C 2554 3841 1990 4179 1472 4179 
C 890 4179 378 3759 378 3180 
C 378 3021 416 2747 666 2505 
C 730 2442 998 2251 1171 2130 
C 883 1983 211 1634 211 934 
C 211 279 838 -128 1459 -128 
C 2144 -128 2720 362 2720 1010 
C 2720 1590 2330 1857 2074 2029 
L 1741 2264 
z
M 902 2822 
C 851 2854 595 3051 595 3351 
C 595 3739 998 4032 1459 4032 
C 1965 4032 2336 3676 2336 3262 
C 2336 2669 1670 2331 1638 2331 
C 1632 2331 1626 2331 1574 2370 
L 902 2822 
z
M 2080 1519 
C 2176 1449 2483 1240 2483 851 
C 2483 381 2010 25 1472 25 
C 890 25 448 438 448 940 
C 448 1443 838 1862 1280 2060 
L 2080 1519 
z
" id="CMR17-38" transform="scale(0.015625)"/>
       </defs>
       <use transform="scale(0.996264)" xlink:href="#CMR17-38"/>
      </g>
     </g>
    </g>
    <g id="text_10">
     <!-- Energy ($mgz_0$) -->
     <g transform="translate(32.684587 187.438016)rotate(-90)scale(0.14 -0.14)">
      <defs>
       <path d="M 3885 1615 
L 3770 1615 
C 3629 676 3546 166 2419 166 
L 1530 166 
C 1274 166 1261 197 1261 414 
L 1261 2176 
L 1862 2176 
C 2464 2176 2522 1960 2522 1430 
L 2637 1430 
L 2637 3081 
L 2522 3081 
C 2522 2557 2464 2342 1862 2342 
L 1261 2342 
L 1261 3913 
C 1261 4128 1274 4160 1530 4160 
L 2406 4160 
C 3398 4160 3514 3769 3603 2929 
L 3718 2929 
L 3565 4325 
L 326 4325 
L 326 4160 
C 768 4160 838 4160 838 3874 
L 838 451 
C 838 166 768 166 326 166 
L 326 0 
L 3654 0 
L 3885 1615 
z
" id="CMR17-45" transform="scale(0.015625)"/>
       <path d="M 2656 1933 
C 2656 2259 2592 2790 1837 2790 
C 1331 2790 1069 2400 973 2144 
L 966 2144 
L 966 2790 
L 211 2720 
L 211 2554 
C 589 2554 646 2515 646 2208 
L 646 428 
C 646 184 621 153 211 153 
L 211 -13 
C 365 0 646 0 813 0 
C 979 0 1267 0 1421 -13 
L 1421 153 
C 1011 153 986 178 986 428 
L 986 1658 
C 986 2247 1344 2688 1792 2688 
C 2266 2688 2317 2266 2317 1958 
L 2317 428 
C 2317 184 2291 153 1882 153 
L 1882 -13 
C 2035 0 2317 0 2483 0 
C 2650 0 2938 0 3091 -13 
L 3091 153 
C 2682 153 2656 178 2656 428 
L 2656 1933 
z
" id="CMR17-6e" transform="scale(0.015625)"/>
       <path d="M 2438 1472 
C 2464 1498 2464 1511 2464 1576 
C 2464 2238 2118 2816 1389 2816 
C 710 2816 173 2169 173 1383 
C 173 551 781 -64 1459 -64 
C 2176 -64 2458 607 2458 740 
C 2458 784 2419 784 2406 784 
C 2362 784 2355 771 2330 696 
C 2189 265 1837 51 1504 51 
C 1229 51 954 203 781 480 
C 582 803 582 1176 582 1472 
L 2438 1472 
z
M 589 1568 
C 634 2505 1126 2714 1382 2714 
C 1818 2714 2112 2297 2118 1568 
L 589 1568 
z
" id="CMR17-65" transform="scale(0.015625)"/>
       <path d="M 960 1497 
C 960 2112 1222 2688 1702 2688 
C 1747 2688 1792 2682 1837 2662 
C 1837 2662 1696 2617 1696 2452 
C 1696 2298 1818 2234 1914 2234 
C 1990 2234 2131 2279 2131 2458 
C 2131 2663 1926 2790 1709 2790 
C 1222 2790 1011 2317 947 2093 
L 941 2093 
L 941 2790 
L 198 2720 
L 198 2554 
C 576 2554 634 2515 634 2208 
L 634 428 
C 634 184 608 153 198 153 
L 198 -13 
C 352 0 646 0 813 0 
C 998 0 1325 0 1498 -13 
L 1498 153 
C 1037 153 960 153 960 440 
L 960 1497 
z
" id="CMR17-72" transform="scale(0.015625)"/>
       <path d="M 710 1164 
C 832 1068 1043 960 1299 960 
C 1805 960 2240 1357 2240 1888 
C 2240 2054 2189 2310 1997 2509 
C 2176 2692 2438 2752 2586 2752 
C 2611 2752 2650 2752 2682 2734 
C 2656 2728 2598 2703 2598 2605 
C 2598 2527 2656 2471 2739 2471 
C 2835 2471 2886 2533 2886 2614 
C 2886 2731 2790 2854 2586 2854 
C 2330 2854 2106 2738 1926 2580 
C 1734 2753 1504 2816 1299 2816 
C 794 2816 358 2419 358 1888 
C 358 1522 570 1292 634 1228 
C 442 1004 442 743 442 711 
C 442 545 506 302 723 168 
C 390 85 128 -169 128 -486 
C 128 -943 736 -1280 1466 -1280 
C 2170 -1280 2803 -956 2803 -479 
C 2803 384 1856 384 1363 384 
C 1216 384 954 384 922 391 
C 723 423 589 602 589 826 
C 589 883 589 1024 710 1164 
z
M 1299 1068 
C 736 1068 736 1760 736 1889 
C 736 2016 736 2708 1299 2708 
C 1862 2708 1862 2016 1862 1889 
C 1862 1760 1862 1068 1299 1068 
z
M 1466 -1171 
C 826 -1171 384 -835 384 -486 
C 384 -289 493 -105 634 -4 
C 794 104 858 104 1293 104 
C 1818 104 2547 104 2547 -486 
C 2547 -835 2106 -1171 1466 -1171 
z
" id="CMR17-67" transform="scale(0.015625)"/>
       <path d="M 2496 2197 
C 2656 2586 2944 2586 3034 2586 
L 3034 2752 
C 2912 2752 2752 2752 2630 2752 
C 2496 2752 2285 2752 2157 2758 
L 2157 2592 
C 2400 2573 2406 2394 2406 2343 
C 2406 2280 2394 2248 2362 2171 
L 1664 449 
L 902 2306 
C 870 2382 870 2426 870 2433 
C 870 2573 1018 2586 1171 2586 
L 1171 2758 
C 1018 2752 742 2752 582 2752 
C 410 2752 205 2752 64 2758 
L 64 2586 
C 410 2586 448 2554 531 2350 
L 1485 15 
C 1197 -738 1030 -1178 627 -1178 
C 557 -1178 397 -1159 282 -1044 
C 429 -1031 493 -942 493 -833 
C 493 -725 416 -629 288 -629 
C 147 -629 77 -725 77 -840 
C 77 -1095 339 -1280 627 -1280 
C 998 -1280 1229 -922 1357 -604 
L 2496 2197 
z
" id="CMR17-79" transform="scale(0.015625)"/>
       <path d="M 1958 -1561 
C 1958 -1555 1958 -1542 1939 -1523 
C 1645 -1224 858 -407 858 1581 
C 858 3569 1632 4379 1946 4697 
C 1946 4704 1958 4717 1958 4736 
C 1958 4755 1939 4768 1914 4768 
C 1843 4768 1299 4296 986 3594 
C 666 2887 576 2199 576 1588 
C 576 1128 621 351 1005 -471 
C 1312 -1135 1837 -1600 1914 -1600 
C 1946 -1600 1958 -1587 1958 -1561 
z
" id="CMR17-28" transform="scale(0.015625)"/>
       <path d="M 1318 1871 
C 1331 1910 1491 2229 1728 2433 
C 1894 2586 2112 2689 2362 2689 
C 2618 2689 2707 2497 2707 2242 
C 2707 2203 2707 2076 2630 1775 
L 2470 1118 
C 2419 926 2298 453 2285 383 
C 2259 287 2221 121 2221 96 
C 2221 6 2291 -64 2387 -64 
C 2579 -64 2611 83 2669 313 
L 3053 1839 
C 3066 1890 3398 2689 4102 2689 
C 4358 2689 4448 2497 4448 2242 
C 4448 1884 4198 1188 4058 805 
C 4000 651 3968 568 3968 453 
C 3968 166 4166 -64 4474 -64 
C 5069 -64 5293 875 5293 913 
C 5293 945 5267 971 5229 971 
C 5171 971 5165 952 5133 843 
C 4986 332 4749 64 4493 64 
C 4429 64 4326 64 4326 269 
C 4326 436 4403 640 4429 710 
C 4544 1018 4832 1773 4832 2145 
C 4832 2528 4608 2816 4122 2816 
C 3693 2816 3347 2574 3091 2197 
C 3072 2542 2861 2816 2381 2816 
C 1811 2816 1510 2415 1395 2255 
C 1376 2618 1114 2816 832 2816 
C 646 2816 499 2727 378 2484 
C 262 2254 173 1865 173 1839 
C 173 1814 198 1782 243 1782 
C 294 1782 301 1788 339 1935 
C 435 2312 557 2689 813 2689 
C 960 2689 1011 2586 1011 2395 
C 1011 2254 947 2005 902 1807 
L 723 1118 
C 698 996 627 709 595 594 
C 550 428 480 128 480 96 
C 480 6 550 -64 646 -64 
C 723 -64 813 -26 864 70 
C 877 102 934 326 966 453 
L 1107 1028 
L 1318 1871 
z
" id="CMMI12-6d" transform="scale(0.015625)"/>
       <path d="M 2163 811 
C 2138 709 2125 683 2042 588 
C 1779 249 1510 128 1312 128 
C 1101 128 902 294 902 734 
C 902 1073 1094 1788 1235 2076 
C 1421 2433 1709 2689 1978 2689 
C 2400 2689 2483 2165 2483 2127 
L 2464 2037 
L 2163 811 
z
M 2560 2395 
C 2477 2580 2298 2816 1978 2816 
C 1280 2816 486 1941 486 990 
C 486 326 890 0 1299 0 
C 1638 0 1939 268 2054 396 
L 1914 -171 
C 1824 -516 1786 -674 1555 -894 
C 1293 -1152 1050 -1152 909 -1152 
C 717 -1152 557 -1139 397 -1089 
C 602 -1033 653 -858 653 -789 
C 653 -689 576 -588 435 -588 
C 282 -588 115 -714 115 -922 
C 115 -1180 378 -1280 922 -1280 
C 1747 -1280 2176 -753 2259 -410 
L 2970 2435 
C 2989 2511 2989 2524 2989 2536 
C 2989 2625 2918 2695 2822 2695 
C 2669 2695 2579 2567 2560 2395 
z
" id="CMMI12-67" transform="scale(0.015625)"/>
       <path d="M 1683 1581 
C 1683 2040 1638 2817 1254 3639 
C 947 4303 422 4768 346 4768 
C 326 4768 301 4761 301 4729 
C 301 4717 307 4710 314 4697 
C 621 4378 1402 3568 1402 1584 
C 1402 -407 627 -1217 314 -1537 
C 307 -1549 301 -1556 301 -1568 
C 301 -1600 326 -1600 346 -1600 
C 416 -1600 960 -1128 1274 -426 
C 1594 281 1683 969 1683 1581 
z
" id="CMR17-29" transform="scale(0.015625)"/>
      </defs>
      <use transform="scale(0.996264)" xlink:href="#CMR17-45"/>
      <use transform="translate(62.586301 0)scale(0.996264)" xlink:href="#CMR17-6e"/>
      <use transform="translate(113.48167 0)scale(0.996264)" xlink:href="#CMR17-65"/>
      <use transform="translate(153.967331 0)scale(0.996264)" xlink:href="#CMR17-72"/>
      <use transform="translate(189.248099 0)scale(0.996264)" xlink:href="#CMR17-67"/>
      <use transform="translate(234.938576 0)scale(0.996264)" xlink:href="#CMR17-79"/>
      <use transform="translate(313.307458 0)scale(0.996264)" xlink:href="#CMR17-28"/>
      <use transform="translate(348.588226 0)scale(0.996264)" xlink:href="#CMMI12-6d"/>
      <use transform="translate(433.91545 0)scale(0.996264)" xlink:href="#CMMI12-67"/>
      <use transform="translate(484.20094 0)scale(0.996264)" xlink:href="#CMMI12-7a"/>
      <use transform="translate(529.516693 -14.943915)scale(0.697382)" xlink:href="#CMR17-30"/>
      <use transform="translate(561.998007 0)scale(0.996264)" xlink:href="#CMR17-29"/>
     </g>
    </g>
   </g>
   <g id="line2d_9">
    <path clip-path="url(#pa836723851)" d="M 54 228.803524 
L 173.39619 228.694901 
L 181.083341 228.446443 
L 186.317147 228.061065 
L 190.406058 227.549333 
L 194.004299 226.886107 
L 197.438984 226.025097 
L 200.710112 224.977132 
L 204.144797 223.645526 
L 208.724377 221.607415 
L 214.121739 219.242542 
L 216.738642 218.348421 
L 218.864875 217.854561 
L 220.663996 217.649013 
L 222.463117 217.670224 
L 224.262237 217.914111 
L 226.388471 218.444957 
L 228.841817 219.306418 
L 232.276502 220.781983 
L 240.290767 224.306988 
L 243.725452 225.529266 
L 246.99658 226.464867 
L 250.431265 227.215562 
L 254.193063 227.802379 
L 258.44553 228.234881 
L 263.679336 228.536665 
L 271.039375 228.72059 
L 284.614558 228.796349 
L 371.135906 228.803524 
L 388.8 228.803524 
L 388.8 228.803524 
" style="fill:none;stroke:#000000;stroke-linecap:square;stroke-width:1.5;"/>
   </g>
   <g id="line2d_10">
    <path clip-path="url(#pa836723851)" d="M 54 198.764599 
L 153.605862 198.654607 
L 161.620127 198.407782 
L 167.181045 198.027993 
L 171.924182 197.48371 
L 176.176649 196.77423 
L 180.592672 195.803178 
L 186.480703 194.244953 
L 191.878065 192.884183 
L 194.822081 192.363903 
L 197.275427 192.142862 
L 199.565217 192.158869 
L 201.691451 192.391238 
L 203.817684 192.840516 
L 206.107474 193.55263 
L 208.887934 194.671461 
L 216.575085 197.948938 
L 218.537763 198.4671 
L 220.336883 198.722842 
L 222.136004 198.744556 
L 223.935125 198.530215 
L 225.897802 198.050701 
L 228.187592 197.232898 
L 231.45872 195.787433 
L 235.874744 193.857121 
L 238.32809 193.021097 
L 240.61788 192.475772 
L 242.744113 192.193333 
L 244.870347 192.123925 
L 247.160137 192.265606 
L 249.77704 192.654442 
L 253.048168 193.379919 
L 259.590425 195.133351 
L 264.660674 196.370869 
L 268.913141 197.184086 
L 273.329165 197.79495 
L 278.235857 198.235695 
L 284.123889 198.528944 
L 292.465266 198.699338 
L 308.820909 198.761142 
L 388.8 198.764599 
L 388.8 198.764599 
" style="fill:none;stroke:#000000;stroke-linecap:square;stroke-width:1.5;"/>
   </g>
   <g id="line2d_11">
    <path clip-path="url(#pa836723851)" d="M 54 178.043133 
L 138.558671 177.934009 
L 146.736492 177.687334 
L 152.460967 177.305454 
L 157.36766 176.75916 
L 161.94724 176.023894 
L 166.853933 175.004216 
L 177.321544 172.735343 
L 180.265559 172.392311 
L 182.718906 172.318508 
L 185.008696 172.45832 
L 187.298486 172.814347 
L 189.751832 173.427973 
L 192.532291 174.363123 
L 201.200782 177.491655 
L 203.327015 177.901122 
L 205.289692 178.04234 
L 207.088813 177.957646 
L 209.05149 177.642228 
L 211.34128 177.034321 
L 219.028432 174.739845 
L 220.827553 174.550416 
L 222.626673 174.593391 
L 224.425794 174.861131 
L 226.552027 175.408919 
L 230.477382 176.719405 
L 233.257841 177.530968 
L 235.384074 177.920563 
L 237.346751 178.043132 
L 239.145872 177.941243 
L 241.108549 177.607706 
L 243.398339 176.972475 
L 246.342355 175.899679 
L 252.557499 173.576708 
L 255.174402 172.882778 
L 257.464191 172.495847 
L 259.753981 172.325588 
L 262.207328 172.370221 
L 264.824231 172.638795 
L 268.095359 173.210583 
L 273.329165 174.39584 
L 280.034978 175.869161 
L 284.614558 176.64443 
L 289.357694 177.214504 
L 294.5915 177.610478 
L 301.133757 177.868954 
L 310.783586 178.005104 
L 334.335711 178.042708 
L 388.8 178.043133 
L 388.8 178.043133 
" style="fill:none;stroke:#000000;stroke-linecap:square;stroke-width:1.5;"/>
   </g>
   <g id="line2d_12">
    <path clip-path="url(#pa836723851)" d="M 54 158.92317 
L 124.656375 158.813819 
L 132.997753 158.564554 
L 138.885784 158.176373 
L 143.956033 157.622558 
L 148.862726 156.858282 
L 154.750757 155.69828 
L 161.620127 154.374207 
L 164.891255 153.974977 
L 167.671715 153.858859 
L 170.125061 153.969936 
L 172.578407 154.299829 
L 175.19531 154.885433 
L 178.302882 155.832191 
L 185.990034 158.322554 
L 188.279824 158.756445 
L 190.242501 158.916533 
L 192.205178 158.861832 
L 194.331412 158.568735 
L 196.784758 157.986324 
L 204.308354 156.002434 
L 206.271031 155.829687 
L 208.070151 155.887593 
L 210.032829 156.184742 
L 212.322618 156.782141 
L 219.028432 158.719844 
L 220.827553 158.911046 
L 222.626673 158.867786 
L 224.425794 158.597221 
L 226.552027 158.046369 
L 233.421397 156.060278 
L 235.384074 155.841997 
L 237.183195 155.860887 
L 239.145872 156.109684 
L 241.435662 156.638134 
L 249.449927 158.732356 
L 251.57616 158.916213 
L 253.538837 158.862773 
L 255.665071 158.569912 
L 257.954861 158.022929 
L 261.062433 157.027843 
L 267.441133 154.929274 
L 270.058036 154.329607 
L 272.511383 153.98505 
L 274.964729 153.859698 
L 277.581632 153.94935 
L 280.525647 154.276062 
L 284.287445 154.927606 
L 298.026185 157.510931 
L 302.932877 158.086906 
L 308.330239 158.488683 
L 315.036053 158.749643 
L 324.849438 158.885654 
L 348.728676 158.922767 
L 388.8 158.92317 
L 388.8 158.92317 
" style="fill:none;stroke:#000000;stroke-linecap:square;stroke-width:1.5;"/>
   </g>
   <g id="line2d_13">
    <path clip-path="url(#pa836723851)" d="M 54 142.253154 
L 112.389643 142.142968 
L 120.731021 141.895868 
L 126.782609 141.501713 
L 132.016414 140.937327 
L 137.086663 140.165507 
L 144.773815 138.724866 
L 149.516952 137.945885 
L 152.78808 137.62848 
L 155.568539 137.580221 
L 158.185442 137.760423 
L 160.802345 138.171367 
L 163.582804 138.838688 
L 167.344602 139.99475 
L 172.251295 141.482312 
L 174.704641 141.994053 
L 176.830874 142.223736 
L 178.957108 142.223703 
L 181.083341 141.994474 
L 183.536688 141.490818 
L 192.041622 139.484097 
L 194.004299 139.388318 
L 195.966976 139.523271 
L 198.09321 139.91188 
L 200.873669 140.681782 
L 205.126136 141.868034 
L 207.088813 142.179078 
L 208.887934 142.249612 
L 210.687054 142.102155 
L 212.813288 141.684438 
L 216.738642 140.597407 
L 219.028432 140.091816 
L 220.827553 139.90341 
L 222.626673 139.946366 
L 224.425794 140.210947 
L 226.87914 140.822656 
L 231.295164 141.968692 
L 233.257841 142.220666 
L 235.056961 142.230003 
L 236.856082 142.024516 
L 238.982316 141.552459 
L 243.398339 140.248933 
L 245.851685 139.674206 
L 247.814362 139.426956 
L 249.77704 139.407958 
L 251.739717 139.612741 
L 254.029507 140.080664 
L 258.772643 141.367268 
L 261.553102 141.968092 
L 263.679336 142.213985 
L 265.805569 142.232077 
L 267.931803 142.019378 
L 270.221593 141.563399 
L 273.165608 140.732003 
L 281.016317 138.382144 
L 283.796776 137.864289 
L 286.413679 137.611907 
L 289.030581 137.58529 
L 291.974597 137.790182 
L 295.409282 138.262359 
L 300.9702 139.287935 
L 308.166683 140.565696 
L 313.236932 141.230987 
L 318.470738 141.690637 
L 324.685882 142.001613 
L 333.027259 142.17948 
L 348.728676 142.248291 
L 388.8 142.253154 
L 388.8 142.253154 
" style="fill:none;stroke:#000000;stroke-linecap:square;stroke-width:1.5;"/>
   </g>
   <g id="line2d_14">
    <path clip-path="url(#pa836723851)" d="M 54 126.304644 
L 100.613581 126.193938 
L 109.118515 125.941658 
L 115.170103 125.549424 
L 120.403908 124.995799 
L 125.80127 124.19689 
L 138.885784 122.114025 
L 141.993356 121.944613 
L 144.773815 122.019333 
L 147.390718 122.309501 
L 150.171177 122.845867 
L 153.442306 123.714552 
L 160.802345 125.771376 
L 163.255691 126.170988 
L 165.381925 126.30333 
L 167.508158 126.218281 
L 169.797948 125.898413 
L 172.578407 125.274006 
L 178.302882 123.919064 
L 180.429116 123.670764 
L 182.391793 123.653738 
L 184.35447 123.85112 
L 186.64426 124.315844 
L 190.896727 125.48629 
L 193.51363 126.067039 
L 195.476307 126.283681 
L 197.275427 126.27367 
L 199.238105 126.037604 
L 201.691451 125.491284 
L 206.598144 124.314541 
L 208.560821 124.114758 
L 210.359941 124.156695 
L 212.322618 124.443076 
L 214.775965 125.051846 
L 218.701319 126.046225 
L 220.663996 126.284651 
L 222.463117 126.263062 
L 224.262237 126.015511 
L 226.552027 125.464259 
L 230.968051 124.350421 
L 232.930728 124.123227 
L 234.729849 124.14174 
L 236.692526 124.399623 
L 239.145872 124.968711 
L 243.561895 126.037604 
L 245.524573 126.27367 
L 247.323693 126.283681 
L 249.28637 126.067039 
L 251.57616 125.571903 
L 258.772643 123.803987 
L 260.73532 123.641518 
L 262.697997 123.694259 
L 264.824231 123.975612 
L 267.60469 124.59474 
L 273.492721 125.984768 
L 275.782511 126.257059 
L 277.908745 126.29191 
L 280.034978 126.110826 
L 282.488324 125.664551 
L 285.595896 124.842857 
L 293.119492 122.735546 
L 295.899951 122.238646 
L 298.516854 121.989018 
L 301.297313 121.9549 
L 304.241329 122.145006 
L 307.83957 122.609451 
L 314.054714 123.686191 
L 320.924084 124.799853 
L 326.15789 125.415842 
L 331.718808 125.83931 
L 338.424621 126.113374 
L 348.07445 126.260548 
L 369.827455 126.303857 
L 388.8 126.304644 
L 388.8 126.304644 
" style="fill:none;stroke:#000000;stroke-linecap:square;stroke-width:1.5;"/>
   </g>
   <g id="line2d_15">
    <path clip-path="url(#pa836723851)" d="M 54 111.670055 
L 89.6553 111.560278 
L 98.160234 111.312092 
L 104.375379 110.915234 
L 109.772741 110.35105 
L 115.333659 109.54381 
L 127.109722 107.743477 
L 130.38085 107.542417 
L 133.161309 107.586034 
L 135.941768 107.856369 
L 138.722228 108.351164 
L 142.156913 109.209165 
L 149.680508 111.192995 
L 152.133854 111.558357 
L 154.423644 111.670075 
L 156.713434 111.543057 
L 159.166781 111.167145 
L 162.601466 110.375661 
L 166.690376 109.465108 
L 168.980166 109.184612 
L 171.1064 109.155894 
L 173.232633 109.365261 
L 175.685979 109.857814 
L 183.046019 111.554084 
L 185.008696 111.670199 
L 186.971373 111.557072 
L 189.097606 111.204265 
L 192.695848 110.327132 
L 195.476307 109.761766 
L 197.438984 109.58923 
L 199.238105 109.645888 
L 201.200782 109.933278 
L 203.817684 110.56425 
L 207.415926 111.421893 
L 209.378603 111.650257 
L 211.177723 111.632142 
L 213.140401 111.369645 
L 215.757303 110.75948 
L 219.028432 110.022357 
L 220.827553 109.83519 
L 222.626673 109.878083 
L 224.58935 110.171829 
L 227.696922 110.926467 
L 230.313825 111.482178 
L 232.276502 111.664863 
L 234.075623 111.601277 
L 236.0383 111.296841 
L 238.818759 110.607926 
L 242.089888 109.841939 
L 244.052565 109.609617 
L 245.851685 109.610284 
L 247.814362 109.838921 
L 250.267709 110.367478 
L 255.010845 111.446261 
L 257.137079 111.657773 
L 259.099756 111.617769 
L 261.062433 111.358754 
L 263.679336 110.763349 
L 269.240254 109.417154 
L 271.366488 109.172878 
L 273.329165 109.156858 
L 275.455398 109.361624 
L 278.072301 109.861482 
L 285.595896 111.486077 
L 287.885686 111.662832 
L 290.01192 111.614333 
L 292.30171 111.340163 
L 294.918613 110.795733 
L 298.843967 109.719903 
L 303.75066 108.422693 
L 306.694675 107.879462 
L 309.475134 107.595523 
L 312.255594 107.539082 
L 315.363166 107.71294 
L 319.124963 108.169321 
L 325.66722 109.245907 
L 332.373034 110.267331 
L 337.770396 110.858655 
L 343.494871 111.256131 
L 350.527797 111.509139 
L 360.995408 111.638346 
L 388.145774 111.670032 
L 388.8 111.670055 
L 388.8 111.670055 
" style="fill:none;stroke:#000000;stroke-linecap:square;stroke-width:1.5;"/>
   </g>
   <g id="line2d_16">
    <path clip-path="url(#pa836723851)" d="M 54 97.474869 
L 79.514802 97.358712 
L 88.019736 97.09956 
L 94.23488 96.692678 
L 99.795799 96.10415 
L 105.847386 95.226479 
L 115.333659 93.823646 
L 118.768344 93.568577 
L 121.71236 93.565919 
L 124.492819 93.781899 
L 127.273278 94.214435 
L 130.544406 94.956308 
L 139.54001 97.157311 
L 141.993356 97.431698 
L 144.283146 97.459974 
L 146.572936 97.263799 
L 149.189839 96.809249 
L 157.531216 95.151621 
L 159.65745 95.069103 
L 161.783683 95.213919 
L 164.073473 95.600108 
L 167.671715 96.481792 
L 170.942843 97.202335 
L 173.069077 97.446132 
L 175.031754 97.45102 
L 177.157987 97.217141 
L 179.77489 96.677008 
L 184.35447 95.687852 
L 186.317147 95.502141 
L 188.279824 95.547283 
L 190.242501 95.817583 
L 193.02296 96.457532 
L 196.621202 97.261583 
L 198.583879 97.463344 
L 200.383 97.430319 
L 202.345677 97.165998 
L 205.289692 96.497172 
L 208.233708 95.888259 
L 210.196385 95.721197 
L 211.995506 95.799403 
L 213.958183 96.117062 
L 220.663996 97.45626 
L 222.463117 97.43472 
L 224.262237 97.190375 
L 226.87914 96.584321 
L 229.986712 95.906013 
L 231.949389 95.723553 
L 233.74851 95.788452 
L 235.711187 96.08866 
L 239.800098 97.035883 
L 242.089888 97.40164 
L 243.889008 97.473344 
L 245.688129 97.333421 
L 247.814362 96.940412 
L 254.193063 95.577692 
L 256.15574 95.493078 
L 258.118417 95.642315 
L 260.408207 96.056352 
L 266.786908 97.371912 
L 268.749585 97.476196 
L 270.712262 97.362335 
L 273.002052 96.985523 
L 276.436737 96.145388 
L 279.871422 95.380835 
L 282.161212 95.107857 
L 284.287445 95.08582 
L 286.413679 95.283639 
L 289.030581 95.761722 
L 296.554177 97.304713 
L 298.843967 97.469978 
L 301.133757 97.409122 
L 303.587103 97.103628 
L 306.367562 96.519854 
L 311.601368 95.126164 
L 315.363166 94.246154 
L 318.307181 93.781899 
L 321.08764 93.565919 
L 324.031656 93.568577 
L 327.302785 93.806492 
L 331.555252 94.364211 
L 345.948217 96.44418 
L 351.509135 96.914984 
L 357.887836 97.224958 
L 366.556326 97.404513 
L 382.748412 97.471798 
L 388.8 97.474869 
L 388.8 97.474869 
" style="fill:none;stroke:#000000;stroke-linecap:square;stroke-width:1.5;"/>
   </g>
   <g id="line2d_17">
    <path clip-path="url(#pa836723851)" d="M 54 84.136674 
L 71.173425 83.996802 
L 79.187689 83.713692 
L 85.239277 83.283787 
L 90.800195 82.668996 
L 97.669565 81.662005 
L 104.702491 80.676363 
L 108.300733 80.400711 
L 111.408305 80.388705 
L 114.188764 80.592996 
L 117.13278 81.035763 
L 120.567465 81.79625 
L 129.072399 83.807707 
L 131.525745 84.09007 
L 133.815535 84.136859 
L 136.105325 83.966979 
L 138.722228 83.546088 
L 147.554275 81.890288 
L 149.680508 81.839932 
L 151.806742 82.007837 
L 154.260088 82.437949 
L 162.274353 84.07958 
L 164.23703 84.141398 
L 166.363263 83.973677 
L 168.81661 83.533324 
L 174.704641 82.350626 
L 176.667318 82.238777 
L 178.629995 82.352826 
L 180.756229 82.703872 
L 187.952711 84.114617 
L 189.751832 84.125041 
L 191.714509 83.910665 
L 194.331412 83.368913 
L 197.929653 82.6266 
L 199.89233 82.461109 
L 201.691451 82.531269 
L 203.654128 82.832131 
L 210.523498 84.132569 
L 212.322618 84.096476 
L 214.285296 83.818626 
L 220.991109 82.607901 
L 222.79023 82.671983 
L 224.752907 82.979157 
L 230.804494 84.119886 
L 232.603615 84.114635 
L 234.566292 83.863849 
L 237.346751 83.239537 
L 240.290767 82.631666 
L 242.253444 82.461536 
L 244.052565 82.528787 
L 246.178798 82.853551 
L 252.884612 84.115781 
L 254.683732 84.124069 
L 256.646409 83.907316 
L 259.099756 83.395892 
L 263.515779 82.438712 
L 265.478456 82.251671 
L 267.441133 82.289116 
L 269.567367 82.565907 
L 272.674939 83.236895 
L 276.109624 83.928057 
L 278.235857 84.131128 
L 280.198534 84.104369 
L 282.324768 83.849225 
L 285.105227 83.260351 
L 290.339033 82.100682 
L 292.628823 81.859522 
L 294.755056 81.859546 
L 297.044846 82.091833 
L 299.825305 82.612539 
L 306.367562 83.926245 
L 308.820909 84.131779 
L 311.110699 84.100645 
L 313.564045 83.833272 
L 316.344504 83.293377 
L 320.924084 82.130231 
L 325.176551 81.130363 
L 328.284123 80.630952 
L 331.064582 80.401804 
L 334.008598 80.38327 
L 337.279726 80.593509 
L 341.368637 81.09214 
L 357.23361 83.253686 
L 362.958085 83.677901 
L 369.827455 83.953902 
L 379.64084 84.101798 
L 388.8 84.136674 
L 388.8 84.136674 
" style="fill:none;stroke:#000000;stroke-linecap:square;stroke-width:1.5;"/>
   </g>
   <g id="line2d_18">
    <path clip-path="url(#pa836723851)" d="M 54 71.074502 
L 64.95828 70.880371 
L 71.991207 70.541335 
L 77.879238 70.036045 
L 83.767269 69.302384 
L 96.361114 67.631052 
L 99.632242 67.485244 
L 102.576258 67.566399 
L 105.520274 67.873235 
L 108.627846 68.42812 
L 112.880313 69.443024 
L 117.787005 70.581391 
L 120.567465 70.991831 
L 123.020811 71.123052 
L 125.310601 71.02824 
L 127.927504 70.684789 
L 131.525745 69.953812 
L 135.614656 69.162703 
L 138.068002 68.920274 
L 140.194235 68.925096 
L 142.484025 69.162062 
L 145.100928 69.667254 
L 151.316072 70.962664 
L 153.442306 71.119793 
L 155.568539 71.041709 
L 157.858329 70.717764 
L 162.110796 69.80919 
L 164.727699 69.390128 
L 166.690376 69.287715 
L 168.653053 69.402834 
L 170.942843 69.778566 
L 177.648657 71.074014 
L 179.611334 71.108481 
L 181.574011 70.91442 
L 184.190914 70.401245 
L 187.952711 69.654297 
L 189.915388 69.500708 
L 191.714509 69.573842 
L 193.840743 69.900595 
L 200.219443 71.096197 
L 202.018564 71.095311 
L 203.981241 70.858157 
L 207.088813 70.195981 
L 209.705716 69.733668 
L 211.504836 69.637586 
L 213.303957 69.766482 
L 215.430191 70.154971 
L 219.846214 71.035693 
L 221.645335 71.121079 
L 223.444455 70.973901 
L 225.734245 70.531375 
L 229.496043 69.766482 
L 231.295164 69.637586 
L 233.094284 69.733668 
L 235.220518 70.09014 
L 240.290767 71.057375 
L 242.089888 71.11779 
L 243.889008 70.963196 
L 246.178798 70.527545 
L 250.594822 69.628663 
L 252.557499 69.498465 
L 254.356619 69.594645 
L 256.482853 69.934288 
L 262.534441 71.067772 
L 264.497118 71.111653 
L 266.459795 70.92593 
L 268.913141 70.449998 
L 273.656277 69.464056 
L 275.782511 69.291759 
L 277.745188 69.358567 
L 280.034978 69.68145 
L 288.049243 71.099622 
L 290.175476 71.086382 
L 292.30171 70.845561 
L 295.082169 70.282261 
L 300.315975 69.162062 
L 302.605765 68.925096 
L 304.731998 68.920274 
L 307.021788 69.139334 
L 309.965804 69.671451 
L 316.344504 70.905687 
L 318.797851 71.108007 
L 321.08764 71.082538 
L 323.540987 70.829528 
L 326.321446 70.3134 
L 331.064582 69.154452 
L 335.317049 68.199013 
L 338.424621 67.726955 
L 341.368637 67.508634 
L 344.312653 67.510578 
L 347.747338 67.745919 
L 352.163361 68.291519 
L 365.738544 70.120211 
L 371.463019 70.583737 
L 378.005276 70.88562 
L 387.000879 71.058575 
L 388.8 71.074502 
L 388.8 71.074502 
" style="fill:none;stroke:#000000;stroke-linecap:square;stroke-width:1.5;"/>
   </g>
   <g id="line2d_19">
    <path clip-path="url(#pa836723851)" d="M 54 58.53495 
L 61.523596 58.223148 
L 67.575183 57.752713 
L 73.463214 57.069209 
L 87.529067 55.300056 
L 90.800195 55.207023 
L 93.744211 55.337319 
L 96.688227 55.686792 
L 99.959355 56.305018 
L 110.754079 58.574066 
L 113.207426 58.726262 
L 115.660772 58.645926 
L 118.277675 58.322394 
L 121.875916 57.619907 
L 126.128383 56.823409 
L 128.581729 56.594043 
L 130.871519 56.613347 
L 133.161309 56.863572 
L 135.941768 57.404166 
L 141.502687 58.539054 
L 143.62892 58.718782 
L 145.755154 58.672399 
L 148.044944 58.383995 
L 151.479629 57.682526 
L 154.587201 57.120485 
L 156.713434 56.956246 
L 158.676111 57.021124 
L 160.802345 57.312856 
L 164.23703 58.053498 
L 167.017489 58.568166 
L 168.980166 58.724478 
L 170.942843 58.656774 
L 173.069077 58.353935 
L 179.938447 57.171674 
L 181.901124 57.205778 
L 183.863801 57.464266 
L 187.298486 58.199912 
L 189.751832 58.622183 
L 191.714509 58.728463 
L 193.51363 58.607354 
L 195.80342 58.210522 
L 200.219443 57.377925 
L 202.018564 57.291513 
L 203.817684 57.422794 
L 206.107474 57.839262 
L 210.196385 58.632432 
L 211.995506 58.72848 
L 213.794626 58.598976 
L 216.084416 58.182577 
L 219.846214 57.475194 
L 221.645335 57.390239 
L 223.444455 57.536354 
L 225.734245 57.967088 
L 229.16893 58.619456 
L 230.968051 58.729132 
L 232.767171 58.613025 
L 234.893405 58.239564 
L 239.309428 57.383552 
L 241.108549 57.291003 
L 242.90767 57.415786 
L 245.19746 57.819612 
L 249.449927 58.626522 
L 251.412604 58.728053 
L 253.211724 58.602646 
L 255.501514 58.199912 
L 260.408207 57.251227 
L 262.370884 57.157557 
L 264.333561 57.299915 
L 266.786908 57.733793 
L 271.366488 58.605695 
L 273.329165 58.728886 
L 275.291842 58.626941 
L 277.581632 58.262351 
L 284.287445 57.007678 
L 286.250122 56.960473 
L 288.376356 57.142175 
L 290.993258 57.612969 
L 296.063508 58.575856 
L 298.189741 58.726065 
L 300.315975 58.648623 
L 302.605765 58.331838 
L 306.040449 57.590134 
L 309.802247 56.838779 
L 312.092037 56.604062 
L 314.381827 56.601697 
L 316.671617 56.823409 
L 319.615633 57.345737 
L 325.830777 58.5116 
L 328.284123 58.712393 
L 330.737469 58.683498 
L 333.190816 58.429293 
L 336.134831 57.88692 
L 341.859306 56.526099 
L 345.621104 55.765474 
L 348.728676 55.365364 
L 351.672692 55.210886 
L 354.780264 55.271968 
L 358.378505 55.571111 
L 363.612311 56.257476 
L 373.425696 57.566944 
L 379.313727 58.095576 
L 385.692428 58.435544 
L 388.8 58.53495 
L 388.8 58.53495 
" style="fill:none;stroke:#000000;stroke-linecap:square;stroke-width:1.5;"/>
   </g>
   <g id="line2d_20">
    <path clip-path="url(#pa836723851)" d="M 54 45.961205 
L 60.051588 45.436054 
L 66.430288 44.646124 
L 76.40723 43.374151 
L 80.005471 43.164693 
L 83.113043 43.198673 
L 86.057059 43.446186 
L 89.164631 43.929903 
L 93.089985 44.780418 
L 99.141573 46.103742 
L 101.922032 46.467018 
L 104.375379 46.566581 
L 106.828725 46.440411 
L 109.609184 46.057216 
L 119.095457 44.502698 
L 121.385247 44.509057 
L 123.675037 44.740338 
L 126.455496 45.255992 
L 132.179971 46.387909 
L 134.469761 46.562359 
L 136.595994 46.496092 
L 138.885784 46.198046 
L 143.138251 45.346738 
L 145.755154 44.947275 
L 147.881387 44.844947 
L 150.007621 44.981465 
L 152.460967 45.389461 
L 158.185442 46.472077 
L 160.148119 46.566462 
L 162.110796 46.442677 
L 164.564143 46.03869 
L 169.470835 45.139423 
L 171.433512 45.04283 
L 173.39619 45.175972 
L 175.685979 45.568926 
L 180.592672 46.484851 
L 182.555349 46.563089 
L 184.518026 46.40198 
L 186.971373 45.953493 
L 190.569614 45.288945 
L 192.532291 45.172322 
L 194.331412 45.285587 
L 196.621202 45.67837 
L 200.873669 46.477647 
L 202.672789 46.565895 
L 204.47191 46.435642 
L 206.7617 46.02862 
L 210.359941 45.364933 
L 212.159062 45.26743 
L 213.958183 45.39558 
L 216.247973 45.810552 
L 219.846214 46.479628 
L 221.645335 46.564766 
L 223.444455 46.418322 
L 225.897802 45.952798 
L 229.005374 45.375171 
L 230.804494 45.266954 
L 232.603615 45.384325 
L 234.893405 45.785191 
L 238.655203 46.474558 
L 240.454323 46.566221 
L 242.253444 46.439241 
L 244.543234 46.032057 
L 248.632145 45.266949 
L 250.431265 45.172526 
L 252.230386 45.288945 
L 254.520176 45.676942 
L 258.936199 46.480504 
L 260.898876 46.563997 
L 262.861553 46.407743 
L 265.3149 45.958548 
L 269.40381 45.175972 
L 271.366488 45.04283 
L 273.329165 45.139423 
L 275.618955 45.495571 
L 281.179873 46.493208 
L 283.14255 46.56334 
L 285.105227 46.416081 
L 287.558574 45.990047 
L 292.955936 44.962823 
L 295.082169 44.844369 
L 297.208403 44.964488 
L 299.661749 45.346738 
L 306.040449 46.481976 
L 308.166683 46.56521 
L 310.292916 46.427374 
L 312.746263 46.036715 
L 320.760528 44.55316 
L 323.050318 44.481036 
L 325.340107 44.633829 
L 328.120567 45.060199 
L 336.134831 46.455588 
L 338.588178 46.56699 
L 341.041524 46.452551 
L 343.658427 46.103742 
L 347.093112 45.397525 
L 354.780264 43.727288 
L 357.887836 43.324453 
L 360.831851 43.159998 
L 363.939424 43.205602 
L 367.537665 43.484228 
L 372.77147 44.142473 
L 383.075525 45.470423 
L 388.8 45.961205 
L 388.8 45.961205 
" style="fill:none;stroke:#000000;stroke-linecap:square;stroke-width:1.5;"/>
   </g>
   <g id="line2d_21">
    <path clip-path="url(#pa836723851)" d="M 54 34.56 
L 221.318222 251.893776 
L 221.481778 251.893776 
L 388.8 34.56 
L 388.8 34.56 
" style="fill:none;stroke:#000000;stroke-linecap:square;stroke-width:1.5;"/>
   </g>
   <g id="patch_3">
    <path d="M 54 252 
L 54 34.56 
" style="fill:none;stroke:#000000;stroke-linecap:square;stroke-linejoin:miter;stroke-width:0.8;"/>
   </g>
   <g id="patch_4">
    <path d="M 388.8 252 
L 388.8 34.56 
" style="fill:none;stroke:#000000;stroke-linecap:square;stroke-linejoin:miter;stroke-width:0.8;"/>
   </g>
   <g id="patch_5">
    <path d="M 54 252 
L 388.8 252 
" style="fill:none;stroke:#000000;stroke-linecap:square;stroke-linejoin:miter;stroke-width:0.8;"/>
   </g>
   <g id="patch_6">
    <path d="M 54 34.56 
L 388.8 34.56 
" style="fill:none;stroke:#000000;stroke-linecap:square;stroke-linejoin:miter;stroke-width:0.8;"/>
   </g>
   <g id="text_11">
    <!-- Probability densities of the linear potential well -->
    <g transform="translate(50.4844 28.56)scale(0.168 -0.168)">
     <defs>
      <path d="M 1267 2042 
L 2291 2042 
C 3117 2042 3718 2578 3718 3184 
C 3718 3791 3130 4352 2291 4352 
L 333 4352 
L 333 4186 
C 774 4186 845 4186 845 3899 
L 845 446 
C 845 160 774 160 333 160 
L 333 0 
C 518 0 858 0 1056 0 
C 1254 0 1594 0 1779 0 
L 1779 160 
C 1338 160 1267 160 1267 446 
L 1267 2042 
z
M 1254 2176 
L 1254 3938 
C 1254 4155 1267 4186 1523 4186 
L 2170 4186 
C 2995 4186 3232 3714 3232 3184 
C 3232 2604 2950 2176 2170 2176 
L 1254 2176 
z
" id="CMR17-50" transform="scale(0.015625)"/>
      <path d="M 2758 1356 
C 2758 2176 2163 2816 1466 2816 
C 768 2816 173 2176 173 1356 
C 173 551 768 -64 1466 -64 
C 2163 -64 2758 551 2758 1356 
z
M 1466 51 
C 1165 51 909 230 762 480 
C 602 767 582 1126 582 1408 
C 582 1677 595 2010 762 2298 
C 890 2509 1139 2714 1466 2714 
C 1754 2714 1997 2554 2150 2330 
C 2349 2029 2349 1607 2349 1408 
C 2349 1158 2336 775 2163 467 
C 1984 173 1709 51 1466 51 
z
" id="CMR17-6f" transform="scale(0.015625)"/>
      <path d="M 960 4396 
L 198 4326 
L 198 4160 
C 576 4160 634 4122 634 3817 
L 634 -13 
L 749 -13 
L 934 441 
C 1120 141 1395 -64 1766 -64 
C 2406 -64 3053 500 3053 1370 
C 3053 2188 2477 2790 1830 2790 
C 1434 2790 1152 2579 960 2330 
L 960 4396 
z
M 973 2004 
C 973 2118 973 2138 1062 2272 
C 1312 2657 1670 2688 1792 2688 
C 1984 2688 2643 2585 2643 1376 
C 2643 108 1888 38 1734 38 
C 1536 38 1248 114 1043 486 
C 973 608 973 621 973 735 
L 973 2004 
z
" id="CMR17-62" transform="scale(0.015625)"/>
      <path d="M 2304 1653 
C 2304 2072 2304 2294 2035 2543 
C 1798 2752 1523 2816 1306 2816 
C 800 2816 435 2407 435 1971 
C 435 1728 627 1728 666 1728 
C 749 1728 896 1778 896 1954 
C 896 2112 774 2181 666 2181 
C 640 2181 608 2174 589 2168 
C 723 2592 1069 2714 1293 2714 
C 1613 2714 1965 2429 1965 1885 
L 1965 1600 
C 1587 1600 1133 1549 774 1357 
C 371 1133 256 813 256 570 
C 256 77 832 -64 1171 -64 
C 1523 -64 1850 139 1990 511 
C 2003 233 2182 -18 2464 -18 
C 2598 -18 2938 70 2938 567 
L 2938 920 
L 2822 920 
L 2822 562 
C 2822 178 2650 128 2566 128 
C 2304 128 2304 458 2304 738 
L 2304 1653 
z
M 1965 870 
C 1965 317 1568 38 1216 38 
C 896 38 646 275 646 570 
C 646 761 730 1100 1101 1305 
C 1408 1478 1760 1504 1965 1504 
L 1965 870 
z
" id="CMR17-61" transform="scale(0.015625)"/>
      <path d="M 992 3909 
C 992 4049 877 4170 730 4170 
C 589 4170 467 4056 467 3909 
C 467 3769 582 3648 730 3648 
C 870 3648 992 3763 992 3909 
z
M 243 2706 
L 243 2541 
C 602 2541 653 2502 653 2197 
L 653 427 
C 653 184 627 153 218 153 
L 218 -13 
C 371 0 646 0 806 0 
C 960 0 1222 0 1370 -13 
L 1370 153 
C 992 153 979 191 979 420 
L 979 2776 
L 243 2706 
z
" id="CMR17-69" transform="scale(0.015625)"/>
      <path d="M 979 4396 
L 218 4326 
L 218 4160 
C 595 4160 653 4122 653 3817 
L 653 426 
C 653 184 627 153 218 153 
L 218 -13 
C 371 0 653 0 813 0 
C 979 0 1261 0 1414 -13 
L 1414 153 
C 1005 153 979 178 979 426 
L 979 4396 
z
" id="CMR17-6c" transform="scale(0.015625)"/>
      <path d="M 966 2560 
L 1862 2560 
L 1862 2725 
L 966 2725 
L 966 3904 
L 851 3904 
C 838 3245 614 2668 70 2668 
L 70 2560 
L 627 2560 
L 627 771 
C 627 650 627 -64 1370 -64 
C 1747 -64 1965 306 1965 777 
L 1965 1140 
L 1850 1140 
L 1850 783 
C 1850 344 1677 51 1408 51 
C 1222 51 966 178 966 758 
L 966 2560 
z
" id="CMR17-74" transform="scale(0.015625)"/>
      <path d="M 1869 4326 
L 1869 4160 
C 2246 4160 2304 4122 2304 3820 
L 2304 2345 
C 2278 2377 2016 2790 1498 2790 
C 845 2790 211 2208 211 1364 
C 211 525 806 -64 1434 -64 
C 1978 -64 2259 337 2291 380 
L 2291 -63 
L 3066 -63 
L 3066 128 
C 2688 128 2630 166 2630 473 
L 2630 4396 
L 1869 4326 
z
M 2291 755 
C 2291 563 2176 390 2029 262 
C 1811 70 1594 38 1472 38 
C 1286 38 621 134 621 1356 
C 621 2612 1363 2688 1530 2688 
C 1824 2688 2061 2522 2208 2291 
C 2291 2157 2291 2138 2291 2023 
L 2291 755 
z
" id="CMR17-64" transform="scale(0.015625)"/>
      <path d="M 1978 2697 
C 1978 2813 1971 2819 1933 2819 
C 1907 2819 1901 2813 1824 2717 
C 1805 2691 1747 2626 1728 2601 
C 1523 2819 1235 2819 1126 2819 
C 416 2819 160 2447 160 2076 
C 160 1498 813 1365 998 1325 
C 1402 1243 1542 1217 1677 1101 
C 1760 1025 1901 884 1901 654 
C 1901 384 1747 38 1158 38 
C 602 38 403 460 288 1021 
C 269 1110 269 1117 218 1117 
C 166 1117 160 1110 160 983 
L 160 63 
C 160 -51 166 -58 205 -58 
C 237 -58 243 -51 275 0 
C 314 57 410 211 448 276 
C 576 103 800 -64 1158 -64 
C 1792 -64 2131 283 2131 784 
C 2131 1112 1958 1285 1875 1362 
C 1683 1561 1459 1606 1190 1657 
C 838 1735 390 1825 390 2217 
C 390 2383 480 2737 1126 2737 
C 1811 2737 1850 2094 1862 1888 
C 1869 1856 1901 1849 1920 1849 
C 1978 1849 1978 1869 1978 1978 
L 1978 2697 
z
" id="CMR17-73" transform="scale(0.015625)"/>
      <path d="M 979 2560 
L 1709 2560 
L 1709 2725 
L 966 2725 
L 966 3494 
C 966 4022 1235 4352 1510 4352 
C 1594 4352 1690 4327 1754 4282 
C 1702 4269 1568 4225 1568 4067 
C 1568 3901 1696 3850 1786 3850 
C 1875 3850 2003 3901 2003 4067 
C 2003 4308 1773 4454 1517 4454 
C 1152 4454 653 4156 653 3481 
L 653 2725 
L 141 2725 
L 141 2560 
L 653 2560 
L 653 427 
C 653 184 627 153 218 153 
L 218 -13 
C 371 0 666 0 832 0 
C 1018 0 1344 0 1517 -13 
L 1517 153 
C 1056 153 979 153 979 439 
L 979 2560 
z
" id="CMR17-66" transform="scale(0.015625)"/>
      <path d="M 2656 1933 
C 2656 2259 2592 2790 1837 2790 
C 1312 2790 1056 2368 979 2157 
L 973 2157 
L 973 4396 
L 211 4326 
L 211 4160 
C 589 4160 646 4122 646 3817 
L 646 426 
C 646 184 621 153 211 153 
L 211 -13 
C 365 0 646 0 813 0 
C 979 0 1267 0 1421 -13 
L 1421 153 
C 1011 153 986 178 986 428 
L 986 1658 
C 986 2247 1344 2688 1792 2688 
C 2266 2688 2317 2266 2317 1958 
L 2317 428 
C 2317 184 2291 153 1882 153 
L 1882 -13 
C 2035 0 2317 0 2483 0 
C 2650 0 2938 0 3091 -13 
L 3091 153 
C 2682 153 2656 178 2656 428 
L 2656 1933 
z
" id="CMR17-68" transform="scale(0.015625)"/>
      <path d="M 1408 -1063 
C 998 -1063 973 -1037 973 -789 
L 973 402 
C 1158 134 1427 -38 1766 -38 
C 2406 -38 3053 523 3053 1388 
C 3053 2191 2496 2802 1837 2802 
C 1453 2802 1139 2592 960 2338 
L 960 2802 
L 198 2732 
L 198 2567 
C 576 2567 634 2528 634 2223 
L 634 -789 
C 634 -1031 608 -1063 198 -1063 
L 198 -1228 
C 352 -1216 634 -1216 800 -1216 
C 966 -1216 1254 -1216 1408 -1228 
L 1408 -1063 
z
M 973 2012 
C 973 2102 973 2235 1222 2471 
C 1254 2497 1472 2688 1792 2688 
C 2259 2688 2643 2108 2643 1382 
C 2643 656 2234 64 1728 64 
C 1498 64 1248 172 1056 472 
C 973 612 973 650 973 752 
L 973 2012 
z
" id="CMR17-70" transform="scale(0.015625)"/>
      <path d="M 3725 2183 
C 3853 2560 4109 2560 4205 2560 
L 4205 2732 
C 4077 2732 3949 2732 3821 2732 
C 3699 2732 3424 2732 3315 2738 
L 3315 2560 
C 3514 2560 3622 2445 3622 2286 
C 3622 2241 3610 2184 3597 2140 
L 2995 407 
L 2342 2275 
C 2330 2319 2310 2370 2310 2395 
C 2310 2560 2528 2560 2630 2560 
L 2630 2738 
C 2483 2732 2214 2732 2061 2732 
C 1901 2732 1734 2732 1587 2738 
L 1587 2560 
C 1939 2560 1939 2547 2074 2149 
L 1485 451 
L 851 2281 
C 819 2363 819 2376 819 2395 
C 819 2560 1037 2560 1139 2560 
L 1139 2738 
C 986 2732 717 2732 557 2732 
C 416 2732 198 2732 64 2738 
L 64 2560 
C 346 2560 416 2541 486 2331 
L 1274 49 
C 1299 -33 1318 -52 1370 -52 
C 1414 -52 1440 -39 1472 56 
L 2131 1980 
L 2797 56 
C 2829 -39 2854 -52 2899 -52 
C 2950 -52 2970 -33 2995 50 
L 3725 2183 
z
" id="CMR17-77" transform="scale(0.015625)"/>
     </defs>
     <use transform="scale(0.996264)" xlink:href="#CMR17-50"/>
     <use transform="translate(62.586301 0)scale(0.996264)" xlink:href="#CMR17-72"/>
     <use transform="translate(97.867068 0)scale(0.996264)" xlink:href="#CMR17-6f"/>
     <use transform="translate(143.557545 0)scale(0.996264)" xlink:href="#CMR17-62"/>
     <use transform="translate(194.452915 0)scale(0.996264)" xlink:href="#CMR17-61"/>
     <use transform="translate(240.143392 0)scale(0.996264)" xlink:href="#CMR17-62"/>
     <use transform="translate(291.038762 0)scale(0.996264)" xlink:href="#CMR17-69"/>
     <use transform="translate(315.909821 0)scale(0.996264)" xlink:href="#CMR17-6c"/>
     <use transform="translate(340.780879 0)scale(0.996264)" xlink:href="#CMR17-69"/>
     <use transform="translate(365.651938 0)scale(0.996264)" xlink:href="#CMR17-74"/>
     <use transform="translate(398.330251 0)scale(0.996264)" xlink:href="#CMR17-79"/>
     <use transform="translate(476.699134 0)scale(0.996264)" xlink:href="#CMR17-64"/>
     <use transform="translate(527.594503 0)scale(0.996264)" xlink:href="#CMR17-65"/>
     <use transform="translate(568.080164 0)scale(0.996264)" xlink:href="#CMR17-6e"/>
     <use transform="translate(618.975534 0)scale(0.996264)" xlink:href="#CMR17-73"/>
     <use transform="translate(654.776871 0)scale(0.996264)" xlink:href="#CMR17-69"/>
     <use transform="translate(679.64793 0)scale(0.996264)" xlink:href="#CMR17-74"/>
     <use transform="translate(714.928698 0)scale(0.996264)" xlink:href="#CMR17-69"/>
     <use transform="translate(739.799756 0)scale(0.996264)" xlink:href="#CMR17-65"/>
     <use transform="translate(780.285417 0)scale(0.996264)" xlink:href="#CMR17-73"/>
     <use transform="translate(846.16272 0)scale(0.996264)" xlink:href="#CMR17-6f"/>
     <use transform="translate(891.853198 0)scale(0.996264)" xlink:href="#CMR17-66"/>
     <use transform="translate(949.402676 0)scale(0.996264)" xlink:href="#CMR17-74"/>
     <use transform="translate(984.683444 0)scale(0.996264)" xlink:href="#CMR17-68"/>
     <use transform="translate(1035.578814 0)scale(0.996264)" xlink:href="#CMR17-65"/>
     <use transform="translate(1106.140441 0)scale(0.996264)" xlink:href="#CMR17-6c"/>
     <use transform="translate(1131.011499 0)scale(0.996264)" xlink:href="#CMR17-69"/>
     <use transform="translate(1155.882558 0)scale(0.996264)" xlink:href="#CMR17-6e"/>
     <use transform="translate(1206.777927 0)scale(0.996264)" xlink:href="#CMR17-65"/>
     <use transform="translate(1247.263588 0)scale(0.996264)" xlink:href="#CMR17-61"/>
     <use transform="translate(1292.954065 0)scale(0.996264)" xlink:href="#CMR17-72"/>
     <use transform="translate(1358.310799 0)scale(0.996264)" xlink:href="#CMR17-70"/>
     <use transform="translate(1411.808608 0)scale(0.996264)" xlink:href="#CMR17-6f"/>
     <use transform="translate(1457.499085 0)scale(0.996264)" xlink:href="#CMR17-74"/>
     <use transform="translate(1492.779853 0)scale(0.996264)" xlink:href="#CMR17-65"/>
     <use transform="translate(1533.265513 0)scale(0.996264)" xlink:href="#CMR17-6e"/>
     <use transform="translate(1581.558429 0)scale(0.996264)" xlink:href="#CMR17-74"/>
     <use transform="translate(1616.839197 0)scale(0.996264)" xlink:href="#CMR17-69"/>
     <use transform="translate(1641.710255 0)scale(0.996264)" xlink:href="#CMR17-61"/>
     <use transform="translate(1687.400732 0)scale(0.996264)" xlink:href="#CMR17-6c"/>
     <use transform="translate(1742.347757 0)scale(0.996264)" xlink:href="#CMR17-77"/>
     <use transform="translate(1806.255184 0)scale(0.996264)" xlink:href="#CMR17-65"/>
     <use transform="translate(1846.740844 0)scale(0.996264)" xlink:href="#CMR17-6c"/>
     <use transform="translate(1871.611903 0)scale(0.996264)" xlink:href="#CMR17-6c"/>
    </g>
   </g>
  </g>
 </g>
 <defs>
  <clipPath id="pa836723851">
   <rect height="217.44" width="334.8" x="54" y="34.56"/>
  </clipPath>
 </defs>
</svg>
