<?xml version="1.0" encoding="utf-8" standalone="no"?>
<!DOCTYPE svg PUBLIC "-//W3C//DTD SVG 1.1//EN"
  "http://www.w3.org/Graphics/SVG/1.1/DTD/svg11.dtd">
<!-- Created with matplotlib (https://matplotlib.org/) -->
<svg height="288pt" version="1.1" viewBox="0 0 432 288" width="432pt" xmlns="http://www.w3.org/2000/svg" xmlns:xlink="http://www.w3.org/1999/xlink">
 <defs>
  <style type="text/css">
*{stroke-linecap:butt;stroke-linejoin:round;}
  </style>
 </defs>
 <g id="figure_1">
  <g id="patch_1">
   <path d="M 0 288 
L 432 288 
L 432 0 
L 0 0 
z
" style="fill:#ffffff;"/>
  </g>
  <g id="axes_1">
   <g id="patch_2">
    <path d="M 54 252 
L 388.8 252 
L 388.8 34.56 
L 54 34.56 
z
" style="fill:#ffffff;"/>
   </g>
   <g id="matplotlib.axis_1">
    <g id="xtick_1">
     <g id="line2d_1">
      <defs>
       <path d="M 0 0 
L 0 3.5 
" id="me2d90c4ad6" style="stroke:#000000;stroke-width:0.8;"/>
      </defs>
      <g>
       <use style="stroke:#000000;stroke-width:0.8;" x="54" xlink:href="#me2d90c4ad6" y="252"/>
      </g>
     </g>
     <g id="text_1">
      <!-- $-6$ -->
      <defs>
       <path d="M 65.90625 23 
C 67.59375 23 69.40625 23 69.40625 25 
C 69.40625 27 67.59375 27 65.90625 27 
L 11.796875 27 
C 10.09375 27 8.296875 27 8.296875 25 
C 8.296875 23 10.09375 23 11.796875 23 
z
" id="CMSY10-0"/>
       <path d="M 10.59375 34.34375 
C 10.59375 58 21.796875 63.6875 28.296875 63.6875 
C 30.40625 63.6875 35.5 63.265625 37.5 59.09375 
C 35.90625 59.09375 32.90625 59.09375 32.90625 55.59375 
C 32.90625 52.890625 35.09375 52 36.5 52 
C 37.40625 52 40.09375 52.390625 40.09375 55.796875 
C 40.09375 62.296875 35.09375 66 28.203125 66 
C 16.296875 66 3.796875 53.296875 3.796875 31.421875 
C 3.796875 4.015625 15.09375 -2 23.09375 -2 
C 32.796875 -2 42 6.734375 42 20.234375 
C 42 32.828125 33.90625 42 23.703125 42 
C 17.59375 42 13.09375 37.96875 10.59375 30.921875 
z
M 23.09375 0.390625 
C 10.796875 0.390625 10.796875 18.9375 10.796875 22.65625 
C 10.796875 29.90625 14.203125 40.390625 23.5 40.390625 
C 25.203125 40.390625 30.09375 40.390625 33.40625 33.4375 
C 35.203125 29.515625 35.203125 25.375 35.203125 20.34375 
C 35.203125 14.90625 35.203125 10.875 33.09375 6.84375 
C 30.90625 2.703125 27.703125 0.390625 23.09375 0.390625 
z
" id="CMR17-54"/>
      </defs>
      <g transform="translate(45.161638 268.685876)scale(0.14 -0.14)">
       <use transform="scale(0.996264)" xlink:href="#CMSY10-0"/>
       <use transform="translate(77.487468 0)scale(0.996264)" xlink:href="#CMR17-54"/>
      </g>
     </g>
    </g>
    <g id="xtick_2">
     <g id="line2d_2">
      <g>
       <use style="stroke:#000000;stroke-width:0.8;" x="109.8" xlink:href="#me2d90c4ad6" y="252"/>
      </g>
     </g>
     <g id="text_2">
      <!-- $-4$ -->
      <defs>
       <path d="M 33.59375 64.796875 
C 33.59375 66.890625 33.5 67 31.703125 67 
L 2 19.59375 
L 2 17 
L 27.796875 17 
L 27.796875 7.1875 
C 27.796875 3.59375 27.59375 2.59375 20.59375 2.59375 
L 18.703125 2.59375 
L 18.703125 0 
C 21.90625 0.1875 27.296875 0.1875 30.703125 0.1875 
C 34.09375 0.1875 39.5 0.1875 42.703125 0 
L 42.703125 2.59375 
L 40.796875 2.59375 
C 33.796875 2.59375 33.59375 3.59375 33.59375 7.1875 
L 33.59375 17 
L 43.796875 17 
L 43.796875 19.59375 
L 33.59375 19.59375 
z
M 28.09375 58.171875 
L 28.09375 19.59375 
L 4 19.59375 
z
" id="CMR17-52"/>
      </defs>
      <g transform="translate(100.961638 268.685876)scale(0.14 -0.14)">
       <use transform="scale(0.996264)" xlink:href="#CMSY10-0"/>
       <use transform="translate(77.487468 0)scale(0.996264)" xlink:href="#CMR17-52"/>
      </g>
     </g>
    </g>
    <g id="xtick_3">
     <g id="line2d_3">
      <g>
       <use style="stroke:#000000;stroke-width:0.8;" x="165.6" xlink:href="#me2d90c4ad6" y="252"/>
      </g>
     </g>
     <g id="text_3">
      <!-- $-2$ -->
      <defs>
       <path d="M 41.703125 15.46875 
L 39.90625 15.46875 
C 38.90625 8.390625 38.09375 7.1875 37.703125 6.59375 
C 37.203125 5.796875 30 5.796875 28.59375 5.796875 
L 9.40625 5.796875 
C 13 9.6875 20 16.765625 28.5 24.9375 
C 34.59375 30.71875 41.703125 37.5 41.703125 47.390625 
C 41.703125 59.1875 32.296875 66 21.796875 66 
C 10.796875 66 4.09375 56.296875 4.09375 47.296875 
C 4.09375 43.390625 7 42.890625 8.203125 42.890625 
C 9.203125 42.890625 12.203125 43.484375 12.203125 46.984375 
C 12.203125 50.09375 9.59375 51 8.203125 51 
C 7.59375 51 7 50.890625 6.59375 50.6875 
C 8.5 59.1875 14.296875 63.390625 20.40625 63.390625 
C 29.09375 63.390625 34.796875 56.5 34.796875 47.390625 
C 34.796875 38.703125 29.703125 31.21875 24 24.734375 
L 4.09375 2.296875 
L 4.09375 0 
L 39.296875 0 
z
" id="CMR17-50"/>
      </defs>
      <g transform="translate(156.761638 268.685876)scale(0.14 -0.14)">
       <use transform="scale(0.996264)" xlink:href="#CMSY10-0"/>
       <use transform="translate(77.487468 0)scale(0.996264)" xlink:href="#CMR17-50"/>
      </g>
     </g>
    </g>
    <g id="xtick_4">
     <g id="line2d_4">
      <g>
       <use style="stroke:#000000;stroke-width:0.8;" x="221.4" xlink:href="#me2d90c4ad6" y="252"/>
      </g>
     </g>
     <g id="text_4">
      <!-- $0$ -->
      <defs>
       <path d="M 42 31.84375 
C 42 37.96875 41.90625 48.421875 37.703125 56.453125 
C 34 63.484375 28.09375 66 22.90625 66 
C 18.09375 66 12 63.78125 8.203125 56.5625 
C 4.203125 49.015625 3.796875 39.671875 3.796875 31.84375 
C 3.796875 26.109375 3.90625 17.375 7 9.734375 
C 11.296875 -0.609375 19 -2 22.90625 -2 
C 27.5 -2 34.5 -0.109375 38.59375 9.4375 
C 41.59375 16.375 42 24.5 42 31.84375 
z
M 22.90625 -0.40625 
C 16.5 -0.40625 12.703125 5.125 11.296875 12.75 
C 10.203125 18.6875 10.203125 27.328125 10.203125 32.953125 
C 10.203125 40.6875 10.203125 47.109375 11.5 53.234375 
C 13.40625 61.78125 19 64.390625 22.90625 64.390625 
C 27 64.390625 32.296875 61.671875 34.203125 53.4375 
C 35.5 47.71875 35.59375 40.984375 35.59375 32.953125 
C 35.59375 26.421875 35.59375 18.375 34.40625 12.453125 
C 32.296875 1.5 26.40625 -0.40625 22.90625 -0.40625 
z
" id="CMR17-48"/>
      </defs>
      <g transform="translate(217.985756 268.685876)scale(0.14 -0.14)">
       <use transform="scale(0.996264)" xlink:href="#CMR17-48"/>
      </g>
     </g>
    </g>
    <g id="xtick_5">
     <g id="line2d_5">
      <g>
       <use style="stroke:#000000;stroke-width:0.8;" x="277.2" xlink:href="#me2d90c4ad6" y="252"/>
      </g>
     </g>
     <g id="text_5">
      <!-- $2$ -->
      <g transform="translate(273.785756 268.685876)scale(0.14 -0.14)">
       <use transform="scale(0.996264)" xlink:href="#CMR17-50"/>
      </g>
     </g>
    </g>
    <g id="xtick_6">
     <g id="line2d_6">
      <g>
       <use style="stroke:#000000;stroke-width:0.8;" x="333" xlink:href="#me2d90c4ad6" y="252"/>
      </g>
     </g>
     <g id="text_6">
      <!-- $4$ -->
      <g transform="translate(329.585756 268.685876)scale(0.14 -0.14)">
       <use transform="scale(0.996264)" xlink:href="#CMR17-52"/>
      </g>
     </g>
    </g>
    <g id="xtick_7">
     <g id="line2d_7">
      <g>
       <use style="stroke:#000000;stroke-width:0.8;" x="388.8" xlink:href="#me2d90c4ad6" y="252"/>
      </g>
     </g>
     <g id="text_7">
      <!-- $6$ -->
      <g transform="translate(385.385756 268.685876)scale(0.14 -0.14)">
       <use transform="scale(0.996264)" xlink:href="#CMR17-54"/>
      </g>
     </g>
    </g>
    <g id="text_8">
     <!-- $\xi$ -->
     <defs>
      <path d="M 26.09375 0 
L 15.59375 4.234375 
C 13 5.234375 7 7.65625 7 13.6875 
C 7 22.34375 17.5 31.09375 19.59375 31.09375 
C 19.796875 31.09375 20.703125 30.890625 21 30.796875 
C 23.703125 29.984375 26.296875 29.984375 28.09375 29.984375 
C 31.203125 29.984375 37.09375 29.984375 37.09375 32.640625 
C 37.09375 34.6875 33.5 35 29.203125 35 
C 27.203125 35 24.5 35 20.90625 33.796875 
C 18.5 35.796875 17.5 39.015625 17.5 42.03125 
C 17.5 47.546875 21.09375 55.390625 29 59.0625 
C 30.796875 57 33.203125 57 35.296875 57 
C 37.796875 57 43.90625 57 43.90625 59.640625 
C 43.90625 62 39.09375 62 35.90625 62 
C 33.90625 62 32.40625 62 29.59375 61.5 
C 29.09375 62.75 29 62.953125 29 65.3125 
C 29 67.234375 29.40625 68.6875 29.40625 68.984375 
C 29.40625 69.59375 28.90625 70 28.40625 70 
C 26.796875 70 26.796875 66.171875 26.796875 65.3125 
C 26.796875 63.8125 26.90625 62.3125 27.5 61 
C 15.5 57.890625 10.203125 49.359375 10.203125 42.828125 
C 10.203125 36.796875 14.203125 33.5 16.90625 32.28125 
C 6.59375 26.765625 2.203125 16.515625 2.203125 11.078125 
C 2.203125 2.3125 10.09375 -0.796875 13.703125 -2.3125 
L 22.703125 -5.9375 
C 25.203125 -6.84375 29.296875 -8.546875 30 -8.953125 
C 31 -9.65625 31.796875 -10.859375 31.796875 -12.46875 
C 31.796875 -14.59375 30.203125 -18 26.703125 -18 
C 25.203125 -18 21.90625 -17.609375 18.296875 -14.890625 
C 17.59375 -14.28125 17.5 -14.1875 17.09375 -14.1875 
C 16.59375 -14.1875 16.09375 -14.59375 16.09375 -15.1875 
C 16.09375 -16.296875 21.296875 -20 26.703125 -20 
C 33.09375 -20 37 -13.78125 37 -9.453125 
C 37 -6.328125 35.296875 -3.8125 32.09375 -2.40625 
z
M 31.203125 59.640625 
C 32.90625 60 34.703125 60 36 60 
C 39.296875 60 39.59375 59.921875 41.59375 59.5625 
C 40.40625 59.203125 39.59375 59 35.40625 59 
C 33.5 59 32.296875 59 31.203125 59.640625 
z
M 23.296875 32.5625 
C 25.703125 33 27.90625 33 29.09375 33 
C 32.40625 33 32.59375 32.921875 34.796875 32.5625 
C 33.703125 32.203125 32.796875 32 28.5 32 
C 26.09375 32 25.09375 32 23.296875 32.5625 
z
" id="CMMI12-24"/>
     </defs>
     <g transform="translate(218.417578 285.083781)scale(0.14 -0.14)">
      <use transform="scale(0.996264)" xlink:href="#CMMI12-24"/>
     </g>
    </g>
   </g>
   <g id="matplotlib.axis_2">
    <g id="ytick_1">
     <g id="line2d_8">
      <defs>
       <path d="M 0 0 
L -3.5 0 
" id="m8bd98cf883" style="stroke:#000000;stroke-width:0.8;"/>
      </defs>
      <g>
       <use style="stroke:#000000;stroke-width:0.8;" x="54" xlink:href="#m8bd98cf883" y="252"/>
      </g>
     </g>
     <g id="text_9">
      <!-- $0$ -->
      <g transform="translate(40.171511 256.842938)scale(0.14 -0.14)">
       <use transform="scale(0.996264)" xlink:href="#CMR17-48"/>
      </g>
     </g>
    </g>
    <g id="ytick_2">
     <g id="line2d_9">
      <g>
       <use style="stroke:#000000;stroke-width:0.8;" x="54" xlink:href="#m8bd98cf883" y="191.6"/>
      </g>
     </g>
     <g id="text_10">
      <!-- $5$ -->
      <defs>
       <path d="M 11.40625 58.59375 
C 12.40625 58.1875 16.5 56.890625 20.703125 56.890625 
C 30 56.890625 35.09375 61.890625 38 64.6875 
C 38 65.484375 38 66 37.40625 66 
C 37.296875 66 37.09375 66 36.296875 65.59375 
C 32.796875 64.09375 28.703125 63 23.703125 63 
C 20.703125 63 16.203125 63.359375 11.296875 65.484375 
C 10.203125 66 10 66 9.90625 66 
C 9.40625 66 9.296875 65.890625 9.296875 63.90625 
L 9.296875 34.859375 
C 9.296875 33.015625 9.296875 32.5 10.296875 32.5 
C 10.796875 32.5 11 32.703125 11.5 33.421875 
C 14.703125 38.046875 19.09375 40 24.09375 40 
C 27.59375 40 35.09375 37.734375 35.09375 20.203125 
C 35.09375 16.984375 35.09375 11.1875 32.09375 6.59375 
C 29.59375 2.484375 25.703125 0.390625 21.40625 0.390625 
C 14.796875 0.390625 8.09375 4.984375 6.296875 12.6875 
C 6.703125 12.59375 7.5 12.390625 7.90625 12.390625 
C 9.203125 12.390625 11.703125 13.09375 11.703125 16.1875 
C 11.703125 18.890625 9.796875 20 7.90625 20 
C 5.59375 20 4.09375 18.59375 4.09375 15.796875 
C 4.09375 7.09375 11 -2 21.59375 -2 
C 31.90625 -2 41.703125 6.890625 41.703125 19.796875 
C 41.703125 32.09375 33.90625 41.59375 24.203125 41.59375 
C 19.09375 41.59375 14.796875 39.6875 11.40625 36 
z
" id="CMR17-53"/>
      </defs>
      <g transform="translate(40.171511 196.442938)scale(0.14 -0.14)">
       <use transform="scale(0.996264)" xlink:href="#CMR17-53"/>
      </g>
     </g>
    </g>
    <g id="ytick_3">
     <g id="line2d_10">
      <g>
       <use style="stroke:#000000;stroke-width:0.8;" x="54" xlink:href="#m8bd98cf883" y="131.2"/>
      </g>
     </g>
     <g id="text_11">
      <!-- $10$ -->
      <defs>
       <path d="M 26.59375 63.796875 
C 26.59375 65.890625 26.5 66 25.09375 66 
C 21.203125 61.359375 15.296875 59.890625 9.703125 59.6875 
C 9.40625 59.6875 8.90625 59.6875 8.796875 59.5 
C 8.703125 59.296875 8.703125 59.09375 8.703125 57 
C 11.796875 57 17 57.59375 21 59.984375 
L 21 7.296875 
C 21 3.796875 20.796875 2.59375 12.203125 2.59375 
L 9.203125 2.59375 
L 9.203125 0 
C 14 0.09375 19 0.1875 23.796875 0.1875 
C 28.59375 0.1875 33.59375 0.09375 38.40625 0 
L 38.40625 2.59375 
L 35.40625 2.59375 
C 26.796875 2.59375 26.59375 3.6875 26.59375 7.296875 
z
" id="CMR17-49"/>
      </defs>
      <g transform="translate(33.343023 136.042938)scale(0.14 -0.14)">
       <use transform="scale(0.996264)" xlink:href="#CMR17-49"/>
       <use transform="translate(45.690477 0)scale(0.996264)" xlink:href="#CMR17-48"/>
      </g>
     </g>
    </g>
    <g id="ytick_4">
     <g id="line2d_11">
      <g>
       <use style="stroke:#000000;stroke-width:0.8;" x="54" xlink:href="#m8bd98cf883" y="70.8"/>
      </g>
     </g>
     <g id="text_12">
      <!-- $15$ -->
      <g transform="translate(33.343023 75.642938)scale(0.14 -0.14)">
       <use transform="scale(0.996264)" xlink:href="#CMR17-49"/>
       <use transform="translate(45.690477 0)scale(0.996264)" xlink:href="#CMR17-53"/>
      </g>
     </g>
    </g>
    <g id="text_13">
     <!-- Energy/$\hbar\omega$ -->
     <defs>
      <path d="M 60.703125 25.21875 
L 58.90625 25.21875 
C 56.703125 10.5625 55.40625 2.59375 37.796875 2.59375 
L 23.90625 2.59375 
C 19.90625 2.59375 19.703125 3.09375 19.703125 6.484375 
L 19.703125 34 
L 29.09375 34 
C 38.5 34 39.40625 30.609375 39.40625 22.328125 
L 41.203125 22.328125 
L 41.203125 48.21875 
L 39.40625 48.21875 
C 39.40625 39.96875 38.5 36.59375 29.09375 36.59375 
L 19.703125 36.59375 
L 19.703125 61.3125 
C 19.703125 64.703125 19.90625 65.1875 23.90625 65.1875 
L 37.59375 65.1875 
C 53.09375 65.1875 54.90625 59.03125 56.296875 45.828125 
L 58.09375 45.828125 
L 55.703125 67.796875 
L 5.09375 67.796875 
L 5.09375 65.1875 
C 12 65.1875 13.09375 65.1875 13.09375 60.71875 
L 13.09375 7.078125 
C 13.09375 2.59375 12 2.59375 5.09375 2.59375 
L 5.09375 0 
L 57.09375 0 
z
" id="CMR17-69"/>
      <path d="M 41.5 30.53125 
C 41.5 35.65625 40.5 44 28.703125 44 
C 20.796875 44 16.703125 37.875 15.203125 33.84375 
L 15.09375 33.84375 
L 15.09375 44 
L 3.296875 42.890625 
L 3.296875 40.28125 
C 9.203125 40.28125 10.09375 39.6875 10.09375 34.859375 
L 10.09375 6.921875 
C 10.09375 3.09375 9.703125 2.59375 3.296875 2.59375 
L 3.296875 0 
C 5.703125 0.1875 10.09375 0.1875 12.703125 0.1875 
C 15.296875 0.1875 19.796875 0.1875 22.203125 0 
L 22.203125 2.59375 
C 15.796875 2.59375 15.40625 3 15.40625 6.921875 
L 15.40625 26.21875 
C 15.40625 35.453125 21 42.390625 28 42.390625 
C 35.40625 42.390625 36.203125 35.765625 36.203125 30.9375 
L 36.203125 6.921875 
C 36.203125 3.09375 35.796875 2.59375 29.40625 2.59375 
L 29.40625 0 
C 31.796875 0.1875 36.203125 0.1875 38.796875 0.1875 
C 41.40625 0.1875 45.90625 0.1875 48.296875 0 
L 48.296875 2.59375 
C 41.90625 2.59375 41.5 3 41.5 6.921875 
z
" id="CMR17-110"/>
      <path d="M 38.09375 23.484375 
C 38.5 23.890625 38.5 24.09375 38.5 25.09375 
C 38.5 35.171875 33.09375 44 21.703125 44 
C 11.09375 44 2.703125 33.984375 2.703125 21.78125 
C 2.703125 8.65625 12.203125 -1 22.796875 -1 
C 34 -1 38.40625 9.671875 38.40625 11.796875 
C 38.40625 12.5 37.796875 12.5 37.59375 12.5 
C 36.90625 12.5 36.796875 12.296875 36.40625 11.078125 
C 34.203125 4.21875 28.703125 0.796875 23.5 0.796875 
C 19.203125 0.796875 14.90625 3.21875 12.203125 7.65625 
C 9.09375 12.796875 9.09375 18.75 9.09375 23.484375 
z
M 9.203125 25 
C 9.90625 39.234375 17.59375 42.390625 21.59375 42.390625 
C 28.40625 42.390625 33 36.0625 33.09375 25 
z
" id="CMR17-101"/>
      <path d="M 15 23.703125 
C 15 33.34375 19.09375 42.390625 26.59375 42.390625 
C 27.296875 42.390625 28 42.296875 28.703125 41.984375 
C 28.703125 41.984375 26.5 41.28125 26.5 38.671875 
C 26.5 36.265625 28.40625 35.265625 29.90625 35.265625 
C 31.09375 35.265625 33.296875 35.96875 33.296875 38.78125 
C 33.296875 41.984375 30.09375 44 26.703125 44 
C 19.09375 44 15.796875 36.5625 14.796875 33.046875 
L 14.703125 33.046875 
L 14.703125 44 
L 3.09375 42.890625 
L 3.09375 40.28125 
C 9 40.28125 9.90625 39.6875 9.90625 34.859375 
L 9.90625 6.921875 
C 9.90625 3.09375 9.5 2.59375 3.09375 2.59375 
L 3.09375 0 
C 5.5 0.1875 10.09375 0.1875 12.703125 0.1875 
C 15.59375 0.1875 20.703125 0.1875 23.40625 0 
L 23.40625 2.59375 
C 16.203125 2.59375 15 2.59375 15 7.109375 
z
" id="CMR17-114"/>
      <path d="M 11.09375 18.203125 
C 13 16.6875 16.296875 15 20.296875 15 
C 28.203125 15 35 21.234375 35 29.609375 
C 35 32.234375 34.203125 36.265625 31.203125 39.390625 
C 34 42.390625 38.09375 43.390625 40.40625 43.390625 
C 40.796875 43.390625 41.40625 43.390625 41.90625 43.09375 
C 41.5 42.984375 40.59375 42.59375 40.59375 40.984375 
C 40.59375 39.6875 41.5 38.796875 42.796875 38.796875 
C 44.296875 38.796875 45.09375 39.796875 45.09375 41.09375 
C 45.09375 42.984375 43.59375 45 40.40625 45 
C 36.40625 45 32.90625 43.09375 30.09375 40.484375 
C 27.09375 43.1875 23.5 44.1875 20.296875 44.1875 
C 12.40625 44.1875 5.59375 37.984375 5.59375 29.609375 
C 5.59375 23.859375 8.90625 20.21875 9.90625 19.21875 
C 6.90625 15.6875 6.90625 11.59375 6.90625 11.09375 
C 6.90625 8.5 7.90625 4.6875 11.296875 2.59375 
C 6.09375 1.28125 2 -2.875 2 -8.078125 
C 2 -15.5625 11.5 -21 22.90625 -21 
C 33.90625 -21 43.796875 -15.765625 43.796875 -7.96875 
C 43.796875 6 29 6 21.296875 6 
C 19 6 14.90625 6 14.40625 6.09375 
C 11.296875 6.59375 9.203125 9.390625 9.203125 12.890625 
C 9.203125 13.796875 9.203125 16 11.09375 18.203125 
z
M 20.296875 16.6875 
C 11.5 16.6875 11.5 27.59375 11.5 29.609375 
C 11.5 31.625 11.5 42.484375 20.296875 42.484375 
C 29.09375 42.484375 29.09375 31.625 29.09375 29.609375 
C 29.09375 27.59375 29.09375 16.6875 20.296875 16.6875 
z
M 22.90625 -19.3125 
C 12.90625 -19.3125 6 -13.796875 6 -8.078125 
C 6 -4.859375 7.703125 -1.84375 9.90625 -0.171875 
C 12.40625 1.59375 13.40625 1.59375 20.203125 1.59375 
C 28.40625 1.59375 39.796875 1.59375 39.796875 -8.078125 
C 39.796875 -13.796875 32.90625 -19.3125 22.90625 -19.3125 
z
" id="CMR17-103"/>
      <path d="M 39 34.109375 
C 41.5 40.296875 46 40.390625 47.40625 40.390625 
L 47.40625 43 
C 45.5 42.890625 43 42.796875 41.09375 42.796875 
C 39 42.796875 35.703125 42.796875 33.703125 43 
L 33.703125 40.390625 
C 37.5 40.09375 37.59375 37.25 37.59375 36.4375 
C 37.59375 35.4375 37.40625 34.921875 36.90625 33.71875 
L 26 6.390625 
L 14.09375 35.9375 
C 13.59375 37.15625 13.59375 37.859375 13.59375 37.96875 
C 13.59375 40.1875 15.90625 40.390625 18.296875 40.390625 
L 18.296875 43 
C 15.90625 42.796875 11.59375 42.796875 9.09375 42.796875 
C 6.40625 42.796875 3.203125 42.796875 1 43 
L 1 40.390625 
C 6.40625 40.390625 7 39.890625 8.296875 36.640625 
L 23.203125 -0.484375 
C 18.703125 -12.421875 16.09375 -19.40625 9.796875 -19.40625 
C 8.703125 -19.40625 6.203125 -19.109375 4.40625 -17.28125 
C 6.703125 -17.078125 7.703125 -15.65625 7.703125 -13.9375 
C 7.703125 -12.21875 6.5 -10.703125 4.5 -10.703125 
C 2.296875 -10.703125 1.203125 -12.21875 1.203125 -14.046875 
C 1.203125 -18.09375 5.296875 -21 9.796875 -21 
C 15.59375 -21 19.203125 -15.359375 21.203125 -10.296875 
z
" id="CMR17-121"/>
      <path d="M 40.703125 71.484375 
C 41.203125 72.78125 41.203125 72.984375 41.203125 73.1875 
C 41.203125 74.390625 40.296875 75 39.5 75 
C 38.296875 75 37.90625 74.1875 37.5 72.984375 
L 5.09375 -21.5 
C 4.59375 -22.8125 4.59375 -23 4.59375 -23.203125 
C 4.59375 -24.40625 5.5 -25 6.296875 -25 
C 7.5 -25 7.90625 -24.203125 8.296875 -23 
z
" id="CMR17-47"/>
      <path d="M 39.90625 55 
L 39.90625 57.296875 
L 5.90625 57.296875 
L 5.90625 55 
z
" id="CMR17-22"/>
      <path d="M 28.09375 66.484375 
C 28.203125 66.890625 28.40625 67.484375 28.40625 67.984375 
C 28.40625 69 27.40625 69 27.203125 69 
C 27.09375 69 22.203125 68.59375 21.703125 68.484375 
C 20 68.390625 18.5 68.1875 16.703125 68.09375 
C 14.203125 67.890625 13.5 67.796875 13.5 65.984375 
C 13.5 64.984375 14.296875 64.984375 15.703125 64.984375 
C 20.59375 64.984375 20.703125 64.109375 20.703125 63.125 
C 20.703125 62.53125 20.5 61.734375 20.40625 61.4375 
L 5.90625 3.890625 
C 5.5 2.390625 5.5 2.1875 5.5 1.59375 
C 5.5 -0.609375 7.203125 -1 8.203125 -1 
C 9.90625 -1 11.203125 0.296875 11.703125 1.390625 
L 16.203125 19.453125 
C 16.703125 21.640625 17.296875 23.734375 17.796875 25.9375 
C 18.90625 30.125 18.90625 30.21875 20.796875 33.109375 
C 22.703125 36.015625 27.203125 41.984375 34.90625 41.984375 
C 38.90625 41.984375 40.296875 39 40.296875 35.015625 
C 40.296875 29.421875 36.40625 18.546875 34.203125 12.5625 
C 33.296875 10.171875 32.796875 8.875 32.796875 7.078125 
C 32.796875 2.59375 35.90625 -1 40.703125 -1 
C 50 -1 53.5 13.65625 53.5 14.265625 
C 53.5 14.765625 53.09375 15.15625 52.5 15.15625 
C 51.59375 15.15625 51.5 14.859375 51 13.15625 
C 48.703125 5.1875 45 1 41 1 
C 40 1 38.40625 1.09375 38.40625 4.28125 
C 38.40625 6.875 39.59375 10.078125 40 11.171875 
C 41.796875 15.953125 46.296875 27.734375 46.296875 33.515625 
C 46.296875 39.5 42.796875 44 35.203125 44 
C 29.5 44 24.5 41.296875 20.40625 36.109375 
z
" id="CMMI12-104"/>
      <path d="M 59.40625 37.59375 
C 59.40625 40.5 58.59375 44.1875 55.09375 44.1875 
C 53.09375 44.1875 50.796875 41.6875 50.796875 39.6875 
C 50.796875 38.796875 51.203125 38.1875 52 37.296875 
C 53.5 35.59375 55.40625 32.890625 55.40625 28.1875 
C 55.40625 24.59375 53.203125 18.890625 51.59375 15.796875 
C 48.796875 10.296875 44.203125 5.59375 39 5.59375 
C 32.703125 5.59375 30.296875 9.59375 29.203125 15.1875 
C 30.296875 17.796875 32.59375 24.296875 32.59375 26.890625 
C 32.59375 28 32.203125 28.890625 30.90625 28.890625 
C 30.203125 28.890625 29.40625 28.5 28.90625 27.6875 
C 27.5 25.5 26.203125 17.59375 26.296875 15.5 
C 24.40625 11.796875 19 5.59375 12.59375 5.59375 
C 5.90625 5.59375 4.09375 11.5 4.09375 17.1875 
C 4.09375 27.59375 10.59375 36.6875 12.40625 39.1875 
C 13.40625 40.6875 14.09375 41.6875 14.09375 41.890625 
C 14.09375 42.59375 13.703125 43.6875 12.796875 43.6875 
C 11.203125 43.6875 10.703125 42.390625 9.90625 41.1875 
C 4.796875 33.296875 1.203125 22.1875 1.203125 12.59375 
C 1.203125 6.390625 3.5 -1 11 -1 
C 19.296875 -1 24.5 6.09375 26.59375 9.890625 
C 27.40625 4.296875 30.40625 -1 37.703125 -1 
C 45.296875 -1 50.09375 5.6875 53.703125 13.796875 
C 56.296875 19.59375 59.40625 32.09375 59.40625 37.59375 
z
" id="CMMI12-33"/>
     </defs>
     <g transform="translate(25.856099 175.952621)rotate(-90)scale(0.14 -0.14)">
      <use transform="scale(0.996264)" xlink:href="#CMR17-69"/>
      <use transform="translate(62.586301 0)scale(0.996264)" xlink:href="#CMR17-110"/>
      <use transform="translate(113.48167 0)scale(0.996264)" xlink:href="#CMR17-101"/>
      <use transform="translate(153.967331 0)scale(0.996264)" xlink:href="#CMR17-114"/>
      <use transform="translate(189.248099 0)scale(0.996264)" xlink:href="#CMR17-103"/>
      <use transform="translate(234.938576 0)scale(0.996264)" xlink:href="#CMR17-121"/>
      <use transform="translate(283.231492 0)scale(0.996264)" xlink:href="#CMR17-47"/>
      <use transform="translate(328.921969 0)scale(0.996264)" xlink:href="#CMR17-22"/>
      <use transform="translate(324.79923 0)scale(0.996264)" xlink:href="#CMMI12-104"/>
      <use transform="translate(380.953854 0)scale(0.996264)" xlink:href="#CMMI12-33"/>
     </g>
    </g>
   </g>
   <g id="line2d_12">
    <path clip-path="url(#pa278eb1fc4)" d="M 54 245.96 
L 164.782418 245.849074 
L 173.694066 245.593786 
L 180.152967 245.193902 
L 185.712527 244.632847 
L 191.108571 243.863203 
L 196.995165 242.789016 
L 212.692747 239.7771 
L 216.698901 239.335369 
L 220.378022 239.153728 
L 223.975385 239.202415 
L 227.654505 239.478633 
L 231.660659 240.006765 
L 236.566154 240.888197 
L 253.898901 244.205217 
L 259.294945 244.882799 
L 264.936264 245.362968 
L 271.476923 245.688116 
L 280.143297 245.87905 
L 295.432088 245.954035 
L 388.8 245.96 
L 388.8 245.96 
" style="fill:none;stroke:#000000;stroke-linecap:square;stroke-width:1.5;"/>
   </g>
   <g id="line2d_13">
    <path clip-path="url(#pa278eb1fc4)" d="M 54 233.88 
L 149.084835 233.769309 
L 157.260659 233.514961 
L 163.229011 233.11302 
L 168.461538 232.539454 
L 173.694066 231.738584 
L 181.379341 230.29673 
L 186.938901 229.357296 
L 190.536264 228.973772 
L 193.643077 228.865766 
L 196.504615 228.984914 
L 199.366154 229.323546 
L 202.472967 229.920761 
L 206.315604 230.905461 
L 214.736703 233.145621 
L 217.68 233.641944 
L 220.296264 233.858701 
L 222.830769 233.844247 
L 225.447033 233.599166 
L 228.226813 233.111317 
L 231.660659 232.269632 
L 241.962198 229.579097 
L 244.987253 229.112816 
L 247.848791 228.893049 
L 250.792088 228.893615 
L 253.980659 229.12669 
L 257.65978 229.62774 
L 263.137582 230.62577 
L 271.558681 232.140895 
L 276.791209 232.836777 
L 282.105495 233.312811 
L 288.237363 233.628249 
L 296.413187 233.808525 
L 311.456703 233.875759 
L 388.8 233.88 
L 388.8 233.88 
" style="fill:none;stroke:#000000;stroke-linecap:square;stroke-width:1.5;"/>
   </g>
   <g id="line2d_14">
    <path clip-path="url(#pa278eb1fc4)" d="M 54 221.8 
L 137.148132 221.689062 
L 144.915165 221.434588 
L 150.638242 221.028458 
L 155.707253 220.443772 
L 160.93978 219.608513 
L 173.04 217.562291 
L 176.146813 217.342769 
L 178.926593 217.363967 
L 181.624615 217.606148 
L 184.404396 218.080631 
L 187.674725 218.878894 
L 197.322198 221.412202 
L 199.774945 221.724099 
L 202.064176 221.796729 
L 204.353407 221.649375 
L 206.806154 221.268612 
L 209.912967 220.543371 
L 217.025934 218.793893 
L 219.478681 218.472448 
L 221.767912 218.395257 
L 224.057143 218.544472 
L 226.50989 218.932025 
L 229.616703 219.66541 
L 236.484396 221.361072 
L 239.018901 221.706301 
L 241.308132 221.799313 
L 243.597363 221.671993 
L 246.05011 221.308311 
L 248.911648 220.649808 
L 253.980659 219.199918 
L 257.986813 218.167893 
L 260.93011 217.639119 
L 263.628132 217.3768 
L 266.326154 217.333819 
L 269.269451 217.512767 
L 272.703297 217.952128 
L 277.854066 218.864957 
L 285.866374 220.267711 
L 290.853626 220.899483 
L 296.086154 221.332132 
L 302.29978 221.609828 
L 311.047912 221.756824 
L 330.506374 221.799319 
L 388.8 221.8 
L 388.8 221.8 
" style="fill:none;stroke:#000000;stroke-linecap:square;stroke-width:1.5;"/>
   </g>
   <g id="line2d_15">
    <path clip-path="url(#pa278eb1fc4)" d="M 54 209.72 
L 127.01011 209.609963 
L 134.531868 209.355402 
L 140.00967 208.95456 
L 144.915165 208.37397 
L 150.147692 207.521781 
L 160.122198 205.828365 
L 163.229011 205.575112 
L 165.927033 205.570517 
L 168.543297 205.787999 
L 171.241319 206.241622 
L 174.348132 207.003167 
L 183.341538 209.377646 
L 185.712527 209.666331 
L 187.92 209.708839 
L 190.127473 209.527081 
L 192.58022 209.094631 
L 196.014066 208.235008 
L 200.347253 207.184325 
L 202.718242 206.842128 
L 204.843956 206.755229 
L 206.96967 206.894075 
L 209.258901 207.273992 
L 212.283956 208.027523 
L 217.352967 209.310485 
L 219.642198 209.639588 
L 221.767912 209.716446 
L 223.811868 209.569849 
L 226.101099 209.176906 
L 229.207912 208.389901 
L 233.94989 207.190969 
L 236.320879 206.842407 
L 238.446593 206.755286 
L 240.572308 206.893204 
L 242.943297 207.282082 
L 246.131868 208.059928 
L 251.119121 209.277484 
L 253.571868 209.627256 
L 255.779341 209.718976 
L 257.986813 209.584945 
L 260.357802 209.209967 
L 263.219341 208.516232 
L 272.621538 206.036556 
L 275.31956 205.672539 
L 277.935824 205.545675 
L 280.715604 205.640784 
L 283.904176 205.986026 
L 288.237363 206.704287 
L 298.13011 208.408367 
L 303.035604 208.977738 
L 308.268132 209.355402 
L 314.808791 209.589882 
L 324.865055 209.700017 
L 357.404835 209.719995 
L 388.8 209.72 
L 388.8 209.72 
" style="fill:none;stroke:#000000;stroke-linecap:square;stroke-width:1.5;"/>
   </g>
   <g id="line2d_16">
    <path clip-path="url(#pa278eb1fc4)" d="M 54 197.64 
L 118.098462 197.529948 
L 125.374945 197.277207 
L 130.770989 196.87139 
L 135.594725 196.284356 
L 140.909011 195.400242 
L 149.33011 193.973563 
L 152.436923 193.703642 
L 155.134945 193.691263 
L 157.669451 193.901448 
L 160.285714 194.345433 
L 163.310769 195.096094 
L 171.568352 197.295864 
L 173.857582 197.584881 
L 175.983297 197.629848 
L 178.109011 197.452937 
L 180.48 197.027856 
L 183.995604 196.139554 
L 187.674725 195.273376 
L 189.963956 194.96751 
L 192.007912 194.919574 
L 194.051868 195.097957 
L 196.341099 195.532856 
L 199.856703 196.471679 
L 203.208791 197.287221 
L 205.334505 197.580756 
L 207.296703 197.631647 
L 209.258901 197.461723 
L 211.466374 197.044339 
L 215.145495 196.075327 
L 218.170549 195.380148 
L 220.296264 195.12005 
L 222.258462 195.105936 
L 224.302418 195.325127 
L 226.673407 195.821165 
L 233.868132 197.504591 
L 235.912088 197.639538 
L 237.874286 197.542461 
L 240 197.206378 
L 242.77978 196.516946 
L 247.685275 195.272995 
L 249.892747 194.970836 
L 251.936703 194.918454 
L 253.980659 195.090133 
L 256.351648 195.525437 
L 260.194286 196.508413 
L 263.546374 197.273841 
L 265.835604 197.574921 
L 267.961319 197.633563 
L 270.087033 197.469624 
L 272.458022 197.052442 
L 275.401319 196.291551 
L 282.677802 194.311412 
L 285.375824 193.871415 
L 287.91033 193.682629 
L 290.526593 193.711597 
L 293.46989 193.973563 
L 297.230769 194.546993 
L 309.658022 196.611156 
L 314.481758 197.085528 
L 319.95956 197.395014 
L 327.317802 197.5717 
L 341.134945 197.636306 
L 388.8 197.64 
L 388.8 197.64 
" style="fill:none;stroke:#000000;stroke-linecap:square;stroke-width:1.5;"/>
   </g>
   <g id="line2d_17">
    <path clip-path="url(#pa278eb1fc4)" d="M 54 185.56 
L 110.004396 185.450254 
L 117.117363 185.197758 
L 122.34989 184.796859 
L 127.091868 184.210836 
L 132.406154 183.317271 
L 139.927912 182.048621 
L 143.034725 181.774089 
L 145.650989 181.761846 
L 148.103736 181.966388 
L 150.638242 182.399338 
L 153.581538 183.134864 
L 161.43033 185.230774 
L 163.637802 185.508871 
L 165.681758 185.549089 
L 167.807473 185.363023 
L 170.178462 184.920922 
L 174.266374 183.874797 
L 177.20967 183.241257 
L 179.335385 183.009135 
L 181.297582 183.017964 
L 183.341538 183.259082 
L 185.712527 183.779037 
L 192.416703 185.405629 
L 194.378901 185.557588 
L 196.259341 185.480008 
L 198.303297 185.165224 
L 201.001319 184.502537 
L 205.089231 183.504835 
L 207.133187 183.253135 
L 209.013626 183.248462 
L 210.975824 183.47833 
L 213.265055 183.984247 
L 219.06989 185.386246 
L 221.032088 185.555559 
L 222.912527 185.485692 
L 224.874725 185.185609 
L 227.490989 184.54018 
L 231.660659 183.507171 
L 233.704615 183.253412 
L 235.585055 183.248218 
L 237.547253 183.476273 
L 239.918242 183.997219 
L 245.641319 185.368243 
L 247.603516 185.550816 
L 249.483956 185.503963 
L 251.446154 185.232654 
L 253.898901 184.656062 
L 259.54022 183.245262 
L 261.584176 183.013125 
L 263.546374 183.013594 
L 265.59033 183.241257 
L 268.043077 183.752222 
L 275.074286 185.37422 
L 277.2 185.551678 
L 279.243956 185.502759 
L 281.36967 185.230774 
L 283.904176 184.668422 
L 288.073846 183.464767 
L 291.834725 182.470212 
L 294.532747 181.987697 
L 297.067253 181.765196 
L 299.601758 181.766871 
L 302.463297 181.999248 
L 306.060659 182.530372 
L 318.978462 184.639065 
L 323.802198 185.080094 
L 329.443516 185.362441 
L 337.292308 185.513386 
L 354.298022 185.559053 
L 388.8 185.56 
L 388.8 185.56 
" style="fill:none;stroke:#000000;stroke-linecap:square;stroke-width:1.5;"/>
   </g>
   <g id="line2d_18">
    <path clip-path="url(#pa278eb1fc4)" d="M 54 173.48 
L 102.564396 173.370121 
L 109.513846 173.118673 
L 114.664615 172.716871 
L 119.324835 172.131654 
L 124.720879 171.214486 
L 131.425055 170.090296 
L 134.45011 169.816396 
L 137.066374 169.800331 
L 139.519121 170.007913 
L 142.053626 170.450714 
L 144.996923 171.200657 
L 152.10989 173.120154 
L 154.317363 173.418947 
L 156.361319 173.471952 
L 158.405275 173.301263 
L 160.694505 172.881253 
L 164.618901 171.880791 
L 167.48044 171.263731 
L 169.524396 171.041013 
L 171.404835 171.050691 
L 173.367033 171.284292 
L 175.656264 171.790099 
L 181.951648 173.326127 
L 183.832088 173.477061 
L 185.630769 173.406072 
L 187.592967 173.104832 
L 190.290989 172.43911 
L 193.97011 171.54868 
L 195.932308 171.310698 
L 197.730989 171.314277 
L 199.611429 171.546665 
L 201.900659 172.070515 
L 206.887912 173.290957 
L 208.768352 173.472349 
L 210.567033 173.417629 
L 212.447473 173.134502 
L 214.981978 172.508138 
L 218.742857 171.591575 
L 220.623297 171.37157 
L 222.421978 171.387118 
L 224.302418 171.635994 
L 226.673407 172.195059 
L 231.006593 173.256159 
L 232.887033 173.463688 
L 234.685714 173.435946 
L 236.566154 173.176713 
L 238.937143 172.609196 
L 243.352088 171.518086 
L 245.314286 171.300729 
L 247.112967 171.32728 
L 248.993407 171.578473 
L 251.446154 172.151647 
L 255.942857 173.242023 
L 257.905055 173.460633 
L 259.703736 173.444743 
L 261.584176 173.209464 
L 263.873407 172.690286 
L 269.841758 171.218105 
L 271.803956 171.030261 
L 273.684396 171.06707 
L 275.728352 171.333749 
L 278.344615 171.922625 
L 283.740659 173.203052 
L 285.948132 173.450927 
L 287.992088 173.45223 
L 290.036044 173.232601 
L 292.407033 172.744991 
L 295.840879 171.778364 
L 300.419341 170.523196 
L 303.035604 170.040918 
L 305.488352 169.81108 
L 308.022857 169.801979 
L 310.802637 170.021219 
L 314.318242 170.535281 
L 327.072527 172.602981 
L 331.896264 173.032694 
L 337.537582 173.301364 
L 345.631648 173.441884 
L 364.59956 173.479608 
L 388.8 173.48 
L 388.8 173.48 
" style="fill:none;stroke:#000000;stroke-linecap:square;stroke-width:1.5;"/>
   </g>
   <g id="line2d_19">
    <path clip-path="url(#pa278eb1fc4)" d="M 54 161.399998 
L 95.614945 161.290197 
L 102.482637 161.036678 
L 107.551648 160.633102 
L 112.211868 160.036362 
L 117.771429 159.07878 
L 123.73978 158.092684 
L 126.764835 157.827026 
L 129.299341 157.822763 
L 131.752088 158.044613 
L 134.286593 158.506878 
L 137.311648 159.300769 
L 143.525275 160.99511 
L 145.732747 161.321436 
L 147.776703 161.396218 
L 149.820659 161.239576 
L 152.10989 160.825499 
L 156.034286 159.827193 
L 158.814066 159.240904 
L 160.858022 159.038704 
L 162.738462 159.077468 
L 164.700659 159.34641 
L 167.153407 159.93037 
L 172.058901 161.165897 
L 174.021099 161.383722 
L 175.81978 161.357509 
L 177.70022 161.104666 
L 180.152967 160.527275 
L 184.322637 159.522424 
L 186.203077 159.321171 
L 188.001758 159.359297 
L 189.882198 159.633795 
L 192.334945 160.240548 
L 196.095824 161.169529 
L 197.976264 161.38425 
L 199.693187 161.357608 
L 201.491868 161.107582 
L 203.862857 160.535894 
L 207.623736 159.620925 
L 209.504176 159.416969 
L 211.221099 159.457283 
L 213.01978 159.722868 
L 215.472527 160.331517 
L 218.988132 161.185374 
L 220.786813 161.385632 
L 222.503736 161.353699 
L 224.302418 161.094397 
L 226.755165 160.489373 
L 230.270769 159.630469 
L 232.151209 159.419206 
L 233.868132 159.452811 
L 235.666813 159.711466 
L 238.11956 160.312285 
L 241.716923 161.182104 
L 243.597363 161.387553 
L 245.314286 161.351723 
L 247.194725 161.076928 
L 249.647473 160.467653 
L 253.326593 159.556108 
L 255.207033 159.330268 
L 257.005714 159.344844 
L 258.886154 159.59485 
L 261.338901 160.173929 
L 265.426813 161.163351 
L 267.389011 161.382944 
L 269.187692 161.358733 
L 271.068132 161.107316 
L 273.439121 160.546531 
L 278.508132 159.272886 
L 280.47033 159.050063 
L 282.350769 159.059648 
L 284.312967 159.294195 
L 286.765714 159.827193 
L 292.570549 161.182223 
L 294.696264 161.38647 
L 296.658462 161.35488 
L 298.702418 161.101689 
L 301.073407 160.579232 
L 305.07956 159.420551 
L 308.676923 158.470549 
L 311.293187 158.012124 
L 313.745934 157.813126 
L 316.28044 157.838972 
L 319.141978 158.102999 
L 322.902857 158.692275 
L 332.959121 160.368253 
L 337.619341 160.851062 
L 342.851868 161.160742 
L 349.883077 161.335022 
L 363.291429 161.396863 
L 388.8 161.399998 
L 388.8 161.399998 
" style="fill:none;stroke:#000000;stroke-linecap:square;stroke-width:1.5;"/>
   </g>
   <g id="line2d_20">
    <path clip-path="url(#pa278eb1fc4)" d="M 54 149.319988 
L 89.074286 149.210302 
L 95.86022 148.955594 
L 100.847473 148.552124 
L 105.425934 147.958819 
L 111.067253 146.981265 
L 116.545055 146.085694 
L 119.488352 145.828663 
L 122.022857 145.82781 
L 124.393846 146.047082 
L 126.846593 146.497042 
L 129.871648 147.294676 
L 135.758242 148.906731 
L 137.965714 149.240086 
L 139.927912 149.31752 
L 141.89011 149.175528 
L 144.097582 148.785752 
L 147.694945 147.875207 
L 150.556484 147.250216 
L 152.60044 147.033567 
L 154.480879 147.064479 
L 156.443077 147.3327 
L 158.814066 147.899416 
L 163.637802 149.108137 
L 165.518242 149.30741 
L 167.316923 149.268416 
L 169.197363 148.997143 
L 171.731868 148.380444 
L 175.329231 147.521607 
L 177.20967 147.319402 
L 178.926593 147.358322 
L 180.725275 147.622094 
L 183.178022 148.232787 
L 186.693626 149.099441 
L 188.492308 149.304895 
L 190.209231 149.273447 
L 192.007912 149.010366 
L 194.460659 148.402262 
L 197.730989 147.621315 
L 199.52967 147.432382 
L 201.164835 147.477604 
L 202.963516 147.755004 
L 205.498022 148.401093 
L 208.523077 149.123256 
L 210.321758 149.31204 
L 211.956923 149.262904 
L 213.755604 148.979784 
L 216.371868 148.309197 
L 219.151648 147.654679 
L 220.95033 147.464629 
L 222.585495 147.513027 
L 224.384176 147.795923 
L 227.00044 148.466548 
L 229.78022 149.121063 
L 231.578901 149.311563 
L 233.214066 149.264138 
L 235.012747 148.982457 
L 237.629011 148.310624 
L 240.490549 147.629821 
L 242.289231 147.434122 
L 243.924396 147.473497 
L 245.723077 147.743817 
L 248.257582 148.379899 
L 251.364396 149.116626 
L 253.163077 149.309328 
L 254.88 149.264696 
L 256.678681 148.989746 
L 259.213187 148.346639 
L 262.483516 147.544426 
L 264.363956 147.32476 
L 266.080879 147.348603 
L 267.87956 147.595182 
L 270.332308 148.181392 
L 274.174945 149.1018 
L 276.055385 149.305691 
L 277.854066 149.271696 
L 279.734505 149.004327 
L 282.105495 148.426223 
L 286.602198 147.287293 
L 288.564396 147.047407 
L 290.444835 147.0464 
L 292.407033 147.277471 
L 294.85978 147.812602 
L 300.337582 149.095376 
L 302.381538 149.302277 
L 304.343736 149.279953 
L 306.387692 149.029882 
L 308.758681 148.504911 
L 312.846593 147.318598 
L 316.28044 146.425047 
L 318.814945 145.993642 
L 321.185934 145.812051 
L 323.638681 145.844948 
L 326.50022 146.11691 
L 330.342857 146.728738 
L 339.581538 148.272574 
L 344.16 148.759553 
L 349.310769 149.07473 
L 356.178462 149.252358 
L 369.014505 149.31638 
L 388.8 149.319988 
L 388.8 149.319988 
" style="fill:none;stroke:#000000;stroke-linecap:square;stroke-width:1.5;"/>
   </g>
   <g id="line2d_21">
    <path clip-path="url(#pa278eb1fc4)" d="M 54 137.239927 
L 82.942418 137.129018 
L 89.564835 136.876207 
L 94.552088 136.466389 
L 99.130549 135.862841 
L 105.017143 134.833388 
L 109.922637 134.051165 
L 112.784176 133.813507 
L 115.236923 133.823747 
L 117.607912 134.055379 
L 120.060659 134.52122 
L 123.167473 135.358762 
L 128.4 136.798276 
L 130.607473 137.148829 
L 132.56967 137.238834 
L 134.531868 137.104107 
L 136.739341 136.716127 
L 140.418462 135.784789 
L 143.116484 135.208415 
L 145.078681 135.009946 
L 146.877363 135.045546 
L 148.757802 135.304828 
L 151.128791 135.874412 
L 155.707253 137.025468 
L 157.587692 137.227845 
L 159.304615 137.192268 
L 161.185055 136.921301 
L 163.71956 136.301021 
L 167.071648 135.503185 
L 168.87033 135.305426 
L 170.587253 135.341931 
L 172.385934 135.610211 
L 174.838681 136.228907 
L 178.109011 137.030091 
L 179.907692 137.229059 
L 181.542857 137.189942 
L 183.341538 136.916053 
L 185.957802 136.253064 
L 188.737582 135.604992 
L 190.454505 135.427096 
L 192.08967 135.478467 
L 193.888352 135.769789 
L 196.586374 136.473361 
L 199.202637 137.073654 
L 200.91956 137.236345 
L 202.554725 137.164568 
L 204.353407 136.852675 
L 207.950769 135.915734 
L 209.912967 135.555238 
L 211.548132 135.472981 
L 213.183297 135.614668 
L 215.145495 136.026603 
L 219.887473 137.143234 
L 221.522637 137.239352 
L 223.157802 137.11016 
L 225.038242 136.728409 
L 230.189011 135.540664 
L 231.824176 135.47618 
L 233.459341 135.634663 
L 235.421538 136.058482 
L 240 137.135073 
L 241.635165 137.239902 
L 243.27033 137.122252 
L 245.150769 136.752095 
L 250.71033 135.478467 
L 252.345495 135.427096 
L 254.062418 135.604992 
L 256.106374 136.056026 
L 260.521319 137.104298 
L 262.238242 137.239267 
L 263.873407 137.150041 
L 265.753846 136.812559 
L 269.187692 135.896671 
L 271.395165 135.437292 
L 273.193846 135.293156 
L 274.910769 135.385425 
L 276.791209 135.714322 
L 280.225055 136.603219 
L 282.596044 137.090126 
L 284.394725 137.237826 
L 286.111648 137.160901 
L 287.992088 136.851548 
L 290.69011 136.149587 
L 294.123956 135.289334 
L 296.086154 135.033392 
L 297.884835 135.017387 
L 299.765275 135.221476 
L 302.054505 135.702756 
L 308.022857 137.072247 
L 310.066813 137.236119 
L 312.029011 137.164798 
L 314.072967 136.864749 
L 316.607473 136.250355 
L 324.374505 134.186507 
L 326.827253 133.871668 
L 329.198242 133.792425 
L 331.814505 133.936219 
L 335.003077 134.352427 
L 341.38022 135.48391 
L 346.449231 136.256147 
L 351.027692 136.724039 
L 356.178462 137.019916 
L 363.20967 137.183554 
L 377.353846 137.238045 
L 388.8 137.239927 
L 388.8 137.239927 
" style="fill:none;stroke:#000000;stroke-linecap:square;stroke-width:1.5;"/>
   </g>
   <g id="line2d_22">
    <path clip-path="url(#pa278eb1fc4)" d="M 54 125.159611 
L 77.137582 125.046955 
L 83.678242 124.790461 
L 88.583736 124.378693 
L 93.08044 123.777634 
L 99.212308 122.700189 
L 103.709011 122.003934 
L 106.570549 121.786345 
L 109.023297 121.82293 
L 111.394286 122.085797 
L 113.847033 122.583913 
L 117.117363 123.495983 
L 121.532308 124.704138 
L 123.73978 125.064062 
L 125.701978 125.159117 
L 127.664176 125.024809 
L 129.78989 124.65122 
L 133.387253 123.741761 
L 136.085275 123.167578 
L 138.047473 122.977298 
L 139.846154 123.026294 
L 141.726593 123.3027 
L 144.179341 123.911406 
L 148.185495 124.923517 
L 150.065934 125.143027 
L 151.782857 125.118899 
L 153.581538 124.869357 
L 156.034286 124.277295 
L 159.468132 123.461016 
L 161.266813 123.274233 
L 162.901978 123.320798 
L 164.700659 123.600914 
L 167.235165 124.253509 
L 170.178462 124.963023 
L 171.895385 125.149839 
L 173.530549 125.10595 
L 175.329231 124.821613 
L 178.109011 124.106709 
L 180.561758 123.558372 
L 182.278681 123.402336 
L 183.913846 123.483473 
L 185.712527 123.807617 
L 191.844396 125.142313 
L 193.397802 125.122977 
L 195.114725 124.871155 
L 197.567473 124.25026 
L 200.265495 123.623632 
L 201.900659 123.467358 
L 203.454066 123.534253 
L 205.170989 123.83196 
L 211.384615 125.150932 
L 212.938022 125.105446 
L 214.654945 124.825216 
L 217.516484 124.077441 
L 219.723956 123.606696 
L 221.359121 123.482846 
L 222.912527 123.584172 
L 224.711209 123.931809 
L 229.943736 125.113147 
L 231.497143 125.147333 
L 233.132308 124.956914 
L 235.176264 124.478341 
L 238.773626 123.610369 
L 240.408791 123.465457 
L 241.962198 123.543952 
L 243.760879 123.869183 
L 249.565714 125.134918 
L 251.200879 125.126092 
L 252.917802 124.879146 
L 255.288791 124.279988 
L 258.232088 123.576462 
L 259.949011 123.404926 
L 261.584176 123.471267 
L 263.382857 123.779585 
L 266.98022 124.710571 
L 269.024176 125.080622 
L 270.659341 125.157429 
L 272.294505 125.015536 
L 274.256703 124.607258 
L 279.570989 123.35514 
L 281.287912 123.267662 
L 283.004835 123.410091 
L 285.048791 123.823891 
L 290.444835 125.06257 
L 292.243516 125.158771 
L 293.96044 125.026865 
L 295.922637 124.645973 
L 303.035604 123.019292 
L 304.834286 122.980318 
L 306.714725 123.167578 
L 309.003956 123.639539 
L 314.972308 125.003755 
L 316.934505 125.156618 
L 318.896703 125.080609 
L 320.940659 124.772098 
L 323.475165 124.147228 
L 330.751648 122.197617 
L 333.122637 121.87269 
L 335.493626 121.773372 
L 338.028132 121.895092 
L 341.053187 122.271763 
L 346.367473 123.206098 
L 352.008791 124.110986 
L 356.505495 124.600394 
L 361.492747 124.913703 
L 368.115165 125.091117 
L 380.460659 125.15615 
L 388.8 125.159611 
L 388.8 125.159611 
" style="fill:none;stroke:#000000;stroke-linecap:square;stroke-width:1.5;"/>
   </g>
   <g id="line2d_23">
    <path clip-path="url(#pa278eb1fc4)" d="M 54 113.078213 
L 71.823297 112.959319 
L 78.118681 112.700491 
L 82.942418 112.284295 
L 87.439121 111.67074 
L 94.552088 110.418469 
L 98.312967 109.898736 
L 101.010989 109.749649 
L 103.381978 109.839296 
L 105.752967 110.158148 
L 108.287473 110.729438 
L 112.620659 111.989654 
L 115.563956 112.722701 
L 117.68967 113.023387 
L 119.57011 113.071657 
L 121.532308 112.894837 
L 123.73978 112.464113 
L 130.362198 111.005064 
L 132.160879 110.937264 
L 133.95956 111.092415 
L 136.003516 111.503913 
L 142.544176 113.02464 
L 144.261099 113.069764 
L 145.978022 112.893633 
L 148.103736 112.434616 
L 152.682198 111.359534 
L 154.399121 111.231713 
L 156.034286 111.329513 
L 157.914725 111.679192 
L 164.046593 113.050586 
L 165.681758 113.052238 
L 167.398681 112.820348 
L 169.687912 112.260528 
L 172.794725 111.528588 
L 174.511648 111.372329 
L 176.065055 111.450064 
L 177.863736 111.775686 
L 183.75033 113.061481 
L 185.303736 113.042171 
L 187.020659 112.783956 
L 189.555165 112.134645 
L 192.007912 111.582146 
L 193.643077 111.442898 
L 195.196484 111.534228 
L 196.995165 111.878938 
L 202.145934 113.039803 
L 203.699341 113.061765 
L 205.334505 112.851886 
L 207.541978 112.310985 
L 210.485275 111.616128 
L 212.12044 111.474258 
L 213.673846 111.567357 
L 215.472527 111.91646 
L 220.378022 113.030998 
L 221.931429 113.06665 
L 223.566593 112.867582 
L 225.692308 112.354019 
L 228.799121 111.614024 
L 230.434286 111.47409 
L 231.987692 111.569152 
L 233.786374 111.919169 
L 238.691868 113.030395 
L 240.245275 113.067322 
L 241.88044 112.871432 
L 244.006154 112.360749 
L 247.194725 111.592926 
L 248.82989 111.443888 
L 250.383297 111.525858 
L 252.181978 111.860511 
L 257.578022 113.04859 
L 259.131429 113.05646 
L 260.766593 112.83961 
L 262.974066 112.296264 
L 266.080879 111.542908 
L 267.797802 111.374079 
L 269.351209 111.440624 
L 271.14989 111.752654 
L 277.281758 113.062329 
L 278.916923 113.037947 
L 280.633846 112.782423 
L 283.086593 112.156682 
L 286.111648 111.425963 
L 287.828571 111.241474 
L 289.463736 111.284051 
L 291.262418 111.560272 
L 293.96044 112.240402 
L 296.74022 112.880228 
L 298.538901 113.069764 
L 300.255824 113.02464 
L 302.054505 112.751374 
L 304.507253 112.129598 
L 308.186374 111.200444 
L 310.066813 110.962734 
L 311.865495 110.959671 
L 313.745934 111.184239 
L 316.116923 111.708155 
L 321.104176 112.870405 
L 323.148132 113.068834 
L 325.028571 113.029947 
L 326.990769 112.769257 
L 329.361758 112.218816 
L 337.782857 110.03493 
L 340.153846 109.787231 
L 342.524835 109.766036 
L 345.141099 109.96798 
L 348.574945 110.47413 
L 359.448791 112.237734 
L 364.027253 112.657354 
L 369.423297 112.916992 
L 377.272088 113.048151 
L 388.8 113.078213 
L 388.8 113.078213 
" style="fill:none;stroke:#000000;stroke-linecap:square;stroke-width:1.5;"/>
   </g>
   <g id="line2d_24">
    <path clip-path="url(#pa278eb1fc4)" d="M 54 100.99283 
L 67.244835 100.857418 
L 73.213187 100.581714 
L 77.873407 100.150371 
L 82.37011 99.508627 
L 93.407473 97.787103 
L 95.941978 97.725474 
L 98.231209 97.887596 
L 100.602198 98.282623 
L 103.381978 98.987996 
L 109.759121 100.706979 
L 111.803077 100.964026 
L 113.683516 100.979641 
L 115.645714 100.767527 
L 118.016703 100.265972 
L 123.412747 99.029705 
L 125.293187 98.892567 
L 127.091868 98.992037 
L 129.054066 99.339548 
L 131.997363 100.129764 
L 134.695385 100.776275 
L 136.494066 100.984374 
L 138.210989 100.953776 
L 140.00967 100.690024 
L 142.544176 100.061817 
L 145.487473 99.375188 
L 147.204396 99.1986 
L 148.83956 99.251748 
L 150.638242 99.547307 
L 153.418022 100.281156 
L 155.870769 100.840979 
L 157.587692 100.997984 
L 159.222857 100.912638 
L 161.021538 100.582952 
L 166.662857 99.357999 
L 168.216264 99.363464 
L 169.851429 99.59325 
L 172.140659 100.169377 
L 174.92044 100.835974 
L 176.555604 100.996612 
L 178.109011 100.923959 
L 179.825934 100.613645 
L 185.303736 99.429718 
L 186.857143 99.450597 
L 188.492308 99.703092 
L 191.026813 100.362064 
L 193.316044 100.872962 
L 194.869451 100.999631 
L 196.422857 100.897989 
L 198.221538 100.537452 
L 202.718242 99.508481 
L 204.271648 99.460382 
L 205.825055 99.639884 
L 207.869011 100.126162 
L 210.975824 100.868519 
L 212.529231 100.999472 
L 214.082637 100.898617 
L 215.881319 100.535567 
L 220.296264 99.521912 
L 221.84967 99.472502 
L 223.403077 99.652289 
L 225.447033 100.13898 
L 228.553846 100.875134 
L 230.107253 100.999822 
L 231.660659 100.8926 
L 233.459341 100.524383 
L 237.792527 99.518779 
L 239.345934 99.456641 
L 240.899341 99.622898 
L 242.861538 100.07591 
L 246.213626 100.874628 
L 247.767033 100.999718 
L 249.32044 100.896479 
L 251.119121 100.534201 
L 255.697582 99.474504 
L 257.250989 99.417804 
L 258.804396 99.583661 
L 260.766593 100.031375 
L 264.363956 100.8814 
L 265.999121 100.999974 
L 267.552527 100.886239 
L 269.351209 100.521716 
L 274.256703 99.392164 
L 275.81011 99.341035 
L 277.445275 99.515987 
L 279.489231 99.980718 
L 283.168352 100.856796 
L 284.803516 100.998332 
L 286.438681 100.910269 
L 288.237363 100.577372 
L 294.369231 99.217753 
L 296.004396 99.21996 
L 297.721319 99.447952 
L 300.092308 100.017694 
L 303.444396 100.810206 
L 305.243077 100.992622 
L 306.96 100.935648 
L 308.758681 100.648123 
L 311.293187 99.991363 
L 314.645275 99.153131 
L 316.525714 98.918573 
L 318.324396 98.923006 
L 320.204835 99.157985 
L 322.657582 99.713093 
L 327.154286 100.767527 
L 329.198242 100.983549 
L 331.078681 100.95837 
L 333.040879 100.706979 
L 335.411868 100.161034 
L 343.832967 97.986173 
L 346.122198 97.753836 
L 348.493187 97.738669 
L 351.109451 97.948535 
L 354.543297 98.462467 
L 364.844835 100.140691 
L 369.341538 100.56452 
L 374.655824 100.83038 
L 382.259341 100.965371 
L 388.8 100.99283 
L 388.8 100.99283 
" style="fill:none;stroke:#000000;stroke-linecap:square;stroke-width:1.5;"/>
   </g>
   <g id="line2d_25">
    <path clip-path="url(#pa278eb1fc4)" d="M 54 88.894829 
L 63.565714 88.727466 
L 69.043516 88.41766 
L 73.54022 87.945876 
L 78.20044 87.224682 
L 86.703297 85.842789 
L 89.401319 85.685158 
L 91.772308 85.772235 
L 94.061538 86.080087 
L 96.596044 86.653857 
L 101.41978 88.053418 
L 104.036044 88.655097 
L 106.08 88.894709 
L 107.96044 88.889062 
L 109.922637 88.653643 
L 112.293626 88.131857 
L 117.117363 87.013431 
L 118.997802 86.850357 
L 120.714725 86.918663 
L 122.595165 87.222115 
L 125.211429 87.903396 
L 128.4 88.694186 
L 130.198681 88.904553 
L 131.833846 88.878975 
L 133.632527 88.619794 
L 136.167033 87.992156 
L 139.11033 87.312766 
L 140.827253 87.149667 
L 142.462418 87.221042 
L 144.261099 87.536703 
L 147.613187 88.429203 
L 149.657143 88.828216 
L 151.292308 88.918328 
L 152.927473 88.774228 
L 154.88967 88.353526 
L 159.059341 87.383522 
L 160.694505 87.292431 
L 162.247912 87.430762 
L 164.128352 87.836819 
L 168.298022 88.827744 
L 169.851429 88.918875 
L 171.404835 88.78432 
L 173.285275 88.379383 
L 177.20967 87.461932 
L 178.763077 87.373343 
L 180.316484 87.515049 
L 182.196923 87.931369 
L 185.957802 88.823867 
L 187.511209 88.918866 
L 189.064615 88.779573 
L 190.945055 88.364148 
L 194.542418 87.516007 
L 196.095824 87.418234 
L 197.649231 87.557514 
L 199.52967 87.976281 
L 203.127033 88.826011 
L 204.68044 88.918325 
L 206.152088 88.784946 
L 208.032527 88.369111 
L 211.548132 87.537494 
L 213.101538 87.439042 
L 214.573187 87.567699 
L 216.371868 87.959386 
L 220.050989 88.828495 
L 221.604396 88.917856 
L 223.076044 88.780367 
L 224.956484 88.360044 
L 228.39033 87.543369 
L 229.943736 87.43852 
L 231.415385 87.561207 
L 233.214066 87.947698 
L 236.974945 88.832123 
L 238.528352 88.917361 
L 240.081758 88.763986 
L 241.962198 88.334307 
L 245.314286 87.532385 
L 246.867692 87.417293 
L 248.339341 87.527448 
L 250.138022 87.901029 
L 254.225934 88.847651 
L 255.779341 88.914243 
L 257.332747 88.74794 
L 259.294945 88.290159 
L 262.565275 87.502231 
L 264.118681 87.372213 
L 265.672088 87.472748 
L 267.470769 87.832776 
L 271.967473 88.859062 
L 273.520879 88.911583 
L 275.074286 88.740447 
L 277.036484 88.284913 
L 280.633846 87.418341 
L 282.269011 87.290555 
L 283.822418 87.394207 
L 285.621099 87.746337 
L 290.608352 88.866948 
L 292.161758 88.910461 
L 293.796923 88.729993 
L 295.840879 88.25764 
L 299.765275 87.297449 
L 301.482198 87.14734 
L 303.117363 87.233044 
L 304.997802 87.572666 
L 311.047912 88.885283 
L 312.683077 88.900232 
L 314.4 88.694186 
L 316.525714 88.200535 
L 321.267692 87.023852 
L 323.066374 86.853565 
L 324.865055 86.913722 
L 326.827253 87.216641 
L 329.688791 87.919517 
L 332.959121 88.667643 
L 335.003077 88.898429 
L 336.883516 88.884643 
L 338.845714 88.6407 
L 341.134945 88.119949 
L 349.71956 85.921391 
L 352.008791 85.708055 
L 354.37978 85.713949 
L 357.077802 85.954284 
L 360.756923 86.531697 
L 369.505055 87.977517 
L 373.92 88.430689 
L 378.989011 88.71834 
L 386.02022 88.872465 
L 388.8 88.894829 
L 388.8 88.894829 
" style="fill:none;stroke:#000000;stroke-linecap:square;stroke-width:1.5;"/>
   </g>
   <g id="line2d_26">
    <path clip-path="url(#pa278eb1fc4)" d="M 54 76.762606 
L 60.949451 76.537188 
L 65.854945 76.161349 
L 70.26989 75.598705 
L 75.829451 74.637835 
L 80.653187 73.872672 
L 83.432967 73.657572 
L 85.803956 73.694536 
L 88.093187 73.955148 
L 90.545934 74.468175 
L 93.97978 75.447329 
L 97.577143 76.416731 
L 99.702857 76.757925 
L 101.583297 76.837515 
L 103.463736 76.692807 
L 105.589451 76.29734 
L 112.293626 74.847321 
L 114.092308 74.81324 
L 115.890989 75.012022 
L 118.016703 75.489867 
L 123.003956 76.712423 
L 124.720879 76.839794 
L 126.356044 76.741868 
L 128.236484 76.396853 
L 134.123077 75.124413 
L 135.758242 75.126901 
L 137.475165 75.366872 
L 139.764396 75.942884 
L 142.789451 76.675407 
L 144.424615 76.83607 
L 145.978022 76.768311 
L 147.694945 76.466446 
L 153.336264 75.259371 
L 154.88967 75.287086 
L 156.524835 75.54523 
L 159.141099 76.231255 
L 161.348571 76.718413 
L 162.901978 76.839912 
L 164.455385 76.730716 
L 166.254066 76.362594 
L 170.505495 75.389436 
L 172.058901 75.33661 
L 173.612308 75.517083 
L 175.656264 76.009157 
L 178.59956 76.712608 
L 180.152967 76.839884 
L 181.624615 76.738601 
L 183.341538 76.39002 
L 187.511209 75.434903 
L 188.982857 75.38581 
L 190.536264 75.568424 
L 192.58022 76.065703 
L 195.36 76.721444 
L 196.913407 76.839954 
L 198.385055 76.724867 
L 200.183736 76.339887 
L 203.862857 75.481593 
L 205.334505 75.407141 
L 206.806154 75.554744 
L 208.686593 75.987607 
L 211.875165 76.740442 
L 213.346813 76.839602 
L 214.818462 76.714815 
L 216.617143 76.320289 
L 220.132747 75.496082 
L 221.604396 75.414579 
L 223.076044 75.556625 
L 224.956484 75.985808 
L 228.145055 76.739106 
L 229.616703 76.839685 
L 231.088352 76.716289 
L 232.887033 76.32263 
L 236.402637 75.492879 
L 237.874286 75.405265 
L 239.345934 75.540165 
L 241.226374 75.962548 
L 244.496703 76.736767 
L 245.968352 76.839857 
L 247.44 76.721444 
L 249.238681 76.333415 
L 252.917802 75.464308 
L 254.389451 75.378524 
L 255.861099 75.511317 
L 257.741538 75.928373 
L 261.175385 76.738601 
L 262.728791 76.839144 
L 264.20044 76.712608 
L 265.999121 76.322402 
L 269.841758 75.414608 
L 271.395165 75.329761 
L 272.948571 75.479641 
L 274.829011 75.901607 
L 278.344615 76.730716 
L 279.898022 76.839912 
L 281.451429 76.718413 
L 283.25011 76.339643 
L 287.583297 75.321418 
L 289.136703 75.24628 
L 290.69011 75.393611 
L 292.652308 75.825037 
L 296.494945 76.727263 
L 298.13011 76.839895 
L 299.683516 76.725302 
L 301.482198 76.363664 
L 306.714725 75.154917 
L 308.34989 75.106497 
L 309.985055 75.281513 
L 312.029011 75.735814 
L 316.116923 76.697748 
L 317.833846 76.83876 
L 319.469011 76.754173 
L 321.349451 76.419086 
L 324.374505 75.600943 
L 326.909011 75.012022 
L 328.707692 74.81324 
L 330.424615 74.840744 
L 332.305055 75.098789 
L 334.83956 75.695139 
L 338.682198 76.593888 
L 340.644396 76.816754 
L 342.524835 76.805844 
L 344.487033 76.561596 
L 346.776264 76.037955 
L 355.115604 73.89223 
L 357.404835 73.671661 
L 359.775824 73.673372 
L 362.473846 73.912504 
L 366.071209 74.476206 
L 374.819341 75.918422 
L 379.234286 76.366337 
L 384.303297 76.647519 
L 388.8 76.762606 
L 388.8 76.762606 
" style="fill:none;stroke:#000000;stroke-linecap:square;stroke-width:1.5;"/>
   </g>
   <g id="line2d_27">
    <path clip-path="url(#pa278eb1fc4)" d="M 54 64.551857 
L 59.314286 64.229464 
L 63.729231 63.742374 
L 68.471209 62.983698 
L 75.747692 61.793415 
L 78.445714 61.608596 
L 80.816703 61.671593 
L 83.105934 61.961126 
L 85.558681 62.502383 
L 89.564835 63.666186 
L 92.508132 64.411943 
L 94.552088 64.705264 
L 96.432527 64.748922 
L 98.312967 64.56719 
L 100.52044 64.119615 
L 106.161758 62.848385 
L 107.96044 62.74746 
L 109.677363 62.872464 
L 111.63956 63.251838 
L 118.098462 64.725884 
L 119.733626 64.738279 
L 121.450549 64.523792 
L 123.658022 64.004395 
L 127.091868 63.196399 
L 128.808791 63.045926 
L 130.443956 63.137738 
L 132.242637 63.477485 
L 137.802198 64.729333 
L 139.355604 64.734649 
L 140.990769 64.511193 
L 143.28 63.943362 
L 145.978022 63.324077 
L 147.613187 63.192124 
L 149.166593 63.299963 
L 150.965275 63.667752 
L 155.38022 64.696828 
L 156.933626 64.75113 
L 158.487033 64.573194 
L 160.530989 64.087103 
L 163.474286 63.397108 
L 165.027692 63.27847 
L 166.499341 63.388158 
L 168.298022 63.766658 
L 172.222418 64.687159 
L 173.694066 64.755846 
L 175.165714 64.60495 
L 177.046154 64.172482 
L 180.152967 63.438692 
L 181.624615 63.331637 
L 183.096264 63.44869 
L 184.894945 63.838686 
L 188.492308 64.682581 
L 189.963956 64.756317 
L 191.435604 64.604285 
L 193.316044 64.166432 
L 196.259341 63.470641 
L 197.730989 63.362905 
L 199.202637 63.484015 
L 201.001319 63.880265 
L 204.353407 64.672075 
L 205.825055 64.758015 
L 207.296703 64.61419 
L 209.177143 64.179314 
L 212.12044 63.482626 
L 213.592088 63.377614 
L 215.063736 63.503671 
L 216.862418 63.904766 
L 220.132747 64.673507 
L 221.604396 64.757703 
L 223.076044 64.611116 
L 224.956484 64.173324 
L 227.89978 63.478917 
L 229.371429 63.377847 
L 230.843077 63.507746 
L 232.641758 63.911087 
L 235.83033 64.664694 
L 237.301978 64.75898 
L 238.773626 64.623173 
L 240.572308 64.215627 
L 243.760879 63.459846 
L 245.232527 63.363584 
L 246.704176 63.495876 
L 248.502857 63.898703 
L 251.773187 64.667604 
L 253.244835 64.758833 
L 254.716484 64.623465 
L 256.515165 64.21856 
L 259.867253 63.425136 
L 261.338901 63.332494 
L 262.810549 63.463568 
L 264.609231 63.861349 
L 268.043077 64.667403 
L 269.514725 64.759157 
L 270.986374 64.630293 
L 272.785055 64.23459 
L 276.464176 63.365696 
L 278.017582 63.281338 
L 279.570989 63.436199 
L 281.533187 63.886676 
L 284.721758 64.640615 
L 286.275165 64.759992 
L 287.746813 64.656016 
L 289.545495 64.287644 
L 293.96044 63.258787 
L 295.513846 63.198703 
L 297.067253 63.363767 
L 299.029451 63.810946 
L 302.545055 64.638042 
L 304.18022 64.759999 
L 305.733626 64.650624 
L 307.532308 64.290157 
L 312.683077 63.101073 
L 314.318242 63.055602 
L 315.953407 63.236538 
L 318.079121 63.719053 
L 321.84 64.606614 
L 323.556923 64.757717 
L 325.192088 64.67986 
L 326.990769 64.366544 
L 329.852308 63.597761 
L 332.55033 62.960077 
L 334.349011 62.761072 
L 336.065934 62.791409 
L 337.946374 63.05475 
L 340.562637 63.677689 
L 344.16 64.514658 
L 346.122198 64.737659 
L 348.002637 64.723901 
L 349.964835 64.474177 
L 352.254066 63.943749 
L 360.266374 61.867706 
L 362.555604 61.634726 
L 364.844835 61.623745 
L 367.461099 61.840549 
L 370.976703 62.378782 
L 380.133626 63.880338 
L 384.548571 64.314358 
L 388.8 64.551857 
L 388.8 64.551857 
" style="fill:none;stroke:#000000;stroke-linecap:square;stroke-width:1.5;"/>
   </g>
   <g id="line2d_28">
    <path clip-path="url(#pa278eb1fc4)" d="M 54 52.192182 
L 58.414945 51.72703 
L 62.993407 51.014521 
L 71.005714 49.71468 
L 73.621978 49.55936 
L 75.911209 49.641172 
L 78.20044 49.950743 
L 80.734945 50.533394 
L 88.583736 52.549833 
L 90.464176 52.679523 
L 92.344615 52.578861 
L 94.388571 52.234148 
L 97.740659 51.391345 
L 100.275165 50.858929 
L 102.073846 50.697391 
L 103.790769 50.764204 
L 105.589451 51.057168 
L 108.205714 51.742963 
L 111.149011 52.467551 
L 112.865934 52.666064 
L 114.501099 52.633287 
L 116.218022 52.375303 
L 118.834286 51.717868 
L 121.450549 51.13309 
L 123.085714 50.991382 
L 124.639121 51.07263 
L 126.437802 51.405137 
L 132.079121 52.658047 
L 133.632527 52.644376 
L 135.267692 52.400846 
L 137.802198 51.75485 
L 140.091429 51.254899 
L 141.644835 51.138028 
L 143.198242 51.252489 
L 144.996923 51.628622 
L 149.166593 52.60855 
L 150.638242 52.67609 
L 152.191648 52.515835 
L 154.153846 52.061126 
L 157.260659 51.333079 
L 158.814066 51.226695 
L 160.285714 51.35202 
L 162.084396 51.746138 
L 165.681758 52.596454 
L 167.153407 52.677685 
L 168.625055 52.534562 
L 170.505495 52.10458 
L 173.612308 51.377267 
L 175.083956 51.282664 
L 176.555604 51.416547 
L 178.354286 51.82268 
L 181.624615 52.593518 
L 183.096264 52.677675 
L 184.567912 52.53073 
L 186.448352 52.093002 
L 189.30989 51.419254 
L 190.781538 51.316875 
L 192.253187 51.448552 
L 194.051868 51.856567 
L 197.158681 52.589883 
L 198.63033 52.677958 
L 200.101978 52.530606 
L 201.982418 52.089471 
L 204.762198 51.436201 
L 206.233846 51.336267 
L 207.705495 51.473401 
L 209.504176 51.886893 
L 212.447473 52.583261 
L 213.919121 52.678737 
L 215.390769 52.536466 
L 217.271209 52.097105 
L 220.050989 51.442215 
L 221.522637 51.342439 
L 222.994286 51.480698 
L 224.792967 51.895178 
L 227.736264 52.587296 
L 229.207912 52.678208 
L 230.67956 52.531556 
L 232.56 52.089072 
L 235.33978 51.435132 
L 236.811429 51.336379 
L 238.283077 51.47459 
L 240.081758 51.887863 
L 243.025055 52.582277 
L 244.496703 52.678956 
L 245.968352 52.539847 
L 247.767033 52.125909 
L 250.792088 51.411283 
L 252.263736 51.317656 
L 253.735385 51.457686 
L 255.615824 51.891632 
L 258.559121 52.581972 
L 260.030769 52.679186 
L 261.502418 52.544773 
L 263.301099 52.136883 
L 266.48967 51.379286 
L 267.961319 51.282503 
L 269.432967 51.414053 
L 271.231648 51.815449 
L 274.501978 52.584485 
L 275.973626 52.679247 
L 277.445275 52.549138 
L 279.243956 52.149181 
L 282.75956 51.316575 
L 284.231209 51.227221 
L 285.702857 51.357696 
L 287.583297 51.772838 
L 291.017143 52.579437 
L 292.570549 52.67912 
L 294.042198 52.552926 
L 295.840879 52.163547 
L 299.765275 51.229926 
L 301.318681 51.139529 
L 302.872088 51.279721 
L 304.752527 51.689997 
L 308.513407 52.57245 
L 310.066813 52.679961 
L 311.62022 52.564409 
L 313.418901 52.196115 
L 318.324396 51.054207 
L 319.95956 50.998143 
L 321.594725 51.172547 
L 323.638681 51.631083 
L 327.481319 52.536028 
L 329.198242 52.678933 
L 330.833407 52.589943 
L 332.632088 52.264421 
L 335.738901 51.421962 
L 338.191648 50.871739 
L 339.99033 50.698829 
L 341.707253 50.757888 
L 343.587692 51.049018 
L 346.449231 51.75381 
L 349.556044 52.453658 
L 351.518242 52.663916 
L 353.316923 52.640059 
L 355.279121 52.382018 
L 357.568352 51.842855 
L 365.171868 49.852252 
L 367.461099 49.59962 
L 369.75033 49.572599 
L 372.284835 49.76791 
L 375.636923 50.266242 
L 385.52967 51.86942 
L 388.8 52.192182 
L 388.8 52.192182 
" style="fill:none;stroke:#000000;stroke-linecap:square;stroke-width:1.5;"/>
   </g>
   <g id="line2d_29">
    <path clip-path="url(#pa278eb1fc4)" d="M 54 39.610428 
L 58.66022 38.867737 
L 65.854945 37.693197 
L 68.471209 37.515737 
L 70.76044 37.575675 
L 72.967912 37.850919 
L 75.420659 38.389432 
L 79.345055 39.529941 
L 82.288352 40.272463 
L 84.332308 40.555415 
L 86.130989 40.586237 
L 88.011429 40.393585 
L 90.218901 39.933346 
L 95.451429 38.747982 
L 97.25011 38.63717 
L 98.967033 38.75798 
L 100.847473 39.118837 
L 107.224615 40.569612 
L 108.85978 40.573678 
L 110.576703 40.346016 
L 112.865934 39.79255 
L 115.890989 39.086872 
L 117.526154 38.935547 
L 119.07956 39.009995 
L 120.796484 39.319814 
L 126.601319 40.586726 
L 128.154725 40.549894 
L 129.78989 40.283646 
L 135.676484 39.083805 
L 137.148132 39.159649 
L 138.865055 39.485641 
L 143.688791 40.569566 
L 145.16044 40.574649 
L 146.713846 40.352264 
L 149.084835 39.747888 
L 151.292308 39.269053 
L 152.763956 39.171452 
L 154.235604 39.297771 
L 156.034286 39.69561 
L 159.468132 40.51128 
L 160.93978 40.598229 
L 162.411429 40.45676 
L 164.291868 40.025154 
L 167.316923 39.320053 
L 168.788571 39.230138 
L 170.26022 39.37272 
L 172.140659 39.810378 
L 175.083956 40.504972 
L 176.555604 40.598628 
L 178.027253 40.456359 
L 179.907692 40.018734 
L 182.687473 39.365781 
L 184.159121 39.266733 
L 185.549011 39.392903 
L 187.347692 39.801289 
L 190.372747 40.513555 
L 191.844396 40.596913 
L 193.316044 40.44006 
L 195.196484 39.989591 
L 197.812747 39.382471 
L 199.284396 39.290247 
L 200.674286 39.426158 
L 202.472967 39.843688 
L 205.334505 40.513473 
L 206.724396 40.598566 
L 208.114286 40.465575 
L 209.912967 40.049956 
L 212.774505 39.38314 
L 214.164396 39.300858 
L 215.554286 39.437087 
L 217.352967 39.855613 
L 220.132747 40.508355 
L 221.522637 40.599121 
L 222.912527 40.470781 
L 224.711209 40.057668 
L 227.572747 39.386652 
L 228.962637 39.300373 
L 230.352527 39.432733 
L 232.151209 39.848147 
L 235.012747 40.515266 
L 236.402637 40.598317 
L 237.792527 40.46336 
L 239.591209 40.046031 
L 242.452747 39.375913 
L 243.924396 39.291376 
L 245.314286 39.434091 
L 247.194725 39.877325 
L 249.892747 40.505942 
L 251.364396 40.598199 
L 252.754286 40.46377 
L 254.552967 40.048488 
L 257.496264 39.356009 
L 258.967912 39.268045 
L 260.43956 39.418175 
L 262.32 39.861976 
L 265.018022 40.495306 
L 266.48967 40.599554 
L 267.961319 40.467537 
L 269.76 40.058019 
L 272.866813 39.322175 
L 274.338462 39.229904 
L 275.81011 39.369905 
L 277.690549 39.802117 
L 280.633846 40.495105 
L 282.105495 40.599772 
L 283.577143 40.475495 
L 285.375824 40.076793 
L 288.80967 39.26193 
L 290.281319 39.172177 
L 291.752967 39.305804 
L 293.633407 39.726014 
L 296.903736 40.495617 
L 298.457143 40.599309 
L 299.928791 40.473444 
L 301.727473 40.081571 
L 305.57011 39.169933 
L 307.123516 39.083805 
L 308.676923 39.231332 
L 310.557363 39.649277 
L 314.154725 40.49198 
L 315.708132 40.599938 
L 317.261538 40.48173 
L 319.06022 40.108734 
L 323.72044 39.009995 
L 325.273846 38.935547 
L 326.909011 39.086872 
L 328.871209 39.50962 
L 333.040879 40.481474 
L 334.757802 40.599963 
L 336.392967 40.484514 
L 338.273407 40.114568 
L 344.405275 38.69327 
L 346.122198 38.646644 
L 347.920879 38.829903 
L 350.128352 39.299193 
L 355.115604 40.442408 
L 356.996044 40.596688 
L 358.794725 40.526949 
L 360.756923 40.22312 
L 363.20967 39.601127 
L 369.341538 37.940598 
L 371.630769 37.61036 
L 373.92 37.510333 
L 376.372747 37.635393 
L 379.397802 38.029676 
L 388.8 39.610428 
L 388.8 39.610428 
" style="fill:none;stroke:#000000;stroke-linecap:square;stroke-width:1.5;"/>
   </g>
   <g id="line2d_30">
    <path clip-path="url(#pa278eb1fc4)" d="M 54 34.56 
L 60.295385 50.606942 
L 66.509011 65.842372 
L 72.640879 80.289941 
L 78.609231 93.79187 
L 84.495824 106.567348 
L 90.300659 118.638784 
L 96.023736 130.028271 
L 101.583297 140.605624 
L 107.061099 150.55829 
L 112.457143 159.90712 
L 117.771429 168.672653 
L 123.003956 176.875117 
L 128.154725 184.534429 
L 133.141978 191.558266 
L 138.047473 198.090404 
L 142.871209 204.149514 
L 147.613187 209.753957 
L 152.273407 214.921783 
L 156.851868 219.670731 
L 161.348571 224.018228 
L 165.763516 227.98139 
L 170.096703 231.577022 
L 174.348132 234.821617 
L 178.517802 237.731359 
L 182.687473 240.371289 
L 186.775385 242.697526 
L 190.781538 244.725632 
L 194.787692 246.504672 
L 198.712088 248.005912 
L 202.636484 249.268149 
L 206.479121 250.272503 
L 210.321758 251.047708 
L 214.164396 251.593764 
L 217.925275 251.906315 
L 221.686154 251.999365 
L 225.447033 251.872913 
L 229.207912 251.526959 
L 232.968791 250.961505 
L 236.811429 250.157047 
L 240.654066 249.12344 
L 244.496703 247.860685 
L 248.421099 246.334548 
L 252.345495 244.569409 
L 256.351648 242.520971 
L 260.357802 240.223468 
L 264.445714 237.622335 
L 268.615385 234.702012 
L 272.866813 231.446628 
L 277.118242 227.910747 
L 281.451429 224.018228 
L 285.866374 219.752577 
L 290.363077 215.09699 
L 294.941538 210.03435 
L 299.601758 204.54723 
L 304.343736 198.617892 
L 309.167473 192.228285 
L 314.072967 185.360049 
L 319.06022 177.994512 
L 324.129231 170.11269 
L 329.361758 161.55836 
L 334.676044 152.435463 
L 340.072088 142.723771 
L 345.54989 132.402745 
L 351.109451 121.451534 
L 356.750769 109.848977 
L 362.555604 97.394555 
L 368.442198 84.230696 
L 374.410549 70.334992 
L 380.460659 55.684727 
L 386.674286 40.047224 
L 388.8 34.56 
L 388.8 34.56 
" style="fill:none;stroke:#000000;stroke-linecap:square;stroke-width:1.5;"/>
   </g>
   <g id="patch_3">
    <path d="M 54 252 
L 54 34.56 
" style="fill:none;stroke:#000000;stroke-linecap:square;stroke-linejoin:miter;stroke-width:0.8;"/>
   </g>
   <g id="patch_4">
    <path d="M 388.8 252 
L 388.8 34.56 
" style="fill:none;stroke:#000000;stroke-linecap:square;stroke-linejoin:miter;stroke-width:0.8;"/>
   </g>
   <g id="patch_5">
    <path d="M 54 252 
L 388.8 252 
" style="fill:none;stroke:#000000;stroke-linecap:square;stroke-linejoin:miter;stroke-width:0.8;"/>
   </g>
   <g id="patch_6">
    <path d="M 54 34.56 
L 388.8 34.56 
" style="fill:none;stroke:#000000;stroke-linecap:square;stroke-linejoin:miter;stroke-width:0.8;"/>
   </g>
   <g id="text_14">
    <!-- Probability densities of the quantum harmonic oscillator -->
    <defs>
     <path d="M 19.796875 32 
L 35.796875 32 
C 48.703125 32 58.09375 40.359375 58.09375 49.796875 
C 58.09375 59.234375 48.90625 68 35.796875 68 
L 5.203125 68 
L 5.203125 65.390625 
C 12.09375 65.390625 13.203125 65.390625 13.203125 60.921875 
L 13.203125 7.078125 
C 13.203125 2.59375 12.09375 2.59375 5.203125 2.59375 
L 5.203125 0 
C 8.09375 0.1875 13.40625 0.1875 16.5 0.1875 
C 19.59375 0.1875 24.90625 0.1875 27.796875 0 
L 27.796875 2.59375 
C 20.90625 2.59375 19.796875 2.59375 19.796875 7.078125 
z
M 19.59375 34.09375 
L 19.59375 61.515625 
C 19.59375 64.890625 19.796875 65.390625 23.796875 65.390625 
L 33.90625 65.390625 
C 46.796875 65.390625 50.5 58.046875 50.5 49.796875 
C 50.5 40.75 46.09375 34.09375 33.90625 34.09375 
z
" id="CMR17-80"/>
     <path d="M 43.09375 21.1875 
C 43.09375 34 33.796875 44 22.90625 44 
C 12 44 2.703125 34 2.703125 21.1875 
C 2.703125 8.59375 12 -1 22.90625 -1 
C 33.796875 -1 43.09375 8.59375 43.09375 21.1875 
z
M 22.90625 0.796875 
C 18.203125 0.796875 14.203125 3.59375 11.90625 7.5 
C 9.40625 12 9.09375 17.59375 9.09375 22 
C 9.09375 26.1875 9.296875 31.390625 11.90625 35.890625 
C 13.90625 39.1875 17.796875 42.390625 22.90625 42.390625 
C 27.40625 42.390625 31.203125 39.890625 33.59375 36.390625 
C 36.703125 31.6875 36.703125 25.09375 36.703125 22 
C 36.703125 18.09375 36.5 12.09375 33.796875 7.296875 
C 31 2.6875 26.703125 0.796875 22.90625 0.796875 
z
" id="CMR17-111"/>
     <path d="M 15 69 
L 3.09375 67.890625 
L 3.09375 65.296875 
C 9 65.296875 9.90625 64.703125 9.90625 60.046875 
L 9.90625 -0.203125 
L 11.703125 -0.203125 
L 14.59375 6.953125 
C 17.5 2.203125 21.796875 -1 27.59375 -1 
C 37.59375 -1 47.703125 7.859375 47.703125 21.59375 
C 47.703125 34.515625 38.703125 44 28.59375 44 
C 22.40625 44 18 40.671875 15 36.734375 
z
M 15.203125 31.59375 
C 15.203125 33.40625 15.203125 33.703125 16.59375 35.828125 
C 20.5 41.890625 26.09375 42.390625 28 42.390625 
C 31 42.390625 41.296875 40.78125 41.296875 21.6875 
C 41.296875 1.703125 29.5 0.59375 27.09375 0.59375 
C 24 0.59375 19.5 1.796875 16.296875 7.65625 
C 15.203125 9.578125 15.203125 9.78125 15.203125 11.59375 
z
" id="CMR17-98"/>
     <path d="M 36 25.875 
C 36 32 36 35.546875 31.796875 39.59375 
C 28.09375 42.984375 23.796875 44 20.40625 44 
C 12.5 44 6.796875 37.625 6.796875 30.890625 
C 6.796875 27.1875 9.796875 27 10.40625 27 
C 11.703125 27 14 27.796875 14 30.59375 
C 14 33.09375 12.09375 34.1875 10.40625 34.1875 
C 10 34.1875 9.5 34.09375 9.203125 34 
C 11.296875 40.53125 16.703125 42.390625 20.203125 42.390625 
C 25.203125 42.390625 30.703125 37.828125 30.703125 29.296875 
L 30.703125 25.5 
C 24.796875 25.296875 17.703125 24.5 12.09375 21.453125 
C 5.796875 17.921875 4 12.84375 4 9 
C 4 1.203125 13 -1 18.296875 -1 
C 23.796875 -1 28.90625 2.109375 31.09375 7.890625 
C 31.296875 3.421875 34.09375 -0.609375 38.5 -0.609375 
C 40.59375 -0.609375 45.90625 0.796875 45.90625 8.796875 
L 45.90625 14.46875 
L 44.09375 14.46875 
L 44.09375 8.703125 
C 44.09375 2.515625 41.40625 1.703125 40.09375 1.703125 
C 36 1.703125 36 6.96875 36 11.4375 
z
M 30.703125 13.859375 
C 30.703125 5.046875 24.5 0.59375 19 0.59375 
C 14 0.59375 10.09375 4.34375 10.09375 9 
C 10.09375 12.046875 11.40625 17.40625 17.203125 20.65625 
C 22 23.390625 27.5 23.796875 30.703125 24 
z
" id="CMR17-97"/>
     <path d="M 15.5 61.890625 
C 15.5 64.09375 13.703125 66 11.40625 66 
C 9.203125 66 7.296875 64.1875 7.296875 61.890625 
C 7.296875 59.6875 9.09375 57.796875 11.40625 57.796875 
C 13.59375 57.796875 15.5 59.59375 15.5 61.890625 
z
M 3.796875 42.890625 
L 3.796875 40.296875 
C 9.40625 40.296875 10.203125 39.6875 10.203125 34.859375 
L 10.203125 6.921875 
C 10.203125 3.09375 9.796875 2.59375 3.40625 2.59375 
L 3.40625 0 
C 5.796875 0.1875 10.09375 0.1875 12.59375 0.1875 
C 15 0.1875 19.09375 0.1875 21.40625 0 
L 21.40625 2.59375 
C 15.5 2.59375 15.296875 3.203125 15.296875 6.8125 
L 15.296875 44 
z
" id="CMR17-105"/>
     <path d="M 15.296875 69 
L 3.40625 67.890625 
L 3.40625 65.296875 
C 9.296875 65.296875 10.203125 64.703125 10.203125 59.921875 
L 10.203125 6.859375 
C 10.203125 3.09375 9.796875 2.59375 3.40625 2.59375 
L 3.40625 0 
C 5.796875 0.1875 10.203125 0.1875 12.703125 0.1875 
C 15.296875 0.1875 19.703125 0.1875 22.09375 0 
L 22.09375 2.59375 
C 15.703125 2.59375 15.296875 2.984375 15.296875 6.859375 
z
" id="CMR17-108"/>
     <path d="M 15.09375 40.390625 
L 29.09375 40.390625 
L 29.09375 43 
L 15.09375 43 
L 15.09375 62 
L 13.296875 62 
C 13.09375 51.4375 9.59375 42.1875 1.09375 41.984375 
L 1.09375 40.390625 
L 9.796875 40.390625 
L 9.796875 12.15625 
C 9.796875 10.234375 9.796875 -1 21.40625 -1 
C 27.296875 -1 30.703125 4.8125 30.703125 12.25 
L 30.703125 17.984375 
L 28.90625 17.984375 
L 28.90625 12.34375 
C 28.90625 5.421875 26.203125 0.796875 22 0.796875 
C 19.09375 0.796875 15.09375 2.796875 15.09375 11.953125 
z
" id="CMR17-116"/>
     <path d="M 29.203125 67.890625 
L 29.203125 65.296875 
C 35.09375 65.296875 36 64.703125 36 60.046875 
L 36 37.046875 
C 35.59375 37.546875 31.5 44 23.40625 44 
C 13.203125 44 3.296875 34.8125 3.296875 21.5 
C 3.296875 8.265625 12.59375 -1 22.40625 -1 
C 30.90625 -1 35.296875 5.640625 35.796875 6.34375 
L 35.796875 -1 
L 47.90625 -0.203125 
L 47.90625 2.40625 
C 42 2.40625 41.09375 3.015625 41.09375 7.859375 
L 41.09375 69 
z
M 35.796875 11.90625 
C 35.796875 8.875 34 6.140625 31.703125 4.125 
C 28.296875 1.09375 24.90625 0.59375 23 0.59375 
C 20.09375 0.59375 9.703125 2.109375 9.703125 21.390625 
C 9.703125 41.1875 21.296875 42.390625 23.90625 42.390625 
C 28.5 42.390625 32.203125 39.765625 34.5 36.140625 
C 35.796875 34.015625 35.796875 33.703125 35.796875 31.890625 
z
" id="CMR17-100"/>
     <path d="M 30.90625 42 
C 30.90625 43.796875 30.796875 43.890625 30.203125 43.890625 
C 29.796875 43.890625 29.703125 43.796875 28.5 42.296875 
C 28.203125 41.890625 27.296875 40.890625 27 40.5 
C 23.796875 43.890625 19.296875 44 17.59375 44 
C 6.5 44 2.5 38.1875 2.5 32.390625 
C 2.5 23.390625 12.703125 21.296875 15.59375 20.6875 
C 21.90625 19.390625 24.09375 19 26.203125 17.1875 
C 27.5 16 29.703125 13.796875 29.703125 10.1875 
C 29.703125 6 27.296875 0.59375 18.09375 0.59375 
C 9.40625 0.59375 6.296875 7.1875 4.5 16 
C 4.203125 17.390625 4.203125 17.5 3.40625 17.5 
C 2.59375 17.5 2.5 17.390625 2.5 15.390625 
L 2.5 1 
C 2.5 -0.8125 2.59375 -0.90625 3.203125 -0.90625 
C 3.703125 -0.90625 3.796875 -0.8125 4.296875 0 
C 4.90625 0.890625 6.40625 3.296875 7 4.296875 
C 9 1.59375 12.5 -1 18.09375 -1 
C 28 -1 33.296875 4.390625 33.296875 12.1875 
C 33.296875 17.296875 30.59375 20 29.296875 21.1875 
C 26.296875 24.296875 22.796875 25 18.59375 25.796875 
C 13.09375 27 6.09375 28.390625 6.09375 34.5 
C 6.09375 37.09375 7.5 42.59375 17.59375 42.59375 
C 28.296875 42.59375 28.90625 32.59375 29.09375 29.390625 
C 29.203125 28.890625 29.703125 28.796875 30 28.796875 
C 30.90625 28.796875 30.90625 29.09375 30.90625 30.796875 
z
" id="CMR17-115"/>
     <path d="M 15.296875 40.390625 
L 26.703125 40.390625 
L 26.703125 43 
L 15.09375 43 
L 15.09375 55.296875 
C 15.09375 63.6875 19.296875 68.390625 23.59375 68.390625 
C 24.90625 68.390625 26.40625 68.171875 27.40625 67.796875 
C 26.59375 67.59375 24.5 66.890625 24.5 64.390625 
C 24.5 61.796875 26.5 61 27.90625 61 
C 29.296875 61 31.296875 61.796875 31.296875 64.390625 
C 31.296875 68.015625 27.703125 70 23.703125 70 
C 18 70 10.203125 65.796875 10.203125 55.09375 
L 10.203125 43 
L 2.203125 43 
L 2.203125 40.390625 
L 10.203125 40.390625 
L 10.203125 6.890625 
C 10.203125 3.09375 9.796875 2.59375 3.40625 2.59375 
L 3.40625 0 
C 5.796875 0.1875 10.40625 0.1875 13 0.1875 
C 15.90625 0.1875 21 0.1875 23.703125 0 
L 23.703125 2.59375 
C 16.5 2.59375 15.296875 2.59375 15.296875 7.09375 
z
" id="CMR17-102"/>
     <path d="M 41.5 30.53125 
C 41.5 35.65625 40.5 44 28.703125 44 
C 20.5 44 16.5 37.375 15.296875 34.046875 
L 15.203125 34.046875 
L 15.203125 69 
L 3.296875 67.890625 
L 3.296875 65.296875 
C 9.203125 65.296875 10.09375 64.703125 10.09375 60.046875 
L 10.09375 6.921875 
C 10.09375 3.09375 9.703125 2.59375 3.296875 2.59375 
L 3.296875 0 
C 5.703125 0.1875 10.09375 0.1875 12.703125 0.1875 
C 15.296875 0.1875 19.796875 0.1875 22.203125 0 
L 22.203125 2.59375 
C 15.796875 2.59375 15.40625 3 15.40625 6.921875 
L 15.40625 26.21875 
C 15.40625 35.453125 21 42.390625 28 42.390625 
C 35.40625 42.390625 36.203125 35.765625 36.203125 30.9375 
L 36.203125 6.921875 
C 36.203125 3.09375 35.796875 2.59375 29.40625 2.59375 
L 29.40625 0 
C 31.796875 0.1875 36.203125 0.1875 38.796875 0.1875 
C 41.40625 0.1875 45.90625 0.1875 48.296875 0 
L 48.296875 2.59375 
C 41.90625 2.59375 41.5 3 41.5 6.921875 
z
" id="CMR17-104"/>
     <path d="M 41.09375 44 
L 39.5 44 
L 36.5 34.015625 
C 34.203125 39.359375 30 44 23.296875 44 
C 13.09375 44 3.296875 34.8125 3.296875 21.5 
C 3.296875 8.265625 12.5 -1 22.5 -1 
C 30.203125 -1 34.5 4.9375 35.796875 7.15625 
L 35.796875 -13.03125 
C 35.796875 -16.890625 35.40625 -17.40625 29 -17.40625 
L 29 -20 
C 31.40625 -19.8125 35.796875 -19.8125 38.40625 -19.8125 
C 41 -19.8125 45.5 -19.8125 47.90625 -20 
L 47.90625 -17.40625 
C 41.5 -17.40625 41.09375 -17 41.09375 -13.03125 
z
M 36 13.609375 
C 36 9.28125 32.40625 5.234375 32.09375 4.9375 
C 29 1.40625 25.40625 0.59375 23 0.59375 
C 15.5 0.59375 9.703125 10.1875 9.703125 21.390625 
C 9.703125 33.203125 16.296875 42.1875 24 42.1875 
C 32 42.1875 36 33 36 27.75 
z
" id="CMR17-113"/>
     <path d="M 29.40625 42.890625 
L 29.40625 40.296875 
C 35.296875 40.296875 36.203125 39.6875 36.203125 34.828125 
L 36.203125 16.453125 
C 36.203125 7.96875 31.703125 0.59375 24.296875 0.59375 
C 16.09375 0.59375 15.40625 5.546875 15.40625 10.796875 
L 15.40625 44 
L 3.296875 42.890625 
L 3.296875 40.296875 
C 7.296875 40.296875 10 40.296875 10.09375 36.25 
L 10.09375 16.859375 
C 10.09375 10.09375 10.09375 5.75 12.703125 2.921875 
C 14 1.609375 16.5 -1 23.703125 -1 
C 32.203125 -1 35.5 6.25 36.296875 8.375 
L 36.40625 8.375 
L 36.40625 -1 
L 48.296875 -0.203125 
L 48.296875 2.40625 
C 42.40625 2.40625 41.5 3.015625 41.5 7.859375 
L 41.5 44 
z
" id="CMR17-117"/>
     <path d="M 67.59375 30.53125 
C 67.59375 35.5625 66.703125 44 54.796875 44 
C 48 44 43.296875 39.375 41.5 33.953125 
L 41.40625 33.953125 
C 40.203125 42.1875 34.296875 44 28.703125 44 
C 20.796875 44 16.703125 37.875 15.203125 33.84375 
L 15.09375 33.84375 
L 15.09375 44 
L 3.296875 42.890625 
L 3.296875 40.28125 
C 9.203125 40.28125 10.09375 39.6875 10.09375 34.859375 
L 10.09375 6.921875 
C 10.09375 3.09375 9.703125 2.59375 3.296875 2.59375 
L 3.296875 0 
C 5.703125 0.1875 10.09375 0.1875 12.703125 0.1875 
C 15.296875 0.1875 19.796875 0.1875 22.203125 0 
L 22.203125 2.59375 
C 15.796875 2.59375 15.40625 3 15.40625 6.921875 
L 15.40625 26.21875 
C 15.40625 35.453125 21 42.390625 28 42.390625 
C 35.40625 42.390625 36.203125 35.765625 36.203125 30.9375 
L 36.203125 6.921875 
C 36.203125 3.09375 35.796875 2.59375 29.40625 2.59375 
L 29.40625 0 
C 31.796875 0.1875 36.203125 0.1875 38.796875 0.1875 
C 41.40625 0.1875 45.90625 0.1875 48.296875 0 
L 48.296875 2.59375 
C 41.90625 2.59375 41.5 3 41.5 6.921875 
L 41.5 26.21875 
C 41.5 35.453125 47.09375 42.390625 54.09375 42.390625 
C 61.5 42.390625 62.296875 35.765625 62.296875 30.9375 
L 62.296875 6.921875 
C 62.296875 3.09375 61.90625 2.59375 55.5 2.59375 
L 55.5 0 
C 57.90625 0.1875 62.296875 0.1875 64.90625 0.1875 
C 67.5 0.1875 72 0.1875 74.40625 0 
L 74.40625 2.59375 
C 68 2.59375 67.59375 3 67.59375 6.921875 
z
" id="CMR17-109"/>
     <path d="M 34.90625 35 
C 33 35 30.203125 35 30.203125 31.484375 
C 30.203125 28.6875 32.5 27.890625 33.796875 27.890625 
C 34.5 27.890625 37.40625 28.1875 37.40625 31.6875 
C 37.40625 38.6875 30.59375 44 22.90625 44 
C 12.296875 44 3.296875 34.390625 3.296875 21.546875 
C 3.296875 8.140625 12.703125 -1 22.90625 -1 
C 35.296875 -1 38.40625 10.5625 38.40625 11.671875 
C 38.40625 12.078125 38.296875 12.375 37.59375 12.375 
C 36.90625 12.375 36.796875 12.28125 36.40625 10.96875 
C 33.796875 2.8125 28.09375 0.796875 23.796875 0.796875 
C 17.40625 0.796875 9.703125 6.734375 9.703125 21.640625 
C 9.703125 36.84375 17.09375 42.1875 23 42.1875 
C 26.90625 42.1875 32.703125 40.34375 34.90625 35 
z
" id="CMR17-99"/>
    </defs>
    <g transform="translate(18.800206 28.56)scale(0.168 -0.168)">
     <use transform="scale(0.996264)" xlink:href="#CMR17-80"/>
     <use transform="translate(62.586301 0)scale(0.996264)" xlink:href="#CMR17-114"/>
     <use transform="translate(97.867068 0)scale(0.996264)" xlink:href="#CMR17-111"/>
     <use transform="translate(143.557545 0)scale(0.996264)" xlink:href="#CMR17-98"/>
     <use transform="translate(194.452915 0)scale(0.996264)" xlink:href="#CMR17-97"/>
     <use transform="translate(240.143392 0)scale(0.996264)" xlink:href="#CMR17-98"/>
     <use transform="translate(291.038762 0)scale(0.996264)" xlink:href="#CMR17-105"/>
     <use transform="translate(315.909821 0)scale(0.996264)" xlink:href="#CMR17-108"/>
     <use transform="translate(340.780879 0)scale(0.996264)" xlink:href="#CMR17-105"/>
     <use transform="translate(365.651938 0)scale(0.996264)" xlink:href="#CMR17-116"/>
     <use transform="translate(398.330251 0)scale(0.996264)" xlink:href="#CMR17-121"/>
     <use transform="translate(476.699134 0)scale(0.996264)" xlink:href="#CMR17-100"/>
     <use transform="translate(527.594503 0)scale(0.996264)" xlink:href="#CMR17-101"/>
     <use transform="translate(568.080164 0)scale(0.996264)" xlink:href="#CMR17-110"/>
     <use transform="translate(618.975534 0)scale(0.996264)" xlink:href="#CMR17-115"/>
     <use transform="translate(654.776871 0)scale(0.996264)" xlink:href="#CMR17-105"/>
     <use transform="translate(679.64793 0)scale(0.996264)" xlink:href="#CMR17-116"/>
     <use transform="translate(714.928698 0)scale(0.996264)" xlink:href="#CMR17-105"/>
     <use transform="translate(739.799756 0)scale(0.996264)" xlink:href="#CMR17-101"/>
     <use transform="translate(780.285417 0)scale(0.996264)" xlink:href="#CMR17-115"/>
     <use transform="translate(846.16272 0)scale(0.996264)" xlink:href="#CMR17-111"/>
     <use transform="translate(891.853198 0)scale(0.996264)" xlink:href="#CMR17-102"/>
     <use transform="translate(949.402676 0)scale(0.996264)" xlink:href="#CMR17-116"/>
     <use transform="translate(984.683444 0)scale(0.996264)" xlink:href="#CMR17-104"/>
     <use transform="translate(1035.578814 0)scale(0.996264)" xlink:href="#CMR17-101"/>
     <use transform="translate(1106.140441 0)scale(0.996264)" xlink:href="#CMR17-113"/>
     <use transform="translate(1154.433357 0)scale(0.996264)" xlink:href="#CMR17-117"/>
     <use transform="translate(1205.328726 0)scale(0.996264)" xlink:href="#CMR17-97"/>
     <use transform="translate(1251.019203 0)scale(0.996264)" xlink:href="#CMR17-110"/>
     <use transform="translate(1299.312119 0)scale(0.996264)" xlink:href="#CMR17-116"/>
     <use transform="translate(1334.592887 0)scale(0.996264)" xlink:href="#CMR17-117"/>
     <use transform="translate(1385.488257 0)scale(0.996264)" xlink:href="#CMR17-109"/>
     <use transform="translate(1492.483813 0)scale(0.996264)" xlink:href="#CMR17-104"/>
     <use transform="translate(1543.379183 0)scale(0.996264)" xlink:href="#CMR17-97"/>
     <use transform="translate(1589.06966 0)scale(0.996264)" xlink:href="#CMR17-114"/>
     <use transform="translate(1624.350428 0)scale(0.996264)" xlink:href="#CMR17-109"/>
     <use transform="translate(1701.270018 0)scale(0.996264)" xlink:href="#CMR17-111"/>
     <use transform="translate(1746.960495 0)scale(0.996264)" xlink:href="#CMR17-110"/>
     <use transform="translate(1797.855865 0)scale(0.996264)" xlink:href="#CMR17-105"/>
     <use transform="translate(1822.726923 0)scale(0.996264)" xlink:href="#CMR17-99"/>
     <use transform="translate(1893.28855 0)scale(0.996264)" xlink:href="#CMR17-111"/>
     <use transform="translate(1938.979027 0)scale(0.996264)" xlink:href="#CMR17-115"/>
     <use transform="translate(1974.780365 0)scale(0.996264)" xlink:href="#CMR17-99"/>
     <use transform="translate(2015.266025 0)scale(0.996264)" xlink:href="#CMR17-105"/>
     <use transform="translate(2040.137084 0)scale(0.996264)" xlink:href="#CMR17-108"/>
     <use transform="translate(2065.008142 0)scale(0.996264)" xlink:href="#CMR17-108"/>
     <use transform="translate(2089.879201 0)scale(0.996264)" xlink:href="#CMR17-97"/>
     <use transform="translate(2135.569678 0)scale(0.996264)" xlink:href="#CMR17-116"/>
     <use transform="translate(2170.850445 0)scale(0.996264)" xlink:href="#CMR17-111"/>
     <use transform="translate(2216.540923 0)scale(0.996264)" xlink:href="#CMR17-114"/>
    </g>
   </g>
  </g>
 </g>
 <defs>
  <clipPath id="pa278eb1fc4">
   <rect height="217.44" width="334.8" x="54" y="34.56"/>
  </clipPath>
 </defs>
</svg>
