<?xml version="1.0" encoding="utf-8" standalone="no"?>
<!DOCTYPE svg PUBLIC "-//W3C//DTD SVG 1.1//EN"
  "http://www.w3.org/Graphics/SVG/1.1/DTD/svg11.dtd">
<svg height="288pt" version="1.1" viewBox="0 0 432 288" width="432pt" xmlns="http://www.w3.org/2000/svg" xmlns:xlink="http://www.w3.org/1999/xlink">
 <metadata>
  <rdf:RDF xmlns:cc="http://creativecommons.org/ns#" xmlns:dc="http://purl.org/dc/elements/1.1/" xmlns:rdf="http://www.w3.org/1999/02/22-rdf-syntax-ns#">
   <cc:Work>
    <dc:type rdf:resource="http://purl.org/dc/dcmitype/StillImage"/>
    <dc:date>2021-09-16T19:05:48.816245</dc:date>
    <dc:format>image/svg+xml</dc:format>
    <dc:creator>
     <cc:Agent>
      <dc:title>Matplotlib v3.4.2, https://matplotlib.org/</dc:title>
     </cc:Agent>
    </dc:creator>
   </cc:Work>
  </rdf:RDF>
 </metadata>
 <defs>
  <style type="text/css">*{stroke-linecap:butt;stroke-linejoin:round;}</style>
 </defs>
 <g id="figure_1">
  <g id="patch_1">
   <path d="M 0 288 
L 432 288 
L 432 0 
L 0 0 
z
" style="fill:none;"/>
  </g>
  <g id="axes_1">
   <g id="patch_2">
    <path d="M 54 252 
L 388.8 252 
L 388.8 34.56 
L 54 34.56 
z
" style="fill:#ffffff;"/>
   </g>
   <g id="matplotlib.axis_1">
    <g id="xtick_1">
     <g id="line2d_1">
      <defs>
       <path d="M 0 0 
L 0 3.5 
" id="me7a86c94c2" style="stroke:#000000;stroke-width:0.8;"/>
      </defs>
      <g>
       <use style="stroke:#000000;stroke-width:0.8;" x="54" xlink:href="#me7a86c94c2" y="252"/>
      </g>
     </g>
     <g id="text_1">
      <!-- $\mathdefault{0.0}$ -->
      <g transform="translate(45.274709 268.685876)scale(0.14 -0.14)">
       <defs>
        <path d="M 2688 2025 
C 2688 2416 2682 3080 2413 3591 
C 2176 4039 1798 4198 1466 4198 
C 1158 4198 768 4058 525 3597 
C 269 3118 243 2524 243 2025 
C 243 1661 250 1106 448 619 
C 723 -39 1216 -128 1466 -128 
C 1760 -128 2208 -7 2470 600 
C 2662 1042 2688 1559 2688 2025 
z
M 1466 -26 
C 1056 -26 813 325 723 812 
C 653 1188 653 1738 653 2096 
C 653 2588 653 2997 736 3387 
C 858 3929 1216 4096 1466 4096 
C 1728 4096 2067 3923 2189 3400 
C 2272 3036 2278 2607 2278 2096 
C 2278 1680 2278 1169 2202 792 
C 2067 95 1690 -26 1466 -26 
z
" id="CMR17-30" transform="scale(0.015625)"/>
        <path d="M 1178 307 
C 1178 492 1024 619 870 619 
C 685 619 557 466 557 313 
C 557 128 710 0 864 0 
C 1050 0 1178 153 1178 307 
z
" id="CMMI12-3a" transform="scale(0.015625)"/>
       </defs>
       <use transform="scale(0.996264)" xlink:href="#CMR17-30"/>
       <use transform="translate(45.690477 0)scale(0.996264)" xlink:href="#CMMI12-3a"/>
       <use transform="translate(72.787654 0)scale(0.996264)" xlink:href="#CMR17-30"/>
      </g>
     </g>
    </g>
    <g id="xtick_2">
     <g id="line2d_2">
      <g>
       <use style="stroke:#000000;stroke-width:0.8;" x="117.634873" xlink:href="#me7a86c94c2" y="252"/>
      </g>
     </g>
     <g id="text_2">
      <!-- $\mathdefault{0.2}$ -->
      <g transform="translate(108.909582 268.685876)scale(0.14 -0.14)">
       <defs>
        <path d="M 2669 989 
L 2554 989 
C 2490 536 2438 459 2413 420 
C 2381 369 1920 369 1830 369 
L 602 369 
C 832 619 1280 1072 1824 1597 
C 2214 1967 2669 2402 2669 3035 
C 2669 3790 2067 4224 1395 4224 
C 691 4224 262 3604 262 3030 
C 262 2780 448 2748 525 2748 
C 589 2748 781 2787 781 3010 
C 781 3207 614 3264 525 3264 
C 486 3264 448 3258 422 3245 
C 544 3790 915 4058 1306 4058 
C 1862 4058 2227 3617 2227 3035 
C 2227 2479 1901 2000 1536 1584 
L 262 146 
L 262 0 
L 2515 0 
L 2669 989 
z
" id="CMR17-32" transform="scale(0.015625)"/>
       </defs>
       <use transform="scale(0.996264)" xlink:href="#CMR17-30"/>
       <use transform="translate(45.690477 0)scale(0.996264)" xlink:href="#CMMI12-3a"/>
       <use transform="translate(72.787654 0)scale(0.996264)" xlink:href="#CMR17-32"/>
      </g>
     </g>
    </g>
    <g id="xtick_3">
     <g id="line2d_3">
      <g>
       <use style="stroke:#000000;stroke-width:0.8;" x="181.269747" xlink:href="#me7a86c94c2" y="252"/>
      </g>
     </g>
     <g id="text_3">
      <!-- $\mathdefault{0.4}$ -->
      <g transform="translate(172.544456 268.685876)scale(0.14 -0.14)">
       <defs>
        <path d="M 2150 4122 
C 2150 4256 2144 4256 2029 4256 
L 128 1254 
L 128 1088 
L 1779 1088 
L 1779 457 
C 1779 224 1766 160 1318 160 
L 1197 160 
L 1197 0 
C 1402 0 1747 0 1965 0 
C 2182 0 2528 0 2733 0 
L 2733 160 
L 2611 160 
C 2163 160 2150 224 2150 457 
L 2150 1088 
L 2803 1088 
L 2803 1254 
L 2150 1254 
L 2150 4122 
z
M 1798 3703 
L 1798 1254 
L 256 1254 
L 1798 3703 
z
" id="CMR17-34" transform="scale(0.015625)"/>
       </defs>
       <use transform="scale(0.996264)" xlink:href="#CMR17-30"/>
       <use transform="translate(45.690477 0)scale(0.996264)" xlink:href="#CMMI12-3a"/>
       <use transform="translate(72.787654 0)scale(0.996264)" xlink:href="#CMR17-34"/>
      </g>
     </g>
    </g>
    <g id="xtick_4">
     <g id="line2d_4">
      <g>
       <use style="stroke:#000000;stroke-width:0.8;" x="244.90462" xlink:href="#me7a86c94c2" y="252"/>
      </g>
     </g>
     <g id="text_4">
      <!-- $\mathdefault{0.6}$ -->
      <g transform="translate(236.179329 268.685876)scale(0.14 -0.14)">
       <defs>
        <path d="M 678 2176 
C 678 3690 1395 4032 1811 4032 
C 1946 4032 2272 4009 2400 3776 
C 2298 3776 2106 3776 2106 3553 
C 2106 3381 2246 3323 2336 3323 
C 2394 3323 2566 3348 2566 3560 
C 2566 3954 2246 4179 1805 4179 
C 1043 4179 243 3390 243 1984 
C 243 253 966 -128 1478 -128 
C 2099 -128 2688 427 2688 1283 
C 2688 2081 2170 2662 1517 2662 
C 1126 2662 838 2407 678 1960 
L 678 2176 
z
M 1478 25 
C 691 25 691 1200 691 1436 
C 691 1896 909 2560 1504 2560 
C 1613 2560 1926 2560 2138 2120 
C 2253 1870 2253 1609 2253 1289 
C 2253 944 2253 690 2118 434 
C 1978 171 1773 25 1478 25 
z
" id="CMR17-36" transform="scale(0.015625)"/>
       </defs>
       <use transform="scale(0.996264)" xlink:href="#CMR17-30"/>
       <use transform="translate(45.690477 0)scale(0.996264)" xlink:href="#CMMI12-3a"/>
       <use transform="translate(72.787654 0)scale(0.996264)" xlink:href="#CMR17-36"/>
      </g>
     </g>
    </g>
    <g id="xtick_5">
     <g id="line2d_5">
      <g>
       <use style="stroke:#000000;stroke-width:0.8;" x="308.539494" xlink:href="#me7a86c94c2" y="252"/>
      </g>
     </g>
     <g id="text_5">
      <!-- $\mathdefault{0.8}$ -->
      <g transform="translate(299.814203 268.685876)scale(0.14 -0.14)">
       <defs>
        <path d="M 1741 2264 
C 2144 2467 2554 2773 2554 3263 
C 2554 3841 1990 4179 1472 4179 
C 890 4179 378 3759 378 3180 
C 378 3021 416 2747 666 2505 
C 730 2442 998 2251 1171 2130 
C 883 1983 211 1634 211 934 
C 211 279 838 -128 1459 -128 
C 2144 -128 2720 362 2720 1010 
C 2720 1590 2330 1857 2074 2029 
L 1741 2264 
z
M 902 2822 
C 851 2854 595 3051 595 3351 
C 595 3739 998 4032 1459 4032 
C 1965 4032 2336 3676 2336 3262 
C 2336 2669 1670 2331 1638 2331 
C 1632 2331 1626 2331 1574 2370 
L 902 2822 
z
M 2080 1519 
C 2176 1449 2483 1240 2483 851 
C 2483 381 2010 25 1472 25 
C 890 25 448 438 448 940 
C 448 1443 838 1862 1280 2060 
L 2080 1519 
z
" id="CMR17-38" transform="scale(0.015625)"/>
       </defs>
       <use transform="scale(0.996264)" xlink:href="#CMR17-30"/>
       <use transform="translate(45.690477 0)scale(0.996264)" xlink:href="#CMMI12-3a"/>
       <use transform="translate(72.787654 0)scale(0.996264)" xlink:href="#CMR17-38"/>
      </g>
     </g>
    </g>
    <g id="xtick_6">
     <g id="line2d_6">
      <g>
       <use style="stroke:#000000;stroke-width:0.8;" x="372.174367" xlink:href="#me7a86c94c2" y="252"/>
      </g>
     </g>
     <g id="text_6">
      <!-- $\mathdefault{1.0}$ -->
      <g transform="translate(363.449076 268.685876)scale(0.14 -0.14)">
       <defs>
        <path d="M 1702 4058 
C 1702 4192 1696 4192 1606 4192 
C 1357 3916 979 3827 621 3827 
C 602 3827 570 3827 563 3808 
C 557 3795 557 3782 557 3648 
C 755 3648 1088 3686 1344 3839 
L 1344 461 
C 1344 236 1331 160 781 160 
L 589 160 
L 589 0 
C 896 0 1216 0 1523 0 
C 1830 0 2150 0 2458 0 
L 2458 160 
L 2266 160 
C 1715 160 1702 230 1702 458 
L 1702 4058 
z
" id="CMR17-31" transform="scale(0.015625)"/>
       </defs>
       <use transform="scale(0.996264)" xlink:href="#CMR17-31"/>
       <use transform="translate(45.690477 0)scale(0.996264)" xlink:href="#CMMI12-3a"/>
       <use transform="translate(72.787654 0)scale(0.996264)" xlink:href="#CMR17-30"/>
      </g>
     </g>
    </g>
    <g id="text_7">
     <!-- $z/z_n$ -->
     <g transform="translate(208.30425 285.858677)scale(0.14 -0.14)">
      <defs>
       <path d="M 813 486 
C 1088 803 1312 1004 1632 1296 
C 2016 1632 2182 1793 2272 1891 
C 2720 2338 2944 2713 2944 2764 
C 2944 2816 2893 2816 2880 2816 
C 2835 2816 2822 2793 2790 2750 
C 2630 2494 2477 2367 2310 2367 
C 2176 2367 2106 2421 1984 2565 
C 1850 2715 1741 2816 1555 2816 
C 1088 2816 806 2257 806 2128 
C 806 2108 813 2068 870 2068 
C 922 2068 928 2091 947 2133 
C 1056 2372 1363 2414 1485 2414 
C 1619 2414 1747 2376 1882 2327 
C 2125 2240 2227 2240 2291 2240 
C 2336 2240 2362 2240 2394 2246 
C 2182 1994 1837 1683 1549 1418 
L 902 816 
C 512 415 275 33 275 -12 
C 275 -51 307 -64 346 -64 
C 384 -64 390 -57 435 14 
C 538 163 742 384 979 384 
C 1114 384 1178 342 1306 193 
C 1427 61 1536 -64 1741 -64 
C 2368 -64 2726 732 2726 876 
C 2726 903 2720 942 2656 942 
C 2605 942 2598 917 2579 855 
C 2438 488 2061 338 1811 338 
C 1677 338 1549 376 1414 425 
C 1158 512 1088 512 1005 512 
C 941 512 870 512 813 486 
z
" id="CMMI12-7a" transform="scale(0.015625)"/>
       <path d="M 2746 4562 
C 2746 4569 2784 4666 2784 4678 
C 2784 4755 2720 4800 2669 4800 
C 2637 4800 2579 4800 2528 4659 
L 384 -1363 
C 384 -1370 346 -1465 346 -1478 
C 346 -1555 410 -1600 461 -1600 
C 499 -1600 557 -1593 602 -1459 
L 2746 4562 
z
" id="CMMI12-3d" transform="scale(0.015625)"/>
       <path d="M 1318 1871 
C 1331 1910 1491 2229 1728 2433 
C 1894 2586 2112 2689 2362 2689 
C 2618 2689 2707 2497 2707 2242 
C 2707 1878 2445 1150 2317 805 
C 2259 651 2227 568 2227 453 
C 2227 166 2426 -64 2733 -64 
C 3328 -64 3552 875 3552 913 
C 3552 945 3526 971 3488 971 
C 3430 971 3424 952 3392 843 
C 3245 319 3002 64 2752 64 
C 2688 64 2586 64 2586 269 
C 2586 429 2656 621 2694 710 
C 2822 1063 3091 1780 3091 2145 
C 3091 2528 2867 2816 2381 2816 
C 1811 2816 1510 2415 1395 2255 
C 1376 2618 1114 2816 832 2816 
C 627 2816 486 2695 378 2478 
C 262 2248 173 1865 173 1839 
C 173 1814 198 1782 243 1782 
C 294 1782 301 1788 339 1935 
C 442 2325 557 2689 813 2689 
C 960 2689 1011 2586 1011 2395 
C 1011 2254 947 2005 902 1807 
L 723 1118 
C 698 996 627 709 595 594 
C 550 428 480 128 480 96 
C 480 6 550 -64 646 -64 
C 723 -64 813 -26 864 70 
C 877 102 934 326 966 453 
L 1107 1028 
L 1318 1871 
z
" id="CMMI12-6e" transform="scale(0.015625)"/>
      </defs>
      <use transform="scale(0.996264)" xlink:href="#CMMI12-7a"/>
      <use transform="translate(49.755145 0)scale(0.996264)" xlink:href="#CMMI12-3d"/>
      <use transform="translate(98.530064 0)scale(0.996264)" xlink:href="#CMMI12-7a"/>
      <use transform="translate(143.845817 -14.943915)scale(0.697382)" xlink:href="#CMMI12-6e"/>
     </g>
    </g>
   </g>
   <g id="matplotlib.axis_2">
    <g id="ytick_1">
     <g id="line2d_7">
      <defs>
       <path d="M 0 0 
L -3.5 0 
" id="m20dd6323a6" style="stroke:#000000;stroke-width:0.8;"/>
      </defs>
      <g>
       <use style="stroke:#000000;stroke-width:0.8;" x="54" xlink:href="#m20dd6323a6" y="252"/>
      </g>
     </g>
     <g id="text_8">
      <!-- $\mathdefault{0}$ -->
      <g transform="translate(40.171511 256.842938)scale(0.14 -0.14)">
       <use transform="scale(0.996264)" xlink:href="#CMR17-30"/>
      </g>
     </g>
    </g>
    <g id="ytick_2">
     <g id="line2d_8">
      <g>
       <use style="stroke:#000000;stroke-width:0.8;" x="54" xlink:href="#m20dd6323a6" y="195.592541"/>
      </g>
     </g>
     <g id="text_9">
      <!-- $\mathdefault{2}$ -->
      <g transform="translate(40.171511 200.435479)scale(0.14 -0.14)">
       <use transform="scale(0.996264)" xlink:href="#CMR17-32"/>
      </g>
     </g>
    </g>
    <g id="ytick_3">
     <g id="line2d_9">
      <g>
       <use style="stroke:#000000;stroke-width:0.8;" x="54" xlink:href="#m20dd6323a6" y="139.185081"/>
      </g>
     </g>
     <g id="text_10">
      <!-- $\mathdefault{4}$ -->
      <g transform="translate(40.171511 144.02802)scale(0.14 -0.14)">
       <use transform="scale(0.996264)" xlink:href="#CMR17-34"/>
      </g>
     </g>
    </g>
    <g id="ytick_4">
     <g id="line2d_10">
      <g>
       <use style="stroke:#000000;stroke-width:0.8;" x="54" xlink:href="#m20dd6323a6" y="82.777622"/>
      </g>
     </g>
     <g id="text_11">
      <!-- $\mathdefault{6}$ -->
      <g transform="translate(40.171511 87.62056)scale(0.14 -0.14)">
       <use transform="scale(0.996264)" xlink:href="#CMR17-36"/>
      </g>
     </g>
    </g>
   </g>
   <g id="line2d_11">
    <path clip-path="url(#p88b8ac4ce0)" d="M 54 252 
L 54.081758 251.590518 
L 54.245275 248.455904 
L 55.062857 223.749184 
L 55.144615 224.141695 
L 55.308132 227.241856 
L 56.125714 251.99885 
L 56.207473 251.633782 
L 56.370989 248.585165 
L 56.77978 233.091542 
L 57.106813 224.161204 
L 57.188571 223.659091 
L 57.27033 223.971557 
L 57.433846 226.921782 
L 57.842637 242.330062 
L 58.16967 251.421283 
L 58.251429 251.984617 
L 58.333187 251.735327 
L 58.496703 248.901709 
L 58.905495 233.570803 
L 59.232527 224.243357 
L 59.314286 223.593992 
L 59.396044 223.754687 
L 59.55956 226.423021 
L 59.886593 238.248341 
L 60.295385 251.181589 
L 60.377143 251.926709 
L 60.458901 251.865252 
L 60.622418 249.382267 
L 60.949451 237.728153 
L 61.358242 224.45926 
L 61.521758 223.530836 
L 61.685275 225.777446 
L 62.012308 237.184234 
L 62.421099 250.781374 
L 62.584615 251.973667 
L 62.748132 249.985591 
L 62.993407 242.181222 
L 63.483956 224.864507 
L 63.647473 223.360206 
L 63.729231 223.807793 
L 63.892747 226.97683 
L 64.71033 251.989913 
L 64.792088 251.714139 
L 64.955604 248.854918 
L 65.364396 233.526305 
L 65.691429 224.04655 
L 65.773187 223.323831 
L 65.854945 223.401288 
L 66.018462 225.894072 
L 66.345495 237.519434 
L 66.754286 250.898732 
L 66.917802 251.954435 
L 67.081319 249.855414 
L 67.408352 238.628799 
L 67.817143 224.669117 
L 67.980659 223.156408 
L 68.062418 223.591335 
L 68.225934 226.723327 
L 68.634725 242.229908 
L 68.961758 251.363213 
L 69.043516 251.972048 
L 69.125275 251.782906 
L 69.288791 249.096095 
L 69.615824 237.296311 
L 70.024615 224.072014 
L 70.188132 223.114414 
L 70.351648 225.291257 
L 70.678681 236.571213 
L 71.087473 250.489986 
L 71.250989 251.999353 
L 71.332747 251.569158 
L 71.496264 248.455821 
L 71.905055 232.957453 
L 72.232088 223.667473 
L 72.313846 222.995089 
L 72.395604 223.115346 
L 72.559121 225.663598 
L 72.886154 237.305218 
L 73.294945 250.79198 
L 73.458462 251.975664 
L 73.621978 250.032712 
L 73.867253 242.334213 
L 74.43956 223.40083 
L 74.521319 222.854101 
L 74.603077 223.098962 
L 74.766593 225.867114 
L 75.093626 237.704635 
L 75.502418 250.93867 
L 75.665934 251.949857 
L 75.829451 249.851004 
L 76.156484 238.683299 
L 76.565275 224.498568 
L 76.728791 222.738037 
L 76.810549 223.028034 
L 76.974066 225.870158 
L 77.301099 237.763818 
L 77.70989 250.952962 
L 77.873407 251.947704 
L 78.036923 249.843997 
L 78.363956 238.686224 
L 78.772747 224.451359 
L 78.936264 222.633043 
L 79.018022 222.888617 
L 79.181538 225.660516 
L 79.508571 237.477747 
L 79.917363 250.836054 
L 80.080879 251.971207 
L 80.244396 250.014189 
L 80.48967 242.340434 
L 81.061978 223.189749 
L 81.143736 222.549406 
L 81.225495 222.69053 
L 81.389011 225.245224 
L 81.716044 236.841107 
L 82.124835 250.566588 
L 82.288352 251.997859 
L 82.37011 251.549409 
L 82.533626 248.441704 
L 82.942418 232.981846 
L 83.269451 223.350155 
L 83.432967 222.468323 
L 83.596484 224.652071 
L 83.923516 235.850241 
L 84.332308 250.100986 
L 84.495824 251.979785 
L 84.577582 251.767029 
L 84.741099 249.092449 
L 85.068132 237.390395 
L 85.476923 223.701407 
L 85.64044 222.282538 
L 85.722198 222.730732 
L 85.885714 225.825316 
L 86.294505 241.248837 
L 86.621538 250.970494 
L 86.785055 251.94806 
L 86.948571 249.872535 
L 87.275604 238.808795 
L 87.766154 222.902563 
L 87.847912 222.220571 
L 87.92967 222.310214 
L 88.093187 224.745126 
L 88.42022 236.177943 
L 88.829011 250.240708 
L 88.992527 251.991228 
L 89.074286 251.720629 
L 89.237802 248.956905 
L 89.564835 237.194802 
L 89.973626 223.500442 
L 90.137143 222.044909 
L 90.218901 222.465364 
L 90.382418 225.494505 
L 90.791209 240.848869 
L 91.118242 250.797491 
L 91.281758 251.98053 
L 91.445275 250.127192 
L 91.690549 242.62631 
L 92.262857 222.943823 
L 92.426374 221.974412 
L 92.58989 224.028736 
L 92.916923 235.01944 
L 93.407473 251.12785 
L 93.570989 251.908511 
L 93.734505 249.679101 
L 94.061538 238.494866 
L 94.552088 222.578222 
L 94.633846 221.870941 
L 94.715604 221.925486 
L 94.879121 224.269662 
L 95.206154 235.561553 
L 95.614945 249.909755 
L 95.778462 251.949663 
L 95.86022 251.844362 
L 96.023736 249.40951 
L 96.350769 238.020936 
L 96.75956 223.717385 
L 96.923077 221.718682 
L 97.004835 221.843597 
L 97.168352 224.309805 
L 97.495385 235.714976 
L 97.904176 249.977372 
L 98.067692 251.959013 
L 98.149451 251.827699 
L 98.312967 249.353294 
L 98.64 237.938614 
L 99.048791 223.62276 
L 99.212308 221.597772 
L 99.294066 221.704151 
L 99.457582 224.127324 
L 99.784615 235.47152 
L 100.275165 251.250052 
L 100.356923 251.936088 
L 100.438681 251.867849 
L 100.602198 249.519348 
L 100.929231 238.254647 
L 101.41978 222.267434 
L 101.583297 221.51325 
L 101.746813 223.726314 
L 102.073846 234.825782 
L 102.564396 251.026906 
L 102.727912 251.942918 
L 102.891429 249.890124 
L 103.136703 242.257663 
L 103.709011 222.448775 
L 103.872527 221.308877 
L 104.036044 223.138386 
L 104.281319 230.529741 
L 104.853626 250.610627 
L 105.017143 251.998374 
L 105.098901 251.573783 
L 105.262418 248.590199 
L 105.671209 233.32615 
L 105.998242 222.858215 
L 106.161758 221.162391 
L 106.243516 221.426368 
L 106.407033 224.113502 
L 106.734066 235.685271 
L 107.142857 249.921317 
L 107.306374 251.945731 
L 107.388132 251.856066 
L 107.551648 249.494422 
L 107.878681 238.265582 
L 108.369231 222.034964 
L 108.532747 221.062247 
L 108.696264 223.029469 
L 108.941538 230.533029 
L 109.513846 250.597886 
L 109.677363 251.99913 
L 109.759121 251.591127 
L 109.922637 248.654694 
L 110.24967 236.847484 
L 110.658462 222.797922 
L 110.821978 220.91137 
L 110.903736 221.066311 
L 111.067253 223.534892 
L 111.394286 234.845497 
L 111.884835 250.996871 
L 112.048352 251.954675 
L 112.211868 249.991419 
L 112.457143 242.510366 
L 113.029451 222.281731 
L 113.192967 220.739814 
L 113.274725 221.06848 
L 113.438242 223.846949 
L 113.765275 235.465442 
L 114.174066 249.776602 
L 114.337582 251.914726 
L 114.419341 251.89997 
L 114.582857 249.706216 
L 114.90989 238.719391 
L 115.40044 221.98093 
L 115.563956 220.595987 
L 115.645714 221.000027 
L 115.809231 223.906208 
L 116.136264 235.637393 
L 116.545055 249.852864 
L 116.708571 251.928163 
L 116.79033 251.885175 
L 116.953846 249.647816 
L 117.280879 238.629964 
L 117.771429 221.868858 
L 117.934945 220.449007 
L 118.016703 220.830196 
L 118.18022 223.685986 
L 118.507253 235.351572 
L 118.997802 251.139896 
L 119.161319 251.921737 
L 119.324835 249.82732 
L 119.651868 238.994763 
L 120.142418 221.954391 
L 120.305934 220.307506 
L 120.387692 220.566951 
L 120.551209 223.191351 
L 120.878242 234.600559 
L 121.368791 250.867169 
L 121.532308 251.980988 
L 121.695824 250.220956 
L 121.941099 243.018823 
L 122.595165 220.906203 
L 122.676923 220.221146 
L 122.758681 220.25878 
L 122.922198 222.461484 
L 123.249231 233.382099 
L 123.73978 250.355638 
L 123.903297 251.992286 
L 123.985055 251.735454 
L 124.148571 249.12915 
L 124.475604 237.755918 
L 124.966154 221.275649 
L 125.12967 219.997313 
L 125.211429 220.435178 
L 125.374945 223.365921 
L 125.701978 235.059731 
L 126.192527 251.010849 
L 126.356044 251.958775 
L 126.51956 250.063653 
L 126.764835 242.751086 
L 127.418901 220.621937 
L 127.500659 219.91925 
L 127.582418 219.931841 
L 127.745934 222.067735 
L 128.072967 232.868959 
L 128.563516 250.094019 
L 128.727033 251.962105 
L 128.808791 251.836074 
L 128.972308 249.491595 
L 129.299341 238.44803 
L 129.78989 221.410097 
L 129.953407 219.691471 
L 130.035165 219.892896 
L 130.198681 222.371894 
L 130.525714 233.548889 
L 131.016264 250.394514 
L 131.17978 251.993448 
L 131.261538 251.732961 
L 131.425055 249.14888 
L 131.752088 237.854743 
L 132.242637 221.067572 
L 132.406154 219.513932 
L 132.487912 219.795237 
L 132.651429 222.41186 
L 132.978462 233.72243 
L 133.469011 250.457516 
L 133.632527 251.996612 
L 133.714286 251.710678 
L 133.877802 249.089569 
L 134.204835 237.773469 
L 134.695385 220.949632 
L 134.858901 219.349705 
L 134.940659 219.60176 
L 135.104176 222.154566 
L 135.431209 233.375187 
L 135.921758 250.292536 
L 136.085275 251.983709 
L 136.167033 251.781744 
L 136.330549 249.325854 
L 136.657582 238.214925 
L 137.148132 221.069405 
L 137.311648 219.211928 
L 137.393407 219.324857 
L 137.556923 221.608849 
L 137.883956 232.50004 
L 138.374505 249.863356 
L 138.538022 251.915699 
L 138.61978 251.90809 
L 138.783297 249.826884 
L 139.028571 242.403481 
L 139.682637 219.996527 
L 139.846154 219.028916 
L 140.00967 220.828845 
L 140.254945 227.936607 
L 140.909011 250.717097 
L 141.072527 251.99804 
L 141.154286 251.596559 
L 141.317802 248.793704 
L 141.644835 237.335854 
L 142.135385 220.501928 
L 142.298901 218.833498 
L 142.380659 219.033588 
L 142.544176 221.459518 
L 142.871209 232.473786 
L 143.361758 249.823672 
L 143.525275 251.903585 
L 143.607033 251.921704 
L 143.770549 249.91047 
L 144.015824 242.597247 
L 144.66989 219.872628 
L 144.833407 218.638645 
L 144.915165 219.055629 
L 145.078681 221.87046 
L 145.405714 233.301664 
L 145.896264 250.205816 
L 146.05978 251.969786 
L 146.141538 251.827985 
L 146.305055 249.525821 
L 146.632088 238.68112 
L 147.204396 219.5002 
L 147.367912 218.469479 
L 147.531429 220.164377 
L 147.776703 227.09895 
L 148.512527 251.475411 
L 148.594286 251.980715 
L 148.676044 251.799328 
L 148.83956 249.433858 
L 149.166593 238.53626 
L 149.738901 219.338035 
L 149.902418 218.273809 
L 150.065934 219.921013 
L 150.311209 226.782351 
L 151.047033 251.375295 
L 151.128791 251.957079 
L 151.210549 251.857015 
L 151.374066 249.654871 
L 151.701099 238.978783 
L 152.273407 219.397444 
L 152.436923 218.062169 
L 152.518681 218.410371 
L 152.682198 221.067883 
L 153.009231 232.262308 
L 153.49978 249.65896 
L 153.663297 251.855554 
L 153.745055 251.95857 
L 153.908571 250.153589 
L 154.153846 243.141863 
L 154.88967 218.504159 
L 154.971429 217.910857 
L 155.053187 217.993365 
L 155.216703 220.14503 
L 155.543736 230.711625 
L 156.116044 250.480625 
L 156.27956 251.993985 
L 156.361319 251.745982 
L 156.524835 249.289116 
L 156.851868 238.352054 
L 157.424176 218.932403 
L 157.587692 217.658175 
L 157.669451 218.025572 
L 157.832967 220.696673 
L 158.16 231.862489 
L 158.650549 249.418528 
L 158.895824 251.987047 
L 158.977582 251.520256 
L 159.141099 248.67155 
L 159.468132 237.303747 
L 159.958681 219.876933 
L 160.203956 217.473804 
L 160.367473 219.161959 
L 160.612747 225.98613 
L 161.348571 251.076709 
L 161.512088 251.963108 
L 161.675604 250.210732 
L 161.920879 243.31987 
L 162.656703 218.171319 
L 162.82022 217.266062 
L 162.983736 218.991804 
L 163.229011 225.836862 
L 163.964835 251.013171 
L 164.128352 251.975809 
L 164.291868 250.313771 
L 164.537143 243.54671 
L 165.272967 218.133064 
L 165.436484 217.020079 
L 165.518242 217.450807 
L 165.681758 220.204678 
L 166.008791 231.397119 
L 166.581099 250.699238 
L 166.744615 251.999995 
L 166.826374 251.667723 
L 166.98989 249.099758 
L 167.316923 238.126473 
L 167.889231 218.382314 
L 168.052747 216.801862 
L 168.134505 216.987806 
L 168.298022 219.276333 
L 168.625055 229.883144 
L 169.197363 250.033488 
L 169.360879 251.927476 
L 169.442637 251.907818 
L 169.606154 249.938775 
L 169.851429 242.870311 
L 170.587253 217.60241 
L 170.750769 216.567613 
L 170.832527 217.025138 
L 170.996044 219.805146 
L 171.323077 230.980338 
L 171.895385 250.501682 
L 172.058901 251.99184 
L 172.140659 251.769229 
L 172.304176 249.429013 
L 172.631209 238.787452 
L 173.203516 218.463142 
L 173.367033 216.431179 
L 173.448791 216.369135 
L 173.612308 218.16283 
L 173.857582 224.995755 
L 174.675165 251.632939 
L 174.756923 251.998588 
L 174.838681 251.718005 
L 175.002198 249.281581 
L 175.329231 238.547077 
L 175.901538 218.237113 
L 176.065055 216.193492 
L 176.146813 216.11877 
L 176.31033 217.875509 
L 176.555604 224.643259 
L 177.373187 251.538712 
L 177.454945 251.987167 
L 177.536703 251.794221 
L 177.70022 249.534159 
L 178.027253 239.051002 
L 178.59956 218.390163 
L 178.844835 215.825267 
L 178.926593 216.230942 
L 179.09011 218.879931 
L 179.417143 229.82315 
L 179.989451 249.936687 
L 180.152967 251.897894 
L 180.234725 251.939684 
L 180.398242 250.138313 
L 180.643516 243.349543 
L 181.461099 216.137772 
L 181.542857 215.599474 
L 181.624615 215.695013 
L 181.788132 217.751251 
L 182.033407 224.810147 
L 182.769231 250.525944 
L 182.932747 251.990827 
L 183.014505 251.781843 
L 183.178022 249.516891 
L 183.505055 239.086952 
L 184.159121 216.641107 
L 184.322637 215.295914 
L 184.404396 215.562918 
L 184.567912 217.92926 
L 184.894945 228.463383 
L 185.549011 250.729139 
L 185.712527 251.99987 
L 185.794286 251.69851 
L 185.957802 249.273325 
L 186.284835 238.667353 
L 186.938901 216.326929 
L 187.102418 215.020495 
L 187.184176 215.300329 
L 187.347692 217.677734 
L 187.674725 228.195591 
L 188.328791 250.607686 
L 188.492308 251.995212 
L 188.574066 251.760473 
L 188.737582 249.473106 
L 189.064615 239.075957 
L 189.718681 216.34153 
L 189.882198 214.762281 
L 189.963956 214.895218 
L 190.127473 216.982858 
L 190.372747 224.005505 
L 191.19033 251.317279 
L 191.353846 251.918737 
L 191.517363 250.076284 
L 191.762637 243.339033 
L 192.58022 215.42065 
L 192.743736 214.459453 
L 192.907253 215.941284 
L 193.152527 222.236858 
L 194.051868 251.614333 
L 194.133626 251.995472 
L 194.215385 251.762838 
L 194.378901 249.506256 
L 194.705934 239.214623 
L 195.36 216.112178 
L 195.523516 214.238657 
L 195.605275 214.204495 
L 195.768791 215.945481 
L 196.014066 222.51981 
L 196.913407 251.675625 
L 196.995165 251.999683 
L 197.076923 251.714746 
L 197.24044 249.373584 
L 197.567473 239.003339 
L 198.221538 215.867058 
L 198.385055 213.945907 
L 198.466813 213.879471 
L 198.63033 215.543989 
L 198.875604 222.001328 
L 199.774945 251.543797 
L 199.856703 251.984 
L 199.938462 251.820697 
L 200.101978 249.722992 
L 200.429011 239.715244 
L 201.164835 214.652466 
L 201.328352 213.512308 
L 201.41011 213.840255 
L 201.573626 216.239893 
L 201.900659 226.623946 
L 202.554725 249.814668 
L 202.8 251.977133 
L 202.963516 250.465431 
L 203.208791 244.226958 
L 204.18989 213.287121 
L 204.271648 213.226688 
L 204.435165 214.873439 
L 204.68044 221.25321 
L 205.57978 251.312101 
L 205.743297 251.932821 
L 205.906813 250.204697 
L 206.152088 243.736746 
L 207.051429 213.551639 
L 207.214945 212.892203 
L 207.378462 214.572069 
L 207.623736 220.962081 
L 208.523077 251.208964 
L 208.686593 251.962439 
L 208.85011 250.383989 
L 209.095385 244.124236 
L 210.076484 212.685782 
L 210.158242 212.485317 
L 210.24 212.870406 
L 210.403516 215.33344 
L 210.730549 225.694772 
L 211.384615 249.273092 
L 211.62989 251.997603 
L 211.711648 251.758751 
L 211.875165 249.576799 
L 212.202198 239.60354 
L 212.938022 213.842024 
L 213.101538 212.169047 
L 213.183297 212.192764 
L 213.346813 213.955729 
L 213.592088 220.384773 
L 214.573187 251.776463 
L 214.654945 251.995795 
L 214.736703 251.637575 
L 214.90022 249.246078 
L 215.227253 239.024013 
L 215.963077 213.393864 
L 216.126593 211.775102 
L 216.208352 211.818606 
L 216.371868 213.60375 
L 216.617143 220.028449 
L 217.598242 251.700647 
L 217.68 251.999848 
L 217.761758 251.726948 
L 217.925275 249.511619 
L 218.252308 239.572296 
L 218.988132 213.446009 
L 219.233407 211.341099 
L 219.396923 212.748673 
L 219.642198 218.683593 
L 220.705055 251.918711 
L 220.786813 251.938732 
L 220.95033 250.299671 
L 221.195604 244.091999 
L 222.176703 211.501801 
L 222.258462 210.965545 
L 222.34022 210.991359 
L 222.503736 212.709768 
L 222.749011 218.99053 
L 223.73011 251.427052 
L 223.811868 251.947742 
L 223.893626 251.909225 
L 224.057143 250.173881 
L 224.302418 243.882495 
L 225.283516 211.140757 
L 225.447033 210.530391 
L 225.610549 212.129118 
L 225.855824 218.230989 
L 226.918681 251.853075 
L 227.00044 251.979355 
L 227.163956 250.580806 
L 227.409231 244.736999 
L 228.472088 210.326526 
L 228.553846 210.021732 
L 228.635604 210.268617 
L 228.799121 212.375925 
L 229.126154 221.995287 
L 229.943736 250.382997 
L 230.107253 251.946559 
L 230.189011 251.914145 
L 230.352527 250.225083 
L 230.597802 244.058179 
L 231.660659 209.811451 
L 231.742418 209.54803 
L 231.824176 209.830162 
L 231.987692 211.987021 
L 232.314725 221.630592 
L 233.132308 250.201439 
L 233.295824 251.905201 
L 233.377582 251.954501 
L 233.541099 250.441671 
L 233.786374 244.527972 
L 234.930989 209.087729 
L 235.012747 209.163686 
L 235.176264 210.908844 
L 235.421538 217.083558 
L 236.484396 251.616122 
L 236.566154 251.989553 
L 236.647912 251.827119 
L 236.811429 249.92395 
L 237.056703 243.567808 
L 238.11956 208.919392 
L 238.201319 208.544876 
L 238.283077 208.703039 
L 238.446593 210.587656 
L 238.691868 216.895385 
L 239.754725 251.56509 
L 239.836484 251.978847 
L 239.918242 251.863485 
L 240.081758 250.069297 
L 240.327033 243.882865 
L 241.471648 208.06506 
L 241.553407 208.045037 
L 241.716923 209.567036 
L 241.962198 215.389791 
L 242.616264 240.744577 
L 243.025055 251.089878 
L 243.188571 251.995588 
L 243.27033 251.666423 
L 243.433846 249.482684 
L 243.760879 239.96109 
L 244.66022 208.884302 
L 244.823736 207.454548 
L 244.905495 207.512631 
L 245.069011 209.166356 
L 245.314286 215.113359 
L 246.458901 251.748565 
L 246.540659 251.999957 
L 246.622418 251.735205 
L 246.785934 249.693321 
L 247.112967 240.437188 
L 248.012308 208.770039 
L 248.257582 206.822982 
L 248.421099 208.062142 
L 248.666374 213.443262 
L 249.156923 232.077827 
L 249.647473 248.66575 
L 249.892747 251.888501 
L 249.974505 251.970778 
L 250.138022 250.619449 
L 250.383297 245.109636 
L 250.873846 226.343414 
L 251.364396 209.641347 
L 251.60967 206.313631 
L 251.691429 206.188034 
L 251.854945 207.443368 
L 252.10022 212.801104 
L 252.590769 231.371458 
L 253.081319 248.234016 
L 253.326593 251.785186 
L 253.408352 251.998589 
L 253.49011 251.71012 
L 253.653626 249.663392 
L 253.980659 240.516073 
L 254.961758 206.82773 
L 255.125275 205.521239 
L 255.207033 205.61041 
L 255.370549 207.262375 
L 255.615824 213.080117 
L 256.188132 235.26455 
L 256.678681 250.067851 
L 256.923956 251.991309 
L 257.005714 251.651712 
L 257.169231 249.52857 
L 257.496264 240.326034 
L 258.477363 206.342233 
L 258.640879 204.848065 
L 258.722637 204.82991 
L 258.886154 206.251603 
L 259.131429 211.730952 
L 259.621978 230.295127 
L 260.194286 249.295753 
L 260.43956 251.967917 
L 260.521319 251.901071 
L 260.684835 250.324324 
L 260.93011 244.662577 
L 261.420659 225.916984 
L 261.992967 206.81432 
L 262.238242 204.058491 
L 262.32 204.089193 
L 262.483516 205.583241 
L 262.728791 211.107338 
L 263.219341 229.652448 
L 263.791648 248.927349 
L 264.036923 251.908344 
L 264.118681 251.965083 
L 264.282198 250.65234 
L 264.527473 245.379415 
L 265.018022 227.012832 
L 265.59033 207.024241 
L 265.835604 203.464836 
L 265.917363 203.196561 
L 265.999121 203.403074 
L 266.162637 205.21381 
L 266.407912 211.091482 
L 266.98022 233.208915 
L 267.470769 248.962903 
L 267.716044 251.907235 
L 267.797802 251.967306 
L 267.961319 250.685112 
L 268.206593 245.503463 
L 268.615385 230.69026 
L 269.269451 206.85544 
L 269.514725 202.82583 
L 269.678242 202.384716 
L 269.841758 203.795006 
L 270.087033 209.10932 
L 270.577582 227.347465 
L 271.14989 247.56594 
L 271.395165 251.51874 
L 271.476923 251.954324 
L 271.558681 251.928564 
L 271.722198 250.503391 
L 271.967473 245.188295 
L 272.458022 226.918716 
L 273.03033 206.322132 
L 273.275604 202.053692 
L 273.439121 201.396106 
L 273.602637 202.55967 
L 273.847912 207.495784 
L 274.256703 221.929252 
L 274.992527 248.224691 
L 275.237802 251.710662 
L 275.31956 251.996163 
L 275.401319 251.828365 
L 275.564835 250.152737 
L 275.81011 244.567615 
L 276.300659 226.124218 
L 276.872967 205.515493 
L 277.2 200.530306 
L 277.281758 200.364315 
L 277.363516 200.646993 
L 277.527033 202.529491 
L 277.772308 208.34201 
L 278.262857 226.874452 
L 278.835165 247.132007 
L 279.162198 251.873474 
L 279.243956 251.986602 
L 279.407473 250.886605 
L 279.652747 246.115437 
L 280.061538 231.920408 
L 280.879121 202.697925 
L 281.124396 199.47438 
L 281.206154 199.255754 
L 281.287912 199.476534 
L 281.451429 201.212802 
L 281.696703 206.780908 
L 282.187253 225.017568 
L 282.841319 247.900251 
L 283.086593 251.575647 
L 283.168352 251.96548 
L 283.25011 251.921268 
L 283.413626 250.540632 
L 283.658901 245.457719 
L 284.067692 231.043724 
L 284.885275 201.743483 
L 285.130549 198.354084 
L 285.212308 198.057736 
L 285.294066 198.190951 
L 285.457582 199.729184 
L 285.702857 204.978728 
L 286.193407 222.812819 
L 286.847473 246.544529 
L 287.174505 251.717092 
L 287.256264 251.994916 
L 287.338022 251.848235 
L 287.501538 250.297019 
L 287.746813 245.05245 
L 288.155604 230.57065 
L 288.973187 200.962452 
L 289.218462 197.227844 
L 289.381978 196.768603 
L 289.545495 197.977022 
L 289.790769 202.723486 
L 290.19956 216.599142 
L 291.098901 248.533661 
L 291.344176 251.734416 
L 291.425934 251.996344 
L 291.507692 251.844263 
L 291.671209 250.313139 
L 291.916484 245.161538 
L 292.325275 230.868823 
L 293.142857 200.606817 
L 293.46989 195.551368 
L 293.551648 195.26879 
L 293.633407 195.394717 
L 293.796923 196.857302 
L 294.042198 201.87265 
L 294.450989 215.915857 
L 295.35033 248.075804 
L 295.595604 251.569624 
L 295.759121 251.941738 
L 295.922637 250.710851 
L 296.167912 246.032273 
L 296.576703 232.346141 
L 297.557802 197.171104 
L 297.803077 193.944437 
L 297.884835 193.641767 
L 297.966593 193.736143 
L 298.13011 195.103789 
L 298.375385 199.918485 
L 298.784176 213.632731 
L 299.683516 246.668727 
L 300.010549 251.669929 
L 300.092308 251.982439 
L 300.174066 251.90395 
L 300.337582 250.583253 
L 300.582857 245.860086 
L 300.991648 232.250476 
L 301.972747 196.365566 
L 302.29978 191.956501 
L 302.381538 191.789915 
L 302.463297 192.008289 
L 302.626813 193.582096 
L 302.872088 198.593755 
L 303.280879 212.389552 
L 304.261978 247.676397 
L 304.589011 251.86823 
L 304.670769 251.994779 
L 304.752527 251.742658 
L 304.916044 250.119487 
L 305.161319 245.070327 
L 305.57011 231.23565 
L 306.551209 195.007302 
L 306.878242 190.066024 
L 306.96 189.725956 
L 307.041758 189.757766 
L 307.205275 190.929217 
L 307.450549 195.312568 
L 307.859341 208.26026 
L 309.003956 248.674405 
L 309.249231 251.690097 
L 309.330989 251.983223 
L 309.412747 251.91119 
L 309.576264 250.67914 
L 309.821538 246.247223 
L 310.23033 233.262211 
L 311.374945 191.620003 
L 311.701978 187.44379 
L 311.783736 187.273297 
L 311.865495 187.460949 
L 312.029011 188.896531 
L 312.274286 193.546654 
L 312.683077 206.635773 
L 313.827692 247.693961 
L 314.154725 251.821928 
L 314.236484 251.99999 
L 314.318242 251.827147 
L 314.481758 250.439766 
L 314.727033 245.890964 
L 315.135824 232.939666 
L 316.362198 188.575216 
L 316.689231 184.585087 
L 316.770989 184.426628 
L 316.852747 184.611212 
L 317.016264 185.996555 
L 317.261538 190.477718 
L 317.67033 203.182552 
L 318.978462 248.885944 
L 319.223736 251.698337 
L 319.305495 251.980371 
L 319.387253 251.92744 
L 319.550769 250.821957 
L 319.796044 246.768031 
L 320.204835 234.620881 
L 321.676484 183.379698 
L 321.921758 181.115424 
L 322.003516 181.006841 
L 322.085275 181.22463 
L 322.248791 182.626237 
L 322.494066 187.018319 
L 322.902857 199.401615 
L 324.292747 248.335271 
L 324.61978 251.887278 
L 324.701538 251.996042 
L 324.783297 251.787076 
L 324.946813 250.425953 
L 325.192088 246.134347 
L 325.600879 233.914723 
L 327.154286 179.486989 
L 327.39956 176.991136 
L 327.481319 176.766955 
L 327.563077 176.850888 
L 327.726593 177.935596 
L 327.971868 181.761933 
L 328.380659 193.17332 
L 329.28 228.591958 
L 329.852308 246.283546 
L 330.179341 251.234636 
L 330.342857 251.989237 
L 330.424615 251.920208 
L 330.588132 250.892116 
L 330.833407 247.200176 
L 331.242198 236.032355 
L 331.978022 206.770314 
L 332.713846 180.359902 
L 333.122637 172.641565 
L 333.367912 171.279214 
L 333.44967 171.397816 
L 333.613187 172.488513 
L 333.858462 176.176775 
L 334.267253 187.095592 
L 335.003077 215.571271 
L 335.738901 241.823518 
L 336.147692 250.050211 
L 336.392967 251.917296 
L 336.474725 251.992983 
L 336.638242 251.318644 
L 336.883516 248.288995 
L 337.210549 240.79018 
L 337.701099 223.808 
L 339.090989 171.750056 
L 339.49978 164.854601 
L 339.745055 163.750765 
L 339.826813 163.906977 
L 339.99033 164.998476 
L 340.235604 168.514064 
L 340.644396 178.81554 
L 341.298462 203.052319 
L 342.27956 239.464287 
L 342.688352 248.574663 
L 343.015385 251.796548 
L 343.097143 251.99031 
L 343.178901 251.935323 
L 343.342418 251.081581 
L 343.587692 247.985004 
L 343.914725 240.718035 
L 344.405275 224.403594 
L 346.203956 158.519383 
L 346.530989 153.621042 
L 346.776264 152.321579 
L 346.858022 152.35189 
L 347.021538 153.104026 
L 347.266813 155.916027 
L 347.593846 162.577627 
L 348.084396 177.667137 
L 350.046593 246.0818 
L 350.373626 250.692366 
L 350.618901 251.973289 
L 350.700659 251.973099 
L 350.864176 251.330687 
L 351.109451 248.786964 
L 351.436484 242.599233 
L 351.927033 228.150449 
L 352.744615 195.350265 
L 353.889231 150.45607 
L 354.461538 136.437848 
L 354.788571 132.243602 
L 355.033846 131.071368 
L 355.115604 131.060773 
L 355.279121 131.605485 
L 355.524396 133.806784 
L 355.851429 139.182704 
L 356.341978 151.795707 
L 357.077802 177.820274 
L 358.631209 234.094917 
L 359.203516 246.652322 
L 359.612308 251.19548 
L 359.857582 251.998397 
L 359.939341 251.939555 
L 360.102857 251.332378 
L 360.348132 249.210593 
L 360.675165 244.192156 
L 361.165714 232.342504 
L 361.81978 209.872174 
L 362.882637 163.710157 
L 364.354286 100.750436 
L 365.171868 75.114296 
L 365.744176 63.044522 
L 366.234725 56.830807 
L 366.561758 54.790987 
L 366.807033 54.327273 
L 366.970549 54.506802 
L 367.215824 55.477809 
L 367.542857 58.006215 
L 368.033407 64.175418 
L 368.687473 76.072116 
L 369.586813 97.203298 
L 373.265934 189.235379 
L 374.328791 208.062522 
L 375.228132 220.441087 
L 376.127473 229.896431 
L 376.945055 236.339059 
L 377.762637 241.112458 
L 378.58022 244.567772 
L 379.316044 246.807758 
L 380.051868 248.42233 
L 380.787692 249.567619 
L 381.605275 250.439645 
L 382.504615 251.059578 
L 383.567473 251.495079 
L 384.875604 251.772946 
L 386.837802 251.935961 
L 388.8 251.983267 
L 388.8 251.983267 
" style="fill:none;stroke:#ff0000;stroke-linecap:square;stroke-width:1.5;"/>
   </g>
   <g id="line2d_12">
    <path clip-path="url(#p88b8ac4ce0)" d="M 54 237.898135 
L 97.405387 236.825119 
L 133.615228 235.714124 
L 164.02221 234.565131 
L 189.709533 233.37829 
L 211.528284 232.15395 
L 230.174804 230.891098 
L 246.190696 229.589476 
L 260.040186 228.245815 
L 272.032762 226.86367 
L 282.477908 225.440402 
L 291.60774 223.975908 
L 299.577 222.477801 
L 306.617803 220.932876 
L 312.807519 219.353461 
L 318.300892 217.729405 
L 323.252665 216.036797 
L 327.662838 214.297262 
L 331.608783 212.506077 
L 335.16787 210.650511 
L 338.417471 208.705983 
L 341.357586 206.687763 
L 344.065587 204.555252 
L 346.541474 202.316713 
L 348.785246 199.988164 
L 350.874275 197.497252 
L 352.808561 194.840114 
L 354.588105 192.017803 
L 356.290277 188.885671 
L 357.837706 185.566806 
L 359.307764 181.874304 
L 360.70045 177.740284 
L 361.938393 173.377915 
L 363.098965 168.501975 
L 364.182165 163.023377 
L 365.187994 156.833683 
L 366.116452 149.80079 
L 366.967538 141.764249 
L 367.818624 131.474762 
L 368.592338 119.093995 
L 369.288682 103.924017 
L 369.907653 84.92527 
L 370.449253 60.486121 
L 370.836111 34.56 
L 370.836111 34.56 
" style="fill:none;stroke:#000000;stroke-linecap:square;stroke-width:1.5;"/>
   </g>
   <g id="patch_3">
    <path d="M 54 252 
L 54 34.56 
" style="fill:none;stroke:#000000;stroke-linecap:square;stroke-linejoin:miter;stroke-width:0.8;"/>
   </g>
   <g id="patch_4">
    <path d="M 388.8 252 
L 388.8 34.56 
" style="fill:none;stroke:#000000;stroke-linecap:square;stroke-linejoin:miter;stroke-width:0.8;"/>
   </g>
   <g id="patch_5">
    <path d="M 54 252 
L 388.8 252 
" style="fill:none;stroke:#000000;stroke-linecap:square;stroke-linejoin:miter;stroke-width:0.8;"/>
   </g>
   <g id="patch_6">
    <path d="M 54 34.56 
L 388.8 34.56 
" style="fill:none;stroke:#000000;stroke-linecap:square;stroke-linejoin:miter;stroke-width:0.8;"/>
   </g>
   <g id="text_12">
    <!-- The $n = 100$ level of the quantum bouncing ball -->
    <g transform="translate(48.430966 28.56)scale(0.168 -0.168)">
     <defs>
      <path d="M 3981 4326 
L 288 4326 
L 179 2918 
L 294 2918 
C 378 3976 467 4160 1453 4160 
C 1568 4160 1754 4160 1805 4154 
C 1926 4135 1926 4058 1926 3912 
L 1926 459 
C 1926 230 1907 160 1376 160 
L 1197 160 
L 1197 0 
C 1504 0 1824 0 2138 0 
C 2451 0 2771 0 3078 0 
L 3078 160 
L 2899 160 
C 2368 160 2349 230 2349 459 
L 2349 3912 
C 2349 4052 2349 4129 2464 4154 
C 2515 4160 2701 4160 2816 4160 
C 3795 4160 3891 3976 3974 2918 
L 4090 2918 
L 3981 4326 
z
" id="CMR17-54" transform="scale(0.015625)"/>
      <path d="M 2656 1933 
C 2656 2259 2592 2790 1837 2790 
C 1312 2790 1056 2368 979 2157 
L 973 2157 
L 973 4396 
L 211 4326 
L 211 4160 
C 589 4160 646 4122 646 3817 
L 646 426 
C 646 184 621 153 211 153 
L 211 -13 
C 365 0 646 0 813 0 
C 979 0 1267 0 1421 -13 
L 1421 153 
C 1011 153 986 178 986 428 
L 986 1658 
C 986 2247 1344 2688 1792 2688 
C 2266 2688 2317 2266 2317 1958 
L 2317 428 
C 2317 184 2291 153 1882 153 
L 1882 -13 
C 2035 0 2317 0 2483 0 
C 2650 0 2938 0 3091 -13 
L 3091 153 
C 2682 153 2656 178 2656 428 
L 2656 1933 
z
" id="CMR17-68" transform="scale(0.015625)"/>
      <path d="M 2438 1472 
C 2464 1498 2464 1511 2464 1576 
C 2464 2238 2118 2816 1389 2816 
C 710 2816 173 2169 173 1383 
C 173 551 781 -64 1459 -64 
C 2176 -64 2458 607 2458 740 
C 2458 784 2419 784 2406 784 
C 2362 784 2355 771 2330 696 
C 2189 265 1837 51 1504 51 
C 1229 51 954 203 781 480 
C 582 803 582 1176 582 1472 
L 2438 1472 
z
M 589 1568 
C 634 2505 1126 2714 1382 2714 
C 1818 2714 2112 2297 2118 1568 
L 589 1568 
z
" id="CMR17-65" transform="scale(0.015625)"/>
      <path d="M 4115 2017 
C 4211 2017 4307 2017 4307 2125 
C 4307 2240 4198 2240 4090 2240 
L 512 2240 
C 403 2240 294 2240 294 2125 
C 294 2017 390 2017 486 2017 
L 4115 2017 
z
M 4090 896 
C 4198 896 4307 896 4307 1011 
C 4307 1119 4211 1119 4115 1119 
L 486 1119 
C 390 1119 294 1119 294 1011 
C 294 896 403 896 512 896 
L 4090 896 
z
" id="CMR17-3d" transform="scale(0.015625)"/>
      <path d="M 979 4396 
L 218 4326 
L 218 4160 
C 595 4160 653 4122 653 3817 
L 653 426 
C 653 184 627 153 218 153 
L 218 -13 
C 371 0 653 0 813 0 
C 979 0 1261 0 1414 -13 
L 1414 153 
C 1005 153 979 178 979 426 
L 979 4396 
z
" id="CMR17-6c" transform="scale(0.015625)"/>
      <path d="M 2502 2163 
C 2560 2304 2662 2560 3034 2560 
L 3034 2726 
C 2912 2726 2752 2726 2630 2726 
C 2496 2726 2285 2726 2157 2732 
L 2157 2566 
C 2317 2553 2406 2477 2406 2311 
C 2406 2253 2406 2240 2368 2151 
L 1664 377 
L 902 2286 
C 864 2369 864 2381 864 2407 
C 864 2560 1075 2560 1171 2560 
L 1171 2732 
C 1018 2726 736 2726 576 2726 
C 403 2726 205 2726 64 2732 
L 64 2560 
C 307 2560 442 2560 518 2362 
L 1446 44 
C 1485 -51 1491 -64 1549 -64 
C 1606 -64 1613 -51 1651 44 
L 2502 2163 
z
" id="CMR17-76" transform="scale(0.015625)"/>
      <path d="M 2758 1356 
C 2758 2176 2163 2816 1466 2816 
C 768 2816 173 2176 173 1356 
C 173 551 768 -64 1466 -64 
C 2163 -64 2758 551 2758 1356 
z
M 1466 51 
C 1165 51 909 230 762 480 
C 602 767 582 1126 582 1408 
C 582 1677 595 2010 762 2298 
C 890 2509 1139 2714 1466 2714 
C 1754 2714 1997 2554 2150 2330 
C 2349 2029 2349 1607 2349 1408 
C 2349 1158 2336 775 2163 467 
C 1984 173 1709 51 1466 51 
z
" id="CMR17-6f" transform="scale(0.015625)"/>
      <path d="M 979 2560 
L 1709 2560 
L 1709 2725 
L 966 2725 
L 966 3494 
C 966 4022 1235 4352 1510 4352 
C 1594 4352 1690 4327 1754 4282 
C 1702 4269 1568 4225 1568 4067 
C 1568 3901 1696 3850 1786 3850 
C 1875 3850 2003 3901 2003 4067 
C 2003 4308 1773 4454 1517 4454 
C 1152 4454 653 4156 653 3481 
L 653 2725 
L 141 2725 
L 141 2560 
L 653 2560 
L 653 427 
C 653 184 627 153 218 153 
L 218 -13 
C 371 0 666 0 832 0 
C 1018 0 1344 0 1517 -13 
L 1517 153 
C 1056 153 979 153 979 439 
L 979 2560 
z
" id="CMR17-66" transform="scale(0.015625)"/>
      <path d="M 966 2560 
L 1862 2560 
L 1862 2725 
L 966 2725 
L 966 3904 
L 851 3904 
C 838 3245 614 2668 70 2668 
L 70 2560 
L 627 2560 
L 627 771 
C 627 650 627 -64 1370 -64 
C 1747 -64 1965 306 1965 777 
L 1965 1140 
L 1850 1140 
L 1850 783 
C 1850 344 1677 51 1408 51 
C 1222 51 966 178 966 758 
L 966 2560 
z
" id="CMR17-74" transform="scale(0.015625)"/>
      <path d="M 2630 2802 
L 2528 2802 
L 2336 2172 
C 2189 2509 1920 2802 1491 2802 
C 838 2802 211 2223 211 1383 
C 211 548 800 -38 1440 -38 
C 1933 -38 2208 338 2291 478 
L 2291 -789 
C 2291 -1031 2266 -1063 1856 -1063 
L 1856 -1228 
C 2010 -1216 2291 -1216 2458 -1216 
C 2624 -1216 2912 -1216 3066 -1228 
L 3066 -1063 
C 2656 -1063 2630 -1037 2630 -789 
L 2630 2802 
z
M 2304 886 
C 2304 612 2074 357 2054 338 
C 1856 115 1626 64 1472 64 
C 992 64 621 669 621 1375 
C 621 2121 1043 2688 1536 2688 
C 2048 2688 2304 2108 2304 1777 
L 2304 886 
z
" id="CMR17-71" transform="scale(0.015625)"/>
      <path d="M 1882 2693 
L 1882 2528 
C 2259 2528 2317 2489 2317 2186 
L 2317 1032 
C 2317 500 2029 38 1555 38 
C 1030 38 986 348 986 678 
L 986 2763 
L 211 2693 
L 211 2528 
C 467 2528 640 2528 646 2274 
L 646 1058 
C 646 633 646 361 813 183 
C 896 101 1056 -64 1517 -64 
C 2061 -64 2272 377 2323 506 
L 2330 506 
L 2330 -63 
L 3091 -63 
L 3091 128 
C 2714 128 2656 166 2656 473 
L 2656 2763 
L 1882 2693 
z
" id="CMR17-75" transform="scale(0.015625)"/>
      <path d="M 2304 1653 
C 2304 2072 2304 2294 2035 2543 
C 1798 2752 1523 2816 1306 2816 
C 800 2816 435 2407 435 1971 
C 435 1728 627 1728 666 1728 
C 749 1728 896 1778 896 1954 
C 896 2112 774 2181 666 2181 
C 640 2181 608 2174 589 2168 
C 723 2592 1069 2714 1293 2714 
C 1613 2714 1965 2429 1965 1885 
L 1965 1600 
C 1587 1600 1133 1549 774 1357 
C 371 1133 256 813 256 570 
C 256 77 832 -64 1171 -64 
C 1523 -64 1850 139 1990 511 
C 2003 233 2182 -18 2464 -18 
C 2598 -18 2938 70 2938 567 
L 2938 920 
L 2822 920 
L 2822 562 
C 2822 178 2650 128 2566 128 
C 2304 128 2304 458 2304 738 
L 2304 1653 
z
M 1965 870 
C 1965 317 1568 38 1216 38 
C 896 38 646 275 646 570 
C 646 761 730 1100 1101 1305 
C 1408 1478 1760 1504 1965 1504 
L 1965 870 
z
" id="CMR17-61" transform="scale(0.015625)"/>
      <path d="M 2656 1933 
C 2656 2259 2592 2790 1837 2790 
C 1331 2790 1069 2400 973 2144 
L 966 2144 
L 966 2790 
L 211 2720 
L 211 2554 
C 589 2554 646 2515 646 2208 
L 646 428 
C 646 184 621 153 211 153 
L 211 -13 
C 365 0 646 0 813 0 
C 979 0 1267 0 1421 -13 
L 1421 153 
C 1011 153 986 178 986 428 
L 986 1658 
C 986 2247 1344 2688 1792 2688 
C 2266 2688 2317 2266 2317 1958 
L 2317 428 
C 2317 184 2291 153 1882 153 
L 1882 -13 
C 2035 0 2317 0 2483 0 
C 2650 0 2938 0 3091 -13 
L 3091 153 
C 2682 153 2656 178 2656 428 
L 2656 1933 
z
" id="CMR17-6e" transform="scale(0.015625)"/>
      <path d="M 4326 1933 
C 4326 2252 4269 2790 3507 2790 
C 3072 2790 2771 2496 2656 2151 
L 2650 2151 
C 2573 2676 2195 2790 1837 2790 
C 1331 2790 1069 2400 973 2144 
L 966 2144 
L 966 2790 
L 211 2720 
L 211 2554 
C 589 2554 646 2515 646 2208 
L 646 428 
C 646 184 621 153 211 153 
L 211 -13 
C 365 0 646 0 813 0 
C 979 0 1267 0 1421 -13 
L 1421 153 
C 1011 153 986 178 986 428 
L 986 1658 
C 986 2247 1344 2688 1792 2688 
C 2266 2688 2317 2266 2317 1958 
L 2317 428 
C 2317 184 2291 153 1882 153 
L 1882 -13 
C 2035 0 2317 0 2483 0 
C 2650 0 2938 0 3091 -13 
L 3091 153 
C 2682 153 2656 178 2656 428 
L 2656 1658 
C 2656 2247 3014 2688 3462 2688 
C 3936 2688 3987 2266 3987 1958 
L 3987 428 
C 3987 184 3962 153 3552 153 
L 3552 -13 
C 3706 0 3987 0 4154 0 
C 4320 0 4608 0 4762 -13 
L 4762 153 
C 4352 153 4326 178 4326 428 
L 4326 1933 
z
" id="CMR17-6d" transform="scale(0.015625)"/>
      <path d="M 960 4396 
L 198 4326 
L 198 4160 
C 576 4160 634 4122 634 3817 
L 634 -13 
L 749 -13 
L 934 441 
C 1120 141 1395 -64 1766 -64 
C 2406 -64 3053 500 3053 1370 
C 3053 2188 2477 2790 1830 2790 
C 1434 2790 1152 2579 960 2330 
L 960 4396 
z
M 973 2004 
C 973 2118 973 2138 1062 2272 
C 1312 2657 1670 2688 1792 2688 
C 1984 2688 2643 2585 2643 1376 
C 2643 108 1888 38 1734 38 
C 1536 38 1248 114 1043 486 
C 973 608 973 621 973 735 
L 973 2004 
z
" id="CMR17-62" transform="scale(0.015625)"/>
      <path d="M 2234 2240 
C 2112 2240 1933 2240 1933 2017 
C 1933 1838 2080 1787 2163 1787 
C 2208 1787 2394 1807 2394 2024 
C 2394 2467 1958 2803 1466 2803 
C 787 2803 211 2178 211 1363 
C 211 516 813 -64 1466 -64 
C 2259 -64 2458 677 2458 748 
C 2458 774 2451 793 2406 793 
C 2362 793 2355 787 2330 703 
C 2163 180 1798 51 1523 51 
C 1114 51 621 427 621 1369 
C 621 2338 1094 2688 1472 2688 
C 1722 2688 2093 2573 2234 2240 
z
" id="CMR17-63" transform="scale(0.015625)"/>
      <path d="M 992 3909 
C 992 4049 877 4170 730 4170 
C 589 4170 467 4056 467 3909 
C 467 3769 582 3648 730 3648 
C 870 3648 992 3763 992 3909 
z
M 243 2706 
L 243 2541 
C 602 2541 653 2502 653 2197 
L 653 427 
C 653 184 627 153 218 153 
L 218 -13 
C 371 0 646 0 806 0 
C 960 0 1222 0 1370 -13 
L 1370 153 
C 992 153 979 191 979 420 
L 979 2776 
L 243 2706 
z
" id="CMR17-69" transform="scale(0.015625)"/>
      <path d="M 710 1164 
C 832 1068 1043 960 1299 960 
C 1805 960 2240 1357 2240 1888 
C 2240 2054 2189 2310 1997 2509 
C 2176 2692 2438 2752 2586 2752 
C 2611 2752 2650 2752 2682 2734 
C 2656 2728 2598 2703 2598 2605 
C 2598 2527 2656 2471 2739 2471 
C 2835 2471 2886 2533 2886 2614 
C 2886 2731 2790 2854 2586 2854 
C 2330 2854 2106 2738 1926 2580 
C 1734 2753 1504 2816 1299 2816 
C 794 2816 358 2419 358 1888 
C 358 1522 570 1292 634 1228 
C 442 1004 442 743 442 711 
C 442 545 506 302 723 168 
C 390 85 128 -169 128 -486 
C 128 -943 736 -1280 1466 -1280 
C 2170 -1280 2803 -956 2803 -479 
C 2803 384 1856 384 1363 384 
C 1216 384 954 384 922 391 
C 723 423 589 602 589 826 
C 589 883 589 1024 710 1164 
z
M 1299 1068 
C 736 1068 736 1760 736 1889 
C 736 2016 736 2708 1299 2708 
C 1862 2708 1862 2016 1862 1889 
C 1862 1760 1862 1068 1299 1068 
z
M 1466 -1171 
C 826 -1171 384 -835 384 -486 
C 384 -289 493 -105 634 -4 
C 794 104 858 104 1293 104 
C 1818 104 2547 104 2547 -486 
C 2547 -835 2106 -1171 1466 -1171 
z
" id="CMR17-67" transform="scale(0.015625)"/>
     </defs>
     <use transform="scale(0.996264)" xlink:href="#CMR17-54"/>
     <use transform="translate(66.509881 0)scale(0.996264)" xlink:href="#CMR17-68"/>
     <use transform="translate(117.40525 0)scale(0.996264)" xlink:href="#CMR17-65"/>
     <use transform="translate(187.966877 0)scale(0.996264)" xlink:href="#CMMI12-6e"/>
     <use transform="translate(273.870933 0)scale(0.996264)" xlink:href="#CMR17-3d"/>
     <use transform="translate(373.25973 0)scale(0.996264)" xlink:href="#CMR17-31"/>
     <use transform="translate(418.950207 0)scale(0.996264)" xlink:href="#CMR17-30"/>
     <use transform="translate(464.640685 0)scale(0.996264)" xlink:href="#CMR17-30"/>
     <use transform="translate(540.407128 0)scale(0.996264)" xlink:href="#CMR17-6c"/>
     <use transform="translate(565.278187 0)scale(0.996264)" xlink:href="#CMR17-65"/>
     <use transform="translate(605.763847 0)scale(0.996264)" xlink:href="#CMR17-76"/>
     <use transform="translate(651.454309 0)scale(0.996264)" xlink:href="#CMR17-65"/>
     <use transform="translate(691.939969 0)scale(0.996264)" xlink:href="#CMR17-6c"/>
     <use transform="translate(746.886994 0)scale(0.996264)" xlink:href="#CMR17-6f"/>
     <use transform="translate(792.577471 0)scale(0.996264)" xlink:href="#CMR17-66"/>
     <use transform="translate(850.12695 0)scale(0.996264)" xlink:href="#CMR17-74"/>
     <use transform="translate(885.407718 0)scale(0.996264)" xlink:href="#CMR17-68"/>
     <use transform="translate(936.303088 0)scale(0.996264)" xlink:href="#CMR17-65"/>
     <use transform="translate(1006.864714 0)scale(0.996264)" xlink:href="#CMR17-71"/>
     <use transform="translate(1055.15763 0)scale(0.996264)" xlink:href="#CMR17-75"/>
     <use transform="translate(1106.053 0)scale(0.996264)" xlink:href="#CMR17-61"/>
     <use transform="translate(1151.743477 0)scale(0.996264)" xlink:href="#CMR17-6e"/>
     <use transform="translate(1200.036393 0)scale(0.996264)" xlink:href="#CMR17-74"/>
     <use transform="translate(1235.317161 0)scale(0.996264)" xlink:href="#CMR17-75"/>
     <use transform="translate(1286.212531 0)scale(0.996264)" xlink:href="#CMR17-6d"/>
     <use transform="translate(1393.208087 0)scale(0.996264)" xlink:href="#CMR17-62"/>
     <use transform="translate(1446.705895 0)scale(0.996264)" xlink:href="#CMR17-6f"/>
     <use transform="translate(1492.396372 0)scale(0.996264)" xlink:href="#CMR17-75"/>
     <use transform="translate(1543.291742 0)scale(0.996264)" xlink:href="#CMR17-6e"/>
     <use transform="translate(1594.187112 0)scale(0.996264)" xlink:href="#CMR17-63"/>
     <use transform="translate(1634.672773 0)scale(0.996264)" xlink:href="#CMR17-69"/>
     <use transform="translate(1659.543831 0)scale(0.996264)" xlink:href="#CMR17-6e"/>
     <use transform="translate(1710.439201 0)scale(0.996264)" xlink:href="#CMR17-67"/>
     <use transform="translate(1786.205644 0)scale(0.996264)" xlink:href="#CMR17-62"/>
     <use transform="translate(1837.101014 0)scale(0.996264)" xlink:href="#CMR17-61"/>
     <use transform="translate(1882.791491 0)scale(0.996264)" xlink:href="#CMR17-6c"/>
     <use transform="translate(1907.66255 0)scale(0.996264)" xlink:href="#CMR17-6c"/>
    </g>
   </g>
   <g id="legend_1">
    <g id="patch_7">
     <path d="M 63.8 88.548056 
L 154.383634 88.548056 
Q 157.183634 88.548056 157.183634 85.748056 
L 157.183634 44.36 
Q 157.183634 41.56 154.383634 41.56 
L 63.8 41.56 
Q 61 41.56 61 44.36 
L 61 85.748056 
Q 61 88.548056 63.8 88.548056 
z
" style="fill:#ffffff;opacity:0.8;stroke:#cccccc;stroke-linejoin:miter;"/>
    </g>
    <g id="line2d_13">
     <path d="M 66.6 53.613436 
L 94.6 53.613436 
" style="fill:none;stroke:#ff0000;stroke-linecap:square;stroke-width:1.5;"/>
    </g>
    <g id="line2d_14"/>
    <g id="text_13">
     <!-- $|\psi_n(z)|^2$ -->
     <g transform="translate(105.8 58.513436)scale(0.14 -0.14)">
      <defs>
       <path d="M 1018 4570 
C 1018 4685 1018 4800 890 4800 
C 762 4800 762 4685 762 4570 
L 762 -1370 
C 762 -1485 762 -1600 890 -1600 
C 1018 -1600 1018 -1485 1018 -1370 
L 1018 4570 
z
" id="CMSY10-6a" transform="scale(0.015625)"/>
       <path d="M 3008 4294 
C 3008 4301 3034 4384 3034 4391 
C 3034 4448 2982 4448 2963 4448 
C 2906 4448 2899 4416 2874 4320 
L 1818 77 
C 1286 141 1088 410 1088 794 
C 1088 934 1088 1082 1389 1875 
C 1472 2105 1504 2188 1504 2303 
C 1504 2591 1299 2821 998 2821 
C 410 2821 173 1894 173 1843 
C 173 1817 198 1785 243 1785 
C 301 1785 307 1811 333 1900 
C 486 2453 742 2688 979 2688 
C 1037 2688 1146 2688 1146 2483 
C 1146 2457 1146 2316 1037 2035 
C 691 1126 691 985 691 838 
C 691 223 1203 -14 1779 -58 
C 1728 -253 1683 -453 1632 -647 
C 1530 -1022 1485 -1198 1485 -1223 
C 1485 -1280 1536 -1280 1555 -1280 
C 1568 -1280 1594 -1280 1606 -1254 
C 1632 -1230 1894 -176 1920 -64 
C 2157 -64 2662 -64 3238 531 
C 3450 761 3642 1056 3750 1331 
C 3814 1498 3968 2067 3968 2393 
C 3968 2777 3776 2821 3712 2821 
C 3558 2821 3418 2668 3418 2540 
C 3418 2463 3462 2418 3488 2393 
C 3546 2335 3718 2162 3718 1830 
C 3718 1600 3590 1126 3181 666 
C 2643 64 2150 64 1958 64 
L 3008 4294 
z
" id="CMMI12-20" transform="scale(0.015625)"/>
       <path d="M 1958 -1561 
C 1958 -1555 1958 -1542 1939 -1523 
C 1645 -1224 858 -407 858 1581 
C 858 3569 1632 4379 1946 4697 
C 1946 4704 1958 4717 1958 4736 
C 1958 4755 1939 4768 1914 4768 
C 1843 4768 1299 4296 986 3594 
C 666 2887 576 2199 576 1588 
C 576 1128 621 351 1005 -471 
C 1312 -1135 1837 -1600 1914 -1600 
C 1946 -1600 1958 -1587 1958 -1561 
z
" id="CMR17-28" transform="scale(0.015625)"/>
       <path d="M 1683 1581 
C 1683 2040 1638 2817 1254 3639 
C 947 4303 422 4768 346 4768 
C 326 4768 301 4761 301 4729 
C 301 4717 307 4710 314 4697 
C 621 4378 1402 3568 1402 1584 
C 1402 -407 627 -1217 314 -1537 
C 307 -1549 301 -1556 301 -1568 
C 301 -1600 326 -1600 346 -1600 
C 416 -1600 960 -1128 1274 -426 
C 1594 281 1683 969 1683 1581 
z
" id="CMR17-29" transform="scale(0.015625)"/>
      </defs>
      <use transform="scale(0.996264)" xlink:href="#CMSY10-6a"/>
      <use transform="translate(27.674085 0)scale(0.996264)" xlink:href="#CMMI12-20"/>
      <use transform="translate(91.092972 -14.943915)scale(0.697382)" xlink:href="#CMMI12-6e"/>
      <use transform="translate(132.351947 0)scale(0.996264)" xlink:href="#CMR17-28"/>
      <use transform="translate(167.632715 0)scale(0.996264)" xlink:href="#CMMI12-7a"/>
      <use transform="translate(217.387859 0)scale(0.996264)" xlink:href="#CMR17-29"/>
      <use transform="translate(252.668627 0)scale(0.996264)" xlink:href="#CMSY10-6a"/>
      <use transform="translate(280.342712 36.153639)scale(0.697382)" xlink:href="#CMR17-32"/>
     </g>
    </g>
    <g id="line2d_15">
     <path d="M 66.6 74.561132 
L 94.6 74.561132 
" style="fill:none;stroke:#000000;stroke-linecap:square;stroke-width:1.5;"/>
    </g>
    <g id="line2d_16"/>
    <g id="text_14">
     <!-- $P_{\rm cl}(z)$ -->
     <g transform="translate(105.8 79.461132)scale(0.14 -0.14)">
      <defs>
       <path d="M 1894 2023 
L 2970 2023 
C 3853 2023 4736 2673 4736 3401 
C 4736 3898 4314 4352 3507 4352 
L 1530 4352 
C 1408 4352 1350 4352 1350 4231 
C 1350 4167 1408 4167 1504 4167 
C 1894 4167 1894 4116 1894 4046 
C 1894 4034 1894 3995 1869 3899 
L 1005 472 
C 947 249 934 185 486 185 
C 365 185 301 185 301 70 
C 301 0 358 0 397 0 
C 518 0 646 0 768 0 
L 1517 0 
C 1638 0 1773 0 1894 0 
C 1946 0 2016 0 2016 121 
C 2016 185 1958 185 1862 185 
C 1478 185 1472 230 1472 293 
C 1472 325 1478 369 1485 401 
L 1894 2023 
z
M 2355 3930 
C 2413 4167 2438 4167 2688 4167 
L 3322 4167 
C 3802 4167 4198 4013 4198 3535 
C 4198 3369 4115 2827 3821 2534 
C 3712 2419 3405 2176 2822 2176 
L 1920 2176 
L 2355 3930 
z
" id="CMMI12-50" transform="scale(0.015625)"/>
      </defs>
      <use transform="scale(0.996264)" xlink:href="#CMMI12-50"/>
      <use transform="translate(62.877232 -14.943915)scale(0.697382)" xlink:href="#CMR17-63"/>
      <use transform="translate(91.217064 -14.943915)scale(0.697382)" xlink:href="#CMR17-6c"/>
      <use transform="translate(109.124855 0)scale(0.996264)" xlink:href="#CMR17-28"/>
      <use transform="translate(144.405622 0)scale(0.996264)" xlink:href="#CMMI12-7a"/>
      <use transform="translate(194.160767 0)scale(0.996264)" xlink:href="#CMR17-29"/>
     </g>
    </g>
   </g>
  </g>
 </g>
 <defs>
  <clipPath id="p88b8ac4ce0">
   <rect height="217.44" width="334.8" x="54" y="34.56"/>
  </clipPath>
 </defs>
</svg>
