<?xml version="1.0" encoding="utf-8" standalone="no"?>
<!DOCTYPE svg PUBLIC "-//W3C//DTD SVG 1.1//EN"
  "http://www.w3.org/Graphics/SVG/1.1/DTD/svg11.dtd">
<svg height="288pt" version="1.1" viewBox="0 0 432 288" width="432pt" xmlns="http://www.w3.org/2000/svg" xmlns:xlink="http://www.w3.org/1999/xlink">
 <metadata>
  <rdf:RDF xmlns:cc="http://creativecommons.org/ns#" xmlns:dc="http://purl.org/dc/elements/1.1/" xmlns:rdf="http://www.w3.org/1999/02/22-rdf-syntax-ns#">
   <cc:Work>
    <dc:type rdf:resource="http://purl.org/dc/dcmitype/StillImage"/>
    <dc:date>2021-09-16T17:51:08.928419</dc:date>
    <dc:format>image/svg+xml</dc:format>
    <dc:creator>
     <cc:Agent>
      <dc:title>Matplotlib v3.4.2, https://matplotlib.org/</dc:title>
     </cc:Agent>
    </dc:creator>
   </cc:Work>
  </rdf:RDF>
 </metadata>
 <defs>
  <style type="text/css">*{stroke-linecap:butt;stroke-linejoin:round;}</style>
 </defs>
 <g id="figure_1">
  <g id="patch_1">
   <path d="M 0 288 
L 432 288 
L 432 0 
L 0 0 
z
" style="fill:none;"/>
  </g>
  <g id="axes_1">
   <g id="patch_2">
    <path d="M 54 252 
L 388.8 252 
L 388.8 34.56 
L 54 34.56 
z
" style="fill:#ffffff;"/>
   </g>
   <g id="matplotlib.axis_1">
    <g id="xtick_1">
     <g id="line2d_1">
      <defs>
       <path d="M 0 0 
L 0 3.5 
" id="m2beca025db" style="stroke:#000000;stroke-width:0.8;"/>
      </defs>
      <g>
       <use style="stroke:#000000;stroke-width:0.8;" x="54" xlink:href="#m2beca025db" y="252"/>
      </g>
     </g>
     <g id="text_1">
      <!-- $\mathdefault{0.0}$ -->
      <g transform="translate(45.274709 268.685876)scale(0.14 -0.14)">
       <defs>
        <path d="M 2688 2025 
C 2688 2416 2682 3080 2413 3591 
C 2176 4039 1798 4198 1466 4198 
C 1158 4198 768 4058 525 3597 
C 269 3118 243 2524 243 2025 
C 243 1661 250 1106 448 619 
C 723 -39 1216 -128 1466 -128 
C 1760 -128 2208 -7 2470 600 
C 2662 1042 2688 1559 2688 2025 
z
M 1466 -26 
C 1056 -26 813 325 723 812 
C 653 1188 653 1738 653 2096 
C 653 2588 653 2997 736 3387 
C 858 3929 1216 4096 1466 4096 
C 1728 4096 2067 3923 2189 3400 
C 2272 3036 2278 2607 2278 2096 
C 2278 1680 2278 1169 2202 792 
C 2067 95 1690 -26 1466 -26 
z
" id="CMR17-30" transform="scale(0.015625)"/>
        <path d="M 1178 307 
C 1178 492 1024 619 870 619 
C 685 619 557 466 557 313 
C 557 128 710 0 864 0 
C 1050 0 1178 153 1178 307 
z
" id="CMMI12-3a" transform="scale(0.015625)"/>
       </defs>
       <use transform="scale(0.996264)" xlink:href="#CMR17-30"/>
       <use transform="translate(45.690477 0)scale(0.996264)" xlink:href="#CMMI12-3a"/>
       <use transform="translate(72.787654 0)scale(0.996264)" xlink:href="#CMR17-30"/>
      </g>
     </g>
    </g>
    <g id="xtick_2">
     <g id="line2d_2">
      <g>
       <use style="stroke:#000000;stroke-width:0.8;" x="108.885246" xlink:href="#m2beca025db" y="252"/>
      </g>
     </g>
     <g id="text_2">
      <!-- $\mathdefault{2.5}$ -->
      <g transform="translate(100.159955 268.685876)scale(0.14 -0.14)">
       <defs>
        <path d="M 2669 989 
L 2554 989 
C 2490 536 2438 459 2413 420 
C 2381 369 1920 369 1830 369 
L 602 369 
C 832 619 1280 1072 1824 1597 
C 2214 1967 2669 2402 2669 3035 
C 2669 3790 2067 4224 1395 4224 
C 691 4224 262 3604 262 3030 
C 262 2780 448 2748 525 2748 
C 589 2748 781 2787 781 3010 
C 781 3207 614 3264 525 3264 
C 486 3264 448 3258 422 3245 
C 544 3790 915 4058 1306 4058 
C 1862 4058 2227 3617 2227 3035 
C 2227 2479 1901 2000 1536 1584 
L 262 146 
L 262 0 
L 2515 0 
L 2669 989 
z
" id="CMR17-32" transform="scale(0.015625)"/>
        <path d="M 730 3692 
C 794 3666 1056 3584 1325 3584 
C 1920 3584 2246 3911 2432 4100 
C 2432 4157 2432 4192 2394 4192 
C 2387 4192 2374 4192 2323 4163 
C 2099 4058 1837 3973 1517 3973 
C 1325 3973 1037 3999 723 4139 
C 653 4171 640 4171 634 4171 
C 602 4171 595 4164 595 4037 
L 595 2203 
C 595 2089 595 2057 659 2057 
C 691 2057 704 2070 736 2114 
C 941 2401 1222 2522 1542 2522 
C 1766 2522 2246 2382 2246 1289 
C 2246 1085 2246 715 2054 421 
C 1894 159 1645 25 1370 25 
C 947 25 518 320 403 814 
C 429 807 480 795 506 795 
C 589 795 749 840 749 1038 
C 749 1210 627 1280 506 1280 
C 358 1280 262 1190 262 1011 
C 262 454 704 -128 1382 -128 
C 2042 -128 2669 440 2669 1264 
C 2669 2030 2170 2624 1549 2624 
C 1222 2624 947 2503 730 2274 
L 730 3692 
z
" id="CMR17-35" transform="scale(0.015625)"/>
       </defs>
       <use transform="scale(0.996264)" xlink:href="#CMR17-32"/>
       <use transform="translate(45.690477 0)scale(0.996264)" xlink:href="#CMMI12-3a"/>
       <use transform="translate(72.787654 0)scale(0.996264)" xlink:href="#CMR17-35"/>
      </g>
     </g>
    </g>
    <g id="xtick_3">
     <g id="line2d_3">
      <g>
       <use style="stroke:#000000;stroke-width:0.8;" x="163.770492" xlink:href="#m2beca025db" y="252"/>
      </g>
     </g>
     <g id="text_3">
      <!-- $\mathdefault{5.0}$ -->
      <g transform="translate(155.045201 268.685876)scale(0.14 -0.14)">
       <use transform="scale(0.996264)" xlink:href="#CMR17-35"/>
       <use transform="translate(45.690477 0)scale(0.996264)" xlink:href="#CMMI12-3a"/>
       <use transform="translate(72.787654 0)scale(0.996264)" xlink:href="#CMR17-30"/>
      </g>
     </g>
    </g>
    <g id="xtick_4">
     <g id="line2d_4">
      <g>
       <use style="stroke:#000000;stroke-width:0.8;" x="218.655738" xlink:href="#m2beca025db" y="252"/>
      </g>
     </g>
     <g id="text_4">
      <!-- $\mathdefault{7.5}$ -->
      <g transform="translate(209.930447 268.685876)scale(0.14 -0.14)">
       <defs>
        <path d="M 2886 3941 
L 2886 4081 
L 1382 4081 
C 634 4081 621 4165 595 4288 
L 480 4288 
L 294 3094 
L 410 3094 
C 429 3215 474 3540 550 3661 
C 589 3712 1062 3712 1171 3712 
L 2579 3712 
L 1869 2661 
C 1395 1954 1069 999 1069 165 
C 1069 89 1069 -128 1299 -128 
C 1530 -128 1530 89 1530 171 
L 1530 465 
C 1530 1508 1709 2196 2003 2636 
L 2886 3941 
z
" id="CMR17-37" transform="scale(0.015625)"/>
       </defs>
       <use transform="scale(0.996264)" xlink:href="#CMR17-37"/>
       <use transform="translate(45.690477 0)scale(0.996264)" xlink:href="#CMMI12-3a"/>
       <use transform="translate(72.787654 0)scale(0.996264)" xlink:href="#CMR17-35"/>
      </g>
     </g>
    </g>
    <g id="xtick_5">
     <g id="line2d_5">
      <g>
       <use style="stroke:#000000;stroke-width:0.8;" x="273.540984" xlink:href="#m2beca025db" y="252"/>
      </g>
     </g>
     <g id="text_5">
      <!-- $\mathdefault{10.0}$ -->
      <g transform="translate(261.401448 268.685876)scale(0.14 -0.14)">
       <defs>
        <path d="M 1702 4058 
C 1702 4192 1696 4192 1606 4192 
C 1357 3916 979 3827 621 3827 
C 602 3827 570 3827 563 3808 
C 557 3795 557 3782 557 3648 
C 755 3648 1088 3686 1344 3839 
L 1344 461 
C 1344 236 1331 160 781 160 
L 589 160 
L 589 0 
C 896 0 1216 0 1523 0 
C 1830 0 2150 0 2458 0 
L 2458 160 
L 2266 160 
C 1715 160 1702 230 1702 458 
L 1702 4058 
z
" id="CMR17-31" transform="scale(0.015625)"/>
       </defs>
       <use transform="scale(0.996264)" xlink:href="#CMR17-31"/>
       <use transform="translate(45.690477 0)scale(0.996264)" xlink:href="#CMR17-30"/>
       <use transform="translate(91.380954 0)scale(0.996264)" xlink:href="#CMMI12-3a"/>
       <use transform="translate(118.478131 0)scale(0.996264)" xlink:href="#CMR17-30"/>
      </g>
     </g>
    </g>
    <g id="xtick_6">
     <g id="line2d_6">
      <g>
       <use style="stroke:#000000;stroke-width:0.8;" x="328.42623" xlink:href="#m2beca025db" y="252"/>
      </g>
     </g>
     <g id="text_6">
      <!-- $\mathdefault{12.5}$ -->
      <g transform="translate(316.286694 268.685876)scale(0.14 -0.14)">
       <use transform="scale(0.996264)" xlink:href="#CMR17-31"/>
       <use transform="translate(45.690477 0)scale(0.996264)" xlink:href="#CMR17-32"/>
       <use transform="translate(91.380954 0)scale(0.996264)" xlink:href="#CMMI12-3a"/>
       <use transform="translate(118.478131 0)scale(0.996264)" xlink:href="#CMR17-35"/>
      </g>
     </g>
    </g>
    <g id="xtick_7">
     <g id="line2d_7">
      <g>
       <use style="stroke:#000000;stroke-width:0.8;" x="383.311475" xlink:href="#m2beca025db" y="252"/>
      </g>
     </g>
     <g id="text_7">
      <!-- $\mathdefault{15.0}$ -->
      <g transform="translate(371.17194 268.685876)scale(0.14 -0.14)">
       <use transform="scale(0.996264)" xlink:href="#CMR17-31"/>
       <use transform="translate(45.690477 0)scale(0.996264)" xlink:href="#CMR17-35"/>
       <use transform="translate(91.380954 0)scale(0.996264)" xlink:href="#CMMI12-3a"/>
       <use transform="translate(118.478131 0)scale(0.996264)" xlink:href="#CMR17-30"/>
      </g>
     </g>
    </g>
    <g id="text_8">
     <!-- $z/z_0$ -->
     <g transform="translate(208.822182 285.858677)scale(0.14 -0.14)">
      <defs>
       <path d="M 813 486 
C 1088 803 1312 1004 1632 1296 
C 2016 1632 2182 1793 2272 1891 
C 2720 2338 2944 2713 2944 2764 
C 2944 2816 2893 2816 2880 2816 
C 2835 2816 2822 2793 2790 2750 
C 2630 2494 2477 2367 2310 2367 
C 2176 2367 2106 2421 1984 2565 
C 1850 2715 1741 2816 1555 2816 
C 1088 2816 806 2257 806 2128 
C 806 2108 813 2068 870 2068 
C 922 2068 928 2091 947 2133 
C 1056 2372 1363 2414 1485 2414 
C 1619 2414 1747 2376 1882 2327 
C 2125 2240 2227 2240 2291 2240 
C 2336 2240 2362 2240 2394 2246 
C 2182 1994 1837 1683 1549 1418 
L 902 816 
C 512 415 275 33 275 -12 
C 275 -51 307 -64 346 -64 
C 384 -64 390 -57 435 14 
C 538 163 742 384 979 384 
C 1114 384 1178 342 1306 193 
C 1427 61 1536 -64 1741 -64 
C 2368 -64 2726 732 2726 876 
C 2726 903 2720 942 2656 942 
C 2605 942 2598 917 2579 855 
C 2438 488 2061 338 1811 338 
C 1677 338 1549 376 1414 425 
C 1158 512 1088 512 1005 512 
C 941 512 870 512 813 486 
z
" id="CMMI12-7a" transform="scale(0.015625)"/>
       <path d="M 2746 4562 
C 2746 4569 2784 4666 2784 4678 
C 2784 4755 2720 4800 2669 4800 
C 2637 4800 2579 4800 2528 4659 
L 384 -1363 
C 384 -1370 346 -1465 346 -1478 
C 346 -1555 410 -1600 461 -1600 
C 499 -1600 557 -1593 602 -1459 
L 2746 4562 
z
" id="CMMI12-3d" transform="scale(0.015625)"/>
      </defs>
      <use transform="scale(0.996264)" xlink:href="#CMMI12-7a"/>
      <use transform="translate(49.755145 0)scale(0.996264)" xlink:href="#CMMI12-3d"/>
      <use transform="translate(98.530064 0)scale(0.996264)" xlink:href="#CMMI12-7a"/>
      <use transform="translate(143.845817 -14.943915)scale(0.697382)" xlink:href="#CMR17-30"/>
     </g>
    </g>
   </g>
   <g id="matplotlib.axis_2">
    <g id="ytick_1">
     <g id="line2d_8">
      <defs>
       <path d="M 0 0 
L -3.5 0 
" id="m8fdc6bb8cd" style="stroke:#000000;stroke-width:0.8;"/>
      </defs>
      <g>
       <use style="stroke:#000000;stroke-width:0.8;" x="54" xlink:href="#m8fdc6bb8cd" y="252"/>
      </g>
     </g>
     <g id="text_9">
      <!-- $\mathdefault{0.0}$ -->
      <g transform="translate(29.549418 256.842938)scale(0.14 -0.14)">
       <use transform="scale(0.996264)" xlink:href="#CMR17-30"/>
       <use transform="translate(45.690477 0)scale(0.996264)" xlink:href="#CMMI12-3a"/>
       <use transform="translate(72.787654 0)scale(0.996264)" xlink:href="#CMR17-30"/>
      </g>
     </g>
    </g>
    <g id="ytick_2">
     <g id="line2d_9">
      <g>
       <use style="stroke:#000000;stroke-width:0.8;" x="54" xlink:href="#m8fdc6bb8cd" y="216.354098"/>
      </g>
     </g>
     <g id="text_10">
      <!-- $\mathdefault{2.5}$ -->
      <g transform="translate(29.549418 221.197037)scale(0.14 -0.14)">
       <use transform="scale(0.996264)" xlink:href="#CMR17-32"/>
       <use transform="translate(45.690477 0)scale(0.996264)" xlink:href="#CMMI12-3a"/>
       <use transform="translate(72.787654 0)scale(0.996264)" xlink:href="#CMR17-35"/>
      </g>
     </g>
    </g>
    <g id="ytick_3">
     <g id="line2d_10">
      <g>
       <use style="stroke:#000000;stroke-width:0.8;" x="54" xlink:href="#m8fdc6bb8cd" y="180.708197"/>
      </g>
     </g>
     <g id="text_11">
      <!-- $\mathdefault{5.0}$ -->
      <g transform="translate(29.549418 185.551135)scale(0.14 -0.14)">
       <use transform="scale(0.996264)" xlink:href="#CMR17-35"/>
       <use transform="translate(45.690477 0)scale(0.996264)" xlink:href="#CMMI12-3a"/>
       <use transform="translate(72.787654 0)scale(0.996264)" xlink:href="#CMR17-30"/>
      </g>
     </g>
    </g>
    <g id="ytick_4">
     <g id="line2d_11">
      <g>
       <use style="stroke:#000000;stroke-width:0.8;" x="54" xlink:href="#m8fdc6bb8cd" y="145.062295"/>
      </g>
     </g>
     <g id="text_12">
      <!-- $\mathdefault{7.5}$ -->
      <g transform="translate(29.549418 149.905233)scale(0.14 -0.14)">
       <use transform="scale(0.996264)" xlink:href="#CMR17-37"/>
       <use transform="translate(45.690477 0)scale(0.996264)" xlink:href="#CMMI12-3a"/>
       <use transform="translate(72.787654 0)scale(0.996264)" xlink:href="#CMR17-35"/>
      </g>
     </g>
    </g>
    <g id="ytick_5">
     <g id="line2d_12">
      <g>
       <use style="stroke:#000000;stroke-width:0.8;" x="54" xlink:href="#m8fdc6bb8cd" y="109.416393"/>
      </g>
     </g>
     <g id="text_13">
      <!-- $\mathdefault{10.0}$ -->
      <g transform="translate(22.720929 114.259332)scale(0.14 -0.14)">
       <use transform="scale(0.996264)" xlink:href="#CMR17-31"/>
       <use transform="translate(45.690477 0)scale(0.996264)" xlink:href="#CMR17-30"/>
       <use transform="translate(91.380954 0)scale(0.996264)" xlink:href="#CMMI12-3a"/>
       <use transform="translate(118.478131 0)scale(0.996264)" xlink:href="#CMR17-30"/>
      </g>
     </g>
    </g>
    <g id="ytick_6">
     <g id="line2d_13">
      <g>
       <use style="stroke:#000000;stroke-width:0.8;" x="54" xlink:href="#m8fdc6bb8cd" y="73.770492"/>
      </g>
     </g>
     <g id="text_14">
      <!-- $\mathdefault{12.5}$ -->
      <g transform="translate(22.720929 78.61343)scale(0.14 -0.14)">
       <use transform="scale(0.996264)" xlink:href="#CMR17-31"/>
       <use transform="translate(45.690477 0)scale(0.996264)" xlink:href="#CMR17-32"/>
       <use transform="translate(91.380954 0)scale(0.996264)" xlink:href="#CMMI12-3a"/>
       <use transform="translate(118.478131 0)scale(0.996264)" xlink:href="#CMR17-35"/>
      </g>
     </g>
    </g>
    <g id="ytick_7">
     <g id="line2d_14">
      <g>
       <use style="stroke:#000000;stroke-width:0.8;" x="54" xlink:href="#m8fdc6bb8cd" y="38.12459"/>
      </g>
     </g>
     <g id="text_15">
      <!-- $\mathdefault{15.0}$ -->
      <g transform="translate(22.720929 42.967528)scale(0.14 -0.14)">
       <use transform="scale(0.996264)" xlink:href="#CMR17-31"/>
       <use transform="translate(45.690477 0)scale(0.996264)" xlink:href="#CMR17-35"/>
       <use transform="translate(91.380954 0)scale(0.996264)" xlink:href="#CMMI12-3a"/>
       <use transform="translate(118.478131 0)scale(0.996264)" xlink:href="#CMR17-30"/>
      </g>
     </g>
    </g>
    <g id="text_16">
     <!-- Energy ($mgz_0$) -->
     <g transform="translate(15.234005 187.438016)rotate(-90)scale(0.14 -0.14)">
      <defs>
       <path d="M 3885 1615 
L 3770 1615 
C 3629 676 3546 166 2419 166 
L 1530 166 
C 1274 166 1261 197 1261 414 
L 1261 2176 
L 1862 2176 
C 2464 2176 2522 1960 2522 1430 
L 2637 1430 
L 2637 3081 
L 2522 3081 
C 2522 2557 2464 2342 1862 2342 
L 1261 2342 
L 1261 3913 
C 1261 4128 1274 4160 1530 4160 
L 2406 4160 
C 3398 4160 3514 3769 3603 2929 
L 3718 2929 
L 3565 4325 
L 326 4325 
L 326 4160 
C 768 4160 838 4160 838 3874 
L 838 451 
C 838 166 768 166 326 166 
L 326 0 
L 3654 0 
L 3885 1615 
z
" id="CMR17-45" transform="scale(0.015625)"/>
       <path d="M 2656 1933 
C 2656 2259 2592 2790 1837 2790 
C 1331 2790 1069 2400 973 2144 
L 966 2144 
L 966 2790 
L 211 2720 
L 211 2554 
C 589 2554 646 2515 646 2208 
L 646 428 
C 646 184 621 153 211 153 
L 211 -13 
C 365 0 646 0 813 0 
C 979 0 1267 0 1421 -13 
L 1421 153 
C 1011 153 986 178 986 428 
L 986 1658 
C 986 2247 1344 2688 1792 2688 
C 2266 2688 2317 2266 2317 1958 
L 2317 428 
C 2317 184 2291 153 1882 153 
L 1882 -13 
C 2035 0 2317 0 2483 0 
C 2650 0 2938 0 3091 -13 
L 3091 153 
C 2682 153 2656 178 2656 428 
L 2656 1933 
z
" id="CMR17-6e" transform="scale(0.015625)"/>
       <path d="M 2438 1472 
C 2464 1498 2464 1511 2464 1576 
C 2464 2238 2118 2816 1389 2816 
C 710 2816 173 2169 173 1383 
C 173 551 781 -64 1459 -64 
C 2176 -64 2458 607 2458 740 
C 2458 784 2419 784 2406 784 
C 2362 784 2355 771 2330 696 
C 2189 265 1837 51 1504 51 
C 1229 51 954 203 781 480 
C 582 803 582 1176 582 1472 
L 2438 1472 
z
M 589 1568 
C 634 2505 1126 2714 1382 2714 
C 1818 2714 2112 2297 2118 1568 
L 589 1568 
z
" id="CMR17-65" transform="scale(0.015625)"/>
       <path d="M 960 1497 
C 960 2112 1222 2688 1702 2688 
C 1747 2688 1792 2682 1837 2662 
C 1837 2662 1696 2617 1696 2452 
C 1696 2298 1818 2234 1914 2234 
C 1990 2234 2131 2279 2131 2458 
C 2131 2663 1926 2790 1709 2790 
C 1222 2790 1011 2317 947 2093 
L 941 2093 
L 941 2790 
L 198 2720 
L 198 2554 
C 576 2554 634 2515 634 2208 
L 634 428 
C 634 184 608 153 198 153 
L 198 -13 
C 352 0 646 0 813 0 
C 998 0 1325 0 1498 -13 
L 1498 153 
C 1037 153 960 153 960 440 
L 960 1497 
z
" id="CMR17-72" transform="scale(0.015625)"/>
       <path d="M 710 1164 
C 832 1068 1043 960 1299 960 
C 1805 960 2240 1357 2240 1888 
C 2240 2054 2189 2310 1997 2509 
C 2176 2692 2438 2752 2586 2752 
C 2611 2752 2650 2752 2682 2734 
C 2656 2728 2598 2703 2598 2605 
C 2598 2527 2656 2471 2739 2471 
C 2835 2471 2886 2533 2886 2614 
C 2886 2731 2790 2854 2586 2854 
C 2330 2854 2106 2738 1926 2580 
C 1734 2753 1504 2816 1299 2816 
C 794 2816 358 2419 358 1888 
C 358 1522 570 1292 634 1228 
C 442 1004 442 743 442 711 
C 442 545 506 302 723 168 
C 390 85 128 -169 128 -486 
C 128 -943 736 -1280 1466 -1280 
C 2170 -1280 2803 -956 2803 -479 
C 2803 384 1856 384 1363 384 
C 1216 384 954 384 922 391 
C 723 423 589 602 589 826 
C 589 883 589 1024 710 1164 
z
M 1299 1068 
C 736 1068 736 1760 736 1889 
C 736 2016 736 2708 1299 2708 
C 1862 2708 1862 2016 1862 1889 
C 1862 1760 1862 1068 1299 1068 
z
M 1466 -1171 
C 826 -1171 384 -835 384 -486 
C 384 -289 493 -105 634 -4 
C 794 104 858 104 1293 104 
C 1818 104 2547 104 2547 -486 
C 2547 -835 2106 -1171 1466 -1171 
z
" id="CMR17-67" transform="scale(0.015625)"/>
       <path d="M 2496 2197 
C 2656 2586 2944 2586 3034 2586 
L 3034 2752 
C 2912 2752 2752 2752 2630 2752 
C 2496 2752 2285 2752 2157 2758 
L 2157 2592 
C 2400 2573 2406 2394 2406 2343 
C 2406 2280 2394 2248 2362 2171 
L 1664 449 
L 902 2306 
C 870 2382 870 2426 870 2433 
C 870 2573 1018 2586 1171 2586 
L 1171 2758 
C 1018 2752 742 2752 582 2752 
C 410 2752 205 2752 64 2758 
L 64 2586 
C 410 2586 448 2554 531 2350 
L 1485 15 
C 1197 -738 1030 -1178 627 -1178 
C 557 -1178 397 -1159 282 -1044 
C 429 -1031 493 -942 493 -833 
C 493 -725 416 -629 288 -629 
C 147 -629 77 -725 77 -840 
C 77 -1095 339 -1280 627 -1280 
C 998 -1280 1229 -922 1357 -604 
L 2496 2197 
z
" id="CMR17-79" transform="scale(0.015625)"/>
       <path d="M 1958 -1561 
C 1958 -1555 1958 -1542 1939 -1523 
C 1645 -1224 858 -407 858 1581 
C 858 3569 1632 4379 1946 4697 
C 1946 4704 1958 4717 1958 4736 
C 1958 4755 1939 4768 1914 4768 
C 1843 4768 1299 4296 986 3594 
C 666 2887 576 2199 576 1588 
C 576 1128 621 351 1005 -471 
C 1312 -1135 1837 -1600 1914 -1600 
C 1946 -1600 1958 -1587 1958 -1561 
z
" id="CMR17-28" transform="scale(0.015625)"/>
       <path d="M 1318 1871 
C 1331 1910 1491 2229 1728 2433 
C 1894 2586 2112 2689 2362 2689 
C 2618 2689 2707 2497 2707 2242 
C 2707 2203 2707 2076 2630 1775 
L 2470 1118 
C 2419 926 2298 453 2285 383 
C 2259 287 2221 121 2221 96 
C 2221 6 2291 -64 2387 -64 
C 2579 -64 2611 83 2669 313 
L 3053 1839 
C 3066 1890 3398 2689 4102 2689 
C 4358 2689 4448 2497 4448 2242 
C 4448 1884 4198 1188 4058 805 
C 4000 651 3968 568 3968 453 
C 3968 166 4166 -64 4474 -64 
C 5069 -64 5293 875 5293 913 
C 5293 945 5267 971 5229 971 
C 5171 971 5165 952 5133 843 
C 4986 332 4749 64 4493 64 
C 4429 64 4326 64 4326 269 
C 4326 436 4403 640 4429 710 
C 4544 1018 4832 1773 4832 2145 
C 4832 2528 4608 2816 4122 2816 
C 3693 2816 3347 2574 3091 2197 
C 3072 2542 2861 2816 2381 2816 
C 1811 2816 1510 2415 1395 2255 
C 1376 2618 1114 2816 832 2816 
C 646 2816 499 2727 378 2484 
C 262 2254 173 1865 173 1839 
C 173 1814 198 1782 243 1782 
C 294 1782 301 1788 339 1935 
C 435 2312 557 2689 813 2689 
C 960 2689 1011 2586 1011 2395 
C 1011 2254 947 2005 902 1807 
L 723 1118 
C 698 996 627 709 595 594 
C 550 428 480 128 480 96 
C 480 6 550 -64 646 -64 
C 723 -64 813 -26 864 70 
C 877 102 934 326 966 453 
L 1107 1028 
L 1318 1871 
z
" id="CMMI12-6d" transform="scale(0.015625)"/>
       <path d="M 2163 811 
C 2138 709 2125 683 2042 588 
C 1779 249 1510 128 1312 128 
C 1101 128 902 294 902 734 
C 902 1073 1094 1788 1235 2076 
C 1421 2433 1709 2689 1978 2689 
C 2400 2689 2483 2165 2483 2127 
L 2464 2037 
L 2163 811 
z
M 2560 2395 
C 2477 2580 2298 2816 1978 2816 
C 1280 2816 486 1941 486 990 
C 486 326 890 0 1299 0 
C 1638 0 1939 268 2054 396 
L 1914 -171 
C 1824 -516 1786 -674 1555 -894 
C 1293 -1152 1050 -1152 909 -1152 
C 717 -1152 557 -1139 397 -1089 
C 602 -1033 653 -858 653 -789 
C 653 -689 576 -588 435 -588 
C 282 -588 115 -714 115 -922 
C 115 -1180 378 -1280 922 -1280 
C 1747 -1280 2176 -753 2259 -410 
L 2970 2435 
C 2989 2511 2989 2524 2989 2536 
C 2989 2625 2918 2695 2822 2695 
C 2669 2695 2579 2567 2560 2395 
z
" id="CMMI12-67" transform="scale(0.015625)"/>
       <path d="M 1683 1581 
C 1683 2040 1638 2817 1254 3639 
C 947 4303 422 4768 346 4768 
C 326 4768 301 4761 301 4729 
C 301 4717 307 4710 314 4697 
C 621 4378 1402 3568 1402 1584 
C 1402 -407 627 -1217 314 -1537 
C 307 -1549 301 -1556 301 -1568 
C 301 -1600 326 -1600 346 -1600 
C 416 -1600 960 -1128 1274 -426 
C 1594 281 1683 969 1683 1581 
z
" id="CMR17-29" transform="scale(0.015625)"/>
      </defs>
      <use transform="scale(0.996264)" xlink:href="#CMR17-45"/>
      <use transform="translate(62.586301 0)scale(0.996264)" xlink:href="#CMR17-6e"/>
      <use transform="translate(113.48167 0)scale(0.996264)" xlink:href="#CMR17-65"/>
      <use transform="translate(153.967331 0)scale(0.996264)" xlink:href="#CMR17-72"/>
      <use transform="translate(189.248099 0)scale(0.996264)" xlink:href="#CMR17-67"/>
      <use transform="translate(234.938576 0)scale(0.996264)" xlink:href="#CMR17-79"/>
      <use transform="translate(313.307458 0)scale(0.996264)" xlink:href="#CMR17-28"/>
      <use transform="translate(348.588226 0)scale(0.996264)" xlink:href="#CMMI12-6d"/>
      <use transform="translate(433.91545 0)scale(0.996264)" xlink:href="#CMMI12-67"/>
      <use transform="translate(484.20094 0)scale(0.996264)" xlink:href="#CMMI12-7a"/>
      <use transform="translate(529.516693 -14.943915)scale(0.697382)" xlink:href="#CMR17-30"/>
      <use transform="translate(561.998007 0)scale(0.996264)" xlink:href="#CMR17-29"/>
     </g>
    </g>
   </g>
   <g id="line2d_15">
    <path clip-path="url(#p4d50421e4c)" d="M 54 218.662421 
L 55.962677 218.54916 
L 57.925354 218.217417 
L 60.051588 217.638094 
L 62.66849 216.676043 
L 66.430288 215.011167 
L 71.82765 212.633665 
L 74.771666 211.597121 
L 77.388569 210.920197 
L 79.841915 210.520156 
L 82.295261 210.349948 
L 84.748608 210.396381 
L 87.529067 210.678916 
L 90.636639 211.226131 
L 94.561993 212.15314 
L 110.099853 216.063584 
L 114.84299 216.893914 
L 119.749682 217.526417 
L 125.310601 218.008605 
L 131.852858 218.34235 
L 140.684905 218.552237 
L 155.568539 218.648069 
L 215.92086 218.662421 
L 388.8 218.662421 
L 388.8 218.662421 
" style="fill:none;stroke:#000000;stroke-linecap:square;stroke-width:1.5;"/>
   </g>
   <g id="line2d_16">
    <path clip-path="url(#p4d50421e4c)" d="M 54 193.712542 
L 55.962677 193.599809 
L 58.088911 193.240371 
L 60.542257 192.587283 
L 68.720078 190.187216 
L 70.846312 189.897446 
L 72.972545 189.83874 
L 75.098779 190.011531 
L 77.388569 190.42502 
L 80.332584 191.201923 
L 87.365511 193.161724 
L 89.818857 193.562096 
L 92.108647 193.71041 
L 94.398437 193.624481 
L 96.688227 193.312475 
L 99.305129 192.716746 
L 102.412702 191.769039 
L 112.5532 188.479412 
L 115.497215 187.861021 
L 118.277675 187.503691 
L 121.058134 187.370996 
L 124.002149 187.457732 
L 127.273278 187.78497 
L 131.198632 188.411466 
L 137.577333 189.694752 
L 145.591597 191.25649 
L 151.152516 192.104318 
L 156.713434 192.72082 
L 162.765022 193.162109 
L 170.125061 193.464497 
L 180.265559 193.640164 
L 199.565217 193.707801 
L 360.831851 193.712542 
L 388.8 193.712542 
L 388.8 193.712542 
" style="fill:none;stroke:#000000;stroke-linecap:square;stroke-width:1.5;"/>
   </g>
   <g id="line2d_17">
    <path clip-path="url(#p4d50421e4c)" d="M 54 173.285867 
L 55.962677 173.173564 
L 58.088911 172.821538 
L 60.86937 172.117797 
L 65.44895 170.93834 
L 67.73874 170.603339 
L 69.701417 170.532435 
L 71.82765 170.690461 
L 74.11744 171.09586 
L 77.552125 171.967496 
L 81.313923 172.870658 
L 83.603713 173.199669 
L 85.729946 173.283894 
L 87.85618 173.140859 
L 90.14597 172.757442 
L 93.089985 172.019256 
L 99.141573 170.434245 
L 101.594919 170.059981 
L 103.884709 169.941664 
L 106.174499 170.056918 
L 108.627846 170.412932 
L 111.735418 171.110337 
L 119.095457 172.8601 
L 121.71236 173.196276 
L 124.165706 173.284144 
L 126.619052 173.140536 
L 129.235955 172.750227 
L 132.179971 172.075655 
L 136.595994 170.797199 
L 142.320469 169.16743 
L 145.591597 168.464414 
L 148.69917 168.027486 
L 151.643185 167.837279 
L 154.750757 167.861874 
L 158.185442 168.11974 
L 162.274353 168.659678 
L 168.81661 169.785892 
L 177.4851 171.234934 
L 183.373131 171.985307 
L 189.424719 172.525981 
L 196.294089 172.903837 
L 204.962579 173.141843 
L 218.374206 173.260162 
L 257.464191 173.285819 
L 388.8 173.285867 
L 388.8 173.285867 
" style="fill:none;stroke:#000000;stroke-linecap:square;stroke-width:1.5;"/>
   </g>
   <g id="line2d_18">
    <path clip-path="url(#p4d50421e4c)" d="M 54 155.232668 
L 55.962677 155.120745 
L 58.088911 154.775184 
L 61.523596 153.949292 
L 64.631168 153.285445 
L 66.757401 153.055424 
L 68.720078 153.061051 
L 70.846312 153.298538 
L 73.463214 153.834666 
L 78.860576 155.010061 
L 80.98681 155.215185 
L 83.113043 155.186752 
L 85.239277 154.930268 
L 87.85618 154.37956 
L 93.907767 153.004428 
L 96.197557 152.769461 
L 98.323791 152.77825 
L 100.613581 153.02541 
L 103.39404 153.5756 
L 109.936297 154.988187 
L 112.226087 155.208684 
L 114.35232 155.204758 
L 116.64211 154.976206 
L 119.259013 154.480743 
L 124.492819 153.177645 
L 127.600391 152.547942 
L 130.053737 152.269436 
L 132.343527 152.22404 
L 134.796873 152.405212 
L 137.577333 152.851481 
L 141.666243 153.769574 
L 146.245823 154.743015 
L 149.026282 155.111995 
L 151.643185 155.23266 
L 154.096532 155.129976 
L 156.713434 154.803066 
L 159.821006 154.177414 
L 164.23703 153.029937 
L 170.452174 151.442701 
L 173.886859 150.804715 
L 176.994431 150.445274 
L 180.102003 150.30444 
L 183.373131 150.376398 
L 187.134929 150.689388 
L 191.878065 151.321805 
L 209.542159 153.892448 
L 215.757303 154.447031 
L 222.626673 154.830903 
L 231.295164 155.078203 
L 244.379678 155.203057 
L 279.707865 155.232551 
L 388.8 155.232668 
L 388.8 155.232668 
" style="fill:none;stroke:#000000;stroke-linecap:square;stroke-width:1.5;"/>
   </g>
   <g id="line2d_19">
    <path clip-path="url(#p4d50421e4c)" d="M 54 138.729678 
L 55.962677 138.618101 
L 58.252467 138.245202 
L 65.121837 136.926297 
L 67.084514 136.876021 
L 69.210747 137.06055 
L 71.82765 137.547005 
L 76.897899 138.562158 
L 79.024133 138.725604 
L 80.98681 138.662487 
L 83.113043 138.377948 
L 86.220616 137.709125 
L 89.982413 136.938368 
L 92.272203 136.712155 
L 94.398437 136.738151 
L 96.688227 137.009533 
L 99.795799 137.642991 
L 104.048266 138.492776 
L 106.338056 138.711084 
L 108.464289 138.690928 
L 110.754079 138.433695 
L 113.534538 137.880403 
L 119.259013 136.678197 
L 121.548803 136.455275 
L 123.675037 136.45768 
L 125.964827 136.680746 
L 128.745286 137.185271 
L 135.614656 138.537821 
L 138.068002 138.722258 
L 140.357792 138.668819 
L 142.811138 138.380265 
L 145.755154 137.7977 
L 153.115193 136.232653 
L 155.732096 135.975203 
L 158.185442 135.962385 
L 160.802345 136.186506 
L 163.746361 136.671563 
L 174.050415 138.583627 
L 176.667318 138.726982 
L 179.284221 138.651199 
L 182.06468 138.341409 
L 185.172252 137.76686 
L 189.751832 136.666876 
L 195.966976 135.205002 
L 199.565217 134.599657 
L 202.836346 134.27385 
L 206.107474 134.171088 
L 209.705716 134.292391 
L 213.794626 134.664899 
L 219.519101 135.436105 
L 232.112946 137.187094 
L 238.491646 137.807494 
L 245.19746 138.234817 
L 253.375281 138.520658 
L 264.824231 138.676985 
L 288.867025 138.728026 
L 388.8 138.729678 
L 388.8 138.729678 
" style="fill:none;stroke:#000000;stroke-linecap:square;stroke-width:1.5;"/>
   </g>
   <g id="line2d_20">
    <path clip-path="url(#p4d50421e4c)" d="M 54 123.35179 
L 55.962677 123.240534 
L 58.252467 122.873945 
L 64.140498 121.794793 
L 66.103175 121.727516 
L 68.065852 121.87474 
L 70.519199 122.293705 
L 75.589448 123.2336 
L 77.715681 123.35175 
L 79.678359 123.243099 
L 81.968149 122.889848 
L 88.837518 121.656641 
L 90.963752 121.618997 
L 93.089985 121.812622 
L 95.870445 122.317856 
L 100.450024 123.178991 
L 102.576258 123.345075 
L 104.702491 123.285714 
L 106.992281 122.987457 
L 110.590523 122.242999 
L 113.861651 121.643102 
L 116.151441 121.451397 
L 118.277675 121.49639 
L 120.567465 121.769404 
L 124.002149 122.444202 
L 127.763947 123.134563 
L 130.053737 123.335822 
L 132.179971 123.31322 
L 134.469761 123.068368 
L 137.413776 122.511546 
L 142.811138 121.443903 
L 145.264485 121.215781 
L 147.554275 121.229883 
L 150.007621 121.479668 
L 153.115193 122.042883 
L 158.839668 123.116247 
L 161.293014 123.330115 
L 163.582804 123.320955 
L 166.03615 123.088954 
L 168.980166 122.572108 
L 177.321544 120.941867 
L 179.938447 120.746399 
L 182.391793 120.779703 
L 185.008696 121.032296 
L 188.279824 121.582105 
L 196.621202 123.099487 
L 199.401661 123.324093 
L 202.18212 123.320832 
L 204.962579 123.089603 
L 208.070151 122.600873 
L 212.322618 121.678065 
L 220.00977 119.976621 
L 223.608012 119.431584 
L 227.042697 119.140782 
L 230.477382 119.079023 
L 234.239179 119.243997 
L 238.655203 119.670494 
L 245.688129 120.610221 
L 255.174402 121.836938 
L 261.880215 122.464458 
L 268.913141 122.889131 
L 277.254519 123.160016 
L 289.357694 123.307512 
L 316.508061 123.35097 
L 388.8 123.35179 
L 388.8 123.35179 
" style="fill:none;stroke:#000000;stroke-linecap:square;stroke-width:1.5;"/>
   </g>
   <g id="line2d_21">
    <path clip-path="url(#p4d50421e4c)" d="M 54 108.843573 
L 55.962677 108.73262 
L 58.252467 108.371917 
L 63.486273 107.459161 
L 65.44895 107.390833 
L 67.411627 107.537427 
L 70.02853 107.981747 
L 74.280997 108.727934 
L 76.40723 108.843442 
L 78.369907 108.730809 
L 80.823254 108.346167 
L 86.220616 107.390906 
L 88.346849 107.302019 
L 90.473083 107.451493 
L 93.089985 107.885833 
L 97.833122 108.721362 
L 99.959355 108.843487 
L 102.085589 108.73353 
L 104.538935 108.362448 
L 110.917636 107.256144 
L 113.043869 107.193019 
L 115.170103 107.351584 
L 117.787005 107.780242 
L 123.184367 108.724098 
L 125.474157 108.843519 
L 127.600391 108.731145 
L 130.053737 108.372251 
L 137.577333 107.087229 
L 139.867123 107.046071 
L 142.156913 107.237652 
L 145.100928 107.735017 
L 150.334734 108.666142 
L 152.78808 108.839403 
L 155.07787 108.769108 
L 157.531216 108.463872 
L 161.293014 107.726376 
L 165.054812 107.047571 
L 167.508158 106.822638 
L 169.797948 106.827182 
L 172.251295 107.055848 
L 175.358867 107.584115 
L 181.246898 108.628625 
L 183.863801 108.831127 
L 186.317147 108.792995 
L 188.93405 108.517412 
L 192.205178 107.926119 
L 198.910992 106.650843 
L 201.691451 106.39572 
L 204.308354 106.385652 
L 207.088813 106.61262 
L 210.359941 107.118594 
L 219.355545 108.646935 
L 222.29956 108.834529 
L 225.08002 108.786937 
L 228.024035 108.505751 
L 231.45872 107.934849 
L 236.856082 106.763809 
L 242.417 105.632028 
L 246.178798 105.101553 
L 249.613483 104.84076 
L 253.211724 104.799211 
L 257.137079 104.989125 
L 261.880215 105.454817 
L 271.039375 106.641702 
L 278.890083 107.54738 
L 285.759453 108.108628 
L 293.119492 108.479893 
L 302.442208 108.712316 
L 316.99873 108.822864 
L 363.939424 108.843564 
L 388.8 108.843573 
L 388.8 108.843573 
" style="fill:none;stroke:#000000;stroke-linecap:square;stroke-width:1.5;"/>
   </g>
   <g id="line2d_22">
    <path clip-path="url(#p4d50421e4c)" d="M 54 95.03649 
L 55.962677 94.925824 
L 58.416023 94.53962 
L 62.832047 93.796834 
L 64.794724 93.714066 
L 66.757401 93.847187 
L 69.374304 94.274397 
L 73.299658 94.930874 
L 75.425892 95.035706 
L 77.388569 94.912356 
L 79.841915 94.523989 
L 84.421495 93.744501 
L 86.547728 93.646525 
L 88.673962 93.789433 
L 91.290865 94.214 
L 95.543332 94.926372 
L 97.669565 95.036353 
L 99.795799 94.910951 
L 102.249145 94.530361 
L 107.482951 93.648848 
L 109.609184 93.564287 
L 111.735418 93.707354 
L 114.35232 94.12239 
L 119.095457 94.920094 
L 121.22169 95.036416 
L 123.347924 94.931088 
L 125.80127 94.576439 
L 132.179971 93.520189 
L 134.306204 93.460213 
L 136.595994 93.631481 
L 139.376453 94.082894 
L 144.283146 94.905938 
L 146.572936 95.036192 
L 148.862726 94.928819 
L 151.479629 94.556886 
L 158.676111 93.370389 
L 160.965901 93.31505 
L 163.255691 93.48348 
L 166.199707 93.94776 
L 171.760625 94.885468 
L 174.213972 95.03497 
L 176.503762 94.952218 
L 179.120664 94.620782 
L 183.700244 93.746222 
L 186.971373 93.243112 
L 189.424719 93.086777 
L 191.878065 93.160947 
L 194.494968 93.468071 
L 198.747435 94.236687 
L 202.509233 94.831562 
L 205.126136 95.024694 
L 207.579482 94.988006 
L 210.196385 94.724564 
L 213.467513 94.159676 
L 220.173327 92.94195 
L 222.953786 92.698549 
L 225.570689 92.68919 
L 228.351148 92.906193 
L 231.785833 93.418064 
L 240.454323 94.832644 
L 243.398339 95.024006 
L 246.178798 94.990736 
L 249.122814 94.733796 
L 252.557499 94.198364 
L 257.791304 93.119663 
L 263.679336 91.968826 
L 267.441133 91.462388 
L 271.039375 91.206916 
L 274.637616 91.177237 
L 278.56297 91.367374 
L 283.469663 91.837303 
L 305.386224 94.226696 
L 312.746263 94.627226 
L 321.741866 94.879439 
L 335.153493 95.006441 
L 370.808793 95.036368 
L 388.8 95.036486 
L 388.8 95.036486 
" style="fill:none;stroke:#000000;stroke-linecap:square;stroke-width:1.5;"/>
   </g>
   <g id="line2d_23">
    <path clip-path="url(#p4d50421e4c)" d="M 54 81.811985 
L 55.962677 81.701594 
L 58.416023 81.321488 
L 62.504934 80.668188 
L 64.467611 80.59745 
L 66.430288 80.74186 
L 69.210747 81.19994 
L 72.645432 81.730116 
L 74.608109 81.810269 
L 76.570787 81.678453 
L 79.187689 81.258693 
L 83.113043 80.629075 
L 85.239277 80.543221 
L 87.365511 80.698948 
L 90.14597 81.156125 
L 93.744211 81.718689 
L 95.870445 81.810304 
L 97.996678 81.664782 
L 100.777137 81.213082 
L 104.702491 80.579207 
L 106.828725 80.476365 
L 108.954958 80.605197 
L 111.571861 81.007213 
L 115.987885 81.714329 
L 118.114118 81.811377 
L 120.240352 81.682516 
L 122.857255 81.281074 
L 127.600391 80.502338 
L 129.726624 80.396131 
L 131.852858 80.509414 
L 134.469761 80.890208 
L 139.703566 81.723492 
L 141.8298 81.811099 
L 143.956033 81.686055 
L 146.572936 81.297703 
L 152.133854 80.389937 
L 154.423644 80.294168 
L 156.713434 80.434905 
L 159.493894 80.851957 
L 164.727699 81.69483 
L 167.017489 81.811964 
L 169.307279 81.700799 
L 171.924182 81.337197 
L 178.957108 80.217762 
L 181.246898 80.15684 
L 183.536688 80.311441 
L 186.480703 80.75189 
L 192.205178 81.675349 
L 194.658525 81.811281 
L 196.948315 81.724435 
L 199.565217 81.399644 
L 209.05149 79.961678 
L 211.504836 79.96644 
L 214.121739 80.203737 
L 217.556424 80.760833 
L 222.79023 81.606071 
L 225.570689 81.802842 
L 228.187592 81.750606 
L 230.968051 81.455689 
L 234.729849 80.797296 
L 240.290767 79.83105 
L 243.234783 79.570295 
L 245.851685 79.554823 
L 248.632145 79.757169 
L 252.06683 80.244059 
L 260.898876 81.624193 
L 264.006448 81.80538 
L 266.950464 81.746322 
L 270.058036 81.450451 
L 273.656277 80.87339 
L 287.395017 78.421307 
L 290.993258 78.150776 
L 294.5915 78.098628 
L 298.68041 78.271335 
L 303.587103 78.712978 
L 314.381827 79.992739 
L 322.068979 80.758178 
L 329.265462 81.243902 
L 337.443283 81.560199 
L 348.401563 81.740353 
L 368.846116 81.807595 
L 388.8 81.811809 
L 388.8 81.811809 
" style="fill:none;stroke:#000000;stroke-linecap:square;stroke-width:1.5;"/>
   </g>
   <g id="line2d_24">
    <path clip-path="url(#p4d50421e4c)" d="M 54 69.082674 
L 55.962677 68.972547 
L 58.57958 68.568628 
L 62.177821 68.02193 
L 64.140498 67.956189 
L 66.103175 68.105045 
L 69.047191 68.586526 
L 71.991207 69.010408 
L 73.953884 69.0791 
L 76.080117 68.915817 
L 79.187689 68.396924 
L 82.131705 67.977045 
L 84.094382 67.911684 
L 86.220616 68.073684 
L 89.328188 68.585158 
L 92.272203 69.006114 
L 94.398437 69.077462 
L 96.52467 68.911473 
L 99.468686 68.424831 
L 102.739814 67.939162 
L 104.866048 67.859313 
L 106.992281 68.012282 
L 109.936297 68.484321 
L 113.370982 68.99519 
L 115.497215 69.080682 
L 117.623449 68.937566 
L 120.403908 68.500061 
L 124.329262 67.890937 
L 126.455496 67.794535 
L 128.581729 67.921511 
L 131.362189 68.340119 
L 135.614656 68.990976 
L 137.740889 69.081863 
L 139.867123 68.954912 
L 142.647582 68.536533 
L 147.227162 67.816823 
L 149.516952 67.718181 
L 151.806742 67.863367 
L 154.587201 68.283831 
L 159.166781 68.985136 
L 161.456571 69.081562 
L 163.746361 68.941122 
L 166.52682 68.524148 
L 171.597069 67.723492 
L 173.886859 67.617615 
L 176.176649 67.740357 
L 178.957108 68.133131 
L 184.518026 68.987078 
L 186.807816 69.082126 
L 189.097606 68.957092 
L 191.878065 68.564518 
L 198.256766 67.568006 
L 200.710112 67.483654 
L 203.163459 67.638137 
L 206.107474 68.064752 
L 211.831949 68.953486 
L 214.285296 69.082177 
L 216.738642 68.982541 
L 219.519101 68.62898 
L 228.187592 67.321276 
L 230.640938 67.285082 
L 233.257841 67.476131 
L 236.528969 67.959581 
L 242.744113 68.921026 
L 245.524573 69.080354 
L 248.141475 68.999549 
L 250.921935 68.688642 
L 255.010845 67.97616 
L 259.917538 67.168546 
L 262.861553 66.919165 
L 265.642013 66.91217 
L 268.586028 67.139132 
L 272.18427 67.654934 
L 280.034978 68.856286 
L 283.14255 69.065231 
L 286.086566 69.042754 
L 289.194138 68.789736 
L 292.792379 68.259209 
L 299.007523 67.059668 
L 304.241329 66.152093 
L 308.166683 65.703532 
L 311.764924 65.512263 
L 315.526722 65.531502 
L 319.779189 65.776466 
L 325.503664 66.346227 
L 341.368637 68.041885 
L 348.56512 68.519327 
L 356.742941 68.831949 
L 367.701221 69.010988 
L 388.145774 69.078246 
L 388.8 69.078658 
L 388.8 69.078658 
" style="fill:none;stroke:#000000;stroke-linecap:square;stroke-width:1.5;"/>
   </g>
   <g id="line2d_25">
    <path clip-path="url(#p4d50421e4c)" d="M 54 56.781811 
L 55.962677 56.671939 
L 58.57958 56.274413 
L 62.014265 55.780767 
L 63.976942 55.732714 
L 66.103175 55.91882 
L 72.972545 56.781781 
L 74.935222 56.671778 
L 77.552125 56.278505 
L 81.150366 55.752287 
L 83.113043 55.692125 
L 85.239277 55.859724 
L 88.673962 56.41782 
L 91.290865 56.739276 
L 93.253542 56.7678 
L 95.379775 56.573399 
L 102.739814 55.644678 
L 104.866048 55.770938 
L 107.646507 56.192188 
L 111.244748 56.710463 
L 113.370982 56.775988 
L 115.497215 56.61208 
L 118.604787 56.110573 
L 121.71236 55.672051 
L 123.838593 55.598214 
L 125.964827 55.749484 
L 129.072399 56.236694 
L 132.343527 56.700005 
L 134.469761 56.779403 
L 136.595994 56.637681 
L 139.54001 56.183232 
L 143.301808 55.625222 
L 145.428041 55.535171 
L 147.554275 55.661224 
L 150.334734 56.068613 
L 154.587201 56.695919 
L 156.876991 56.778403 
L 159.166781 56.618412 
L 162.110796 56.161254 
L 166.03615 55.568837 
L 168.32594 55.459987 
L 170.61573 55.587674 
L 173.39619 55.986148 
L 178.139326 56.690264 
L 180.429116 56.780391 
L 182.718906 56.641345 
L 185.662921 56.207108 
L 190.406058 55.478421 
L 192.695848 55.36349 
L 194.985638 55.470076 
L 197.766097 55.841033 
L 203.654128 56.705233 
L 205.943918 56.779177 
L 208.233708 56.640671 
L 211.177723 56.219263 
L 216.902198 55.340728 
L 219.355545 55.231304 
L 221.808891 55.354342 
L 224.752907 55.747898 
L 231.131607 56.688168 
L 233.584954 56.781063 
L 236.0383 56.652972 
L 238.982316 56.258542 
L 246.505911 55.118476 
L 249.122814 55.032356 
L 251.739717 55.179388 
L 254.847289 55.592872 
L 262.207328 56.671993 
L 264.824231 56.781809 
L 267.441133 56.674022 
L 270.385149 56.323842 
L 275.618955 55.413105 
L 279.380752 54.869854 
L 282.324768 54.669385 
L 285.105227 54.703789 
L 288.212799 54.980049 
L 292.30171 55.592527 
L 298.516854 56.515133 
L 301.787982 56.755391 
L 304.731998 56.754902 
L 307.83957 56.530389 
L 311.437811 56.033828 
L 317.162286 54.972898 
L 322.886761 53.986623 
L 326.812115 53.535179 
L 330.573913 53.328806 
L 334.499267 53.345314 
L 338.915291 53.596744 
L 344.803322 54.172579 
L 360.014069 55.75088 
L 367.374108 56.22989 
L 375.715486 56.539944 
L 386.837323 56.714066 
L 388.8 56.728708 
L 388.8 56.728708 
" style="fill:none;stroke:#000000;stroke-linecap:square;stroke-width:1.5;"/>
   </g>
   <g id="line2d_26">
    <path clip-path="url(#p4d50421e4c)" d="M 54 44.856961 
L 55.962677 44.747335 
L 58.743136 44.32797 
L 61.850708 43.909015 
L 63.813385 43.874412 
L 65.939619 44.072205 
L 72.154763 44.855739 
L 74.11744 44.770922 
L 76.570787 44.427371 
L 80.332584 43.888489 
L 82.295261 43.837221 
L 84.421495 44.013567 
L 91.454421 44.856308 
L 93.580655 44.719025 
L 96.52467 44.263783 
L 99.632242 43.848095 
L 101.758476 43.80785 
L 103.884709 43.998447 
L 110.917636 44.856954 
L 113.043869 44.738401 
L 115.824328 44.326009 
L 119.42257 43.818802 
L 121.548803 43.760169 
L 123.675037 43.927339 
L 127.273278 44.4947 
L 130.053737 44.819709 
L 132.179971 44.835453 
L 134.469761 44.612124 
L 141.502687 43.70684 
L 143.62892 43.784529 
L 146.245823 44.128714 
L 150.988959 44.800065 
L 153.115193 44.84834 
L 155.404983 44.664044 
L 159.003224 44.088683 
L 161.94724 43.710587 
L 164.073473 43.651183 
L 166.363263 43.818708 
L 169.634392 44.32264 
L 172.90552 44.769895 
L 175.19531 44.854361 
L 177.4851 44.703166 
L 180.429116 44.261872 
L 184.518026 43.668325 
L 186.807816 43.574604 
L 189.097606 43.710063 
L 192.041622 44.131829 
L 196.457645 44.764408 
L 198.747435 44.856012 
L 201.037225 44.724995 
L 203.981241 44.306284 
L 208.887934 43.580615 
L 211.177723 43.480165 
L 213.467513 43.59458 
L 216.411529 43.98945 
L 221.808891 44.766273 
L 224.262237 44.854982 
L 226.715584 44.707603 
L 229.659599 44.29063 
L 235.220518 43.461745 
L 237.673864 43.351632 
L 240.127211 43.467289 
L 243.071226 43.846473 
L 249.613483 44.775366 
L 252.06683 44.855089 
L 254.520176 44.720575 
L 257.464191 44.329542 
L 264.660674 43.258329 
L 267.277577 43.156796 
L 269.89448 43.282506 
L 273.002052 43.670831 
L 280.85276 44.771808 
L 283.633219 44.853986 
L 286.413679 44.698976 
L 289.521251 44.293859 
L 299.007523 42.889281 
L 301.787982 42.794015 
L 304.731998 42.922427 
L 308.166683 43.317575 
L 319.124963 44.783426 
L 322.232535 44.852383 
L 325.340107 44.694116 
L 328.774792 44.28826 
L 333.517929 43.475648 
L 341.205081 42.149353 
L 345.293991 41.695278 
L 349.055789 41.501975 
L 352.981143 41.524606 
L 357.560723 41.787037 
L 363.775867 42.390038 
L 377.84172 43.814015 
L 385.365315 44.302734 
L 388.8 44.455787 
L 388.8 44.455787 
" style="fill:none;stroke:#000000;stroke-linecap:square;stroke-width:1.5;"/>
   </g>
   <g id="line2d_27">
    <path clip-path="url(#p4d50421e4c)" d="M 54 33.265981 
L 55.962677 33.156593 
L 58.743136 32.743964 
L 61.687152 32.365603 
L 63.649829 32.340979 
L 65.776063 32.546796 
L 71.500537 33.262528 
L 73.463214 33.192732 
L 75.916561 32.863007 
L 79.678359 32.344871 
L 81.641036 32.309089 
L 83.767269 32.499681 
L 90.14597 33.265872 
L 92.108647 33.168431 
L 94.72555 32.796975 
L 98.160234 32.325014 
L 100.286468 32.278201 
L 102.412702 32.463851 
L 109.118515 33.265957 
L 111.244748 33.151618 
L 114.025208 32.746356 
L 117.459893 32.285624 
L 119.586126 32.244323 
L 121.71236 32.427998 
L 128.745286 33.26598 
L 130.871519 33.152604 
L 133.651979 32.752517 
L 137.25022 32.25723 
L 139.376453 32.198125 
L 141.502687 32.358987 
L 145.100928 32.910448 
L 147.881387 33.228571 
L 150.007621 33.245921 
L 152.297411 33.030367 
L 159.330337 32.14705 
L 161.456571 32.220718 
L 164.073473 32.554207 
L 168.81661 33.209227 
L 170.942843 33.25813 
L 173.232633 33.080617 
L 176.830874 32.52145 
L 179.77489 32.151842 
L 182.06468 32.096203 
L 184.35447 32.272585 
L 187.952711 32.822038 
L 191.060283 33.205395 
L 193.350073 33.256658 
L 195.639863 33.081132 
L 199.074548 32.553568 
L 202.509233 32.097109 
L 204.799023 32.019899 
L 207.088813 32.164897 
L 210.196385 32.610613 
L 214.285296 33.174268 
L 216.575085 33.265221 
L 218.864875 33.139477 
L 221.808891 32.733279 
L 226.715584 32.02559 
L 229.16893 31.927059 
L 231.622277 32.067089 
L 234.729849 32.497329 
L 239.472985 33.162401 
L 241.926331 33.265648 
L 244.379678 33.138642 
L 247.323693 32.744591 
L 253.211724 31.896053 
L 255.665071 31.801663 
L 258.118417 31.926585 
L 261.225989 32.330426 
L 267.277577 33.172667 
L 269.89448 33.264372 
L 272.511383 33.119555 
L 275.618955 32.703716 
L 282.324768 31.72525 
L 284.941671 31.61109 
L 287.558574 31.718532 
L 290.666146 32.084598 
L 298.843967 33.19285 
L 301.624426 33.260851 
L 304.404885 33.098582 
L 307.676014 32.669902 
L 316.508061 31.376952 
L 319.452076 31.258113 
L 322.396092 31.369392 
L 325.830777 31.742672 
L 337.279726 33.210886 
L 340.387298 33.255993 
L 343.494871 33.080928 
L 347.093112 32.643695 
L 352.326917 31.746729 
L 359.032731 30.633703 
L 363.121641 30.19071 
L 366.883439 30.001497 
L 370.808793 30.022491 
L 375.388373 30.276991 
L 381.767074 30.880569 
L 388.8 31.627868 
L 388.8 31.627868 
" style="fill:none;stroke:#000000;stroke-linecap:square;stroke-width:1.5;"/>
   </g>
   <g id="line2d_28">
    <path clip-path="url(#p4d50421e4c)" d="M 54 252 
L 388.8 34.56 
L 388.8 34.56 
" style="fill:none;stroke:#000000;stroke-linecap:square;stroke-width:1.5;"/>
   </g>
   <g id="patch_3">
    <path d="M 54 252 
L 54 34.56 
" style="fill:none;stroke:#000000;stroke-linecap:square;stroke-linejoin:miter;stroke-width:0.8;"/>
   </g>
   <g id="patch_4">
    <path d="M 388.8 252 
L 388.8 34.56 
" style="fill:none;stroke:#000000;stroke-linecap:square;stroke-linejoin:miter;stroke-width:0.8;"/>
   </g>
   <g id="patch_5">
    <path d="M 54 252 
L 388.8 252 
" style="fill:none;stroke:#000000;stroke-linecap:square;stroke-linejoin:miter;stroke-width:0.8;"/>
   </g>
   <g id="patch_6">
    <path d="M 54 34.56 
L 388.8 34.56 
" style="fill:none;stroke:#000000;stroke-linecap:square;stroke-linejoin:miter;stroke-width:0.8;"/>
   </g>
   <g id="text_17">
    <!-- Probability densities of the quantum bouncing ball -->
    <g transform="translate(38.648345 28.56)scale(0.168 -0.168)">
     <defs>
      <path d="M 1267 2042 
L 2291 2042 
C 3117 2042 3718 2578 3718 3184 
C 3718 3791 3130 4352 2291 4352 
L 333 4352 
L 333 4186 
C 774 4186 845 4186 845 3899 
L 845 446 
C 845 160 774 160 333 160 
L 333 0 
C 518 0 858 0 1056 0 
C 1254 0 1594 0 1779 0 
L 1779 160 
C 1338 160 1267 160 1267 446 
L 1267 2042 
z
M 1254 2176 
L 1254 3938 
C 1254 4155 1267 4186 1523 4186 
L 2170 4186 
C 2995 4186 3232 3714 3232 3184 
C 3232 2604 2950 2176 2170 2176 
L 1254 2176 
z
" id="CMR17-50" transform="scale(0.015625)"/>
      <path d="M 2758 1356 
C 2758 2176 2163 2816 1466 2816 
C 768 2816 173 2176 173 1356 
C 173 551 768 -64 1466 -64 
C 2163 -64 2758 551 2758 1356 
z
M 1466 51 
C 1165 51 909 230 762 480 
C 602 767 582 1126 582 1408 
C 582 1677 595 2010 762 2298 
C 890 2509 1139 2714 1466 2714 
C 1754 2714 1997 2554 2150 2330 
C 2349 2029 2349 1607 2349 1408 
C 2349 1158 2336 775 2163 467 
C 1984 173 1709 51 1466 51 
z
" id="CMR17-6f" transform="scale(0.015625)"/>
      <path d="M 960 4396 
L 198 4326 
L 198 4160 
C 576 4160 634 4122 634 3817 
L 634 -13 
L 749 -13 
L 934 441 
C 1120 141 1395 -64 1766 -64 
C 2406 -64 3053 500 3053 1370 
C 3053 2188 2477 2790 1830 2790 
C 1434 2790 1152 2579 960 2330 
L 960 4396 
z
M 973 2004 
C 973 2118 973 2138 1062 2272 
C 1312 2657 1670 2688 1792 2688 
C 1984 2688 2643 2585 2643 1376 
C 2643 108 1888 38 1734 38 
C 1536 38 1248 114 1043 486 
C 973 608 973 621 973 735 
L 973 2004 
z
" id="CMR17-62" transform="scale(0.015625)"/>
      <path d="M 2304 1653 
C 2304 2072 2304 2294 2035 2543 
C 1798 2752 1523 2816 1306 2816 
C 800 2816 435 2407 435 1971 
C 435 1728 627 1728 666 1728 
C 749 1728 896 1778 896 1954 
C 896 2112 774 2181 666 2181 
C 640 2181 608 2174 589 2168 
C 723 2592 1069 2714 1293 2714 
C 1613 2714 1965 2429 1965 1885 
L 1965 1600 
C 1587 1600 1133 1549 774 1357 
C 371 1133 256 813 256 570 
C 256 77 832 -64 1171 -64 
C 1523 -64 1850 139 1990 511 
C 2003 233 2182 -18 2464 -18 
C 2598 -18 2938 70 2938 567 
L 2938 920 
L 2822 920 
L 2822 562 
C 2822 178 2650 128 2566 128 
C 2304 128 2304 458 2304 738 
L 2304 1653 
z
M 1965 870 
C 1965 317 1568 38 1216 38 
C 896 38 646 275 646 570 
C 646 761 730 1100 1101 1305 
C 1408 1478 1760 1504 1965 1504 
L 1965 870 
z
" id="CMR17-61" transform="scale(0.015625)"/>
      <path d="M 992 3909 
C 992 4049 877 4170 730 4170 
C 589 4170 467 4056 467 3909 
C 467 3769 582 3648 730 3648 
C 870 3648 992 3763 992 3909 
z
M 243 2706 
L 243 2541 
C 602 2541 653 2502 653 2197 
L 653 427 
C 653 184 627 153 218 153 
L 218 -13 
C 371 0 646 0 806 0 
C 960 0 1222 0 1370 -13 
L 1370 153 
C 992 153 979 191 979 420 
L 979 2776 
L 243 2706 
z
" id="CMR17-69" transform="scale(0.015625)"/>
      <path d="M 979 4396 
L 218 4326 
L 218 4160 
C 595 4160 653 4122 653 3817 
L 653 426 
C 653 184 627 153 218 153 
L 218 -13 
C 371 0 653 0 813 0 
C 979 0 1261 0 1414 -13 
L 1414 153 
C 1005 153 979 178 979 426 
L 979 4396 
z
" id="CMR17-6c" transform="scale(0.015625)"/>
      <path d="M 966 2560 
L 1862 2560 
L 1862 2725 
L 966 2725 
L 966 3904 
L 851 3904 
C 838 3245 614 2668 70 2668 
L 70 2560 
L 627 2560 
L 627 771 
C 627 650 627 -64 1370 -64 
C 1747 -64 1965 306 1965 777 
L 1965 1140 
L 1850 1140 
L 1850 783 
C 1850 344 1677 51 1408 51 
C 1222 51 966 178 966 758 
L 966 2560 
z
" id="CMR17-74" transform="scale(0.015625)"/>
      <path d="M 1869 4326 
L 1869 4160 
C 2246 4160 2304 4122 2304 3820 
L 2304 2345 
C 2278 2377 2016 2790 1498 2790 
C 845 2790 211 2208 211 1364 
C 211 525 806 -64 1434 -64 
C 1978 -64 2259 337 2291 380 
L 2291 -63 
L 3066 -63 
L 3066 128 
C 2688 128 2630 166 2630 473 
L 2630 4396 
L 1869 4326 
z
M 2291 755 
C 2291 563 2176 390 2029 262 
C 1811 70 1594 38 1472 38 
C 1286 38 621 134 621 1356 
C 621 2612 1363 2688 1530 2688 
C 1824 2688 2061 2522 2208 2291 
C 2291 2157 2291 2138 2291 2023 
L 2291 755 
z
" id="CMR17-64" transform="scale(0.015625)"/>
      <path d="M 1978 2697 
C 1978 2813 1971 2819 1933 2819 
C 1907 2819 1901 2813 1824 2717 
C 1805 2691 1747 2626 1728 2601 
C 1523 2819 1235 2819 1126 2819 
C 416 2819 160 2447 160 2076 
C 160 1498 813 1365 998 1325 
C 1402 1243 1542 1217 1677 1101 
C 1760 1025 1901 884 1901 654 
C 1901 384 1747 38 1158 38 
C 602 38 403 460 288 1021 
C 269 1110 269 1117 218 1117 
C 166 1117 160 1110 160 983 
L 160 63 
C 160 -51 166 -58 205 -58 
C 237 -58 243 -51 275 0 
C 314 57 410 211 448 276 
C 576 103 800 -64 1158 -64 
C 1792 -64 2131 283 2131 784 
C 2131 1112 1958 1285 1875 1362 
C 1683 1561 1459 1606 1190 1657 
C 838 1735 390 1825 390 2217 
C 390 2383 480 2737 1126 2737 
C 1811 2737 1850 2094 1862 1888 
C 1869 1856 1901 1849 1920 1849 
C 1978 1849 1978 1869 1978 1978 
L 1978 2697 
z
" id="CMR17-73" transform="scale(0.015625)"/>
      <path d="M 979 2560 
L 1709 2560 
L 1709 2725 
L 966 2725 
L 966 3494 
C 966 4022 1235 4352 1510 4352 
C 1594 4352 1690 4327 1754 4282 
C 1702 4269 1568 4225 1568 4067 
C 1568 3901 1696 3850 1786 3850 
C 1875 3850 2003 3901 2003 4067 
C 2003 4308 1773 4454 1517 4454 
C 1152 4454 653 4156 653 3481 
L 653 2725 
L 141 2725 
L 141 2560 
L 653 2560 
L 653 427 
C 653 184 627 153 218 153 
L 218 -13 
C 371 0 666 0 832 0 
C 1018 0 1344 0 1517 -13 
L 1517 153 
C 1056 153 979 153 979 439 
L 979 2560 
z
" id="CMR17-66" transform="scale(0.015625)"/>
      <path d="M 2656 1933 
C 2656 2259 2592 2790 1837 2790 
C 1312 2790 1056 2368 979 2157 
L 973 2157 
L 973 4396 
L 211 4326 
L 211 4160 
C 589 4160 646 4122 646 3817 
L 646 426 
C 646 184 621 153 211 153 
L 211 -13 
C 365 0 646 0 813 0 
C 979 0 1267 0 1421 -13 
L 1421 153 
C 1011 153 986 178 986 428 
L 986 1658 
C 986 2247 1344 2688 1792 2688 
C 2266 2688 2317 2266 2317 1958 
L 2317 428 
C 2317 184 2291 153 1882 153 
L 1882 -13 
C 2035 0 2317 0 2483 0 
C 2650 0 2938 0 3091 -13 
L 3091 153 
C 2682 153 2656 178 2656 428 
L 2656 1933 
z
" id="CMR17-68" transform="scale(0.015625)"/>
      <path d="M 2630 2802 
L 2528 2802 
L 2336 2172 
C 2189 2509 1920 2802 1491 2802 
C 838 2802 211 2223 211 1383 
C 211 548 800 -38 1440 -38 
C 1933 -38 2208 338 2291 478 
L 2291 -789 
C 2291 -1031 2266 -1063 1856 -1063 
L 1856 -1228 
C 2010 -1216 2291 -1216 2458 -1216 
C 2624 -1216 2912 -1216 3066 -1228 
L 3066 -1063 
C 2656 -1063 2630 -1037 2630 -789 
L 2630 2802 
z
M 2304 886 
C 2304 612 2074 357 2054 338 
C 1856 115 1626 64 1472 64 
C 992 64 621 669 621 1375 
C 621 2121 1043 2688 1536 2688 
C 2048 2688 2304 2108 2304 1777 
L 2304 886 
z
" id="CMR17-71" transform="scale(0.015625)"/>
      <path d="M 1882 2693 
L 1882 2528 
C 2259 2528 2317 2489 2317 2186 
L 2317 1032 
C 2317 500 2029 38 1555 38 
C 1030 38 986 348 986 678 
L 986 2763 
L 211 2693 
L 211 2528 
C 467 2528 640 2528 646 2274 
L 646 1058 
C 646 633 646 361 813 183 
C 896 101 1056 -64 1517 -64 
C 2061 -64 2272 377 2323 506 
L 2330 506 
L 2330 -63 
L 3091 -63 
L 3091 128 
C 2714 128 2656 166 2656 473 
L 2656 2763 
L 1882 2693 
z
" id="CMR17-75" transform="scale(0.015625)"/>
      <path d="M 4326 1933 
C 4326 2252 4269 2790 3507 2790 
C 3072 2790 2771 2496 2656 2151 
L 2650 2151 
C 2573 2676 2195 2790 1837 2790 
C 1331 2790 1069 2400 973 2144 
L 966 2144 
L 966 2790 
L 211 2720 
L 211 2554 
C 589 2554 646 2515 646 2208 
L 646 428 
C 646 184 621 153 211 153 
L 211 -13 
C 365 0 646 0 813 0 
C 979 0 1267 0 1421 -13 
L 1421 153 
C 1011 153 986 178 986 428 
L 986 1658 
C 986 2247 1344 2688 1792 2688 
C 2266 2688 2317 2266 2317 1958 
L 2317 428 
C 2317 184 2291 153 1882 153 
L 1882 -13 
C 2035 0 2317 0 2483 0 
C 2650 0 2938 0 3091 -13 
L 3091 153 
C 2682 153 2656 178 2656 428 
L 2656 1658 
C 2656 2247 3014 2688 3462 2688 
C 3936 2688 3987 2266 3987 1958 
L 3987 428 
C 3987 184 3962 153 3552 153 
L 3552 -13 
C 3706 0 3987 0 4154 0 
C 4320 0 4608 0 4762 -13 
L 4762 153 
C 4352 153 4326 178 4326 428 
L 4326 1933 
z
" id="CMR17-6d" transform="scale(0.015625)"/>
      <path d="M 2234 2240 
C 2112 2240 1933 2240 1933 2017 
C 1933 1838 2080 1787 2163 1787 
C 2208 1787 2394 1807 2394 2024 
C 2394 2467 1958 2803 1466 2803 
C 787 2803 211 2178 211 1363 
C 211 516 813 -64 1466 -64 
C 2259 -64 2458 677 2458 748 
C 2458 774 2451 793 2406 793 
C 2362 793 2355 787 2330 703 
C 2163 180 1798 51 1523 51 
C 1114 51 621 427 621 1369 
C 621 2338 1094 2688 1472 2688 
C 1722 2688 2093 2573 2234 2240 
z
" id="CMR17-63" transform="scale(0.015625)"/>
     </defs>
     <use transform="scale(0.996264)" xlink:href="#CMR17-50"/>
     <use transform="translate(62.586301 0)scale(0.996264)" xlink:href="#CMR17-72"/>
     <use transform="translate(97.867068 0)scale(0.996264)" xlink:href="#CMR17-6f"/>
     <use transform="translate(143.557545 0)scale(0.996264)" xlink:href="#CMR17-62"/>
     <use transform="translate(194.452915 0)scale(0.996264)" xlink:href="#CMR17-61"/>
     <use transform="translate(240.143392 0)scale(0.996264)" xlink:href="#CMR17-62"/>
     <use transform="translate(291.038762 0)scale(0.996264)" xlink:href="#CMR17-69"/>
     <use transform="translate(315.909821 0)scale(0.996264)" xlink:href="#CMR17-6c"/>
     <use transform="translate(340.780879 0)scale(0.996264)" xlink:href="#CMR17-69"/>
     <use transform="translate(365.651938 0)scale(0.996264)" xlink:href="#CMR17-74"/>
     <use transform="translate(398.330251 0)scale(0.996264)" xlink:href="#CMR17-79"/>
     <use transform="translate(476.699134 0)scale(0.996264)" xlink:href="#CMR17-64"/>
     <use transform="translate(527.594503 0)scale(0.996264)" xlink:href="#CMR17-65"/>
     <use transform="translate(568.080164 0)scale(0.996264)" xlink:href="#CMR17-6e"/>
     <use transform="translate(618.975534 0)scale(0.996264)" xlink:href="#CMR17-73"/>
     <use transform="translate(654.776871 0)scale(0.996264)" xlink:href="#CMR17-69"/>
     <use transform="translate(679.64793 0)scale(0.996264)" xlink:href="#CMR17-74"/>
     <use transform="translate(714.928698 0)scale(0.996264)" xlink:href="#CMR17-69"/>
     <use transform="translate(739.799756 0)scale(0.996264)" xlink:href="#CMR17-65"/>
     <use transform="translate(780.285417 0)scale(0.996264)" xlink:href="#CMR17-73"/>
     <use transform="translate(846.16272 0)scale(0.996264)" xlink:href="#CMR17-6f"/>
     <use transform="translate(891.853198 0)scale(0.996264)" xlink:href="#CMR17-66"/>
     <use transform="translate(949.402676 0)scale(0.996264)" xlink:href="#CMR17-74"/>
     <use transform="translate(984.683444 0)scale(0.996264)" xlink:href="#CMR17-68"/>
     <use transform="translate(1035.578814 0)scale(0.996264)" xlink:href="#CMR17-65"/>
     <use transform="translate(1106.140441 0)scale(0.996264)" xlink:href="#CMR17-71"/>
     <use transform="translate(1154.433357 0)scale(0.996264)" xlink:href="#CMR17-75"/>
     <use transform="translate(1205.328726 0)scale(0.996264)" xlink:href="#CMR17-61"/>
     <use transform="translate(1251.019203 0)scale(0.996264)" xlink:href="#CMR17-6e"/>
     <use transform="translate(1299.312119 0)scale(0.996264)" xlink:href="#CMR17-74"/>
     <use transform="translate(1334.592887 0)scale(0.996264)" xlink:href="#CMR17-75"/>
     <use transform="translate(1385.488257 0)scale(0.996264)" xlink:href="#CMR17-6d"/>
     <use transform="translate(1492.483813 0)scale(0.996264)" xlink:href="#CMR17-62"/>
     <use transform="translate(1545.981622 0)scale(0.996264)" xlink:href="#CMR17-6f"/>
     <use transform="translate(1591.672099 0)scale(0.996264)" xlink:href="#CMR17-75"/>
     <use transform="translate(1642.567469 0)scale(0.996264)" xlink:href="#CMR17-6e"/>
     <use transform="translate(1693.462838 0)scale(0.996264)" xlink:href="#CMR17-63"/>
     <use transform="translate(1733.948499 0)scale(0.996264)" xlink:href="#CMR17-69"/>
     <use transform="translate(1758.819557 0)scale(0.996264)" xlink:href="#CMR17-6e"/>
     <use transform="translate(1809.714927 0)scale(0.996264)" xlink:href="#CMR17-67"/>
     <use transform="translate(1885.481371 0)scale(0.996264)" xlink:href="#CMR17-62"/>
     <use transform="translate(1936.37674 0)scale(0.996264)" xlink:href="#CMR17-61"/>
     <use transform="translate(1982.067217 0)scale(0.996264)" xlink:href="#CMR17-6c"/>
     <use transform="translate(2006.938276 0)scale(0.996264)" xlink:href="#CMR17-6c"/>
    </g>
   </g>
  </g>
 </g>
 <defs>
  <clipPath id="p4d50421e4c">
   <rect height="217.44" width="334.8" x="54" y="34.56"/>
  </clipPath>
 </defs>
</svg>
