<?xml version="1.0" encoding="utf-8" standalone="no"?>
<!DOCTYPE svg PUBLIC "-//W3C//DTD SVG 1.1//EN"
  "http://www.w3.org/Graphics/SVG/1.1/DTD/svg11.dtd">
<!-- Created with matplotlib (https://matplotlib.org/) -->
<svg height="288pt" version="1.1" viewBox="0 0 432 288" width="432pt" xmlns="http://www.w3.org/2000/svg" xmlns:xlink="http://www.w3.org/1999/xlink">
 <defs>
  <style type="text/css">
*{stroke-linecap:butt;stroke-linejoin:round;}
  </style>
 </defs>
 <g id="figure_1">
  <g id="patch_1">
   <path d="M 0 288 
L 432 288 
L 432 0 
L 0 0 
z
" style="fill:#ffffff;"/>
  </g>
  <g id="axes_1">
   <g id="patch_2">
    <path d="M 54 252 
L 388.8 252 
L 388.8 34.56 
L 54 34.56 
z
" style="fill:#ffffff;"/>
   </g>
   <g id="matplotlib.axis_1">
    <g id="xtick_1">
     <g id="line2d_1">
      <defs>
       <path d="M 0 0 
L 0 3.5 
" id="m24dcc8f0a7" style="stroke:#000000;stroke-width:0.8;"/>
      </defs>
      <g>
       <use style="stroke:#000000;stroke-width:0.8;" x="54" xlink:href="#m24dcc8f0a7" y="252"/>
      </g>
     </g>
     <g id="text_1">
      <!-- $0.0$ -->
      <defs>
       <path d="M 42 31.84375 
C 42 37.96875 41.90625 48.421875 37.703125 56.453125 
C 34 63.484375 28.09375 66 22.90625 66 
C 18.09375 66 12 63.78125 8.203125 56.5625 
C 4.203125 49.015625 3.796875 39.671875 3.796875 31.84375 
C 3.796875 26.109375 3.90625 17.375 7 9.734375 
C 11.296875 -0.609375 19 -2 22.90625 -2 
C 27.5 -2 34.5 -0.109375 38.59375 9.4375 
C 41.59375 16.375 42 24.5 42 31.84375 
z
M 22.90625 -0.40625 
C 16.5 -0.40625 12.703125 5.125 11.296875 12.75 
C 10.203125 18.6875 10.203125 27.328125 10.203125 32.953125 
C 10.203125 40.6875 10.203125 47.109375 11.5 53.234375 
C 13.40625 61.78125 19 64.390625 22.90625 64.390625 
C 27 64.390625 32.296875 61.671875 34.203125 53.4375 
C 35.5 47.71875 35.59375 40.984375 35.59375 32.953125 
C 35.59375 26.421875 35.59375 18.375 34.40625 12.453125 
C 32.296875 1.5 26.40625 -0.40625 22.90625 -0.40625 
z
" id="CMR17-48"/>
       <path d="M 18.40625 4.796875 
C 18.40625 7.6875 16 9.6875 13.59375 9.6875 
C 10.703125 9.6875 8.703125 7.296875 8.703125 4.890625 
C 8.703125 2 11.09375 0 13.5 0 
C 16.40625 0 18.40625 2.390625 18.40625 4.796875 
z
" id="CMMI12-58"/>
      </defs>
      <g transform="translate(45.274709 268.685876)scale(0.14 -0.14)">
       <use transform="scale(0.996264)" xlink:href="#CMR17-48"/>
       <use transform="translate(45.690477 0)scale(0.996264)" xlink:href="#CMMI12-58"/>
       <use transform="translate(72.787654 0)scale(0.996264)" xlink:href="#CMR17-48"/>
      </g>
     </g>
    </g>
    <g id="xtick_2">
     <g id="line2d_2">
      <g>
       <use style="stroke:#000000;stroke-width:0.8;" x="108.885246" xlink:href="#m24dcc8f0a7" y="252"/>
      </g>
     </g>
     <g id="text_2">
      <!-- $2.5$ -->
      <defs>
       <path d="M 41.703125 15.46875 
L 39.90625 15.46875 
C 38.90625 8.390625 38.09375 7.1875 37.703125 6.59375 
C 37.203125 5.796875 30 5.796875 28.59375 5.796875 
L 9.40625 5.796875 
C 13 9.6875 20 16.765625 28.5 24.9375 
C 34.59375 30.71875 41.703125 37.5 41.703125 47.390625 
C 41.703125 59.1875 32.296875 66 21.796875 66 
C 10.796875 66 4.09375 56.296875 4.09375 47.296875 
C 4.09375 43.390625 7 42.890625 8.203125 42.890625 
C 9.203125 42.890625 12.203125 43.484375 12.203125 46.984375 
C 12.203125 50.09375 9.59375 51 8.203125 51 
C 7.59375 51 7 50.890625 6.59375 50.6875 
C 8.5 59.1875 14.296875 63.390625 20.40625 63.390625 
C 29.09375 63.390625 34.796875 56.5 34.796875 47.390625 
C 34.796875 38.703125 29.703125 31.21875 24 24.734375 
L 4.09375 2.296875 
L 4.09375 0 
L 39.296875 0 
z
" id="CMR17-50"/>
       <path d="M 11.40625 58.59375 
C 12.40625 58.1875 16.5 56.890625 20.703125 56.890625 
C 30 56.890625 35.09375 61.890625 38 64.6875 
C 38 65.484375 38 66 37.40625 66 
C 37.296875 66 37.09375 66 36.296875 65.59375 
C 32.796875 64.09375 28.703125 63 23.703125 63 
C 20.703125 63 16.203125 63.359375 11.296875 65.484375 
C 10.203125 66 10 66 9.90625 66 
C 9.40625 66 9.296875 65.890625 9.296875 63.90625 
L 9.296875 34.859375 
C 9.296875 33.015625 9.296875 32.5 10.296875 32.5 
C 10.796875 32.5 11 32.703125 11.5 33.421875 
C 14.703125 38.046875 19.09375 40 24.09375 40 
C 27.59375 40 35.09375 37.734375 35.09375 20.203125 
C 35.09375 16.984375 35.09375 11.1875 32.09375 6.59375 
C 29.59375 2.484375 25.703125 0.390625 21.40625 0.390625 
C 14.796875 0.390625 8.09375 4.984375 6.296875 12.6875 
C 6.703125 12.59375 7.5 12.390625 7.90625 12.390625 
C 9.203125 12.390625 11.703125 13.09375 11.703125 16.1875 
C 11.703125 18.890625 9.796875 20 7.90625 20 
C 5.59375 20 4.09375 18.59375 4.09375 15.796875 
C 4.09375 7.09375 11 -2 21.59375 -2 
C 31.90625 -2 41.703125 6.890625 41.703125 19.796875 
C 41.703125 32.09375 33.90625 41.59375 24.203125 41.59375 
C 19.09375 41.59375 14.796875 39.6875 11.40625 36 
z
" id="CMR17-53"/>
      </defs>
      <g transform="translate(100.159955 268.685876)scale(0.14 -0.14)">
       <use transform="scale(0.996264)" xlink:href="#CMR17-50"/>
       <use transform="translate(45.690477 0)scale(0.996264)" xlink:href="#CMMI12-58"/>
       <use transform="translate(72.787654 0)scale(0.996264)" xlink:href="#CMR17-53"/>
      </g>
     </g>
    </g>
    <g id="xtick_3">
     <g id="line2d_3">
      <g>
       <use style="stroke:#000000;stroke-width:0.8;" x="163.770492" xlink:href="#m24dcc8f0a7" y="252"/>
      </g>
     </g>
     <g id="text_3">
      <!-- $5.0$ -->
      <g transform="translate(155.045201 268.685876)scale(0.14 -0.14)">
       <use transform="scale(0.996264)" xlink:href="#CMR17-53"/>
       <use transform="translate(45.690477 0)scale(0.996264)" xlink:href="#CMMI12-58"/>
       <use transform="translate(72.787654 0)scale(0.996264)" xlink:href="#CMR17-48"/>
      </g>
     </g>
    </g>
    <g id="xtick_4">
     <g id="line2d_4">
      <g>
       <use style="stroke:#000000;stroke-width:0.8;" x="218.655738" xlink:href="#m24dcc8f0a7" y="252"/>
      </g>
     </g>
     <g id="text_4">
      <!-- $7.5$ -->
      <defs>
       <path d="M 45.09375 61.796875 
L 45.09375 64 
L 21.59375 64 
C 9.90625 64 9.703125 65.09375 9.296875 67 
L 7.5 67 
L 4.59375 48.5 
L 6.40625 48.5 
C 6.703125 50.40625 7.40625 55.5 8.59375 57.390625 
C 9.203125 58.1875 16.59375 58.1875 18.296875 58.1875 
L 40.296875 58.1875 
L 29.203125 41.71875 
C 21.796875 30.640625 16.703125 15.671875 16.703125 2.59375 
C 16.703125 1.390625 16.703125 -2 20.296875 -2 
C 23.90625 -2 23.90625 1.390625 23.90625 2.6875 
L 23.90625 7.28125 
C 23.90625 23.65625 26.703125 34.4375 31.296875 41.3125 
z
" id="CMR17-55"/>
      </defs>
      <g transform="translate(209.930447 268.685876)scale(0.14 -0.14)">
       <use transform="scale(0.996264)" xlink:href="#CMR17-55"/>
       <use transform="translate(45.690477 0)scale(0.996264)" xlink:href="#CMMI12-58"/>
       <use transform="translate(72.787654 0)scale(0.996264)" xlink:href="#CMR17-53"/>
      </g>
     </g>
    </g>
    <g id="xtick_5">
     <g id="line2d_5">
      <g>
       <use style="stroke:#000000;stroke-width:0.8;" x="273.540984" xlink:href="#m24dcc8f0a7" y="252"/>
      </g>
     </g>
     <g id="text_5">
      <!-- $10.0$ -->
      <defs>
       <path d="M 26.59375 63.796875 
C 26.59375 65.890625 26.5 66 25.09375 66 
C 21.203125 61.359375 15.296875 59.890625 9.703125 59.6875 
C 9.40625 59.6875 8.90625 59.6875 8.796875 59.5 
C 8.703125 59.296875 8.703125 59.09375 8.703125 57 
C 11.796875 57 17 57.59375 21 59.984375 
L 21 7.296875 
C 21 3.796875 20.796875 2.59375 12.203125 2.59375 
L 9.203125 2.59375 
L 9.203125 0 
C 14 0.09375 19 0.1875 23.796875 0.1875 
C 28.59375 0.1875 33.59375 0.09375 38.40625 0 
L 38.40625 2.59375 
L 35.40625 2.59375 
C 26.796875 2.59375 26.59375 3.6875 26.59375 7.296875 
z
" id="CMR17-49"/>
      </defs>
      <g transform="translate(261.401448 268.685876)scale(0.14 -0.14)">
       <use transform="scale(0.996264)" xlink:href="#CMR17-49"/>
       <use transform="translate(45.690477 0)scale(0.996264)" xlink:href="#CMR17-48"/>
       <use transform="translate(91.380954 0)scale(0.996264)" xlink:href="#CMMI12-58"/>
       <use transform="translate(118.478131 0)scale(0.996264)" xlink:href="#CMR17-48"/>
      </g>
     </g>
    </g>
    <g id="xtick_6">
     <g id="line2d_6">
      <g>
       <use style="stroke:#000000;stroke-width:0.8;" x="328.42623" xlink:href="#m24dcc8f0a7" y="252"/>
      </g>
     </g>
     <g id="text_6">
      <!-- $12.5$ -->
      <g transform="translate(316.286694 268.685876)scale(0.14 -0.14)">
       <use transform="scale(0.996264)" xlink:href="#CMR17-49"/>
       <use transform="translate(45.690477 0)scale(0.996264)" xlink:href="#CMR17-50"/>
       <use transform="translate(91.380954 0)scale(0.996264)" xlink:href="#CMMI12-58"/>
       <use transform="translate(118.478131 0)scale(0.996264)" xlink:href="#CMR17-53"/>
      </g>
     </g>
    </g>
    <g id="xtick_7">
     <g id="line2d_7">
      <g>
       <use style="stroke:#000000;stroke-width:0.8;" x="383.311475" xlink:href="#m24dcc8f0a7" y="252"/>
      </g>
     </g>
     <g id="text_7">
      <!-- $15.0$ -->
      <g transform="translate(371.17194 268.685876)scale(0.14 -0.14)">
       <use transform="scale(0.996264)" xlink:href="#CMR17-49"/>
       <use transform="translate(45.690477 0)scale(0.996264)" xlink:href="#CMR17-53"/>
       <use transform="translate(91.380954 0)scale(0.996264)" xlink:href="#CMMI12-58"/>
       <use transform="translate(118.478131 0)scale(0.996264)" xlink:href="#CMR17-48"/>
      </g>
     </g>
    </g>
    <g id="text_8">
     <!-- $z/z_0$ -->
     <defs>
      <path d="M 12.703125 7.59375 
C 17 12.640625 20.5 15.859375 25.5 20.515625 
C 31.5 25.890625 34.09375 28.46875 35.5 30.03125 
C 42.5 37.046875 46 42.390625 46 43.1875 
C 46 44 45.203125 44 45 44 
C 44.296875 44 44.09375 43.59375 43.59375 42.890625 
C 41.09375 38.59375 38.703125 37 36.09375 37 
C 34 37 32.90625 37.546875 31 39.796875 
C 28.90625 42.296875 27.203125 44 24.296875 44 
C 17 44 12.59375 35.390625 12.59375 33.234375 
C 12.59375 32.921875 12.703125 32.296875 13.59375 32.296875 
C 14.40625 32.296875 14.5 32.71875 14.796875 33.4375 
C 16.5 37.296875 21.296875 37.734375 23.203125 37.734375 
C 25.296875 37.734375 27.296875 37.296875 29.40625 36.59375 
C 33.203125 34.984375 34.796875 34.984375 35.796875 34.984375 
C 36.5 34.984375 36.90625 34.984375 37.40625 35.09375 
C 34.09375 31.0625 28.703125 26.09375 24.203125 21.859375 
L 14.09375 12.234375 
C 8 5.9375 4.296875 0.5 4.296875 -0.203125 
C 4.296875 -0.8125 4.796875 -1 5.40625 -1 
C 6 -1 6.09375 -0.90625 6.796875 0.296875 
C 8.40625 2.796875 11.59375 6 15.296875 6 
C 17.40625 6 18.40625 5.5625 20.40625 3.296875 
C 22.296875 1.09375 24 -1 27.203125 -1 
C 37 -1 42.59375 11.296875 42.59375 13.6875 
C 42.59375 14.09375 42.5 14.71875 41.5 14.71875 
C 40.703125 14.71875 40.59375 14.296875 40.296875 13.265625 
C 38.09375 7.1875 32.203125 5.25 28.296875 5.25 
C 26.203125 5.25 24.203125 5.6875 22.09375 6.390625 
C 18.09375 8 17 8 15.703125 8 
C 14.703125 8 13.59375 8 12.703125 7.59375 
z
" id="CMMI12-122"/>
      <path d="M 42.90625 71.296875 
C 42.90625 71.390625 43.5 72.890625 43.5 73.09375 
C 43.5 74.296875 42.5 75 41.703125 75 
C 41.203125 75 40.296875 75 39.5 72.796875 
L 6 -21.3125 
C 6 -21.40625 5.40625 -22.90625 5.40625 -23.109375 
C 5.40625 -24.3125 6.40625 -25 7.203125 -25 
C 7.796875 -25 8.703125 -24.90625 9.40625 -22.8125 
z
" id="CMMI12-61"/>
     </defs>
     <g transform="translate(208.822182 286.633573)scale(0.14 -0.14)">
      <use transform="translate(0 14.943915)scale(0.996264)" xlink:href="#CMMI12-122"/>
      <use transform="translate(49.755145 14.943915)scale(0.996264)" xlink:href="#CMMI12-61"/>
      <use transform="translate(98.530064 14.943915)scale(0.996264)" xlink:href="#CMMI12-122"/>
      <use transform="translate(143.845817 0)scale(0.697382)" xlink:href="#CMR17-48"/>
     </g>
    </g>
   </g>
   <g id="matplotlib.axis_2">
    <g id="ytick_1">
     <g id="line2d_8">
      <defs>
       <path d="M 0 0 
L -3.5 0 
" id="m931a8faae4" style="stroke:#000000;stroke-width:0.8;"/>
      </defs>
      <g>
       <use style="stroke:#000000;stroke-width:0.8;" x="54" xlink:href="#m931a8faae4" y="252"/>
      </g>
     </g>
     <g id="text_9">
      <!-- $0.0$ -->
      <g transform="translate(29.549418 256.842938)scale(0.14 -0.14)">
       <use transform="scale(0.996264)" xlink:href="#CMR17-48"/>
       <use transform="translate(45.690477 0)scale(0.996264)" xlink:href="#CMMI12-58"/>
       <use transform="translate(72.787654 0)scale(0.996264)" xlink:href="#CMR17-48"/>
      </g>
     </g>
    </g>
    <g id="ytick_2">
     <g id="line2d_9">
      <g>
       <use style="stroke:#000000;stroke-width:0.8;" x="54" xlink:href="#m931a8faae4" y="216.354098"/>
      </g>
     </g>
     <g id="text_10">
      <!-- $2.5$ -->
      <g transform="translate(29.549418 221.197037)scale(0.14 -0.14)">
       <use transform="scale(0.996264)" xlink:href="#CMR17-50"/>
       <use transform="translate(45.690477 0)scale(0.996264)" xlink:href="#CMMI12-58"/>
       <use transform="translate(72.787654 0)scale(0.996264)" xlink:href="#CMR17-53"/>
      </g>
     </g>
    </g>
    <g id="ytick_3">
     <g id="line2d_10">
      <g>
       <use style="stroke:#000000;stroke-width:0.8;" x="54" xlink:href="#m931a8faae4" y="180.708197"/>
      </g>
     </g>
     <g id="text_11">
      <!-- $5.0$ -->
      <g transform="translate(29.549418 185.551135)scale(0.14 -0.14)">
       <use transform="scale(0.996264)" xlink:href="#CMR17-53"/>
       <use transform="translate(45.690477 0)scale(0.996264)" xlink:href="#CMMI12-58"/>
       <use transform="translate(72.787654 0)scale(0.996264)" xlink:href="#CMR17-48"/>
      </g>
     </g>
    </g>
    <g id="ytick_4">
     <g id="line2d_11">
      <g>
       <use style="stroke:#000000;stroke-width:0.8;" x="54" xlink:href="#m931a8faae4" y="145.062295"/>
      </g>
     </g>
     <g id="text_12">
      <!-- $7.5$ -->
      <g transform="translate(29.549418 149.905233)scale(0.14 -0.14)">
       <use transform="scale(0.996264)" xlink:href="#CMR17-55"/>
       <use transform="translate(45.690477 0)scale(0.996264)" xlink:href="#CMMI12-58"/>
       <use transform="translate(72.787654 0)scale(0.996264)" xlink:href="#CMR17-53"/>
      </g>
     </g>
    </g>
    <g id="ytick_5">
     <g id="line2d_12">
      <g>
       <use style="stroke:#000000;stroke-width:0.8;" x="54" xlink:href="#m931a8faae4" y="109.416393"/>
      </g>
     </g>
     <g id="text_13">
      <!-- $10.0$ -->
      <g transform="translate(22.720929 114.259332)scale(0.14 -0.14)">
       <use transform="scale(0.996264)" xlink:href="#CMR17-49"/>
       <use transform="translate(45.690477 0)scale(0.996264)" xlink:href="#CMR17-48"/>
       <use transform="translate(91.380954 0)scale(0.996264)" xlink:href="#CMMI12-58"/>
       <use transform="translate(118.478131 0)scale(0.996264)" xlink:href="#CMR17-48"/>
      </g>
     </g>
    </g>
    <g id="ytick_6">
     <g id="line2d_13">
      <g>
       <use style="stroke:#000000;stroke-width:0.8;" x="54" xlink:href="#m931a8faae4" y="73.770492"/>
      </g>
     </g>
     <g id="text_14">
      <!-- $12.5$ -->
      <g transform="translate(22.720929 78.61343)scale(0.14 -0.14)">
       <use transform="scale(0.996264)" xlink:href="#CMR17-49"/>
       <use transform="translate(45.690477 0)scale(0.996264)" xlink:href="#CMR17-50"/>
       <use transform="translate(91.380954 0)scale(0.996264)" xlink:href="#CMMI12-58"/>
       <use transform="translate(118.478131 0)scale(0.996264)" xlink:href="#CMR17-53"/>
      </g>
     </g>
    </g>
    <g id="ytick_7">
     <g id="line2d_14">
      <g>
       <use style="stroke:#000000;stroke-width:0.8;" x="54" xlink:href="#m931a8faae4" y="38.12459"/>
      </g>
     </g>
     <g id="text_15">
      <!-- $15.0$ -->
      <g transform="translate(22.720929 42.967528)scale(0.14 -0.14)">
       <use transform="scale(0.996264)" xlink:href="#CMR17-49"/>
       <use transform="translate(45.690477 0)scale(0.996264)" xlink:href="#CMR17-53"/>
       <use transform="translate(91.380954 0)scale(0.996264)" xlink:href="#CMMI12-58"/>
       <use transform="translate(118.478131 0)scale(0.996264)" xlink:href="#CMR17-48"/>
      </g>
     </g>
    </g>
    <g id="text_16">
     <!-- Energy ($mgz_0$) -->
     <defs>
      <path d="M 60.703125 25.21875 
L 58.90625 25.21875 
C 56.703125 10.5625 55.40625 2.59375 37.796875 2.59375 
L 23.90625 2.59375 
C 19.90625 2.59375 19.703125 3.09375 19.703125 6.484375 
L 19.703125 34 
L 29.09375 34 
C 38.5 34 39.40625 30.609375 39.40625 22.328125 
L 41.203125 22.328125 
L 41.203125 48.21875 
L 39.40625 48.21875 
C 39.40625 39.96875 38.5 36.59375 29.09375 36.59375 
L 19.703125 36.59375 
L 19.703125 61.3125 
C 19.703125 64.703125 19.90625 65.1875 23.90625 65.1875 
L 37.59375 65.1875 
C 53.09375 65.1875 54.90625 59.03125 56.296875 45.828125 
L 58.09375 45.828125 
L 55.703125 67.796875 
L 5.09375 67.796875 
L 5.09375 65.1875 
C 12 65.1875 13.09375 65.1875 13.09375 60.71875 
L 13.09375 7.078125 
C 13.09375 2.59375 12 2.59375 5.09375 2.59375 
L 5.09375 0 
L 57.09375 0 
z
" id="CMR17-69"/>
      <path d="M 41.5 30.53125 
C 41.5 35.65625 40.5 44 28.703125 44 
C 20.796875 44 16.703125 37.875 15.203125 33.84375 
L 15.09375 33.84375 
L 15.09375 44 
L 3.296875 42.890625 
L 3.296875 40.28125 
C 9.203125 40.28125 10.09375 39.6875 10.09375 34.859375 
L 10.09375 6.921875 
C 10.09375 3.09375 9.703125 2.59375 3.296875 2.59375 
L 3.296875 0 
C 5.703125 0.1875 10.09375 0.1875 12.703125 0.1875 
C 15.296875 0.1875 19.796875 0.1875 22.203125 0 
L 22.203125 2.59375 
C 15.796875 2.59375 15.40625 3 15.40625 6.921875 
L 15.40625 26.21875 
C 15.40625 35.453125 21 42.390625 28 42.390625 
C 35.40625 42.390625 36.203125 35.765625 36.203125 30.9375 
L 36.203125 6.921875 
C 36.203125 3.09375 35.796875 2.59375 29.40625 2.59375 
L 29.40625 0 
C 31.796875 0.1875 36.203125 0.1875 38.796875 0.1875 
C 41.40625 0.1875 45.90625 0.1875 48.296875 0 
L 48.296875 2.59375 
C 41.90625 2.59375 41.5 3 41.5 6.921875 
z
" id="CMR17-110"/>
      <path d="M 38.09375 23.484375 
C 38.5 23.890625 38.5 24.09375 38.5 25.09375 
C 38.5 35.171875 33.09375 44 21.703125 44 
C 11.09375 44 2.703125 33.984375 2.703125 21.78125 
C 2.703125 8.65625 12.203125 -1 22.796875 -1 
C 34 -1 38.40625 9.671875 38.40625 11.796875 
C 38.40625 12.5 37.796875 12.5 37.59375 12.5 
C 36.90625 12.5 36.796875 12.296875 36.40625 11.078125 
C 34.203125 4.21875 28.703125 0.796875 23.5 0.796875 
C 19.203125 0.796875 14.90625 3.21875 12.203125 7.65625 
C 9.09375 12.796875 9.09375 18.75 9.09375 23.484375 
z
M 9.203125 25 
C 9.90625 39.234375 17.59375 42.390625 21.59375 42.390625 
C 28.40625 42.390625 33 36.0625 33.09375 25 
z
" id="CMR17-101"/>
      <path d="M 15 23.703125 
C 15 33.34375 19.09375 42.390625 26.59375 42.390625 
C 27.296875 42.390625 28 42.296875 28.703125 41.984375 
C 28.703125 41.984375 26.5 41.28125 26.5 38.671875 
C 26.5 36.265625 28.40625 35.265625 29.90625 35.265625 
C 31.09375 35.265625 33.296875 35.96875 33.296875 38.78125 
C 33.296875 41.984375 30.09375 44 26.703125 44 
C 19.09375 44 15.796875 36.5625 14.796875 33.046875 
L 14.703125 33.046875 
L 14.703125 44 
L 3.09375 42.890625 
L 3.09375 40.28125 
C 9 40.28125 9.90625 39.6875 9.90625 34.859375 
L 9.90625 6.921875 
C 9.90625 3.09375 9.5 2.59375 3.09375 2.59375 
L 3.09375 0 
C 5.5 0.1875 10.09375 0.1875 12.703125 0.1875 
C 15.59375 0.1875 20.703125 0.1875 23.40625 0 
L 23.40625 2.59375 
C 16.203125 2.59375 15 2.59375 15 7.109375 
z
" id="CMR17-114"/>
      <path d="M 11.09375 18.203125 
C 13 16.6875 16.296875 15 20.296875 15 
C 28.203125 15 35 21.234375 35 29.609375 
C 35 32.234375 34.203125 36.265625 31.203125 39.390625 
C 34 42.390625 38.09375 43.390625 40.40625 43.390625 
C 40.796875 43.390625 41.40625 43.390625 41.90625 43.09375 
C 41.5 42.984375 40.59375 42.59375 40.59375 40.984375 
C 40.59375 39.6875 41.5 38.796875 42.796875 38.796875 
C 44.296875 38.796875 45.09375 39.796875 45.09375 41.09375 
C 45.09375 42.984375 43.59375 45 40.40625 45 
C 36.40625 45 32.90625 43.09375 30.09375 40.484375 
C 27.09375 43.1875 23.5 44.1875 20.296875 44.1875 
C 12.40625 44.1875 5.59375 37.984375 5.59375 29.609375 
C 5.59375 23.859375 8.90625 20.21875 9.90625 19.21875 
C 6.90625 15.6875 6.90625 11.59375 6.90625 11.09375 
C 6.90625 8.5 7.90625 4.6875 11.296875 2.59375 
C 6.09375 1.28125 2 -2.875 2 -8.078125 
C 2 -15.5625 11.5 -21 22.90625 -21 
C 33.90625 -21 43.796875 -15.765625 43.796875 -7.96875 
C 43.796875 6 29 6 21.296875 6 
C 19 6 14.90625 6 14.40625 6.09375 
C 11.296875 6.59375 9.203125 9.390625 9.203125 12.890625 
C 9.203125 13.796875 9.203125 16 11.09375 18.203125 
z
M 20.296875 16.6875 
C 11.5 16.6875 11.5 27.59375 11.5 29.609375 
C 11.5 31.625 11.5 42.484375 20.296875 42.484375 
C 29.09375 42.484375 29.09375 31.625 29.09375 29.609375 
C 29.09375 27.59375 29.09375 16.6875 20.296875 16.6875 
z
M 22.90625 -19.3125 
C 12.90625 -19.3125 6 -13.796875 6 -8.078125 
C 6 -4.859375 7.703125 -1.84375 9.90625 -0.171875 
C 12.40625 1.59375 13.40625 1.59375 20.203125 1.59375 
C 28.40625 1.59375 39.796875 1.59375 39.796875 -8.078125 
C 39.796875 -13.796875 32.90625 -19.3125 22.90625 -19.3125 
z
" id="CMR17-103"/>
      <path d="M 39 34.109375 
C 41.5 40.296875 46 40.390625 47.40625 40.390625 
L 47.40625 43 
C 45.5 42.890625 43 42.796875 41.09375 42.796875 
C 39 42.796875 35.703125 42.796875 33.703125 43 
L 33.703125 40.390625 
C 37.5 40.09375 37.59375 37.25 37.59375 36.4375 
C 37.59375 35.4375 37.40625 34.921875 36.90625 33.71875 
L 26 6.390625 
L 14.09375 35.9375 
C 13.59375 37.15625 13.59375 37.859375 13.59375 37.96875 
C 13.59375 40.1875 15.90625 40.390625 18.296875 40.390625 
L 18.296875 43 
C 15.90625 42.796875 11.59375 42.796875 9.09375 42.796875 
C 6.40625 42.796875 3.203125 42.796875 1 43 
L 1 40.390625 
C 6.40625 40.390625 7 39.890625 8.296875 36.640625 
L 23.203125 -0.484375 
C 18.703125 -12.421875 16.09375 -19.40625 9.796875 -19.40625 
C 8.703125 -19.40625 6.203125 -19.109375 4.40625 -17.28125 
C 6.703125 -17.078125 7.703125 -15.65625 7.703125 -13.9375 
C 7.703125 -12.21875 6.5 -10.703125 4.5 -10.703125 
C 2.296875 -10.703125 1.203125 -12.21875 1.203125 -14.046875 
C 1.203125 -18.09375 5.296875 -21 9.796875 -21 
C 15.59375 -21 19.203125 -15.359375 21.203125 -10.296875 
z
" id="CMR17-121"/>
      <path d="M 30.59375 -24.40625 
C 30.59375 -24.3125 30.59375 -24.109375 30.296875 -23.8125 
C 25.703125 -19.109375 13.40625 -6.296875 13.40625 24.9375 
C 13.40625 56.171875 25.5 68.875 30.40625 73.890625 
C 30.40625 73.984375 30.59375 74.1875 30.59375 74.484375 
C 30.59375 74.796875 30.296875 75 29.90625 75 
C 28.796875 75 20.296875 67.578125 15.40625 56.5625 
C 10.40625 45.453125 9 34.65625 9 25.046875 
C 9 17.828125 9.703125 5.625 15.703125 -7.296875 
C 20.5 -17.703125 28.703125 -25 29.90625 -25 
C 30.40625 -25 30.59375 -24.8125 30.59375 -24.40625 
z
" id="CMR17-40"/>
      <path d="M 20.59375 29.21875 
C 20.796875 29.828125 23.296875 34.8125 27 38 
C 29.59375 40.390625 33 41.984375 36.90625 41.984375 
C 40.90625 41.984375 42.296875 39 42.296875 35.015625 
C 42.296875 34.40625 42.296875 32.421875 41.09375 27.734375 
L 38.59375 17.453125 
C 37.796875 14.453125 35.90625 7.078125 35.703125 5.984375 
C 35.296875 4.484375 34.703125 1.890625 34.703125 1.484375 
C 34.703125 0.09375 35.796875 -1 37.296875 -1 
C 40.296875 -1 40.796875 1.296875 41.703125 4.890625 
L 47.703125 28.71875 
C 47.90625 29.53125 53.09375 41.984375 64.09375 41.984375 
C 68.09375 41.984375 69.5 39 69.5 35.015625 
C 69.5 29.421875 65.59375 18.546875 63.40625 12.5625 
C 62.5 10.171875 62 8.875 62 7.078125 
C 62 2.59375 65.09375 -1 69.90625 -1 
C 79.203125 -1 82.703125 13.65625 82.703125 14.265625 
C 82.703125 14.765625 82.296875 15.15625 81.703125 15.15625 
C 80.796875 15.15625 80.703125 14.859375 80.203125 13.15625 
C 77.90625 5.1875 74.203125 1 70.203125 1 
C 69.203125 1 67.59375 1.09375 67.59375 4.28125 
C 67.59375 6.875 68.796875 10.078125 69.203125 11.171875 
C 71 15.953125 75.5 27.734375 75.5 33.515625 
C 75.5 39.5 72 44 64.40625 44 
C 57.703125 44 52.296875 40.203125 48.296875 34.3125 
C 48 39.703125 44.703125 44 37.203125 44 
C 28.296875 44 23.59375 37.703125 21.796875 35.203125 
C 21.5 40.890625 17.40625 44 13 44 
C 10.09375 44 7.796875 42.59375 5.90625 38.796875 
C 4.09375 35.203125 2.703125 29.125 2.703125 28.71875 
C 2.703125 28.328125 3.09375 27.828125 3.796875 27.828125 
C 4.59375 27.828125 4.703125 27.921875 5.296875 30.21875 
C 6.796875 36.109375 8.703125 41.984375 12.703125 41.984375 
C 15 41.984375 15.796875 40.390625 15.796875 37.40625 
C 15.796875 35.203125 14.796875 31.3125 14.09375 28.234375 
L 11.296875 17.453125 
C 10.90625 15.5625 9.796875 11.0625 9.296875 9.265625 
C 8.59375 6.671875 7.5 1.984375 7.5 1.484375 
C 7.5 0.09375 8.59375 -1 10.09375 -1 
C 11.296875 -1 12.703125 -0.40625 13.5 1.09375 
C 13.703125 1.59375 14.59375 5.078125 15.09375 7.078125 
L 17.296875 16.0625 
z
" id="CMMI12-109"/>
      <path d="M 33.796875 12.671875 
C 33.40625 11.0625 33.203125 10.671875 31.90625 9.171875 
C 27.796875 3.890625 23.59375 2 20.5 2 
C 17.203125 2 14.09375 4.578125 14.09375 11.46875 
C 14.09375 16.75 17.09375 27.921875 19.296875 32.421875 
C 22.203125 38 26.703125 41.984375 30.90625 41.984375 
C 37.5 41.984375 38.796875 33.8125 38.796875 33.21875 
L 38.5 31.8125 
z
M 40 37.40625 
C 38.703125 40.296875 35.90625 44 30.90625 44 
C 20 44 7.59375 30.328125 7.59375 15.453125 
C 7.59375 5.078125 13.90625 0 20.296875 0 
C 25.59375 0 30.296875 4.1875 32.09375 6.1875 
L 29.90625 -2.75 
C 28.5 -8.125 27.90625 -10.578125 24.296875 -14 
C 20.203125 -18 16.40625 -18 14.203125 -18 
C 11.203125 -18 8.703125 -17.8125 6.203125 -17.03125 
C 9.40625 -16.15625 10.203125 -13.40625 10.203125 -12.328125 
C 10.203125 -10.765625 9 -9.203125 6.796875 -9.203125 
C 4.40625 -9.203125 1.796875 -11.15625 1.796875 -14.390625 
C 1.796875 -18.40625 5.90625 -20 14.40625 -20 
C 27.296875 -20 34 -11.84375 35.296875 -6.5625 
L 46.40625 37.90625 
C 46.703125 39.09375 46.703125 39.296875 46.703125 39.5 
C 46.703125 40.890625 45.59375 42 44.09375 42 
C 41.703125 42 40.296875 40 40 37.3125 
z
" id="CMMI12-103"/>
      <path d="M 26.296875 24.9375 
C 26.296875 32.140625 25.59375 44.359375 19.59375 57.265625 
C 14.796875 67.6875 6.59375 75 5.40625 75 
C 5.09375 75 4.703125 74.890625 4.703125 74.390625 
C 4.703125 74.1875 4.796875 74.09375 4.90625 73.890625 
C 9.703125 68.875 21.90625 56.171875 21.90625 25.046875 
C 21.90625 -6.1875 9.796875 -18.90625 4.90625 -23.90625 
C 4.796875 -24.109375 4.703125 -24.203125 4.703125 -24.40625 
C 4.703125 -24.90625 5.09375 -25 5.40625 -25 
C 6.5 -25 15 -17.609375 19.90625 -6.59375 
C 24.90625 4.515625 26.296875 15.328125 26.296875 24.9375 
z
" id="CMR17-41"/>
     </defs>
     <g transform="translate(16.008901 187.438016)rotate(-90)scale(0.14 -0.14)">
      <use transform="translate(0 14.943915)scale(0.996264)" xlink:href="#CMR17-69"/>
      <use transform="translate(62.586301 14.943915)scale(0.996264)" xlink:href="#CMR17-110"/>
      <use transform="translate(113.48167 14.943915)scale(0.996264)" xlink:href="#CMR17-101"/>
      <use transform="translate(153.967331 14.943915)scale(0.996264)" xlink:href="#CMR17-114"/>
      <use transform="translate(189.248099 14.943915)scale(0.996264)" xlink:href="#CMR17-103"/>
      <use transform="translate(234.938576 14.943915)scale(0.996264)" xlink:href="#CMR17-121"/>
      <use transform="translate(313.307458 14.943915)scale(0.996264)" xlink:href="#CMR17-40"/>
      <use transform="translate(348.588226 14.943915)scale(0.996264)" xlink:href="#CMMI12-109"/>
      <use transform="translate(433.91545 14.943915)scale(0.996264)" xlink:href="#CMMI12-103"/>
      <use transform="translate(484.20094 14.943915)scale(0.996264)" xlink:href="#CMMI12-122"/>
      <use transform="translate(529.516693 0)scale(0.697382)" xlink:href="#CMR17-48"/>
      <use transform="translate(561.998007 14.943915)scale(0.996264)" xlink:href="#CMR17-41"/>
     </g>
    </g>
   </g>
   <g id="line2d_15">
    <path clip-path="url(#p3d81da98ce)" d="M 54 218.662421 
L 56.616903 218.55012 
L 59.397362 218.200685 
L 62.66849 217.549347 
L 68.065852 216.193963 
L 73.136102 215.008 
L 76.570787 214.427431 
L 79.841915 214.099876 
L 83.113043 214.000262 
L 86.547728 214.118815 
L 90.636639 214.495471 
L 96.197557 215.256758 
L 109.118515 217.09419 
L 115.497215 217.725849 
L 122.203029 218.160322 
L 130.217294 218.446657 
L 141.502687 218.606798 
L 164.727699 218.660422 
L 388.8 218.662421 
L 388.8 218.662421 
" style="fill:none;stroke:#000000;stroke-linecap:square;stroke-width:1.5;"/>
   </g>
   <g id="line2d_16">
    <path clip-path="url(#p3d81da98ce)" d="M 54 193.712542 
L 56.126234 193.592571 
L 58.252467 193.250329 
L 60.86937 192.59895 
L 68.392965 190.567663 
L 70.682755 190.259636 
L 72.808989 190.189805 
L 74.935222 190.331177 
L 77.388569 190.72594 
L 80.496141 191.475493 
L 87.365511 193.212143 
L 89.982413 193.592372 
L 92.272203 193.712118 
L 94.561993 193.618894 
L 97.01534 193.293161 
L 99.795799 192.685075 
L 103.39404 191.644389 
L 111.571861 189.191103 
L 114.679433 188.530952 
L 117.623449 188.129844 
L 120.567465 187.958338 
L 123.675037 188.011902 
L 127.109722 188.308253 
L 131.198632 188.896695 
L 138.068002 190.155377 
L 146.082267 191.557622 
L 151.806742 192.328137 
L 157.694773 192.890102 
L 164.23703 193.283227 
L 172.414851 193.53967 
L 184.681583 193.675777 
L 214.775965 193.712175 
L 388.8 193.712542 
L 388.8 193.712542 
" style="fill:none;stroke:#000000;stroke-linecap:square;stroke-width:1.5;"/>
   </g>
   <g id="line2d_17">
    <path clip-path="url(#p3d81da98ce)" d="M 54 173.285867 
L 55.799121 173.181744 
L 57.761798 172.849025 
L 60.215144 172.198613 
L 65.776063 170.632654 
L 67.902296 170.317543 
L 69.864973 170.25882 
L 71.82765 170.42877 
L 73.953884 170.835996 
L 77.061456 171.689322 
L 81.150366 172.793956 
L 83.440156 173.173642 
L 85.402833 173.2858 
L 87.365511 173.184141 
L 89.491744 172.848171 
L 92.108647 172.185377 
L 100.122912 169.950836 
L 102.412702 169.658551 
L 104.538935 169.614953 
L 106.665169 169.790178 
L 109.118515 170.228036 
L 112.226087 171.028659 
L 118.441231 172.686908 
L 121.058134 173.119201 
L 123.347924 173.280087 
L 125.637714 173.219198 
L 127.927504 172.942272 
L 130.544406 172.394919 
L 133.815535 171.457902 
L 144.283146 168.257454 
L 147.227162 167.692164 
L 150.007621 167.374737 
L 152.951637 167.269806 
L 156.059209 167.394809 
L 159.493894 167.763946 
L 163.909917 168.48296 
L 181.574011 171.628252 
L 187.134929 172.252663 
L 193.186517 172.706207 
L 200.383 173.016582 
L 210.196385 173.202513 
L 228.024035 173.278792 
L 340.877968 173.285867 
L 388.8 173.285867 
L 388.8 173.285867 
" style="fill:none;stroke:#000000;stroke-linecap:square;stroke-width:1.5;"/>
   </g>
   <g id="line2d_18">
    <path clip-path="url(#p3d81da98ce)" d="M 54 155.232668 
L 55.799121 155.115426 
L 57.761798 154.745532 
L 60.378701 153.995984 
L 64.304055 152.880231 
L 66.266732 152.566224 
L 68.065852 152.501113 
L 69.864973 152.658006 
L 71.991207 153.089181 
L 75.262335 154.037678 
L 78.369907 154.860346 
L 80.332584 155.162084 
L 82.131705 155.228956 
L 83.930826 155.084199 
L 85.893503 154.710102 
L 88.510405 153.971345 
L 93.253542 152.598046 
L 95.379775 152.240349 
L 97.342452 152.142077 
L 99.305129 152.278457 
L 101.431363 152.661664 
L 104.211822 153.411986 
L 109.118515 154.768564 
L 111.408305 155.13676 
L 113.370982 155.232242 
L 115.333659 155.109909 
L 117.459893 154.750046 
L 120.076795 154.060496 
L 127.600391 151.895392 
L 129.890181 151.563335 
L 132.016414 151.484612 
L 134.142648 151.630774 
L 136.432438 152.01197 
L 139.376453 152.748591 
L 146.900049 154.756562 
L 149.353395 155.117236 
L 151.643185 155.232658 
L 153.932975 155.121478 
L 156.386321 154.763345 
L 159.003224 154.150956 
L 162.437909 153.100692 
L 170.942843 150.390963 
L 174.050415 149.698227 
L 176.830874 149.298359 
L 179.611334 149.116575 
L 182.555349 149.149516 
L 185.826478 149.420226 
L 189.588276 149.961412 
L 195.149194 151.011972 
L 205.126136 152.906655 
L 210.687054 153.714486 
L 216.247973 154.299226 
L 222.463117 154.724742 
L 230.150269 155.013372 
L 240.944993 155.174563 
L 263.02511 155.230289 
L 388.8 155.232668 
L 388.8 155.232668 
" style="fill:none;stroke:#000000;stroke-linecap:square;stroke-width:1.5;"/>
   </g>
   <g id="line2d_19">
    <path clip-path="url(#p3d81da98ce)" d="M 54 138.729678 
L 55.635564 138.623717 
L 57.434685 138.285152 
L 60.051588 137.526625 
L 63.486273 136.549922 
L 65.285393 136.26247 
L 66.920957 136.205409 
L 68.720078 136.376295 
L 70.682755 136.799049 
L 74.444553 137.916278 
L 76.897899 138.502062 
L 78.69702 138.710822 
L 80.496141 138.686102 
L 82.295261 138.432173 
L 84.421495 137.899768 
L 90.636639 136.1741 
L 92.43576 135.979811 
L 94.23488 136.00983 
L 96.034001 136.256418 
L 98.323791 136.813561 
L 104.538935 138.497431 
L 106.501612 138.71301 
L 108.300733 138.68978 
L 110.26341 138.427421 
L 112.5532 137.869498 
L 120.076795 135.799782 
L 122.039472 135.615108 
L 124.002149 135.667807 
L 125.964827 135.945704 
L 128.418173 136.538203 
L 135.614656 138.468993 
L 137.740889 138.705383 
L 139.703566 138.698257 
L 141.666243 138.474937 
L 143.956033 137.979642 
L 147.063605 137.049144 
L 151.806742 135.625469 
L 154.260088 135.143727 
L 156.386321 134.952359 
L 158.512555 134.990258 
L 160.638788 135.246318 
L 163.092135 135.76463 
L 166.853933 136.825748 
L 171.269956 138.029251 
L 173.886859 138.50957 
L 176.176649 138.711919 
L 178.466439 138.687187 
L 180.756229 138.437533 
L 183.209575 137.947315 
L 186.153591 137.124725 
L 191.22384 135.42214 
L 195.639863 134.030646 
L 198.747435 133.275722 
L 201.527894 132.815736 
L 204.308354 132.575828 
L 207.252369 132.554551 
L 210.359941 132.761524 
L 213.958183 133.232335 
L 218.864875 134.123966 
L 231.785833 136.582366 
L 237.346751 137.347468 
L 243.071226 137.903516 
L 249.449927 138.294335 
L 257.464191 138.552202 
L 269.40381 138.690493 
L 298.026185 138.729177 
L 388.8 138.729678 
L 388.8 138.729678 
" style="fill:none;stroke:#000000;stroke-linecap:square;stroke-width:1.5;"/>
   </g>
   <g id="line2d_20">
    <path clip-path="url(#p3d81da98ce)" d="M 54 123.35179 
L 55.635564 123.238348 
L 57.434685 122.879165 
L 60.215144 122.045703 
L 62.995603 121.278213 
L 64.794724 121.014593 
L 66.430288 120.998965 
L 68.065852 121.198875 
L 70.02853 121.666643 
L 75.753004 123.20491 
L 77.552125 123.35115 
L 79.187689 123.260695 
L 80.98681 122.934525 
L 83.440156 122.232628 
L 87.201954 121.149238 
L 89.001075 120.86445 
L 90.636639 120.811776 
L 92.43576 120.988758 
L 94.398437 121.418324 
L 101.594919 123.26926 
L 103.39404 123.34829 
L 105.193161 123.189424 
L 107.155838 122.778819 
L 110.099853 121.891486 
L 113.370982 120.963472 
L 115.333659 120.641498 
L 117.13278 120.572579 
L 118.9319 120.729617 
L 120.894577 121.1246 
L 123.838593 121.978321 
L 127.273278 122.933266 
L 129.235955 123.260935 
L 131.035076 123.351032 
L 132.834196 123.225421 
L 134.796873 122.864367 
L 137.413776 122.12707 
L 142.484025 120.640044 
L 144.610259 120.292616 
L 146.572936 120.21004 
L 148.535613 120.365526 
L 150.661847 120.769916 
L 153.605862 121.592753 
L 158.021886 122.838879 
L 160.311676 123.233902 
L 162.274353 123.351676 
L 164.23703 123.247851 
L 166.363263 122.90109 
L 168.81661 122.264242 
L 177.157987 119.867884 
L 179.284221 119.59338 
L 181.410454 119.546694 
L 183.536688 119.726901 
L 185.826478 120.142418 
L 188.770493 120.912937 
L 195.639863 122.797429 
L 198.09321 123.196769 
L 200.383 123.348754 
L 202.672789 123.270569 
L 204.962579 122.969632 
L 207.579482 122.389359 
L 210.687054 121.461725 
L 221.154665 118.143464 
L 224.098681 117.556488 
L 226.87914 117.226396 
L 229.659599 117.116423 
L 232.603615 117.220858 
L 235.874744 117.559418 
L 239.963654 118.218421 
L 247.160137 119.6566 
L 254.356619 121.009523 
L 259.917538 121.825439 
L 265.478456 122.414697 
L 271.6936 122.842646 
L 279.217196 123.128167 
L 289.848363 123.291241 
L 311.437811 123.349098 
L 388.8 123.35179 
L 388.8 123.35179 
" style="fill:none;stroke:#000000;stroke-linecap:square;stroke-width:1.5;"/>
   </g>
   <g id="line2d_21">
    <path clip-path="url(#p3d81da98ce)" d="M 54 108.843573 
L 55.635564 108.723585 
L 57.434685 108.346936 
L 60.542257 107.397436 
L 62.832047 106.812078 
L 64.467611 106.610354 
L 66.103175 106.639776 
L 67.73874 106.892524 
L 69.864973 107.462127 
L 73.953884 108.605854 
L 75.753004 108.828739 
L 77.388569 108.796163 
L 79.024133 108.544916 
L 81.150366 107.97589 
L 85.56639 106.713131 
L 87.365511 106.47974 
L 89.001075 106.49565 
L 90.800195 106.758191 
L 92.926429 107.314728 
L 97.506009 108.596142 
L 99.305129 108.823048 
L 100.940694 108.809027 
L 102.739814 108.554116 
L 104.866048 108.003357 
L 110.099853 106.518661 
L 111.898974 106.303269 
L 113.534538 106.321384 
L 115.333659 106.570621 
L 117.459893 107.104203 
L 123.020811 108.631902 
L 124.819932 108.829751 
L 126.619052 108.790518 
L 128.418173 108.521068 
L 130.544406 107.972689 
L 136.432438 106.297706 
L 138.231558 106.074663 
L 140.030679 106.076836 
L 141.8298 106.300989 
L 143.956033 106.797043 
L 151.152516 108.700452 
L 152.951637 108.841057 
L 154.750757 108.765236 
L 156.713434 108.449289 
L 159.003224 107.845215 
L 165.545481 105.973006 
L 167.508158 105.722032 
L 169.470835 105.707971 
L 171.433512 105.928719 
L 173.723302 106.431871 
L 177.4851 107.549107 
L 180.592672 108.379536 
L 182.718906 108.73292 
L 184.681583 108.843572 
L 186.64426 108.73158 
L 188.770493 108.375984 
L 191.22384 107.730513 
L 199.401661 105.360885 
L 201.527894 105.075309 
L 203.654128 105.017973 
L 205.780362 105.189225 
L 208.070151 105.598116 
L 211.014167 106.365785 
L 218.047093 108.300789 
L 220.50044 108.695654 
L 222.79023 108.841546 
L 225.08002 108.756093 
L 227.369809 108.447414 
L 229.986712 107.858572 
L 233.257841 106.86818 
L 243.071226 103.714441 
L 246.015242 103.091309 
L 248.795701 102.725739 
L 251.57616 102.58236 
L 254.520176 102.656401 
L 257.791304 102.969281 
L 261.716659 103.579852 
L 267.931803 104.80941 
L 276.27318 106.418978 
L 281.834099 107.256052 
L 287.395017 107.864677 
L 293.446605 108.300291 
L 300.806644 108.598768 
L 311.110699 108.773635 
L 330.901026 108.839342 
L 388.8 108.843573 
L 388.8 108.843573 
" style="fill:none;stroke:#000000;stroke-linecap:square;stroke-width:1.5;"/>
   </g>
   <g id="line2d_22">
    <path clip-path="url(#p3d81da98ce)" d="M 54 95.03649 
L 55.472008 94.934167 
L 57.107572 94.605777 
L 59.724475 93.814862 
L 62.177821 93.143507 
L 63.813385 92.913665 
L 65.285393 92.912577 
L 66.920957 93.138762 
L 68.883635 93.648929 
L 73.136102 94.836234 
L 74.771666 95.025608 
L 76.40723 94.976617 
L 78.042794 94.699838 
L 80.332584 94.050692 
L 83.767269 93.062969 
L 85.56639 92.805574 
L 87.201954 92.811887 
L 88.837518 93.045211 
L 90.963752 93.601371 
L 95.216219 94.798558 
L 96.851783 95.012367 
L 98.487347 95.002285 
L 100.122912 94.77018 
L 102.249145 94.215138 
L 106.992281 92.866963 
L 108.791402 92.655983 
L 110.426966 92.694677 
L 112.226087 92.979747 
L 114.515877 93.603293 
L 118.604787 94.756772 
L 120.403908 95.005602 
L 122.039472 95.012786 
L 123.675037 94.808999 
L 125.637714 94.33733 
L 132.016414 92.59753 
L 133.815535 92.46972 
L 135.451099 92.570838 
L 137.25022 92.898738 
L 139.703566 93.590183 
L 143.62892 94.699387 
L 145.591597 94.991567 
L 147.390718 95.017816 
L 149.189839 94.806938 
L 151.316072 94.305135 
L 158.512555 92.353166 
L 160.311676 92.230448 
L 162.110796 92.336919 
L 164.073473 92.689863 
L 166.690376 93.419758 
L 170.942843 94.63032 
L 172.90552 94.952599 
L 174.704641 95.034824 
L 176.503762 94.899733 
L 178.466439 94.528101 
L 181.083341 93.779202 
L 185.990034 92.323476 
L 188.116268 91.962508 
L 190.078945 91.867928 
L 192.041622 92.013761 
L 194.167855 92.411944 
L 196.948315 93.184886 
L 201.691451 94.535539 
L 203.817684 94.906749 
L 205.780362 95.035789 
L 207.743039 94.94153 
L 209.869272 94.601823 
L 212.322618 93.96766 
L 220.991109 91.483297 
L 223.117342 91.231117 
L 225.243576 91.20991 
L 227.369809 91.415587 
L 229.823156 91.893676 
L 233.094284 92.79271 
L 238.655203 94.350698 
L 241.272106 94.82794 
L 243.561895 95.022582 
L 245.851685 94.986354 
L 248.141475 94.722552 
L 250.594822 94.21567 
L 253.538837 93.373135 
L 258.772643 91.586096 
L 263.02511 90.237188 
L 266.132682 89.47946 
L 268.913141 89.021317 
L 271.6936 88.786643 
L 274.47406 88.768422 
L 277.581632 88.974656 
L 281.179873 89.449214 
L 285.923009 90.318946 
L 299.334636 92.900947 
L 304.731998 93.646781 
L 310.456473 94.206788 
L 316.835173 94.599792 
L 324.849438 94.858701 
L 336.789057 94.997308 
L 365.411431 95.035991 
L 388.8 95.036483 
L 388.8 95.036483 
" style="fill:none;stroke:#000000;stroke-linecap:square;stroke-width:1.5;"/>
   </g>
   <g id="line2d_23">
    <path clip-path="url(#p3d81da98ce)" d="M 54 81.811985 
L 55.472008 81.705314 
L 57.107572 81.365159 
L 60.051588 80.463522 
L 62.177821 79.928729 
L 63.813385 79.753075 
L 65.285393 79.814373 
L 66.920957 80.109248 
L 69.374304 80.826812 
L 71.991207 81.552838 
L 73.626771 81.786058 
L 75.098779 81.785981 
L 76.734343 81.552502 
L 78.69702 81.028736 
L 82.785931 79.865446 
L 84.421495 79.669343 
L 85.893503 79.702002 
L 87.529067 79.96155 
L 89.6553 80.546688 
L 93.253542 81.564168 
L 94.889106 81.787421 
L 96.52467 81.774699 
L 98.160234 81.52866 
L 100.286468 80.952525 
L 104.375379 79.783293 
L 106.010943 79.569896 
L 107.646507 79.588169 
L 109.282071 79.832595 
L 111.408305 80.398255 
L 115.497215 81.55752 
L 117.296336 81.792827 
L 118.9319 81.771087 
L 120.567465 81.528037 
L 122.693698 80.963232 
L 127.273278 79.652143 
L 129.072399 79.42922 
L 130.707963 79.456915 
L 132.507084 79.73222 
L 134.633317 80.299897 
L 139.04934 81.547919 
L 140.848461 81.786569 
L 142.484025 81.78284 
L 144.283146 81.536632 
L 146.40938 80.990343 
L 151.806742 79.457619 
L 153.605862 79.252181 
L 155.241426 79.281302 
L 157.040547 79.542607 
L 159.166781 80.087373 
L 164.564143 81.585398 
L 166.363263 81.794278 
L 168.162384 81.765341 
L 169.961505 81.503612 
L 172.087738 80.959258 
L 178.302882 79.207154 
L 180.102003 79.012908 
L 181.901124 79.047047 
L 183.700244 79.301112 
L 185.990034 79.870635 
L 192.205178 81.580503 
L 194.167855 81.796346 
L 195.966976 81.769291 
L 197.929653 81.49899 
L 200.219443 80.928608 
L 207.579482 78.852517 
L 209.542159 78.648444 
L 211.34128 78.673086 
L 213.303957 78.92313 
L 215.593747 79.452938 
L 223.935125 81.650601 
L 225.897802 81.807299 
L 227.860479 81.740649 
L 229.986712 81.426753 
L 232.440059 80.812577 
L 236.856082 79.398956 
L 239.963654 78.529168 
L 242.253444 78.11519 
L 244.379678 77.959033 
L 246.505911 78.036205 
L 248.795701 78.361482 
L 251.412604 78.974404 
L 256.809966 80.558176 
L 259.917538 81.316387 
L 262.370884 81.690144 
L 264.660674 81.811923 
L 266.950464 81.700742 
L 269.240254 81.367195 
L 271.857157 80.753676 
L 275.128285 79.7413 
L 284.287445 76.755894 
L 287.231461 76.097409 
L 290.01192 75.696968 
L 292.792379 75.520639 
L 295.736395 75.564627 
L 299.007523 75.852085 
L 302.769321 76.415694 
L 308.330239 77.500128 
L 317.980068 79.387469 
L 323.540987 80.226043 
L 329.101905 80.834925 
L 335.153493 81.270202 
L 342.513532 81.568097 
L 352.817587 81.742397 
L 372.607914 81.807784 
L 388.8 81.811686 
L 388.8 81.811686 
" style="fill:none;stroke:#000000;stroke-linecap:square;stroke-width:1.5;"/>
   </g>
   <g id="line2d_24">
    <path clip-path="url(#p3d81da98ce)" d="M 54 69.082674 
L 55.472008 68.972009 
L 57.107572 68.621302 
L 62.832047 67.134834 
L 64.304055 67.108041 
L 65.776063 67.294936 
L 67.73874 67.79881 
L 71.664094 68.900277 
L 73.299658 69.078155 
L 74.771666 69.014481 
L 76.40723 68.711807 
L 78.860576 67.980021 
L 81.477479 67.25337 
L 83.113043 67.03299 
L 84.585051 67.051514 
L 86.220616 67.306919 
L 88.346849 67.897181 
L 91.617978 68.828626 
L 93.253542 69.058559 
L 94.72555 69.05468 
L 96.361114 68.816965 
L 98.323791 68.289449 
L 102.412702 67.127063 
L 104.048266 66.934401 
L 105.520274 66.970832 
L 107.155838 67.234437 
L 109.282071 67.823211 
L 112.880313 68.839761 
L 114.515877 69.059835 
L 116.151441 69.043057 
L 117.787005 68.792973 
L 119.913239 68.212999 
L 123.838593 67.07714 
L 125.474157 66.845234 
L 127.109722 66.843687 
L 128.745286 67.071099 
L 130.707963 67.575075 
L 135.451099 68.893807 
L 137.086663 69.072902 
L 138.722228 69.024188 
L 140.357792 68.757126 
L 142.484025 68.172944 
L 146.736492 66.945229 
L 148.535613 66.702885 
L 150.171177 66.711902 
L 151.806742 66.936775 
L 153.932975 67.476906 
L 159.003224 68.883614 
L 160.802345 69.074907 
L 162.437909 69.02413 
L 164.23703 68.731789 
L 166.52682 68.099705 
L 170.942843 66.813372 
L 172.741964 66.547494 
L 174.377528 66.51729 
L 176.176649 66.720284 
L 178.139326 67.174095 
L 184.845139 68.961396 
L 186.64426 69.082674 
L 188.443381 68.962408 
L 190.406058 68.581798 
L 193.02296 67.809898 
L 196.784758 66.697317 
L 198.747435 66.353589 
L 200.546556 66.265045 
L 202.345677 66.406068 
L 204.308354 66.790628 
L 207.088813 67.594583 
L 210.850611 68.662655 
L 212.813288 68.992559 
L 214.612408 69.08172 
L 216.411529 68.95245 
L 218.374206 68.584926 
L 220.991109 67.836843 
L 225.897802 66.369368 
L 228.024035 66.000413 
L 229.986712 65.89869 
L 231.949389 66.038721 
L 234.075623 66.433093 
L 236.856082 67.205799 
L 241.762775 68.603692 
L 243.889008 68.965288 
L 245.851685 69.082614 
L 247.814362 68.975508 
L 249.940596 68.622484 
L 252.393942 67.976068 
L 260.73532 65.551244 
L 262.861553 65.275041 
L 264.987787 65.22967 
L 267.114021 65.413958 
L 269.40381 65.836323 
L 272.347826 66.617814 
L 279.053639 68.490247 
L 281.506986 68.90817 
L 283.796776 69.076689 
L 286.086566 69.012417 
L 288.376356 68.721412 
L 290.829702 68.189003 
L 293.937274 67.270472 
L 305.059111 63.726374 
L 308.003127 63.159881 
L 310.783586 62.853526 
L 313.564045 62.7689 
L 316.508061 62.899485 
L 319.942745 63.287172 
L 324.195213 64.010652 
L 342.349976 67.388208 
L 347.910894 68.030151 
L 353.962482 68.49422 
L 361.158964 68.810341 
L 370.97235 68.998775 
L 388.636444 69.075431 
L 388.8 69.075607 
L 388.8 69.075607 
" style="fill:none;stroke:#000000;stroke-linecap:square;stroke-width:1.5;"/>
   </g>
   <g id="line2d_25">
    <path clip-path="url(#p3d81da98ce)" d="M 54 56.781811 
L 55.472008 56.667445 
L 57.107572 56.307184 
L 62.504934 54.899615 
L 63.976942 54.87125 
L 65.44895 55.063929 
L 67.411627 55.579264 
L 71.009868 56.593876 
L 72.481876 56.770883 
L 73.953884 56.728697 
L 75.589448 56.437892 
L 77.879238 55.760157 
L 80.496141 55.024719 
L 82.131705 54.803861 
L 83.603713 54.830725 
L 85.239277 55.102553 
L 87.365511 55.710003 
L 90.309526 56.541735 
L 91.94509 56.76407 
L 93.417098 56.743343 
L 95.052662 56.480317 
L 97.178896 55.876917 
L 100.450024 54.942855 
L 102.085589 54.726835 
L 103.557596 54.750056 
L 105.193161 55.010344 
L 107.319394 55.604559 
L 110.590523 56.534053 
L 112.226087 56.759812 
L 113.698095 56.751346 
L 115.333659 56.508733 
L 117.296336 55.977163 
L 121.22169 54.848139 
L 122.857255 54.636584 
L 124.329262 54.65504 
L 125.964827 54.90179 
L 128.09106 55.479365 
L 131.852858 56.544947 
L 133.488422 56.760986 
L 135.123986 56.739327 
L 136.759551 56.484582 
L 138.885784 55.900491 
L 142.811138 54.766312 
L 144.446702 54.538296 
L 146.082267 54.541479 
L 147.717831 54.773474 
L 149.844064 55.330968 
L 154.260088 56.569151 
L 155.895652 56.765865 
L 157.531216 56.735616 
L 159.166781 56.484237 
L 161.293014 55.911471 
L 165.709038 54.634304 
L 167.508158 54.396047 
L 169.143723 54.409545 
L 170.779287 54.638769 
L 172.90552 55.18308 
L 177.812213 56.559093 
L 179.611334 56.768654 
L 181.246898 56.735206 
L 183.046019 56.459038 
L 185.172252 55.889012 
L 190.078945 54.468988 
L 191.878065 54.22772 
L 193.51363 54.222632 
L 195.31275 54.451275 
L 197.438984 54.972172 
L 203.327015 56.59243 
L 205.126136 56.773716 
L 206.925256 56.714542 
L 208.724377 56.42533 
L 211.014167 55.808204 
L 216.411529 54.245586 
L 218.21065 53.998645 
L 220.00977 53.977316 
L 221.808891 54.182178 
L 223.935125 54.664914 
L 231.622277 56.676645 
L 233.421397 56.781767 
L 235.220518 56.667969 
L 237.183195 56.314167 
L 239.636541 55.627368 
L 245.19746 53.984603 
L 247.160137 53.673388 
L 249.122814 53.595795 
L 251.085491 53.759428 
L 253.211724 54.174736 
L 256.15574 55.012808 
L 260.571764 56.272785 
L 262.697997 56.648587 
L 264.660674 56.780894 
L 266.623351 56.688516 
L 268.749585 56.349014 
L 271.202931 55.712718 
L 279.871422 53.20986 
L 281.997655 52.953784 
L 284.123889 52.930036 
L 286.250122 53.134794 
L 288.703468 53.613897 
L 291.811041 54.468208 
L 297.699072 56.123756 
L 300.315975 56.590549 
L 302.605765 56.772389 
L 304.895554 56.721414 
L 307.185344 56.442375 
L 309.638691 55.920145 
L 312.582706 55.062349 
L 318.307181 53.092548 
L 322.232535 51.866889 
L 325.340107 51.12822 
L 328.120567 50.691587 
L 330.901026 50.480043 
L 333.845042 50.490932 
L 336.952614 50.731018 
L 340.550855 51.235842 
L 345.621104 52.196218 
L 357.23361 54.469109 
L 362.794529 55.281058 
L 368.355447 55.863983 
L 374.570591 56.285114 
L 382.257743 56.568698 
L 388.8 56.685103 
L 388.8 56.685103 
" style="fill:none;stroke:#000000;stroke-linecap:square;stroke-width:1.5;"/>
   </g>
   <g id="line2d_26">
    <path clip-path="url(#p3d81da98ce)" d="M 54 44.856961 
L 55.472008 44.739141 
L 57.107572 44.370164 
L 62.014265 43.05518 
L 63.486273 42.993093 
L 64.95828 43.161475 
L 66.757401 43.614038 
L 70.682755 44.709016 
L 72.154763 44.854665 
L 73.626771 44.771841 
L 75.262335 44.437763 
L 78.533464 43.438312 
L 80.332584 43.037682 
L 81.804592 42.927631 
L 83.2766 43.043089 
L 84.912164 43.400216 
L 90.309526 44.806054 
L 91.781534 44.844936 
L 93.253542 44.664525 
L 95.052662 44.208763 
L 99.305129 43.012705 
L 100.777137 42.864257 
L 102.249145 42.933411 
L 103.884709 43.244237 
L 106.501612 44.029321 
L 108.791402 44.640939 
L 110.426966 44.845665 
L 111.898974 44.807197 
L 113.534538 44.527039 
L 115.824328 43.859565 
L 118.768344 43.024214 
L 120.403908 42.801665 
L 121.875916 42.81876 
L 123.51148 43.073518 
L 125.637714 43.664618 
L 129.072399 44.63317 
L 130.707963 44.842083 
L 132.179971 44.816559 
L 133.815535 44.55705 
L 135.941768 43.961644 
L 139.54001 42.929147 
L 141.175574 42.711296 
L 142.647582 42.723872 
L 144.283146 42.965225 
L 146.40938 43.539425 
L 150.171177 44.611241 
L 151.806742 44.83338 
L 153.442306 44.818095 
L 155.07787 44.568605 
L 157.204104 43.987881 
L 161.129458 42.847454 
L 162.765022 42.613486 
L 164.400586 42.610429 
L 166.03615 42.83719 
L 167.998828 43.341684 
L 172.741964 44.665715 
L 174.377528 44.846727 
L 176.013092 44.799325 
L 177.648657 44.53271 
L 179.77489 43.947702 
L 184.027357 42.715102 
L 185.826478 42.470596 
L 187.462042 42.478219 
L 189.097606 42.702507 
L 191.22384 43.243228 
L 196.294089 44.655499 
L 198.09321 44.848797 
L 199.728774 44.799236 
L 201.527894 44.507307 
L 203.817684 43.874252 
L 208.233708 42.58292 
L 210.032829 42.314929 
L 211.668393 42.283308 
L 213.467513 42.485571 
L 215.430191 42.939711 
L 222.29956 44.754857 
L 224.098681 44.856114 
L 225.897802 44.715235 
L 227.860479 44.315729 
L 230.640938 43.477537 
L 234.075623 42.466755 
L 236.0383 42.120748 
L 237.837421 42.030611 
L 239.636541 42.170781 
L 241.599218 42.555401 
L 244.379678 43.361104 
L 248.141475 44.433367 
L 250.104152 44.765437 
L 251.903273 44.856118 
L 253.702394 44.727688 
L 255.665071 44.360167 
L 258.118417 43.662738 
L 263.352223 42.100764 
L 265.478456 41.748661 
L 267.441133 41.665643 
L 269.40381 41.824416 
L 271.530044 42.235918 
L 274.310503 43.021618 
L 279.053639 44.374243 
L 281.179873 44.738019 
L 283.14255 44.85687 
L 285.105227 44.750611 
L 287.231461 44.397618 
L 289.684807 43.750107 
L 298.026185 41.316668 
L 300.152418 41.038547 
L 302.278652 40.991894 
L 304.404885 41.175673 
L 306.694675 41.598392 
L 309.638691 42.381568 
L 316.508061 44.29529 
L 318.961407 44.7003 
L 321.251197 44.853991 
L 323.540987 44.77386 
L 325.830777 44.467507 
L 328.44768 43.877447 
L 331.555252 42.934682 
L 341.859306 39.604454 
L 344.803322 38.995573 
L 347.583781 38.647519 
L 350.36424 38.523514 
L 353.308256 38.61811 
L 356.579384 38.951933 
L 360.504739 39.583087 
L 367.046996 40.901307 
L 374.897704 42.422948 
L 380.458622 43.265107 
L 386.019541 43.876427 
L 388.8 44.103353 
L 388.8 44.103353 
" style="fill:none;stroke:#000000;stroke-linecap:square;stroke-width:1.5;"/>
   </g>
   <g id="line2d_27">
    <path clip-path="url(#p3d81da98ce)" d="M 54 252 
L 388.8 34.56 
L 388.8 34.56 
" style="fill:none;stroke:#000000;stroke-linecap:square;stroke-width:1.5;"/>
   </g>
   <g id="patch_3">
    <path d="M 54 252 
L 54 34.56 
" style="fill:none;stroke:#000000;stroke-linecap:square;stroke-linejoin:miter;stroke-width:0.8;"/>
   </g>
   <g id="patch_4">
    <path d="M 388.8 252 
L 388.8 34.56 
" style="fill:none;stroke:#000000;stroke-linecap:square;stroke-linejoin:miter;stroke-width:0.8;"/>
   </g>
   <g id="patch_5">
    <path d="M 54 252 
L 388.8 252 
" style="fill:none;stroke:#000000;stroke-linecap:square;stroke-linejoin:miter;stroke-width:0.8;"/>
   </g>
   <g id="patch_6">
    <path d="M 54 34.56 
L 388.8 34.56 
" style="fill:none;stroke:#000000;stroke-linecap:square;stroke-linejoin:miter;stroke-width:0.8;"/>
   </g>
   <g id="text_17">
    <!-- Probability densities of the quantum bouncing ball -->
    <defs>
     <path d="M 19.796875 32 
L 35.796875 32 
C 48.703125 32 58.09375 40.359375 58.09375 49.796875 
C 58.09375 59.234375 48.90625 68 35.796875 68 
L 5.203125 68 
L 5.203125 65.390625 
C 12.09375 65.390625 13.203125 65.390625 13.203125 60.921875 
L 13.203125 7.078125 
C 13.203125 2.59375 12.09375 2.59375 5.203125 2.59375 
L 5.203125 0 
C 8.09375 0.1875 13.40625 0.1875 16.5 0.1875 
C 19.59375 0.1875 24.90625 0.1875 27.796875 0 
L 27.796875 2.59375 
C 20.90625 2.59375 19.796875 2.59375 19.796875 7.078125 
z
M 19.59375 34.09375 
L 19.59375 61.515625 
C 19.59375 64.890625 19.796875 65.390625 23.796875 65.390625 
L 33.90625 65.390625 
C 46.796875 65.390625 50.5 58.046875 50.5 49.796875 
C 50.5 40.75 46.09375 34.09375 33.90625 34.09375 
z
" id="CMR17-80"/>
     <path d="M 43.09375 21.1875 
C 43.09375 34 33.796875 44 22.90625 44 
C 12 44 2.703125 34 2.703125 21.1875 
C 2.703125 8.59375 12 -1 22.90625 -1 
C 33.796875 -1 43.09375 8.59375 43.09375 21.1875 
z
M 22.90625 0.796875 
C 18.203125 0.796875 14.203125 3.59375 11.90625 7.5 
C 9.40625 12 9.09375 17.59375 9.09375 22 
C 9.09375 26.1875 9.296875 31.390625 11.90625 35.890625 
C 13.90625 39.1875 17.796875 42.390625 22.90625 42.390625 
C 27.40625 42.390625 31.203125 39.890625 33.59375 36.390625 
C 36.703125 31.6875 36.703125 25.09375 36.703125 22 
C 36.703125 18.09375 36.5 12.09375 33.796875 7.296875 
C 31 2.6875 26.703125 0.796875 22.90625 0.796875 
z
" id="CMR17-111"/>
     <path d="M 15 69 
L 3.09375 67.890625 
L 3.09375 65.296875 
C 9 65.296875 9.90625 64.703125 9.90625 60.046875 
L 9.90625 -0.203125 
L 11.703125 -0.203125 
L 14.59375 6.953125 
C 17.5 2.203125 21.796875 -1 27.59375 -1 
C 37.59375 -1 47.703125 7.859375 47.703125 21.59375 
C 47.703125 34.515625 38.703125 44 28.59375 44 
C 22.40625 44 18 40.671875 15 36.734375 
z
M 15.203125 31.59375 
C 15.203125 33.40625 15.203125 33.703125 16.59375 35.828125 
C 20.5 41.890625 26.09375 42.390625 28 42.390625 
C 31 42.390625 41.296875 40.78125 41.296875 21.6875 
C 41.296875 1.703125 29.5 0.59375 27.09375 0.59375 
C 24 0.59375 19.5 1.796875 16.296875 7.65625 
C 15.203125 9.578125 15.203125 9.78125 15.203125 11.59375 
z
" id="CMR17-98"/>
     <path d="M 36 25.875 
C 36 32 36 35.546875 31.796875 39.59375 
C 28.09375 42.984375 23.796875 44 20.40625 44 
C 12.5 44 6.796875 37.625 6.796875 30.890625 
C 6.796875 27.1875 9.796875 27 10.40625 27 
C 11.703125 27 14 27.796875 14 30.59375 
C 14 33.09375 12.09375 34.1875 10.40625 34.1875 
C 10 34.1875 9.5 34.09375 9.203125 34 
C 11.296875 40.53125 16.703125 42.390625 20.203125 42.390625 
C 25.203125 42.390625 30.703125 37.828125 30.703125 29.296875 
L 30.703125 25.5 
C 24.796875 25.296875 17.703125 24.5 12.09375 21.453125 
C 5.796875 17.921875 4 12.84375 4 9 
C 4 1.203125 13 -1 18.296875 -1 
C 23.796875 -1 28.90625 2.109375 31.09375 7.890625 
C 31.296875 3.421875 34.09375 -0.609375 38.5 -0.609375 
C 40.59375 -0.609375 45.90625 0.796875 45.90625 8.796875 
L 45.90625 14.46875 
L 44.09375 14.46875 
L 44.09375 8.703125 
C 44.09375 2.515625 41.40625 1.703125 40.09375 1.703125 
C 36 1.703125 36 6.96875 36 11.4375 
z
M 30.703125 13.859375 
C 30.703125 5.046875 24.5 0.59375 19 0.59375 
C 14 0.59375 10.09375 4.34375 10.09375 9 
C 10.09375 12.046875 11.40625 17.40625 17.203125 20.65625 
C 22 23.390625 27.5 23.796875 30.703125 24 
z
" id="CMR17-97"/>
     <path d="M 15.5 61.890625 
C 15.5 64.09375 13.703125 66 11.40625 66 
C 9.203125 66 7.296875 64.1875 7.296875 61.890625 
C 7.296875 59.6875 9.09375 57.796875 11.40625 57.796875 
C 13.59375 57.796875 15.5 59.59375 15.5 61.890625 
z
M 3.796875 42.890625 
L 3.796875 40.296875 
C 9.40625 40.296875 10.203125 39.6875 10.203125 34.859375 
L 10.203125 6.921875 
C 10.203125 3.09375 9.796875 2.59375 3.40625 2.59375 
L 3.40625 0 
C 5.796875 0.1875 10.09375 0.1875 12.59375 0.1875 
C 15 0.1875 19.09375 0.1875 21.40625 0 
L 21.40625 2.59375 
C 15.5 2.59375 15.296875 3.203125 15.296875 6.8125 
L 15.296875 44 
z
" id="CMR17-105"/>
     <path d="M 15.296875 69 
L 3.40625 67.890625 
L 3.40625 65.296875 
C 9.296875 65.296875 10.203125 64.703125 10.203125 59.921875 
L 10.203125 6.859375 
C 10.203125 3.09375 9.796875 2.59375 3.40625 2.59375 
L 3.40625 0 
C 5.796875 0.1875 10.203125 0.1875 12.703125 0.1875 
C 15.296875 0.1875 19.703125 0.1875 22.09375 0 
L 22.09375 2.59375 
C 15.703125 2.59375 15.296875 2.984375 15.296875 6.859375 
z
" id="CMR17-108"/>
     <path d="M 15.09375 40.390625 
L 29.09375 40.390625 
L 29.09375 43 
L 15.09375 43 
L 15.09375 62 
L 13.296875 62 
C 13.09375 51.4375 9.59375 42.1875 1.09375 41.984375 
L 1.09375 40.390625 
L 9.796875 40.390625 
L 9.796875 12.15625 
C 9.796875 10.234375 9.796875 -1 21.40625 -1 
C 27.296875 -1 30.703125 4.8125 30.703125 12.25 
L 30.703125 17.984375 
L 28.90625 17.984375 
L 28.90625 12.34375 
C 28.90625 5.421875 26.203125 0.796875 22 0.796875 
C 19.09375 0.796875 15.09375 2.796875 15.09375 11.953125 
z
" id="CMR17-116"/>
     <path d="M 29.203125 67.890625 
L 29.203125 65.296875 
C 35.09375 65.296875 36 64.703125 36 60.046875 
L 36 37.046875 
C 35.59375 37.546875 31.5 44 23.40625 44 
C 13.203125 44 3.296875 34.8125 3.296875 21.5 
C 3.296875 8.265625 12.59375 -1 22.40625 -1 
C 30.90625 -1 35.296875 5.640625 35.796875 6.34375 
L 35.796875 -1 
L 47.90625 -0.203125 
L 47.90625 2.40625 
C 42 2.40625 41.09375 3.015625 41.09375 7.859375 
L 41.09375 69 
z
M 35.796875 11.90625 
C 35.796875 8.875 34 6.140625 31.703125 4.125 
C 28.296875 1.09375 24.90625 0.59375 23 0.59375 
C 20.09375 0.59375 9.703125 2.109375 9.703125 21.390625 
C 9.703125 41.1875 21.296875 42.390625 23.90625 42.390625 
C 28.5 42.390625 32.203125 39.765625 34.5 36.140625 
C 35.796875 34.015625 35.796875 33.703125 35.796875 31.890625 
z
" id="CMR17-100"/>
     <path d="M 30.90625 42 
C 30.90625 43.796875 30.796875 43.890625 30.203125 43.890625 
C 29.796875 43.890625 29.703125 43.796875 28.5 42.296875 
C 28.203125 41.890625 27.296875 40.890625 27 40.5 
C 23.796875 43.890625 19.296875 44 17.59375 44 
C 6.5 44 2.5 38.1875 2.5 32.390625 
C 2.5 23.390625 12.703125 21.296875 15.59375 20.6875 
C 21.90625 19.390625 24.09375 19 26.203125 17.1875 
C 27.5 16 29.703125 13.796875 29.703125 10.1875 
C 29.703125 6 27.296875 0.59375 18.09375 0.59375 
C 9.40625 0.59375 6.296875 7.1875 4.5 16 
C 4.203125 17.390625 4.203125 17.5 3.40625 17.5 
C 2.59375 17.5 2.5 17.390625 2.5 15.390625 
L 2.5 1 
C 2.5 -0.8125 2.59375 -0.90625 3.203125 -0.90625 
C 3.703125 -0.90625 3.796875 -0.8125 4.296875 0 
C 4.90625 0.890625 6.40625 3.296875 7 4.296875 
C 9 1.59375 12.5 -1 18.09375 -1 
C 28 -1 33.296875 4.390625 33.296875 12.1875 
C 33.296875 17.296875 30.59375 20 29.296875 21.1875 
C 26.296875 24.296875 22.796875 25 18.59375 25.796875 
C 13.09375 27 6.09375 28.390625 6.09375 34.5 
C 6.09375 37.09375 7.5 42.59375 17.59375 42.59375 
C 28.296875 42.59375 28.90625 32.59375 29.09375 29.390625 
C 29.203125 28.890625 29.703125 28.796875 30 28.796875 
C 30.90625 28.796875 30.90625 29.09375 30.90625 30.796875 
z
" id="CMR17-115"/>
     <path d="M 15.296875 40.390625 
L 26.703125 40.390625 
L 26.703125 43 
L 15.09375 43 
L 15.09375 55.296875 
C 15.09375 63.6875 19.296875 68.390625 23.59375 68.390625 
C 24.90625 68.390625 26.40625 68.171875 27.40625 67.796875 
C 26.59375 67.59375 24.5 66.890625 24.5 64.390625 
C 24.5 61.796875 26.5 61 27.90625 61 
C 29.296875 61 31.296875 61.796875 31.296875 64.390625 
C 31.296875 68.015625 27.703125 70 23.703125 70 
C 18 70 10.203125 65.796875 10.203125 55.09375 
L 10.203125 43 
L 2.203125 43 
L 2.203125 40.390625 
L 10.203125 40.390625 
L 10.203125 6.890625 
C 10.203125 3.09375 9.796875 2.59375 3.40625 2.59375 
L 3.40625 0 
C 5.796875 0.1875 10.40625 0.1875 13 0.1875 
C 15.90625 0.1875 21 0.1875 23.703125 0 
L 23.703125 2.59375 
C 16.5 2.59375 15.296875 2.59375 15.296875 7.09375 
z
" id="CMR17-102"/>
     <path d="M 41.5 30.53125 
C 41.5 35.65625 40.5 44 28.703125 44 
C 20.5 44 16.5 37.375 15.296875 34.046875 
L 15.203125 34.046875 
L 15.203125 69 
L 3.296875 67.890625 
L 3.296875 65.296875 
C 9.203125 65.296875 10.09375 64.703125 10.09375 60.046875 
L 10.09375 6.921875 
C 10.09375 3.09375 9.703125 2.59375 3.296875 2.59375 
L 3.296875 0 
C 5.703125 0.1875 10.09375 0.1875 12.703125 0.1875 
C 15.296875 0.1875 19.796875 0.1875 22.203125 0 
L 22.203125 2.59375 
C 15.796875 2.59375 15.40625 3 15.40625 6.921875 
L 15.40625 26.21875 
C 15.40625 35.453125 21 42.390625 28 42.390625 
C 35.40625 42.390625 36.203125 35.765625 36.203125 30.9375 
L 36.203125 6.921875 
C 36.203125 3.09375 35.796875 2.59375 29.40625 2.59375 
L 29.40625 0 
C 31.796875 0.1875 36.203125 0.1875 38.796875 0.1875 
C 41.40625 0.1875 45.90625 0.1875 48.296875 0 
L 48.296875 2.59375 
C 41.90625 2.59375 41.5 3 41.5 6.921875 
z
" id="CMR17-104"/>
     <path d="M 41.09375 44 
L 39.5 44 
L 36.5 34.015625 
C 34.203125 39.359375 30 44 23.296875 44 
C 13.09375 44 3.296875 34.8125 3.296875 21.5 
C 3.296875 8.265625 12.5 -1 22.5 -1 
C 30.203125 -1 34.5 4.9375 35.796875 7.15625 
L 35.796875 -13.03125 
C 35.796875 -16.890625 35.40625 -17.40625 29 -17.40625 
L 29 -20 
C 31.40625 -19.8125 35.796875 -19.8125 38.40625 -19.8125 
C 41 -19.8125 45.5 -19.8125 47.90625 -20 
L 47.90625 -17.40625 
C 41.5 -17.40625 41.09375 -17 41.09375 -13.03125 
z
M 36 13.609375 
C 36 9.28125 32.40625 5.234375 32.09375 4.9375 
C 29 1.40625 25.40625 0.59375 23 0.59375 
C 15.5 0.59375 9.703125 10.1875 9.703125 21.390625 
C 9.703125 33.203125 16.296875 42.1875 24 42.1875 
C 32 42.1875 36 33 36 27.75 
z
" id="CMR17-113"/>
     <path d="M 29.40625 42.890625 
L 29.40625 40.296875 
C 35.296875 40.296875 36.203125 39.6875 36.203125 34.828125 
L 36.203125 16.453125 
C 36.203125 7.96875 31.703125 0.59375 24.296875 0.59375 
C 16.09375 0.59375 15.40625 5.546875 15.40625 10.796875 
L 15.40625 44 
L 3.296875 42.890625 
L 3.296875 40.296875 
C 7.296875 40.296875 10 40.296875 10.09375 36.25 
L 10.09375 16.859375 
C 10.09375 10.09375 10.09375 5.75 12.703125 2.921875 
C 14 1.609375 16.5 -1 23.703125 -1 
C 32.203125 -1 35.5 6.25 36.296875 8.375 
L 36.40625 8.375 
L 36.40625 -1 
L 48.296875 -0.203125 
L 48.296875 2.40625 
C 42.40625 2.40625 41.5 3.015625 41.5 7.859375 
L 41.5 44 
z
" id="CMR17-117"/>
     <path d="M 67.59375 30.53125 
C 67.59375 35.5625 66.703125 44 54.796875 44 
C 48 44 43.296875 39.375 41.5 33.953125 
L 41.40625 33.953125 
C 40.203125 42.1875 34.296875 44 28.703125 44 
C 20.796875 44 16.703125 37.875 15.203125 33.84375 
L 15.09375 33.84375 
L 15.09375 44 
L 3.296875 42.890625 
L 3.296875 40.28125 
C 9.203125 40.28125 10.09375 39.6875 10.09375 34.859375 
L 10.09375 6.921875 
C 10.09375 3.09375 9.703125 2.59375 3.296875 2.59375 
L 3.296875 0 
C 5.703125 0.1875 10.09375 0.1875 12.703125 0.1875 
C 15.296875 0.1875 19.796875 0.1875 22.203125 0 
L 22.203125 2.59375 
C 15.796875 2.59375 15.40625 3 15.40625 6.921875 
L 15.40625 26.21875 
C 15.40625 35.453125 21 42.390625 28 42.390625 
C 35.40625 42.390625 36.203125 35.765625 36.203125 30.9375 
L 36.203125 6.921875 
C 36.203125 3.09375 35.796875 2.59375 29.40625 2.59375 
L 29.40625 0 
C 31.796875 0.1875 36.203125 0.1875 38.796875 0.1875 
C 41.40625 0.1875 45.90625 0.1875 48.296875 0 
L 48.296875 2.59375 
C 41.90625 2.59375 41.5 3 41.5 6.921875 
L 41.5 26.21875 
C 41.5 35.453125 47.09375 42.390625 54.09375 42.390625 
C 61.5 42.390625 62.296875 35.765625 62.296875 30.9375 
L 62.296875 6.921875 
C 62.296875 3.09375 61.90625 2.59375 55.5 2.59375 
L 55.5 0 
C 57.90625 0.1875 62.296875 0.1875 64.90625 0.1875 
C 67.5 0.1875 72 0.1875 74.40625 0 
L 74.40625 2.59375 
C 68 2.59375 67.59375 3 67.59375 6.921875 
z
" id="CMR17-109"/>
     <path d="M 34.90625 35 
C 33 35 30.203125 35 30.203125 31.484375 
C 30.203125 28.6875 32.5 27.890625 33.796875 27.890625 
C 34.5 27.890625 37.40625 28.1875 37.40625 31.6875 
C 37.40625 38.6875 30.59375 44 22.90625 44 
C 12.296875 44 3.296875 34.390625 3.296875 21.546875 
C 3.296875 8.140625 12.703125 -1 22.90625 -1 
C 35.296875 -1 38.40625 10.5625 38.40625 11.671875 
C 38.40625 12.078125 38.296875 12.375 37.59375 12.375 
C 36.90625 12.375 36.796875 12.28125 36.40625 10.96875 
C 33.796875 2.8125 28.09375 0.796875 23.796875 0.796875 
C 17.40625 0.796875 9.703125 6.734375 9.703125 21.640625 
C 9.703125 36.84375 17.09375 42.1875 23 42.1875 
C 26.90625 42.1875 32.703125 40.34375 34.90625 35 
z
" id="CMR17-99"/>
    </defs>
    <g transform="translate(38.648345 28.56)scale(0.168 -0.168)">
     <use transform="scale(0.996264)" xlink:href="#CMR17-80"/>
     <use transform="translate(62.586301 0)scale(0.996264)" xlink:href="#CMR17-114"/>
     <use transform="translate(97.867068 0)scale(0.996264)" xlink:href="#CMR17-111"/>
     <use transform="translate(143.557545 0)scale(0.996264)" xlink:href="#CMR17-98"/>
     <use transform="translate(194.452915 0)scale(0.996264)" xlink:href="#CMR17-97"/>
     <use transform="translate(240.143392 0)scale(0.996264)" xlink:href="#CMR17-98"/>
     <use transform="translate(291.038762 0)scale(0.996264)" xlink:href="#CMR17-105"/>
     <use transform="translate(315.909821 0)scale(0.996264)" xlink:href="#CMR17-108"/>
     <use transform="translate(340.780879 0)scale(0.996264)" xlink:href="#CMR17-105"/>
     <use transform="translate(365.651938 0)scale(0.996264)" xlink:href="#CMR17-116"/>
     <use transform="translate(398.330251 0)scale(0.996264)" xlink:href="#CMR17-121"/>
     <use transform="translate(476.699134 0)scale(0.996264)" xlink:href="#CMR17-100"/>
     <use transform="translate(527.594503 0)scale(0.996264)" xlink:href="#CMR17-101"/>
     <use transform="translate(568.080164 0)scale(0.996264)" xlink:href="#CMR17-110"/>
     <use transform="translate(618.975534 0)scale(0.996264)" xlink:href="#CMR17-115"/>
     <use transform="translate(654.776871 0)scale(0.996264)" xlink:href="#CMR17-105"/>
     <use transform="translate(679.64793 0)scale(0.996264)" xlink:href="#CMR17-116"/>
     <use transform="translate(714.928698 0)scale(0.996264)" xlink:href="#CMR17-105"/>
     <use transform="translate(739.799756 0)scale(0.996264)" xlink:href="#CMR17-101"/>
     <use transform="translate(780.285417 0)scale(0.996264)" xlink:href="#CMR17-115"/>
     <use transform="translate(846.16272 0)scale(0.996264)" xlink:href="#CMR17-111"/>
     <use transform="translate(891.853198 0)scale(0.996264)" xlink:href="#CMR17-102"/>
     <use transform="translate(949.402676 0)scale(0.996264)" xlink:href="#CMR17-116"/>
     <use transform="translate(984.683444 0)scale(0.996264)" xlink:href="#CMR17-104"/>
     <use transform="translate(1035.578814 0)scale(0.996264)" xlink:href="#CMR17-101"/>
     <use transform="translate(1106.140441 0)scale(0.996264)" xlink:href="#CMR17-113"/>
     <use transform="translate(1154.433357 0)scale(0.996264)" xlink:href="#CMR17-117"/>
     <use transform="translate(1205.328726 0)scale(0.996264)" xlink:href="#CMR17-97"/>
     <use transform="translate(1251.019203 0)scale(0.996264)" xlink:href="#CMR17-110"/>
     <use transform="translate(1299.312119 0)scale(0.996264)" xlink:href="#CMR17-116"/>
     <use transform="translate(1334.592887 0)scale(0.996264)" xlink:href="#CMR17-117"/>
     <use transform="translate(1385.488257 0)scale(0.996264)" xlink:href="#CMR17-109"/>
     <use transform="translate(1492.483813 0)scale(0.996264)" xlink:href="#CMR17-98"/>
     <use transform="translate(1545.981622 0)scale(0.996264)" xlink:href="#CMR17-111"/>
     <use transform="translate(1591.672099 0)scale(0.996264)" xlink:href="#CMR17-117"/>
     <use transform="translate(1642.567469 0)scale(0.996264)" xlink:href="#CMR17-110"/>
     <use transform="translate(1693.462838 0)scale(0.996264)" xlink:href="#CMR17-99"/>
     <use transform="translate(1733.948499 0)scale(0.996264)" xlink:href="#CMR17-105"/>
     <use transform="translate(1758.819557 0)scale(0.996264)" xlink:href="#CMR17-110"/>
     <use transform="translate(1809.714927 0)scale(0.996264)" xlink:href="#CMR17-103"/>
     <use transform="translate(1885.481371 0)scale(0.996264)" xlink:href="#CMR17-98"/>
     <use transform="translate(1936.37674 0)scale(0.996264)" xlink:href="#CMR17-97"/>
     <use transform="translate(1982.067217 0)scale(0.996264)" xlink:href="#CMR17-108"/>
     <use transform="translate(2006.938276 0)scale(0.996264)" xlink:href="#CMR17-108"/>
    </g>
   </g>
  </g>
 </g>
 <defs>
  <clipPath id="p3d81da98ce">
   <rect height="217.44" width="334.8" x="54" y="34.56"/>
  </clipPath>
 </defs>
</svg>
